<?xml version="1.0" standalone="no"?>
<!DOCTYPE svg PUBLIC "-//W3C//DTD SVG 20010904//EN"
 "http://www.w3.org/TR/2001/REC-SVG-20010904/DTD/svg10.dtd">
<svg version="1.0" xmlns="http://www.w3.org/2000/svg"
 width="200.000000pt" height="200.000000pt" viewBox="0 0 200.000000 200.000000"
 preserveAspectRatio="xMidYMid meet">

<g transform="translate(0.000000,200.000000) scale(0.100000,-0.100000)"
fill="#ffffff" stroke="none">
<path d="M833 1946 c-204 -39 -366 -125 -513 -275 -129 -130 -212 -278 -257
-457 -24 -95 -24 -333 0 -428 46 -182 128 -328 261 -462 134 -133 280 -215
462 -261 95 -24 333 -24 428 0 185 46 324 125 461 262 137 137 216 276 262
461 24 95 24 333 0 428 -46 185 -125 324 -262 461 -136 136 -277 216 -456 260
-90 22 -296 28 -386 11z m242 -737 c154 -83 290 -157 303 -165 25 -16 30 -65
10 -82 -13 -9 -429 -236 -556 -302 -59 -31 -63 -31 -87 -16 l-25 16 0 340 c0
339 0 339 22 354 12 9 29 14 38 11 9 -3 142 -73 295 -156z"/>
</g>
</svg>
