<?xml version="1.0" encoding="UTF-8"?>
<!DOCTYPE svg PUBLIC "-//W3C//DTD SVG 1.1//EN" "http://www.w3.org/Graphics/SVG/1.1/DTD/svg11.dtd">
<!-- Creator: CorelDRAW X8 -->
<svg xmlns="http://www.w3.org/2000/svg" xml:space="preserve" width="3.14961in" height="0.744945in" version="1.1" style="shape-rendering:geometricPrecision; text-rendering:geometricPrecision; image-rendering:optimizeQuality; fill-rule:evenodd; clip-rule:evenodd"
viewBox="0 0 3150 745"
 xmlns:xlink="http://www.w3.org/1999/xlink">
 <defs>
  <style>
      .fil0 { fill: #FEFEFE; }
    </style>
 </defs>
 <g id="Capa_x0020_1">
  <metadata id="CorelCorpID_0Corel-Layer"/>
  <path class="fil0" d="M2528 535l-117 0c-89,0 -163,-73 -163,-163l0 0c0,-89 74,-162 163,-162l30 0 16 57 -46 0c-58,0 -105,48 -105,105l0 0c0,58 47,105 105,105l44 0 -23 -86 58 0 23 86 0 0 15 58zm-2192 -532l152 88 0 0 153 88 0 0c6,3 10,10 10,17l0 0 0 176 0 177 0 0c-1,7 -5,14 -10,17l0 0 -153 88 0 0 -152 88 0 0c-3,2 -7,3 -11,3 -3,0 -7,-1 -10,-3l0 0 -152 -88 0 0 -153 -88 0 0c-6,-3 -10,-10 -10,-17l0 0 0 -177 0 -176 0 0c0,-7 4,-14 10,-17l0 0 153 -88 0 0 152 -88 0 0c3,-2 7,-3 10,-3 4,0 8,1 11,3l0 0zm153 244c-6,-10 -2,-22 7,-28 10,-5 22,-2 28,8l37 64c0,1 1,2 1,3l38 64c2,4 3,9 3,14 0,4 -1,8 -2,11 -1,2 -2,4 -3,5l-37 64 1 0 -38 66c-6,10 -18,13 -28,7 -10,-5 -13,-17 -7,-27l38 -66 0 0 34 -60 -72 -125zm-327 0c5,-10 2,-22 -8,-28 -9,-5 -22,-2 -27,8l-37 64c-1,1 -1,2 -2,3l-37 64c-2,4 -4,9 -4,14 0,4 1,8 3,11 0,2 1,4 2,5l37 64 0 0 38 66c6,10 18,13 28,7 9,-5 13,-17 7,-27l-38 -66 0 0 -35 -60 73 -125zm154 -44c-3,2 -6,5 -8,8l0 0 0 0c0,0 0,0 -1,1l-78 135c0,0 0,0 0,0l0 0 0 0c-2,3 -3,7 -3,10 0,2 1,4 1,6l0 0 0 0c0,0 0,1 0,1l44 137 0 21 0 0c1,11 10,19 20,20l0 0 34 0 34 0 0 0c11,-1 20,-9 20,-20l0 0 0 -21 44 -137c0,0 0,-1 0,-1l0 0 0 0c1,-2 1,-4 1,-6 0,-3 -1,-7 -2,-10l0 0 0 0c0,0 0,0 -1,0l-78 -135c0,-1 0,-1 -1,-1l0 0 0 0c-1,-3 -4,-6 -7,-8l0 150c6,4 11,10 11,18 0,12 -9,21 -21,21 -11,0 -20,-9 -20,-21 0,-8 4,-14 11,-18l0 -150zm2552 332l119 0c90,0 163,-73 163,-163l0 0c0,-89 -73,-162 -163,-162l-32 0 -15 57 47 0c58,0 105,48 105,105l0 0c0,58 -47,105 -105,105l-45 0 23 -86 -58 0 -23 86 0 0 -16 58zm-205 1l-2 0 -56 0 0 0 87 -327 58 0 -87 327zm130 0l-58 0 88 -327 58 0 -88 327zm-197 -246l-22 -81 -58 0 51 189 29 -108zm-1634 4c-8,21 -12,47 -12,78 0,17 1,31 3,44 2,13 5,25 9,35 4,10 9,20 14,28 5,8 11,15 18,21 6,7 13,12 21,16l0 0c8,5 16,9 25,11l0 0c19,6 39,9 61,9 11,0 21,-1 31,-2 10,-2 20,-4 29,-7l0 0c9,-2 17,-6 25,-11l0 0c8,-4 15,-10 22,-16l0 0c7,-6 13,-13 18,-21 5,-8 10,-18 14,-28 4,-10 7,-22 9,-35 2,-13 3,-27 3,-44 0,-16 -1,-30 -3,-43 -2,-13 -5,-25 -9,-35l0 0c-4,-10 -9,-20 -14,-28 -6,-8 -11,-15 -18,-21 -7,-7 -14,-12 -22,-16 -8,-5 -16,-9 -25,-11 -9,-3 -19,-5 -29,-7 -10,-1 -20,-2 -31,-2 -11,0 -22,1 -32,2 -10,2 -19,4 -29,7 -9,2 -17,6 -25,11 -8,4 -15,9 -21,15l0 1c-7,6 -13,13 -18,21 -5,8 -10,18 -14,28zm-196 210l-41 0 0 24 41 0c11,0 21,0 30,-1 10,-1 19,-3 28,-5l0 0c17,-4 31,-11 44,-20 6,-5 11,-10 16,-16 5,-6 9,-13 13,-21 7,-15 11,-34 11,-58l0 -190 -35 0 0 190c0,9 0,17 -2,24 -1,8 -3,15 -6,21l0 0c-3,7 -7,12 -11,18 -4,5 -8,9 -14,13 -5,4 -10,7 -16,10l0 0c-6,3 -12,5 -19,7 -6,1 -12,2 -19,3l0 0c-6,1 -13,1 -20,1zm722 -287l-188 0 0 311 34 0 0 -116 0 -17 17 0 94 0 10 0 5 9 69 124 39 0 -63 -110 -12 -21 23 -4c5,-2 10,-3 15,-4 4,-2 8,-4 13,-6 3,-2 7,-4 10,-7 3,-2 7,-5 9,-9l0 0c3,-3 6,-7 8,-11 2,-4 4,-9 6,-14l0 0c1,-6 3,-11 3,-18 1,-6 2,-13 2,-21 0,-9 -1,-16 -2,-23 -1,-7 -3,-13 -6,-19l1 0c-3,-5 -6,-10 -9,-14 -3,-5 -6,-8 -10,-11l0 0c-5,-4 -9,-6 -14,-9 -5,-2 -10,-4 -16,-6 -6,-1 -12,-3 -18,-3 -6,-1 -13,-1 -20,-1zm41 138c-12,10 -25,15 -41,15l-137 0 -17 0 0 -17 0 -95 0 -17 17 0 137 0c7,0 15,1 21,3 7,3 14,6 19,11l0 0c7,5 12,12 15,21l0 0c3,8 4,17 4,27 0,11 -1,21 -3,29l-1 0c-3,10 -7,18 -14,23l0 0zm197 171c8,2 17,2 27,2l151 0 0 -168 -104 0 0 25 52 0 18 0 0 17 0 84 0 18 -18 0 -89 0c-7,0 -14,-1 -21,-2 -6,-1 -13,-2 -19,-4 -7,-3 -14,-6 -20,-10l0 0c-6,-4 -11,-8 -16,-14l0 0c-5,-5 -10,-11 -14,-18 -3,-7 -6,-15 -9,-23 -3,-8 -5,-18 -6,-28 -1,-10 -2,-21 -2,-33 0,-11 1,-22 2,-32l0 0c1,-10 3,-20 6,-28 3,-8 6,-16 9,-23 4,-7 9,-13 14,-18 5,-6 10,-11 16,-14 6,-4 13,-7 20,-10 13,-4 26,-6 40,-6l141 0 0 -24 -151 0c-10,0 -19,0 -27,2 -9,1 -17,3 -25,6 -8,2 -15,6 -22,10 -7,4 -13,9 -19,15 -11,12 -21,27 -28,47 -3,10 -6,21 -7,34 -2,12 -3,26 -3,41 0,16 1,30 3,42 1,13 4,24 7,34 7,20 17,35 28,47 6,6 12,11 19,15 7,4 14,8 22,10 8,3 16,5 25,6zm330 0c8,2 17,2 27,2l111 0 0 -24 -101 0c-6,0 -13,0 -19,-1 -6,-1 -12,-2 -17,-4l0 0c-6,-2 -12,-4 -17,-7l0 0c-5,-3 -11,-6 -15,-10 -5,-4 -10,-9 -14,-14 -4,-5 -8,-11 -11,-17 -3,-7 -6,-14 -8,-22 -2,-8 -4,-16 -5,-25l-2 -19 20 0 189 0 0 -25 -189 0 -20 0 2 -19c1,-9 3,-17 5,-25 2,-8 5,-15 8,-22 3,-6 7,-12 11,-17 4,-5 9,-10 14,-14 4,-4 10,-7 15,-10l0 0c5,-3 11,-5 17,-7l0 0c11,-3 23,-5 36,-5l101 0 0 -24 -111 0c-10,0 -19,0 -27,2 -9,1 -17,3 -26,6 -7,2 -14,6 -21,10 -7,4 -13,9 -19,15 -12,12 -21,27 -28,47 -3,10 -6,21 -8,34 -2,12 -3,26 -3,41 0,16 1,30 3,42 2,13 5,24 8,34 7,20 16,35 28,47 6,6 12,11 19,15 7,4 14,8 21,10 9,3 17,5 26,6zm-933 -16c-7,1 -14,1 -22,1 -8,0 -15,0 -23,-1 -7,-1 -14,-3 -21,-5 -8,-2 -15,-6 -21,-10 -6,-4 -12,-9 -18,-14l0 0c-6,-6 -10,-13 -15,-20 -4,-7 -7,-15 -10,-24 -6,-18 -9,-39 -9,-65 0,-12 1,-23 3,-34 1,-11 3,-21 6,-30 3,-9 6,-17 10,-24 5,-7 10,-14 15,-20 6,-6 12,-10 18,-14 7,-4 14,-8 21,-10l0 0c7,-2 14,-4 21,-5 8,-1 15,-2 23,-2 8,0 15,1 22,2 8,1 15,3 22,5l0 0c7,2 14,6 21,10 6,4 12,8 18,14 10,11 19,26 25,44 3,9 5,19 7,30 1,11 2,22 2,34 0,13 -1,24 -2,35 -2,11 -4,21 -7,30 -3,9 -7,17 -11,24 -4,8 -9,14 -14,20 -6,5 -12,10 -18,14 -7,4 -14,8 -21,10 -7,2 -14,4 -22,5z"/>
 </g>
</svg>
