<?xml version="1.0" encoding="UTF-8"?>
<!DOCTYPE svg PUBLIC "-//W3C//DTD SVG 1.1//EN" "http://www.w3.org/Graphics/SVG/1.1/DTD/svg11.dtd">
<!-- Creator: CorelDRAW X8 -->
<svg xmlns="http://www.w3.org/2000/svg" xml:space="preserve" width="6.66666in" height="0.263181in" version="1.1" style="shape-rendering:geometricPrecision; text-rendering:geometricPrecision; image-rendering:optimizeQuality; fill-rule:evenodd; clip-rule:evenodd"
viewBox="0 0 6667 263"
 xmlns:xlink="http://www.w3.org/1999/xlink">
 <defs>
  <style type="text/css">
   <![CDATA[
    .fil0 {fill:#00AFEF;fill-rule:nonzero}
   ]]>
  </style>
 </defs>
 <g id="Capa_x0020_1">
  <metadata id="CorelCorpID_0Corel-Layer"/>
  <path class="fil0" d="M6667 0l0 29 -142 0c1,3 3,5 5,8 3,-1 5,1 6,4 2,1 3,3 5,2 1,0 2,2 3,4l2 0c8,2 13,11 21,15 5,-1 8,4 10,10 3,0 4,4 8,2 0,3 0,6 2,7 1,-5 6,-1 7,4 4,-2 5,3 8,4 -3,7 6,11 -1,14l-4 0c1,-8 -4,-3 -6,-4 -8,7 -6,-6 -10,6 -4,5 -9,-2 -16,1 -4,-1 -11,4 -14,-1 -1,0 -1,-2 -2,-2 -21,6 -52,-16 -65,-5 -1,-3 -1,-6 -3,-5l1 7c-5,4 -3,-11 -7,-8 -1,0 -1,2 -1,4 -3,2 -3,-4 -5,-4 -3,-4 -4,-5 -7,-1 -1,3 -5,2 -8,3 -1,-3 -1,-6 -3,-5 -2,2 -9,-3 -7,6 -2,0 -4,-1 -5,-4 -3,-2 -5,-3 -9,-2l-6 1c0,2 0,4 -1,5 -2,-7 -3,1 -6,0 0,-2 0,-4 -1,-4 -1,7 -16,9 -19,2 -6,4 -9,5 -15,1 -1,4 -2,6 -5,6 -2,-4 -2,-12 -4,-14 -3,1 2,13 -4,10l-1 0c-2,-4 -7,-1 -11,-1 2,4 6,1 8,6 -8,2 -12,-4 -18,-5 1,-2 2,-4 5,-3 1,-4 -8,-4 -11,-1 1,2 3,2 4,2 0,17 -5,-6 -11,-2l-1 1 -4 0c0,2 1,3 1,5 -1,0 -1,2 -1,4 -5,-4 -4,-4 -7,1 -2,-12 -7,4 -10,-3l-1 -5c0,-2 -1,-3 -3,-2 2,7 0,11 -3,12 0,-2 -1,-3 -2,-5 -7,-1 -17,4 -24,6 -2,-6 -3,-11 -7,-11 -2,3 2,5 0,7 -3,-3 -3,-12 -7,-9 -2,0 -2,-3 -4,-2 0,3 -1,4 0,7 1,-2 4,7 4,0l1 0c4,9 -10,7 -11,1 -4,2 -5,-2 -8,-2 -1,-1 0,-5 -3,-9 13,1 24,1 39,1l7 -1c5,2 11,-3 18,0l6 0 0 2c5,-2 5,1 6,4 2,0 3,-2 3,-5 15,1 28,-9 41,-5 0,-5 7,-1 9,-3l1 2c6,-6 16,3 23,-4 -2,0 -3,-1 -4,-2 -3,7 -8,-3 -13,1l-7 1c-1,-1 -2,0 -3,-2 -2,-3 -9,9 -14,1l-1 0 -6 1 -2 0c-4,0 -4,-9 -7,-11 -2,3 -6,2 -7,6 4,-1 7,-1 7,6l-5 1c-3,-2 -2,-2 -6,0 -3,2 -2,-8 -5,-8 -2,2 -2,6 0,9l-3 0c-1,0 -4,1 -5,-2 -1,1 -2,0 -3,-2 -1,1 -1,1 -2,1 0,0 0,0 0,0 0,0 0,0 0,0 0,0 0,0 0,0 0,0 0,0 0,0 0,0 0,1 0,1 0,0 0,0 0,0 -1,1 -1,1 -1,1 0,0 0,0 0,0 -1,1 -2,1 -3,0 -21,7 -54,-4 -72,6 -3,-11 -16,3 -22,-4l-11 1c-5,1 -10,0 -14,-3l-1 0c-4,4 -11,2 -14,2l-10 1 -11 1 -1 0 -1 0c-2,1 -3,0 -4,-2l-5 1 -2 0 -3 1c1,6 7,-3 7,4l2 -1 1 0c2,2 4,3 7,2l2 -1 7 0c17,1 26,-4 41,2 7,-1 14,-3 20,0 1,-1 1,1 1,2l-1 0c-3,4 -4,1 -9,4 1,1 2,3 2,6l-10 2 -1 -3 -13 2 -7 1 -1 0c-11,0 -22,1 -38,0l0 -3 -12 2c-5,1 -7,-7 -10,-1 3,1 8,4 4,5 -2,4 -2,6 0,6 -3,7 -9,-1 -12,-4l-3 -1 -3 0c0,-2 0,-4 -2,-3l-2 0 -6 -1 0 -1c-2,-1 -4,-1 -6,-2 1,4 3,5 5,6 -1,7 -4,1 -6,2 -6,9 4,3 0,13 -6,5 -11,-2 -13,-2l-7 0c0,4 3,1 2,6 13,0 5,6 -3,3l-2 0 -2 0 -4 -1c-2,10 -4,-7 -6,6l7 1c-1,1 -1,3 -2,3l-4 -1c-7,0 -13,4 -20,4 2,8 10,2 15,5 -4,9 -5,1 -10,2l0 6c3,6 -5,3 -7,3l-1 0 -5 -1c-6,0 -1,-6 3,-3l0 -3 -13 -1 -10 -2 -3 0c-4,-3 -5,4 -8,2l-3 0 -6 -1 0 10c-4,2 -1,9 -5,-1l-4 0c-4,7 -15,-4 -6,-10 0,-12 -2,-1 -6,-4l0 3c-2,10 3,13 0,16 -1,-4 -4,-4 -6,-4 -3,-6 6,2 4,-12 -5,0 -10,0 -14,4 -4,-2 -6,5 -10,2l-2 0c-1,0 -2,1 -3,3l-5 -1 -2 0c1,-4 2,-12 -2,-10 0,13 -3,13 -7,12 -1,0 0,-8 -2,-6l-2 -1c0,13 -12,9 -4,13 5,2 8,-5 13,-2 1,-4 2,-2 3,-3l11 2 1 -4 8 1c1,10 5,-3 8,1 0,3 -1,3 -2,6l0 4c-1,3 -1,7 -3,9 -3,-1 -4,5 -8,2 0,4 2,3 3,3 -4,11 -7,3 -12,2 -2,-2 -7,3 -7,-4l1 0c3,0 7,4 7,-5 -3,-3 -2,-13 -7,-10l-2 -1 -1 0 -2 0c-3,2 -6,3 -10,2 0,5 -2,3 -4,3l-1 0c-3,-3 -5,3 -8,2 -2,-13 5,-8 7,-6 0,-2 0,-5 0,-9l5 0c0,-3 -2,-2 -3,-3 1,-5 3,-1 4,-6l-3 0c-2,3 -5,3 -8,5 -3,8 -11,-3 -14,5 -1,7 4,1 5,4 1,5 5,0 5,6 -5,5 -12,6 -15,8 0,0 -1,0 -1,-3l-4 -1 -1 0c0,5 -2,3 -4,3 -1,7 -4,1 -6,2l-3 0c-1,0 -1,-3 0,-3 1,-7 -4,-2 -5,-4 -7,5 -6,0 -15,2 -5,-1 -9,4 -15,1 -10,5 -13,-4 -24,0l-10 -1c0,5 -6,5 -5,0l-1 -1 -1 0c1,-5 3,-6 6,-5 1,-4 2,-3 2,0l0 3c3,0 5,-5 9,-2l13 2c13,-4 28,-2 41,-2 2,1 3,-3 2,-3 0,-3 1,-2 2,-3 0,7 5,2 7,4 4,-7 -4,-7 -6,-7l-1 0 -8 -1c-4,4 -10,3 -13,-1l-1 -1 -7 0c1,9 -8,6 -8,-1l-1 -1 -1 0c-5,8 -6,2 -9,-1 -1,1 -3,0 -3,3 1,1 2,1 2,4l-9 -2 -5 0c-1,2 -3,3 -4,3 0,-6 1,-6 1,-10 -5,-2 -8,2 -12,2 4,5 10,7 0,6 -2,-3 -7,0 -6,-10 2,0 4,2 4,-3 0,0 -1,0 0,-3l-2 0c-4,4 -13,4 -16,-2 2,1 4,0 3,-3 -6,-4 -7,8 -7,15 0,7 -4,1 -6,3 0,3 -2,3 -3,3 0,-6 0,-10 0,-13l-7 -1c0,7 6,-1 3,13l-2 0c-1,3 -8,5 -8,-1 -3,3 -8,2 -10,-1 2,-6 7,-2 11,-2l2 0c1,0 1,-5 2,-6l1 -3 -2 0 -7 -1 -9 -1c-6,-1 1,-5 4,-3 0,-7 -5,-2 -7,-4l-1 0 -1 6c-1,-2 -5,3 -4,-3 -6,-1 -12,1 -20,0 -3,-3 2,-3 3,-2 0,-4 0,-7 -2,-7 -2,0 -3,2 -4,6 0,7 -3,1 -5,2 -1,0 -3,2 -1,4 -1,4 -3,2 -4,2 -1,4 1,3 2,4 2,3 -4,5 -6,5l-3 0 -4 -1 -8 -1c0,4 1,3 2,4l21 2 2 1 12 1c5,1 10,1 14,-1l0 3c4,-2 6,3 9,4 2,-7 7,0 10,-2l5 1c3,0 6,1 8,-3 2,2 3,7 6,1l1 0c1,-1 1,3 2,4 3,-7 10,0 14,-2 0,3 1,3 0,6 -1,2 -2,3 -2,6 -3,2 -1,-8 -5,-6 -3,-3 -5,3 -8,2l-2 -1 -1 0 0 -3c-5,3 -6,1 -12,-1l0 3 -7 -1 -4 0 -4 -1 -5 0c-4,1 -4,-6 -7,-4 -6,-4 -9,5 -12,-2 -9,1 -17,3 -26,0l-9 -1 -4 0c0,7 4,2 6,4l11 1c-2,7 -7,0 -10,2l-1 0c-6,-2 -11,-1 -15,1 1,-11 6,-3 2,-12 3,0 6,2 7,-6 -8,-1 -13,11 -21,7l-9 -1 -4 0c-5,-5 -10,8 -13,-2 -2,5 -6,2 -10,2l-7 -1c-1,13 3,3 5,4 1,-1 1,3 3,3l7 1c-1,9 -6,-3 -6,6 3,0 5,0 5,7l-7 -1c-1,4 -2,3 -4,3 1,-5 1,-11 -1,-10 -2,-1 0,14 -4,9l0 3 19 3c1,-7 5,-1 7,-3 0,12 -5,4 -7,6l-10 -1 -8 -1c-1,2 -3,4 -2,6 5,-3 6,1 10,-2 1,-1 1,2 1,6l-7 -1 -4 0 -3 0c0,-8 2,-7 2,-16 0,-3 1,-4 2,-6l-2 0c-2,1 -3,6 -6,5 0,5 2,3 4,4 0,5 -3,1 -3,6 0,2 0,3 0,6l-8 -1 -5 0 -4 -1 -6 -1c-4,4 0,-10 -4,-6 -1,0 -9,-3 -6,2 9,-10 1,31 -2,19l-2 0c-3,7 -5,3 -10,2 0,-3 1,-3 2,-7 2,0 4,-4 7,-2 3,2 5,-2 7,-9l-2 0c-2,0 -4,1 -4,-3 1,-2 0,-3 0,-7 2,2 4,0 4,-6l-7 -1c-4,4 -22,1 -17,5 -1,-1 10,1 17,2 1,-1 1,1 1,3 -4,-1 -2,2 -1,6 -2,2 -6,-4 -7,3l-3 -1 1 -9c-2,-2 -3,5 -5,3 -2,-3 -7,-6 -9,-2 1,1 0,5 0,10l-3 0 -3 -1c0,-3 1,-3 1,-6 -1,0 -3,0 -4,3l-1 0 1 -10c-2,-2 -7,3 -7,-4l8 1c1,1 1,3 2,4 0,-7 3,-1 5,-3l4 -9c0,-3 -1,-4 -1,-6l-1 -1c-3,0 -5,5 -9,2l0 4 8 1c-1,3 -2,1 -3,6 -4,-5 -8,1 -14,-2l-1 0 0 3 1 0c-2,7 -9,-2 -10,8 2,2 7,-3 7,4 -5,-3 -7,4 -12,2 0,3 1,3 1,7 1,1 6,-3 5,3 -2,4 -8,10 -10,2 1,-3 1,-5 2,-6 0,-3 -1,-2 -2,-3 -1,0 -1,5 -2,9l-5 -1 1 -3c-6,-1 -10,3 -14,5 -2,-1 -2,4 -4,3 0,-7 3,-10 -1,-10 -1,0 -1,4 -1,6 -2,0 -1,-8 -4,-6 -6,3 -9,0 -16,1l-3 -1c-3,3 -4,4 -5,-3 0,4 -2,4 -2,9 3,2 8,-3 8,4l-13 -2c0,-2 1,-3 2,-2 1,-8 -2,-4 -2,-10 -3,3 -8,-3 -9,8l-3 0 1 -10 -2 0c-1,5 -3,3 -4,3l-1 3c-6,1 -6,6 -13,2 -3,8 -6,-6 -11,-2 -1,5 -3,2 -4,6l3 0 21 3 4 0 10 2 3 0c8,3 20,-2 27,6l4 1c1,-7 6,-1 8,-2 12,4 25,4 35,10 -2,7 -8,1 -11,2 -6,-3 -11,0 -19,-2 -3,1 -3,-3 -4,-4 -4,7 -11,0 -16,1 -5,2 -10,-4 -14,-1l-7 -1c-1,-2 -1,-4 -3,-4 -4,7 -12,0 -18,1 -4,2 -5,-4 -8,-4 -3,-2 -6,1 -8,2 1,-10 -3,-5 -4,-3 -2,4 -7,4 -8,-1l-9 -1c-1,4 -4,0 -5,5 -1,7 4,2 5,4 1,6 -8,6 -13,5 3,-12 3,-9 2,-22 -2,1 -2,10 -4,6 -4,-3 -4,-1 -9,-1l1 -3c2,-1 4,-5 7,-3 1,-7 4,0 6,-2 1,1 1,-1 2,-3 0,-5 1,-6 2,-6 0,11 -5,20 1,19 3,3 3,-5 5,-6l3 1c1,3 4,4 6,4 2,1 2,-3 3,-3 1,-3 0,-4 0,-7l-11 -1c-2,-1 -4,1 -4,-4l4 1 11 1 4 1 10 1c3,-2 8,5 9,-2 -2,-9 -7,2 -12,-1 -3,0 -4,-8 -7,-1 -1,-1 -4,0 -4,-4 -2,0 -5,-2 -7,2l-4 0c-2,0 -2,-4 -4,-4 0,3 -1,2 -2,3l0 -3 -8 -1c-1,4 -1,5 -1,9l-8 -1 1 -6c1,1 1,-1 1,-3l-2 0 -2 0 -2 -1 -2 0 0 -3c-4,2 -8,3 -13,2 -2,14 8,0 7,10l-1 0c-1,1 -2,3 -3,-1l-6 0c0,-5 1,-11 -1,-10 -1,7 -2,10 -4,9l-6 -1c-2,-1 -3,6 -5,3 -1,-3 0,-9 -2,-10l1 -3c-2,-1 -3,4 -5,3l-2 -1c0,-7 -5,-1 -7,-4 -1,0 -2,2 -3,3 -2,0 -5,-1 -6,3 0,-3 -1,-3 -2,-4 2,-8 6,-12 10,-11 0,-10 3,-6 5,-6 4,0 7,-4 12,-2l0 -3 -3 0c-5,3 -2,-11 -7,-7l-2 -1 -10 -1c-1,1 -1,2 -1,2 0,1 0,1 0,1 0,7 2,11 -1,10 0,-2 0,-4 -1,-4l0 0c-1,2 -2,5 -2,6 1,1 1,4 2,4 -2,2 -3,8 -6,9 -3,-6 -2,1 -6,2 -4,1 -9,-4 -11,2 1,7 7,2 10,4 1,7 -9,-1 -10,8l3 1 15 2c-5,5 -19,12 -26,9 -3,0 -3,-6 -6,-4 5,-5 2,-6 -3,-6 -2,-10 -4,7 -8,2 0,-10 5,-2 6,-9l5 1c2,0 3,-3 4,-9l-2 -1c-3,0 -4,5 -7,3 -2,-2 -3,2 -4,2 -3,-4 -7,11 -6,-4l-5 0c0,3 1,5 0,6l-11 -1 -1 0 -11 -2c0,4 -1,5 -2,6 -2,5 -6,3 -9,3 0,-12 4,-2 4,-9 -5,-1 -8,4 -12,-2 0,3 -1,4 -1,6l-4 0 -1 0c-4,4 -6,6 -10,2l-3 -1c-1,11 -5,-5 -5,3 1,1 0,8 -1,9 -2,-1 -3,-5 -7,-4 3,-7 0,-3 0,-9l-7 -1 -2 0 -2 -1 -7 -1 -9 -1c-3,2 -7,-4 -9,3l-2 -1c-3,7 3,12 5,7 2,2 3,-5 5,-2 1,5 5,3 8,4l5 0c-1,9 -7,-3 -7,6l-2 0c-1,1 -2,3 -4,2 -3,-6 -7,-2 -10,2l-2 0 -7 -1c-3,-4 3,-3 4,-2 0,-4 -2,-4 -1,-10 2,1 4,-1 5,-9 0,-4 -2,-4 -3,-4 -1,0 -1,0 -1,-3 -2,1 -4,5 -7,2l-1 0c-2,-1 -2,3 -4,3 2,6 6,6 8,4 0,7 -3,3 -3,9l-4 0 -2 0c-1,10 3,5 5,7 0,4 -8,5 -10,1l-12 -1 -6 -1c-3,7 -9,0 -13,2l-1 0 -5 -1 -10 -1 0 -6 -3 -1c-8,-1 -14,9 -23,4 0,4 2,7 4,7 4,-2 9,-4 12,4 4,8 5,-17 6,-9 -2,13 5,5 8,8l6 0 15 2c1,1 3,0 3,4l-2 0 -13 -2 0 3 9 1c-2,12 -4,0 -7,6l-1 0c-4,-8 -3,6 -8,2 -1,0 -1,-1 -1,-4 2,1 3,-2 3,-9 -2,-1 -2,6 -5,3l-1 9c-2,5 -5,2 -8,2 -3,-2 -4,5 -7,3l0 -7 5 1 2 0c2,-1 7,6 7,-5 -4,-2 -6,0 -9,2l-5 -1c0,-13 -7,0 -8,-7 -1,4 -1,9 -2,9 -1,0 -1,-4 -3,-3 -1,-8 -3,2 -7,-1 1,-4 2,-6 0,-7 -1,3 -1,7 -2,7 0,2 -1,3 -2,3l0 3c3,3 -3,0 -2,9l-3 0 -4 -1c0,-5 5,-9 1,-9l-4 -1c-1,3 1,3 1,4 -1,6 -6,3 -3,-7 2,-2 5,4 6,-3 -1,0 -4,1 -4,-3 2,-1 6,5 6,-6l3 0c1,0 1,-6 2,-6 4,-1 3,7 7,4l3 1c0,-3 -2,-4 -1,-10l3 0c1,0 2,1 2,-2l0 -4c-2,0 -3,6 -6,3 1,-5 2,-5 1,-10l-1 0c-2,0 -3,2 -3,3 0,7 4,1 1,10 3,4 -4,2 -5,2l-3 0 -3 0 -6 -1c1,-3 0,-4 0,-6 -2,-7 -3,-2 -4,2l-2 0c-3,-3 -2,-3 -5,-1l-1 3c-4,-3 -5,5 -9,2l-18 -2c-1,-1 -2,0 -2,-3 6,1 12,2 16,-1 -1,-10 -5,3 -9,-1l-10 -2 -2 0c-5,1 -7,2 -12,-1l0 3 -4 -1c0,-2 1,-3 1,-6l-2 0c-1,3 -2,3 -4,3l1 2 -8 1c0,0 0,0 0,-1 0,1 -1,2 -1,3 -1,0 0,-1 0,-3 -6,-2 -8,4 -13,1 -5,1 -18,9 -20,-5 0,-1 -1,-1 0,-4l-1 0 -3 0c-1,5 -4,5 -7,5l-4 0c0,-7 -4,-2 -6,-4l-3 0c-4,-2 -7,-1 -9,2 -4,5 5,3 7,4l-1 3 5 1 2 0c3,0 5,0 6,4 1,0 2,-1 2,-3 5,0 4,5 5,13 -3,4 -5,-9 -9,2 0,-5 2,-5 2,-9 -4,-3 -6,11 -8,2 0,-4 2,-2 3,-3 0,-4 -2,-3 -3,-3l-1 0 -2 -1 0 3c-1,9 -6,-3 -7,6 0,3 -1,2 -2,3l-1 0c-1,-6 -2,-9 -6,-7 -1,-1 -2,2 -3,6l-4 -1 1 -9c-3,-3 -4,3 -7,2l-3 0c-1,5 1,8 0,9 -4,4 0,-10 -4,-7 -2,8 -4,6 -6,3l-3 -1c-2,-8 -3,7 -7,3 1,-4 2,-8 3,-16l-1 0c-1,0 -2,3 -3,3 0,12 -5,3 -7,5 -2,3 -3,4 -6,3 -2,2 -7,-7 -7,5 3,-1 8,5 10,-1 1,4 4,3 7,4 -6,11 -12,-3 -21,3 -3,-1 -4,5 -8,2 0,-3 1,-2 2,-2l1 0c0,-14 6,0 6,-9 2,-6 -6,-3 -1,-7l4 1c3,-9 -2,-6 -5,-7 -3,-5 -5,14 -6,2 0,-3 -2,-4 -2,0 1,1 -1,5 -3,3 -5,5 -9,-7 -13,5l10 1 7 1c1,1 2,3 2,6 -5,-2 -5,-1 -11,-1 -4,6 -7,-7 -10,5 -1,7 3,2 5,4 1,6 -8,1 -11,2 3,-6 6,-3 5,-16l-2 0c-2,-2 -6,3 -5,-4 3,-1 10,6 7,-5l-1 0c1,-6 2,-7 2,-13 -2,0 -2,4 -4,3 -1,5 1,6 0,10l-11 -2c-2,12 4,2 3,10l-9 -1c-1,-1 -2,2 -2,6 0,8 8,5 11,5l-1 6 -14 -2c1,-3 6,-15 1,-15 -2,-3 -3,4 -5,2 0,7 -4,1 -5,3 0,4 3,6 -1,6l-16 -2 -9 -1 1 -7 4 1 4 0c4,1 5,7 10,5l4 0c1,-3 2,-2 3,-2 -1,-3 -1,-6 0,-7l5 1c1,-5 0,-8 -1,-10l0 -6 17 2 0 -3 -5 -1 -8 -1c-2,1 -2,-3 -3,-3l-9 -1c0,2 0,5 1,6 0,4 -1,3 -3,3 0,4 0,7 0,9 0,4 -1,4 -1,7 -3,2 -2,-5 -5,-4 -1,-6 0,-7 3,-6 4,-11 -3,0 -3,-7l-5 0c-1,7 5,-2 2,9 -4,0 -7,0 -10,-4l-3 0c-1,8 -4,10 -7,8l-8 -1 -8 -1 2 -15 -1 -1c-2,-2 -2,6 -4,6 -3,0 -5,5 -9,2l-4 0c-5,-9 -10,0 -16,1 0,4 -2,3 -3,3 -3,1 -3,10 -7,5 -1,0 -1,-6 -2,-6 0,9 -6,5 -11,5 1,-4 1,-6 0,-6 0,-3 1,-3 1,-7 1,-1 3,-11 2,-14 -2,1 -4,3 -7,1 -2,-1 -3,3 -5,3 0,7 6,2 8,4 -9,14 -21,-5 -33,-1 0,0 0,0 0,0 -1,0 -1,0 -1,0 -1,0 -3,0 -2,-4 -1,0 -1,-2 -1,-5l-3 0c0,1 0,2 1,2 -1,7 -5,1 -7,2l-2 0c-1,2 -5,-4 -5,3 -1,9 8,-4 5,10 -1,1 -5,-5 -6,2 4,10 -8,7 -8,5 -1,-1 6,-4 5,-5 3,-6 -6,-3 -8,-4 -6,-6 -9,4 -12,-5 -4,2 -8,3 -13,2 -5,1 -13,-7 -16,4l12 1c11,0 10,7 -1,4l-11 -2c0,-3 -6,-4 -2,-6 0,-1 0,-2 -1,-2l-7 1c1,1 3,2 3,3 -3,9 -7,-2 -11,-1 0,0 1,-1 1,-1l-2 0c0,0 0,1 0,1 0,0 0,1 -1,1 0,2 0,2 -1,1 -2,2 -5,1 -7,-1 -2,1 -4,1 -5,-3l-3 1c-1,0 0,4 -2,3 -1,1 0,5 -2,4l-3 0 -5 1 -1 0c-3,-3 -4,10 -7,1 -2,-2 -4,-8 -6,-6l0 -3 -2 0c-4,0 -5,5 -6,11l-9 1 -8 1c-7,-1 -15,7 -22,0l-1 0c0,-4 -2,-2 -3,-2l-9 1c-2,-3 -2,10 -4,1l-1 0 -6 1 -7 1 -3 0 -7 1c-9,2 -16,-3 -25,1l0 -4 -9 2 -5 0c-4,3 -8,0 -11,-1l-2 0c-5,1 -10,3 -14,-1l-2 0c-5,3 -9,-4 -14,-1l-1 0c-2,1 -4,1 -5,-2l-4 0 -4 1 -2 0c0,-7 -2,-1 -4,-2l-4 0c-10,-2 -17,-1 -27,-5l-4 0c-2,-1 -4,5 -5,-2l-4 0c-3,-1 -6,6 -9,-1 -12,-1 -24,-1 -34,-5l-6 1c-14,-2 -29,-4 -43,-9l-1 0c-5,3 -8,-1 -12,-1 -3,-1 -7,3 -9,-2 -2,-2 -5,5 -6,-2 -3,1 -5,-5 -8,-2 -2,-2 -5,4 -6,-3l-5 1c-5,1 -11,2 -15,-4l-1 0c-4,2 -8,1 -13,0l-1 0c-2,0 -4,1 -5,0 -3,1 -6,-1 -9,-1 -1,0 -4,0 -7,0l-1 1 0 -1c-1,0 -2,0 -3,0l-11 1c-9,1 -18,1 -26,0 -1,1 -2,1 -2,1l-1 0c-2,-2 -4,3 -5,-1 -3,0 -6,0 -8,-3 -3,4 -6,7 -10,1l0 0c-5,2 -9,3 -14,3 0,0 -1,0 -2,1 0,-1 0,-1 0,-1 -13,-1 -25,-6 -36,-6 -3,3 -6,-2 -9,-1l-1 0c-2,2 -4,-5 -6,-2 -4,3 -6,-3 -9,-2 -2,-1 -4,5 -6,-2 -3,0 -7,0 -10,-4 -3,-2 -6,5 -8,-2 -3,-1 -6,3 -8,-2 -42,-13 -86,-13 -126,-25 -2,1 -4,-1 -6,-5l-2 0c-2,-1 -5,0 -7,-5l0 0 -5 1c-2,-14 -5,-8 -7,-11 0,-1 0,-3 0,-4 -2,0 -4,-1 -5,-1 -1,0 -2,0 -2,4 3,0 4,9 6,11l1 6c2,9 5,4 7,15 -2,5 -7,-8 -7,1 1,2 1,4 2,3 2,7 5,6 7,18 -3,1 -5,-6 -8,-11 -3,-8 -6,-10 -9,-17 -3,0 -5,2 -7,-8 -2,0 -4,-5 -6,-7 -1,0 -1,2 -2,4 -3,-3 -8,-3 -13,-2 0,-3 1,-3 1,-5l-12 0c0,3 -2,2 -4,3l-2 0 -10 0c0,-5 -5,-1 -7,-2 -1,2 -3,2 -5,2 -6,1 -7,-3 -12,1 -6,-4 -16,-1 -22,-7 -4,-6 -7,3 -13,0 -3,2 -4,-2 -7,-2l-4 0c-4,-2 -11,3 -13,-2l-5 0c-1,4 -3,3 -5,2 0,0 -1,0 -1,0l-2 0c-1,4 1,3 -1,6 -1,-1 -2,-3 -2,-6 1,0 3,-1 4,-1 -1,-2 -3,-3 -4,-3 -1,4 -3,7 -6,2 0,-3 2,-2 3,-5 -4,2 -5,-1 -4,-7 5,3 12,0 16,5 7,1 18,-4 24,1l8 0 2 0 2 0c2,6 9,1 14,2 1,0 2,-1 3,-2 0,-6 -3,-5 -6,-5 -2,-1 0,-3 0,-7l-11 0 0 -2 6 -1c-1,-3 -3,-2 -5,-2 7,-5 22,-4 28,2 3,-1 3,4 6,2 6,1 8,-4 13,-3 1,7 -5,-1 -4,5l3 0c5,3 3,-8 7,-5l1 7 6 0c2,5 8,2 12,2l4 0c1,6 6,1 9,3l10 -1 3 0 0 -1c-2,-2 -3,-4 -4,-12 0,-1 3,2 3,-2 -5,1 -10,3 -11,-4 -4,-1 -8,-2 -11,-5 -2,1 -2,-2 -4,-2l-1 0c-1,3 -4,3 -7,3 -5,3 -4,2 -5,-3 -3,0 -7,1 -9,-2l-1 0 -7 0 -3 0 -1 0 -3 0c-2,0 -4,1 -4,-2l-7 0c-1,0 -3,0 -3,-2l-4 0 -1 0c0,-2 0,-3 -1,-3l0 0c-2,1 -3,3 -4,3 0,3 0,6 -2,5l-5 0 -2 0 -12 1c-2,-3 -5,-3 -8,-3 -2,1 -3,-1 -5,-2l-6 0 -8 0c1,8 -3,5 -5,5 -6,1 -11,0 -16,-2l-7 0 -5 0c0,-10 -3,-4 -6,-7l-24 0c-1,2 -2,2 -3,3l-3 0 -8 0c-4,1 -7,0 -10,-2l-2 0c-4,0 -9,2 -12,-1l-5 0c0,1 -1,1 -1,0l-62 0c2,1 3,1 4,3l7 0 5 -1 3 0 3 0 4 0c0,4 3,2 5,3l5 0 2 -1c4,2 10,-3 12,3l11 0c5,-7 13,1 19,-1 5,2 16,5 20,2 8,7 21,4 33,4l15 0c4,4 8,-1 13,5 6,-1 12,1 23,-1 7,-2 12,3 19,2 -5,6 -2,2 2,8 -1,3 -16,0 -14,-3 2,-1 6,3 6,-2 -3,0 -9,-7 -12,0l0 3 -6 0c-4,-2 -2,-2 -6,0 -5,2 -6,-4 -11,-2l-4 0c-2,4 -6,5 -9,7 -2,-8 4,-1 3,-7l-3 0c-2,0 -2,-2 -3,-3l-11 1c-12,-2 -27,-3 -39,-2 -4,-6 -14,-1 -20,-2 -2,1 -6,-2 -5,5l-11 0c0,4 3,2 4,5l10 0 19 -1 4 0c-1,-2 -3,-2 -4,-2 0,-3 2,-2 3,-2l3 -1c3,2 9,-3 11,3 4,1 10,-4 12,2l-9 0c0,2 -1,3 -1,5 2,3 5,3 8,2 4,0 0,2 1,8l-1 0c-1,6 -6,0 -9,0l-1 0c0,5 -4,1 -6,2 -3,-1 -7,1 -10,1 0,1 2,1 3,1 0,3 -2,1 -4,1 0,3 2,2 3,3 2,-3 3,-5 4,-4 -1,1 -1,4 -2,6l-1 0c0,0 0,0 0,0l-1 0 -2 0c0,1 0,1 1,1 1,0 1,2 2,2l4 0c0,-1 0,-1 1,-1 -1,-2 -1,-3 -3,-2 1,-4 3,-2 5,-3 2,5 10,-5 8,5 -4,2 -6,0 -8,1 1,1 1,1 2,1 3,3 4,-3 8,-1 0,2 -5,2 -1,3l1 0c1,-1 1,-1 2,-2 1,-2 2,-5 4,-5 0,0 0,0 0,0 0,0 0,0 1,0 0,0 0,0 0,0 1,0 1,0 1,0 1,0 2,-2 2,0 3,0 5,0 6,3 0,0 0,0 0,0 0,0 0,0 0,0 1,3 3,5 4,10 5,-4 6,1 10,0l1 0c-1,-4 0,-5 1,-6 2,-1 5,-2 5,-7 1,1 2,6 -1,5 1,4 3,-1 4,0 3,0 -2,4 2,3 -1,1 -1,1 -1,3 -3,-2 -5,-4 -9,-4 -1,4 1,3 2,5 1,0 2,0 2,1 1,0 0,-1 1,-3 2,2 4,6 6,1 2,3 -3,3 -3,7 1,-1 1,-2 1,0 1,0 1,0 1,-1l0 0c1,-3 3,-3 4,0l3 0c3,0 -1,-2 -2,-1 1,-3 3,-1 4,-3 0,3 2,5 4,2 0,0 0,0 0,0 0,0 0,-1 0,-1l1 0c0,0 0,1 0,1 1,0 0,4 2,3 0,-4 3,-1 4,-5 -2,8 4,4 9,7 0,-2 -1,-2 -1,-3 1,-3 4,-1 5,-1 -5,2 1,2 0,4 0,1 1,1 1,2 1,-2 1,-3 2,-5 2,-1 4,6 5,0 1,0 1,2 1,4 0,-1 5,-3 4,2 5,0 13,-1 15,8 0,3 -1,-1 -1,2 0,-5 -6,-9 -6,-2 -5,1 -7,-2 -11,-1 -1,-1 1,-3 0,-3l-5 -1c-1,-3 -2,-1 -2,-3l-3 0c0,3 3,1 2,4 5,0 7,3 8,7 3,1 4,-2 6,0l2 1c1,-1 2,-2 4,-1 0,1 -1,4 3,3 1,-3 -1,-2 3,-1l0 -3 2 0c4,2 11,7 14,4l3 1c-2,8 0,1 2,0 2,1 -1,2 1,4l1 0c1,-1 2,-1 3,-1 0,1 1,2 2,2 0,-2 -1,-1 -1,-2 0,-1 1,-1 1,-2 1,2 4,3 5,6l0 0c2,-4 4,-9 8,-8 1,1 -2,4 2,3 -3,4 -4,-4 -7,-1 1,3 1,4 1,6l4 1c-1,-2 -2,-2 -3,-2 0,-3 5,-1 4,2l4 0c0,-2 -2,-1 -3,-2 1,-4 1,-1 3,-1 0,-2 0,-5 -3,-4 0,-2 2,-1 3,-3 0,0 1,0 1,2 -1,0 -1,1 -1,2l2 1c2,-1 2,1 1,1 0,3 3,2 4,3 1,-2 2,-2 2,-5 1,2 0,5 1,7l4 1c1,-4 4,-4 4,0 1,-2 1,-4 2,-4 1,0 1,0 1,1l0 3 2 1 2 0c1,1 1,-3 2,-3l1 -1c0,3 3,2 3,6 1,-1 2,-4 2,-2 2,1 5,0 6,4 0,0 1,0 1,-1l2 0 0 1c2,1 3,0 4,-1l10 1c0,3 -3,1 -4,1l0 2c1,0 2,1 2,3 1,-2 3,-1 4,-5 5,-1 4,2 10,2 2,2 4,3 6,4 0,-2 1,-1 2,-2 3,2 3,1 6,2 1,-7 0,5 4,2 1,3 3,2 4,-1 0,1 1,2 2,2 -1,3 -4,1 -6,4 0,1 0,2 0,4 -2,0 -4,0 -5,-2 0,-2 1,-3 1,-4 -1,-5 -6,-3 -8,-5 -3,2 0,3 2,4 2,-3 3,0 4,1 0,2 0,2 -1,2 0,1 0,2 0,3 -4,-1 -2,-6 -7,-3l-8 -1c-3,-1 -2,-2 -5,1 -2,0 -1,-4 -3,-4 0,3 -1,4 -2,4l-1 0c1,-3 -1,-3 -1,-5l-2 -1c0,2 -1,2 -2,2 -1,2 0,2 1,3 -5,2 2,3 -2,4 0,3 3,1 3,-1 1,1 2,1 3,1 1,0 1,2 1,3l1 0c0,-2 0,-2 1,-2 1,2 5,4 3,0l3 0c0,4 3,4 2,9 -1,0 -2,0 -2,1l0 0c0,-2 -6,-3 -6,0l-3 -1c-1,-5 -3,-1 -6,0 -1,-2 0,-3 -1,-5 -1,1 -2,4 -3,4 0,-2 -2,-2 -2,-3 -1,2 -1,4 -2,4 0,-1 1,-3 0,-3l-1 0c-1,0 -1,-2 -2,-3 -1,2 -2,6 -4,6 0,-3 2,-4 1,-5 -1,1 -1,2 -2,2 -1,-1 -1,-1 -1,-2l-2 0c1,2 0,4 1,6 0,-2 1,-2 2,-2 0,2 2,2 2,2 2,0 3,4 0,3l-1 0c-3,-1 -3,-3 -6,-1 -1,0 -1,-3 -2,0 -2,0 -3,0 -3,-2 -3,-2 -3,2 -4,3 -2,0 -3,-1 -4,-2l1 -2c-5,-1 -4,0 -8,1 1,-6 4,-3 5,-2 0,-2 -1,-3 1,-3 2,0 2,2 3,2l0 0c2,3 5,-2 7,2 1,-2 3,-1 5,-1 -1,-2 -1,-3 0,-4l-6 -1c-1,1 -1,3 -1,3 0,-2 -1,-3 -2,-3l-1 0c-3,1 -2,-3 -4,-2l0 3c-2,-4 -3,0 -5,-1l0 -3c-2,0 -3,0 -4,1 -3,3 -6,-2 -11,-1 -6,-1 -6,0 -13,-1l0 0c-2,-1 -3,0 -3,-2l-2 0 0 1c-2,0 -2,2 -2,4 1,1 2,-1 3,-1l1 0c-1,7 3,1 4,2 2,-1 4,-1 5,1l3 0c1,-4 2,2 3,0 3,3 4,0 7,1 1,0 1,1 2,2l3 0c-1,2 -1,5 -3,4 -1,5 -2,-8 -6,-1 -2,1 -4,0 -3,-4 -2,-2 -1,4 -3,4 1,-6 -2,0 -4,-2l-2 0c0,-1 -1,-2 -2,-2l-1 0c-2,2 1,5 -2,4 -1,-2 -4,-4 -8,-5 0,0 0,0 0,0 0,0 0,0 0,-1 -5,-1 -10,0 -14,4 3,1 5,-4 5,2 -1,0 -2,0 -2,2 -2,-1 -5,-2 -7,-5 -1,5 4,4 2,8 2,-1 3,-2 5,-1 0,2 -2,1 -3,1 0,3 7,5 5,0 3,3 9,3 8,8l0 1c2,-2 1,-3 1,-5 0,2 2,1 2,3 2,1 0,-6 3,-4l1 0c0,4 -3,1 -3,6 3,1 3,0 2,-3 2,1 4,1 5,-1 -3,6 0,4 4,5 0,-3 1,-3 1,-6 1,1 1,3 2,3 3,2 4,0 6,0 0,1 0,1 0,3 2,-1 3,-3 5,-3 -1,1 -2,1 -3,4l3 0c6,-1 9,0 14,3 0,-6 5,-2 2,1 4,2 3,-4 6,-3l0 -1 1 0c0,1 1,3 0,3 0,3 6,2 7,1 -4,11 -8,-1 -14,2l-9 -1 -6 0 -2 0c-9,-1 4,4 -1,4l-1 0c-3,-1 -4,-3 -6,1 0,-3 0,-5 1,-6l-1 0c-1,-2 -5,-3 -5,2l3 0c-1,2 -2,1 -3,2l-1 0c0,-2 -2,-3 0,-3 -4,-4 -7,-3 -12,-4 0,-1 0,-2 -1,-2 -2,-1 -3,2 -5,1 0,2 -1,1 -2,1 1,2 2,4 3,8 -1,1 -2,1 -3,1 -2,-2 0,-3 -1,-6 -2,2 -4,2 -2,-3 -2,-2 -8,2 -7,-4 -2,2 -2,-4 -4,0 -1,9 -6,-6 -8,2 1,0 6,0 3,2 -3,1 -7,1 -11,0 -1,0 -1,-2 -1,-2 0,-1 1,-1 1,-1 0,-1 0,-1 0,-3l-2 0c0,0 -1,1 -1,1 -1,2 0,2 1,2 -1,3 -4,4 -2,-2 -2,1 -3,0 -4,-2l-3 0c-2,4 4,2 0,4 -2,7 2,0 4,1 1,1 1,3 1,4 0,2 -7,2 -3,4 2,-3 4,3 7,1 2,0 2,2 3,2 0,4 -4,2 -6,2 -2,4 -3,-2 -5,-1 -1,0 -1,-1 -1,-1 0,1 -1,2 -2,3 2,1 7,8 6,2l4 0c-1,4 -3,4 -3,10 -1,-2 1,-9 -3,-6l-1 0c0,1 0,4 -1,4 0,-4 -4,-2 -2,1 -4,-1 0,-6 -3,-9 0,3 -3,1 -3,4 3,0 3,4 1,6l-1 0c3,-6 -5,-7 -7,-7 0,3 2,2 1,5l-1 0c0,-3 -2,-5 -4,-5 -1,3 2,5 -1,4 -1,-1 0,-2 -1,-4 2,0 4,-1 5,-3l-7 0c-1,-1 -6,-2 -7,-1 1,0 2,1 1,4l0 0c-3,-1 -3,-5 -7,-5 0,2 1,3 0,3 0,-1 -1,-1 -1,0l-2 0c-1,0 0,-3 -1,-3 0,1 -3,4 -2,1 2,-1 -3,-6 -3,-2l-1 0c-2,1 -2,-2 -2,-3 -3,1 -8,1 -6,5l-3 0c3,-8 -1,2 -2,-3 1,1 2,-1 0,-1 -1,0 -2,-1 -3,-2 -2,2 -2,-3 -5,1 0,-3 -1,-3 -2,-2 -2,0 -4,3 -5,0 -2,0 -3,-1 -4,1 2,0 3,0 3,3 -2,0 -1,-3 -4,-2 -3,1 1,-3 -1,-3 -1,1 -4,-2 -4,1 1,0 2,1 1,3l-1 0c-2,-2 -12,-10 -16,-6 -1,2 1,2 2,2 -4,3 -3,-3 -5,-5 1,-3 4,0 6,-1 2,1 2,1 4,1 1,0 2,-2 3,-2 0,2 -1,2 -1,2 1,0 4,1 3,4 2,1 1,-1 1,-2l2 0c3,3 7,-1 10,1 2,-2 5,3 5,0l2 1 6 0 1 0c1,1 2,1 2,3 4,1 -1,-2 0,-5 -3,0 -2,0 -6,-1 -1,-1 -5,-4 -5,-2 -1,2 2,2 0,3l-2 0c0,-2 -3,-1 -3,-5 -3,1 -3,4 -6,1 1,-3 2,-5 4,-5 2,0 3,1 3,3 6,-2 10,0 14,1 -2,-9 -18,2 -16,-11 -2,2 -3,-2 -6,-1 2,-6 -4,-3 -1,-7l0 0c-1,1 -2,1 -3,1 -5,5 5,-3 3,6l-1 0c-3,0 -4,-2 -4,-5 -1,0 -3,0 -3,1 1,1 2,0 2,2 -2,-1 -4,0 -4,2 -1,1 -1,2 0,3 -3,2 -6,-4 -7,-1 -1,6 3,-1 3,4 2,1 3,-2 4,-1 2,1 2,5 0,5 -3,1 -1,-5 -4,-3 -2,2 -3,-1 -4,1l-2 0c0,-1 0,-2 -1,-2 0,1 -2,7 -2,3 -1,3 -1,7 -5,5 -1,-4 2,-1 2,-5 1,0 1,-2 1,-3 -1,-1 -5,1 -5,-2l0 0 -4 0c0,5 4,3 3,9 -3,-1 -7,-5 -9,-1 3,-1 5,7 3,6l-3 -1c1,-6 -2,-6 -2,-11 2,0 2,-1 1,-3 2,0 2,2 3,2 0,-2 0,-3 -1,-3l-3 -1 0 2c-1,0 -2,0 -2,1 -2,-2 -5,-3 -6,-3 2,-8 7,-2 11,-1 -1,-5 -7,-4 -12,-5 0,3 -2,4 -1,7l-1 0 -3 0c-1,-4 2,-5 -1,-5 -1,2 -4,0 -3,4 0,0 -1,1 -1,3l2 0c0,5 -3,2 -4,4 1,-6 -2,-4 -6,-3 0,0 -1,-1 0,-2l-5 0c-1,-1 -4,1 -4,-2 2,-4 8,1 9,1 2,3 4,-1 7,0l0 -2c-2,0 -1,-5 -4,-4 -1,2 -4,5 -4,1 -2,0 -3,1 -4,1 -1,-1 1,-2 -1,-4l-1 0c-2,5 -4,1 -6,1 -1,0 -2,-1 -2,-2l-2 0c-1,0 -1,1 -2,3 -2,0 -3,-2 -3,-5 -3,0 -3,2 -4,-2 -2,0 -2,1 -3,3 -3,1 -3,-3 -5,-4 0,2 1,3 0,3 0,4 5,7 5,1 1,0 1,1 1,3 2,0 4,0 2,3l-1 0c-4,0 -7,-3 -9,-1 1,4 3,2 1,6 0,-4 -4,-4 -4,-8 -1,3 -2,-1 -5,0 -2,0 -3,-1 -3,-2l-2 0 0 1c-3,6 -5,-6 -7,-1l-1 3c3,-2 1,1 1,5 -1,-1 -4,1 -4,-2 2,0 3,0 2,-3 -1,0 -2,-1 -2,-1 -2,3 -8,0 -7,-4 2,1 3,3 5,2 1,0 2,0 2,-3 -1,1 -2,2 -4,1 1,-4 -2,-2 -3,-3 -1,3 -2,4 -3,7 3,0 5,1 5,6l4 1c2,-1 1,3 3,3 1,-4 6,-5 2,-1 4,0 7,1 7,-3 0,2 1,2 0,5 2,-4 3,3 3,-3 1,3 2,6 5,6 2,1 6,-2 3,2l0 1c2,6 2,-2 4,-5 1,1 5,4 7,1 -2,-1 -4,-1 -4,-4 3,0 4,4 4,-2l3 0 1 0c-1,3 -4,1 -4,6 1,0 0,5 2,4 -1,3 -5,0 -7,1 0,4 6,2 7,5 2,-1 4,-4 6,-5 -1,4 2,4 5,6 -1,1 -1,4 -2,4 1,-5 -3,0 -5,-3l-1 4 -1 0c0,0 0,-2 0,-4 -2,0 -5,-3 -6,0 0,3 7,2 4,4l-2 -1c-1,1 -1,0 -1,-1 -1,-1 -1,1 -2,1 1,-15 -10,-1 -15,-4 4,0 -1,-1 0,-4l-4 -1c-5,4 4,3 -3,6 1,0 2,0 2,1l-2 0 -2 0 -1 0c0,-3 3,-1 3,-4 0,-2 -1,-3 0,-4l-2 -1c-2,0 -1,5 -1,6 -1,-1 -3,-1 -3,-3 0,-1 1,-1 1,-3l-3 0c0,5 -4,1 -6,2 0,5 -4,0 -3,5 -2,1 -3,-4 -4,0l-1 0c1,-4 5,-2 6,-7 0,3 4,1 4,-2l0 0c-1,1 -3,2 -4,1 -2,0 -1,3 -3,3 -3,-1 3,-4 0,-5 -2,1 -2,1 -4,0 -1,2 0,3 1,3 -1,1 -2,1 -2,4 -2,0 -2,-1 -3,-2 -2,1 -4,2 -6,3 0,1 0,1 0,1 0,0 -1,0 -1,0 0,0 1,0 1,-1 -3,-7 -7,-9 -14,-5 0,-4 1,-3 0,-7l-3 0c0,1 0,2 0,3 -3,2 -5,-2 -8,0l-2 0c-4,-2 -9,2 -11,-1 0,0 2,-5 0,-7 -2,1 -1,2 0,4 -1,1 -2,2 -3,1l-5 0c-2,-5 -9,2 -5,-5 -2,-3 -6,1 -8,4 0,1 1,4 1,6l-1 -1c-1,0 -1,-1 0,-1 -1,-3 -2,-2 -4,-2 -1,-4 1,-5 -1,-8 0,2 0,7 -2,5 -1,-1 1,-12 -2,-6 3,1 -2,2 1,6 -2,1 -5,-2 -5,1 3,-1 2,4 4,5 1,0 2,5 0,4 -2,0 -1,-4 -2,-5l-3 0c0,-2 0,-5 -1,-6 -1,1 0,3 0,5l-1 0 -2 -1 0 -1c1,0 2,0 2,-3l-2 0 -2 0 -1 0 0 3c1,0 4,-3 2,0 0,0 -1,0 -1,1 -2,4 -3,0 -4,-3 0,3 -2,3 -4,2 2,3 -2,9 -3,5 4,-2 3,-4 1,-6 2,0 4,-1 5,-4 -2,3 -4,0 -4,-2 0,1 -1,2 -2,1 -3,-1 -2,3 -1,3 1,0 1,1 1,2 -3,1 1,7 -3,7 0,-2 0,-6 -3,-6 -4,-1 2,6 -3,7 0,-9 -4,1 -7,-5 3,-4 -5,-3 0,-6 -1,-2 -4,-2 -6,-2 2,-5 -2,-1 -2,-5 2,2 2,-2 3,-4 -2,-1 -2,5 -4,4 -1,7 -5,-1 -1,-3l1 0c0,-1 0,-1 -1,-1 0,2 -2,1 -3,1 -1,1 -1,3 -2,3 0,-1 0,-2 -1,-2 -1,2 -1,1 -2,0l-1 0c-1,1 -2,2 -2,0 2,-2 1,-5 -1,-7 0,1 0,1 -1,1 1,1 2,2 1,4 -2,1 -1,1 -4,3 1,-3 0,-4 0,-6 0,0 1,0 1,-1 -1,0 -2,-1 -3,-2 0,0 -1,1 -1,1 2,4 1,5 0,10l0 0c2,0 2,2 2,3 -1,-1 -1,-2 -2,-3 0,0 0,0 0,0l0 0c-3,-4 -8,-4 -1,-5 -1,-1 -4,1 -3,-4l-2 0c0,5 -2,3 -4,3 0,-3 1,-3 2,-4 -2,0 -4,-4 -2,-3l1 0c1,-3 0,-3 0,-5 0,0 0,0 0,0 0,-1 0,-1 -1,-1l-1 0 -6 -1 0 -1c0,0 0,0 -1,0 0,-1 0,-2 -1,-2 -1,1 -3,-2 -4,-1 0,1 0,2 1,2 1,0 3,1 4,2 0,3 2,2 2,5 -4,-2 -6,2 -9,3 1,1 2,2 0,5 -6,4 -10,-2 -12,-2l-7 -1c0,3 3,1 2,5 11,1 4,5 -3,2l-2 -1 -1 0c0,1 1,2 0,3l1 0c1,2 -4,2 -3,0 0,0 1,-1 1,-2 -1,0 -2,-1 -1,-1l-3 -1c-2,8 -3,-6 -5,4l5 1c0,2 0,3 -1,3l-4 -1c-6,-1 -12,2 -19,1 1,6 8,3 12,5 0,-1 1,-2 -1,-2 2,-5 2,2 3,3l1 0c0,2 2,1 2,-1 1,0 0,2 0,4l-4 0c0,-1 -1,-2 -1,-2 -3,4 -3,-1 -8,-1l0 5c2,4 -5,1 -6,1l-1 0 -5 -1c-6,0 -1,-5 2,-2l1 -2 -5 -1 0 1c-1,0 -1,-1 -2,-2l0 0c0,1 0,1 0,3 -1,-1 -1,-2 -1,-3l-4 -1 -10 -1 -2 -1c-3,-3 -5,3 -7,1l-3 0 -6 -1 -1 7c-4,1 -1,7 -4,-1l-3 -1c-4,5 -11,-1 -9,-5 0,-2 0,-6 -2,-5l0 5c-1,0 -1,0 -1,-1 -1,5 2,8 -1,9 0,-3 -2,-3 -5,-3 -2,-5 4,0 5,-7 -1,0 -1,-1 -2,0 1,-1 1,-2 1,-3 -4,0 -8,0 -12,3 0,0 -1,-1 -1,-1 0,1 0,1 -1,1l-2 0c-2,1 -4,2 -6,1l-2 -1c-1,0 -2,1 -3,2l-4 -1 -2 0c2,-3 3,-9 -1,-8 0,0 0,0 0,0 0,1 1,1 1,2l-1 0c-2,8 -4,7 -7,7 -2,-1 0,-7 -2,-6l-2 0c0,10 -11,6 -5,9 5,2 8,-3 13,0 1,-3 2,-2 3,-2l10 2 1 -2 7 1c1,8 5,-2 8,2 -1,2 -2,2 -2,4l-1 3c-1,2 -2,5 -3,7 -3,-2 -5,3 -8,1 0,2 2,2 3,2 -5,8 -7,2 -12,1 -2,-2 -7,2 -6,-4l1 0c3,0 6,4 7,-3 -2,-2 -1,-10 -6,-9l-2 0 -1 -1 -1 0c-3,2 -6,2 -9,1 -1,3 -3,2 -4,2l-1 -1c-3,-2 -5,2 -8,1 -1,-10 5,-5 7,-3 0,-2 0,-4 1,-8l4 1c1,-3 -1,-2 -2,-3 1,-3 3,0 4,-4l-3 0c-2,2 -5,2 -7,3 -4,6 -11,-4 -14,2 -1,6 3,2 5,4 -1,4 4,1 3,6 -5,3 -11,3 -14,4 0,0 -1,0 0,-2l-4 -1 -1 0c-1,3 -3,1 -4,2 -1,5 -4,0 -6,1l-3 -1c-1,0 -1,-2 0,-2 2,-5 -3,-2 -4,-3 -7,2 -6,-1 -14,-1 -5,-1 -9,3 -14,0 -10,3 -11,-4 -22,-2l-10 -2c0,4 -5,3 -4,0l-1 -1 -1 0c2,-4 4,-5 6,-4 1,-3 3,-2 2,1l0 2c3,1 5,-3 9,-1l12 3c12,-2 25,1 38,2 1,1 2,-2 1,-2 1,-2 2,-2 2,-2 0,5 5,2 6,4 5,-6 -2,-6 -4,-6l-1 0 -8 -2c-3,3 -9,2 -12,-2l-1 0 -6 -2c1,8 -8,5 -7,-1l-1 0 -1 -1c-5,6 -6,1 -9,-1 0,0 -1,0 -2,2 1,1 2,0 1,3l-8 -2 -5 -1c-1,2 -2,2 -4,2 1,-4 2,-4 3,-7 -5,-3 -8,1 -12,0 3,4 9,6 0,5 -2,-2 -7,-1 -5,-8 1,-1 3,1 4,-2 0,0 -1,-1 0,-3l-2 0c-2,1 -4,2 -7,2 -2,0 -6,-2 -9,-1l0 -5c1,1 3,1 4,1 1,0 1,-1 0,-2 -1,0 -1,-1 -2,-1 0,1 0,1 0,1l-1 0c-3,2 -4,7 -4,11 -1,6 -4,1 -6,2 -1,2 -2,2 -3,1 1,-4 1,-7 1,-9l-7 -1c0,4 6,0 2,10l-2 -1c-1,3 -7,4 -7,-1 -3,2 -7,1 -9,-2 3,-4 7,0 10,0l2 0c1,0 2,-4 3,-4l0 -2 -4 0c-2,0 -6,-2 -8,-1l5 1c-5,4 -10,4 -14,0l0 0 -3 -1 -6 0c-2,5 -5,4 -9,3l0 -1c-3,0 -4,4 -6,2 0,-3 1,-2 2,-2 0,-1 0,-1 0,-2 -1,0 -1,0 -1,0l-1 0 -8 -1c-1,1 -5,2 -6,2l-3 -1 -4 0 -4 -1c-1,0 -1,0 -2,0l-1 0c0,2 1,2 2,2l19 4 1 0 12 2c4,2 9,2 13,1l0 2c4,-1 4,3 7,4 3,-5 7,0 10,-1l5 1c2,1 5,2 7,-1 2,1 3,6 5,1l1 0c2,0 1,3 3,3 3,-5 8,1 12,0 0,2 1,3 0,5 -1,1 -2,2 -3,5 -3,1 0,-7 -3,-6 -4,-2 -5,2 -8,1l-2 0 -1 -1 0 -2c-5,2 -6,0 -11,-2l0 2 -7 -1 -3 -1 -4 0 -5 -1c-3,0 -2,-5 -6,-4 -4,-3 -8,3 -11,-2 -8,0 -15,1 -24,-2l-8 -2 -4 -1c-1,6 4,2 5,4l11 2c-3,5 -7,-1 -10,0l-1 0c-5,-1 -9,-2 -13,0 1,-9 5,-2 2,-9 3,0 5,2 7,-3l-4 -1c-6,2 -10,6 -16,4l-8 -2 -4 -1c-4,-3 -9,5 -11,-1l-1 0c-2,2 -6,0 -9,0l-7 -2c-2,10 3,3 5,4 1,-1 1,2 2,3l6 1c0,7 -4,-3 -5,4 2,0 4,0 4,5l-7 -1c-1,3 -2,3 -3,2 0,-4 2,-8 -1,-8 -2,-1 -1,12 -4,7l0 3 17 3c1,-5 4,0 6,-1 0,9 -4,2 -6,3l-9 -1 -8 -2c-1,2 -3,3 -2,5 5,-2 6,1 9,-1 2,-1 1,2 1,5l-6 -1 -4 -1c1,1 2,2 3,3l0 0 7 2c-1,2 -3,2 -6,2 1,0 1,1 1,1 1,0 3,1 5,2l18 3c1,1 2,1 1,3l-16 -3c-2,1 -5,0 -7,-1 0,0 0,0 0,1l0 7c5,7 -5,0 -4,8 3,1 1,18 4,20l-4 0 -2 0c3,-16 -7,-11 -12,-11l0 7 -3 1c-1,-1 -3,-1 -3,-4 9,-5 -9,-19 -9,4l-10 0 0 4c-3,2 -4,5 -6,-4l-4 0c-9,10 -17,5 -24,1 -3,-1 -5,1 -6,4 -3,1 -11,18 -11,4 1,-5 2,-7 1,-15 -4,-3 -3,5 -6,4 -2,2 -6,-5 -6,4 0,3 1,4 2,8 -3,3 -9,12 -11,4 -3,4 -6,8 -11,8 -2,0 -3,-3 -1,-8 -5,-5 -3,13 -8,8l1 4c-2,-1 -3,-6 -5,-4l-9 0c-5,-8 3,-9 6,-8 -1,-10 2,-7 3,-11 2,-2 3,5 4,7 2,-5 6,-5 7,-12l4 0c2,1 2,-4 4,-4 4,3 6,-2 9,-4 2,0 3,-1 5,-2 -1,-1 -1,-1 -1,-3 1,1 3,1 4,1 2,-1 5,-1 7,0 4,3 4,-7 8,-4 -2,-8 -4,-3 -2,-12l-2 0c1,0 1,-1 2,-1 -1,-1 -2,-1 -3,-1l-1 0c-2,0 -3,0 -3,-3 2,-2 4,-3 6,-3 0,-3 1,-1 2,1 -1,0 -2,-1 -2,-1 0,-11 6,-2 14,-3 -3,0 -6,-1 -7,-4l-5 -1 0 1c-6,-2 -8,-3 -9,-3 -2,2 -6,4 -7,-1 1,-3 1,-4 2,-5 1,-2 0,-2 -1,-2 -1,0 -2,4 -2,7l-4 -1c0,0 0,1 0,1l-3 0c0,-2 0,-3 0,-4 -4,0 -7,2 -11,3 -1,-1 -2,2 -4,1 1,-5 4,-7 1,-7 -1,0 -2,3 -2,5 -2,-1 0,-7 -3,-6 -5,2 -7,0 -12,0 0,0 0,1 -1,1l1 8c-2,-1 -2,0 -3,1 2,0 4,1 5,3l2 0c0,0 1,0 2,0l0 0c2,-4 5,1 7,0l0 0 5 -1c0,1 0,2 0,3 5,1 9,2 13,3 2,-1 3,-3 6,-2l4 0 1 6c1,1 2,1 3,2 -1,2 -2,2 -3,2 0,1 -1,2 -1,2l0 -2c-2,0 -4,-2 -6,-2 -1,2 -2,3 -3,4 -1,-5 -4,-2 -5,-5 -2,-1 -5,-1 -8,-1 1,12 3,-4 5,10 -2,-1 -3,1 -4,2 0,0 1,1 0,3 -5,0 -7,-2 -8,-4 -2,7 -2,27 -6,15 3,-1 2,-15 0,-20 0,3 -2,6 -3,8l3 0c1,1 2,2 1,6 -2,-2 -7,0 -8,-2 -5,3 -10,3 -14,1 -1,-2 -1,-6 -2,-9 0,-1 0,-1 -1,0 0,1 0,1 -1,2 1,1 1,4 1,7 -1,0 -1,5 -3,4l-1 0c-4,-5 -6,2 -12,0 -2,2 -7,-4 -6,4 1,0 2,1 2,8 -6,0 -8,13 -14,12l-1 -16 10 0 0 -8 -2 0c-1,8 -10,-7 -13,4l-1 0c0,-3 -1,-4 -2,-3 0,-4 -1,-5 -2,-8 -2,2 -3,6 -4,8 -2,2 -3,4 -4,8l10 -1c3,-3 6,6 1,4 -3,-1 -2,7 -6,4l-3 0 -4 0c-3,-5 1,-9 -2,-11 -1,-1 -4,1 -5,-4l-4 0c-1,-4 -2,-3 -2,4l-4 0c-4,-4 -10,3 -16,0l0 -4c-3,1 -3,-4 -5,-3 -2,9 -6,-12 -11,-4 -1,0 -2,1 -2,4 -3,-2 -4,-5 -6,4 -2,0 -3,-3 -3,-8l-5 0c-3,-3 -7,2 -11,-3 0,6 -3,3 -2,11 2,5 7,-1 7,12 -4,-5 -12,-7 -14,4 -3,-6 -5,-4 -5,-12 -2,1 -5,-1 -5,4 -4,-21 15,7 14,-12 -2,-2 -5,-1 -6,-7l-2 0c-2,-3 -7,5 -8,-4l-4 0c-4,-1 -8,1 -11,4 0,-7 -1,-9 -4,-8 -12,7 -17,-10 -28,1 -2,-7 -9,-13 -11,0 -6,-13 -15,-13 -22,-11 -2,-13 -3,3 -9,-8l-3 0c-1,-1 -3,0 -3,-4l-7 0c-1,2 -3,4 -6,5 0,6 2,15 6,11 5,1 11,-4 14,4 3,-1 1,2 1,7 -2,13 -7,-15 -11,1 3,13 6,23 13,19 0,3 -1,4 -2,4 -2,0 -3,3 -4,8 3,3 7,6 10,7l0 -11c0,-5 2,-4 4,-4l7 0c3,-4 3,5 6,3 8,-1 10,7 15,-4 2,9 5,14 8,8 -3,28 11,15 8,23 -8,2 -14,-7 -23,-3 -1,-1 -2,-5 -4,-4l-9 0c1,12 -3,7 -5,8 0,-10 -1,-14 -4,-12l0 8c-4,-12 -11,-7 -15,-12l-2 0c-4,-4 3,-10 3,-15l-7 0c-9,14 -15,16 -27,8 -5,-13 -9,17 -12,-4 -6,2 -3,-7 1,-4l0 -11c-4,0 -10,-4 -9,12 -2,-3 -7,4 -7,-4 4,5 7,-10 5,-12l-1 -4c9,8 14,-9 15,0l0 4c3,-2 3,7 6,4l0 4 -3 0 0 7c2,2 6,-4 6,4l11 0c-1,-13 -6,-9 -10,-12 0,-8 4,-1 6,-4 6,8 12,-2 19,8 2,-7 0,-24 -2,-27 -8,-4 -9,4 -8,15 -2,-15 -7,-23 -11,-11 0,-8 -2,-10 -4,-16 5,-4 11,12 14,0 0,-1 -1,-1 -1,-2 -8,2 -18,-1 -26,-1 4,-2 8,-4 12,-4 -6,-4 -13,-10 -17,-4l-2 0c1,6 4,2 4,8 -1,6 -7,3 -11,4l-7 0 1 19c0,6 3,2 4,8l-8 0c-1,17 7,-1 6,16 -7,-11 -21,3 -26,-4 2,-2 -1,-4 -1,-8 8,-4 17,12 18,-12l4 0c-4,-7 0,-15 -3,-23 -6,-1 3,17 -4,12 1,-18 -7,-13 -8,-8l0 4 -1 0c1,14 6,11 8,19 -4,11 -16,-7 -17,-7 3,0 6,0 6,-8 -1,-2 -2,-6 -3,-10 0,1 -1,1 -2,2l-5 -1 -1 4 -10 -1c2,-4 5,-5 9,-6 -4,-1 -8,-5 -11,-7 2,-7 8,-3 12,-4 2,1 3,5 5,3l3 0 1 0 1 0 13 0 2 0c-1,-7 1,-8 2,-12 -4,6 -7,-11 -9,1 0,5 -3,5 -4,0l-4 0 -3 0 0 -4c-4,5 -7,-2 -11,-7 -1,2 -2,3 -4,1 -1,1 -1,0 -1,-2 1,0 2,0 2,-1 -1,-1 -3,0 -4,5l-4 0c-1,0 -1,0 -2,-1 -1,0 -1,0 -2,0 -3,-3 -5,3 -7,1l1 -5 1 0c-1,0 -1,-1 -1,-3 -5,4 -3,30 -9,32 0,-13 3,-15 2,-31 -1,0 -1,-1 -2,-1 0,1 0,1 -1,1 0,0 0,-1 0,-1 0,0 -1,0 -1,0 0,2 0,3 1,4 0,1 0,1 0,2l0 0c0,1 0,2 1,2 -4,3 -7,0 -9,-4l-2 0c1,0 1,-1 1,-1 0,-2 -1,-3 -2,-4 -1,0 -1,0 -1,0l-1 2c3,3 -3,0 -2,7l-3 -1 -4 0c1,-2 2,-4 3,-6 -1,-1 -2,0 -4,1 -1,3 -3,3 -3,0 -1,0 -2,0 -3,-1 -4,-3 -3,7 -7,4 0,-1 0,-2 0,-3 -1,1 -1,1 -2,2 -3,-2 -11,0 -9,-6 -3,0 -6,-2 -9,-2 -1,1 -1,2 -1,4 -1,1 -3,2 -4,1 0,-1 1,-2 1,-3 -1,0 -2,2 -3,3 0,-2 0,-3 0,-5 -2,3 -4,2 -6,1 0,5 2,11 2,20 -4,-2 -7,-1 -10,1 0,0 0,2 0,3 -6,5 -5,8 -2,10 6,1 13,2 20,5 0,5 2,6 0,8 -8,-6 -17,-10 -22,4 7,3 10,-9 14,4 -2,0 -5,0 -4,8 2,-1 9,-1 5,4 -6,-2 -5,-2 -11,0 0,-3 -1,-6 -1,-8l-2 0c-1,6 -3,4 -5,-1l-9 0c0,-3 1,-4 1,-4 -1,-1 -2,-2 -2,-3 -3,6 2,13 -3,12 -3,-16 -11,-2 -15,-7 -2,1 -7,2 -11,3l-10 -1c1,-4 0,-5 0,-8l10 1c4,0 7,1 10,1 -1,-1 -1,-3 -1,-4l12 0c0,-5 2,-7 0,-8 -4,-4 -11,2 -15,-12l-1 0c0,0 -1,0 -2,0 -1,1 -2,1 -2,4 2,1 3,0 4,4 2,1 4,2 5,4l-6 0c0,0 -1,0 -1,0 0,0 0,0 0,0l-4 -1c-1,2 -2,3 -2,0l-1 0 -10 -1c0,-1 -2,0 -2,-4l11 1c0,0 1,-1 3,-1 1,-1 1,-3 1,-6 -3,-1 -7,-2 -10,-1 -3,0 -17,4 -16,-2 2,1 3,0 4,-3l12 1 6 0 4 1c0,-2 0,-5 -1,-7 2,-6 6,-5 10,-4 -1,-2 -2,-3 -4,-4l9 0c0,-1 1,-2 1,-4 1,0 3,2 5,5l2 0c0,1 1,3 1,8 -8,15 10,1 11,12 -5,-3 -13,4 -16,-3 -1,1 -1,1 -3,1 0,1 -2,0 -2,4l9 0c6,2 13,2 20,2 0,-3 0,-6 -1,-9 -5,4 -9,4 -13,-13 10,1 20,7 26,0 0,-4 1,-4 1,-8 -1,-6 -6,1 -6,-7l-5 0c-3,2 -8,-4 -10,2l1 0c-2,9 -8,1 -12,3l-1 0c-6,-1 -12,-1 -17,3 0,-5 1,-7 2,-8 -2,-1 1,-10 -1,-12 -1,1 -2,2 -2,2 -1,3 0,8 1,10l-6 0 0 -6c-3,1 -6,2 -9,1l-10 -1 -5 -1c-5,-5 -11,11 -14,-1 -3,7 -8,2 -12,3l-7 0c0,0 -1,1 -2,2 0,12 4,1 6,2 2,-1 2,4 4,4l8 1c0,11 -6,-4 -6,7 3,0 5,0 5,8l-8 0c0,4 -2,4 -4,3 0,-6 1,-13 -2,-12 -2,-2 0,18 -4,12l0 4 23 1c0,-8 5,-1 7,-3 1,14 -5,5 -7,7l-12 -1 -10 -1c0,2 0,2 -1,3 11,0 22,-4 30,3 -6,6 -12,4 -17,3 0,1 0,3 0,4l-9 -1 -2 0c1,2 2,4 3,4l8 1c-1,2 -1,3 -3,4 1,0 0,1 0,1l-12 0c0,1 0,1 0,1 1,1 2,1 4,1 -3,14 -20,9 -12,3 1,-1 3,-3 5,-3 0,-1 0,-1 -1,-2 -5,1 -8,-7 -12,0l0 -7c7,1 10,-7 15,3 0,0 1,0 1,-3 0,-2 0,-3 0,-3l-2 0c0,-1 0,-1 0,-2 -1,0 -3,2 -3,-1 0,1 0,1 0,2l-10 0 -6 -1 -4 0 -8 -1c-4,5 0,-13 -4,-8 -2,0 -11,-3 -7,3 10,-12 2,38 -1,24l-2 -1c-4,10 -7,5 -12,3 0,-2 0,-3 1,-4 -3,1 -5,1 -6,0 -2,4 -3,2 -5,1 -1,0 -1,-1 -2,-1 -1,-1 -2,0 -4,3 -3,-4 -3,5 -6,3 -5,0 -10,0 -13,-5l-8 0c0,-4 1,-5 1,-8 0,-1 -2,0 -2,-4l5 0c0,-5 2,-3 3,-7 -2,-3 -7,4 -6,-5 2,3 8,-4 8,5 1,0 2,-1 2,0l1 -12c-3,-2 -8,5 -8,-4l9 1c1,0 1,4 2,4 0,-9 5,-2 6,-4l4 -11c0,-4 -1,-5 -1,-8l-1 0c-4,0 -6,6 -11,3l0 4 10 1c-1,4 -3,2 -3,7 -5,-6 -9,2 -16,-1l-2 0 0 4 1 0c-2,9 -9,-3 -11,10 3,3 8,-4 9,5 -4,-2 -6,1 -9,3 0,0 0,1 0,2 -2,-3 -3,0 -4,3 0,1 0,2 0,3 2,2 7,-4 6,4 -2,4 -9,13 -11,3 0,-3 1,-5 1,-7 -1,-1 -1,-3 -1,-5 0,0 0,0 -1,0 -1,1 -1,7 -1,12l-6 -1 0 -3c-6,-2 -10,3 -16,6 -2,-1 -2,5 -4,3 -1,-8 3,-12 -1,-11 -1,0 -1,4 -2,7 -2,0 -1,-10 -4,-8 -7,5 -10,1 -19,2l-4 0c-3,3 -4,5 -5,-4 -1,5 -2,5 -2,11 3,3 9,-4 9,5l-15 -1c0,-3 1,-5 2,-4 1,-9 -3,-5 -3,-12 -3,4 -9,-3 -10,11l-3 0 0 -12 -2 0c-1,5 -3,3 -5,3l0 4c-8,2 -7,8 -16,3 -3,10 -7,-7 -13,-1 0,6 -3,1 -4,7l4 0 24 2 4 1 12 1 4 0c10,4 24,-3 32,7l4 0c2,-9 7,-1 10,-3 13,5 29,4 41,11 -2,9 -9,1 -13,3 -7,-3 -13,0 -23,-2 -2,2 -3,-3 -4,-4 -4,9 -12,0 -18,2 -7,2 -13,-5 -17,-1l-8 -1c-1,-2 -2,-4 -3,-4 -5,9 -15,0 -22,2 -4,3 -5,-5 -9,-5 -4,-2 -7,1 -10,3 2,-13 -3,-7 -4,-4 -2,6 -8,5 -10,-1l-10 -1c-1,6 -5,1 -5,8 -1,8 4,2 5,4 1,7 -9,8 -14,7 2,-15 2,-12 1,-28 -2,2 -2,13 -5,8 -5,-4 -4,-1 -10,-1l1 -4c2,-1 4,-6 8,-3 0,-9 5,-1 7,-3 1,0 1,-2 2,-4 -1,-7 1,-7 2,-8 1,13 -5,26 2,24 3,4 4,-6 6,-7l3 0c2,4 5,5 7,4 2,2 3,-3 4,-3 0,-4 -1,-5 -1,-8l-13 -1c-2,-1 -4,1 -4,-5l4 1 13 1 5 0 12 1c3,-2 9,6 11,-3 -4,-11 -9,4 -14,-1 -4,1 -6,-9 -9,0 -2,-1 -4,1 -4,-5 -4,0 -7,-2 -9,3l-5 0c-2,0 -2,-5 -4,-4 0,3 -2,3 -3,3l1 -3 -10 -1c-1,5 -2,6 0,11l-10 0 0 -8c1,1 2,-2 2,-4l-3 0 -2 0 -2 -1 -3 0 0 -4c-4,3 -9,4 -15,3 -2,18 9,0 9,12l-1 0c-2,2 -2,5 -4,0l-7 -1c0,-6 1,-13 -2,-12 0,9 -1,13 -4,12l-7 -1c-3,-2 -3,7 -6,4 -1,-4 0,-11 -2,-12l0 -4c-2,-1 -2,4 -5,3l-2 0c0,-9 -6,-2 -8,-5 -2,0 -3,2 -4,4 -3,-1 -5,-1 -7,3 0,-4 -1,-3 -2,-4 2,-10 6,-15 11,-14 -1,-12 3,-7 5,-8 5,0 8,-6 14,-2l0 -4 -3 -1c-6,5 -4,-13 -9,-8l-3 0 -11 -2c-2,11 3,18 -2,16 0,-2 0,-5 -1,-4l-9 -1c-1,0 -1,5 -1,8 -1,-5 -4,-5 -6,-1 0,19 6,-1 9,5 3,8 2,-1 4,-3 2,-1 2,3 3,4 -2,3 -3,10 -6,11 -4,-7 -3,2 -7,3 -4,1 -10,-4 -13,3 1,9 8,2 11,5 2,8 -10,-1 -11,11l4 0 18 1c-6,8 -21,16 -30,13 -3,0 -4,-7 -7,-4 5,-7 2,-8 -4,-8 -3,-12 -4,9 -9,3 0,-12 5,-3 6,-11l6 0c3,1 4,-3 4,-11l-2 0c-3,-1 -4,6 -8,3 -2,-2 -3,2 -5,3 -3,-5 -7,13 -6,-4l-6 -1c-1,5 1,7 -1,8l-11 -1 -2 0 -13 -1c0,4 -1,6 -2,8 -2,5 -6,2 -10,3 -1,-14 4,-2 4,-12 -6,0 -9,6 -14,-1 0,4 -1,5 -2,8l-4 -1 -2 0c-4,6 -5,9 -10,3l-4 0c-1,13 -6,-7 -6,3 1,1 1,11 0,12 -3,-2 -5,-7 -8,-5 2,-9 -1,-4 -1,-12l-9 0 -2 0 -2 -1 -8 0 -11 -1c-3,2 -9,-6 -10,3l-2 0c-4,8 4,14 6,8 2,2 2,-7 6,-4 1,7 6,4 9,5l6 1c-1,11 -8,-4 -9,7l-2 0c-1,2 -2,3 -4,3 -4,-7 -8,-3 -12,3l-2 0 -8 -1c-4,-5 3,-4 4,-3 0,-4 -2,-5 -1,-12 3,1 5,-1 5,-12 0,-4 -2,-4 -4,-4 0,0 -1,0 -1,-4 -3,1 -4,6 -8,3l-1 0c-2,-1 -3,4 -4,4 2,7 6,7 9,5 0,9 -3,4 -4,11l-4 0 -2 -1c-1,13 4,7 6,9 0,5 -9,7 -12,3l-14 -2 -7 0c-3,8 -10,0 -15,2l-1 0 -6 0 -12 -1 1 -8 -4 0c-10,-2 -16,11 -27,5 1,6 2,9 5,8 5,-2 11,-4 14,5 5,10 6,-21 7,-11 -1,16 6,5 9,9l7 1 18 1c1,1 3,0 3,4l-2 0 -14 -1 0 4 10 1c-2,15 -5,0 -8,7l-2 0c-4,-9 -2,7 -8,3 -1,0 -2,-1 -2,-4 2,1 4,-3 4,-12 -3,-1 -3,7 -6,4l-1 11c-2,6 -6,3 -9,3 -4,-3 -5,6 -9,4l1 -8 5 0 3 1c2,-3 8,7 7,-8 -4,-2 -7,1 -9,3l-6 0c-1,-17 -9,0 -11,-9 0,5 0,11 -1,12 -2,-1 -2,-5 -4,-4 -2,-9 -4,2 -8,-1 0,-5 2,-8 -1,-8 0,3 0,8 -1,8 -1,3 -2,4 -3,3l0 4c4,5 -3,1 -2,12l-3 0 -5 -1c0,-6 6,-12 1,-12l-5 0c0,4 1,3 2,4 -1,9 -7,5 -4,-8 2,-2 6,5 7,-3 -2,-1 -5,1 -5,-5 3,-1 7,6 6,-7l4 0c1,0 1,-7 3,-7 3,-2 4,7 8,4l3 1c0,-4 -2,-5 -2,-12l4 0c1,-1 2,0 2,-3l1 -4c-3,-1 -4,6 -8,3 1,-6 2,-7 1,-12l-1 0c-2,0 -3,2 -4,4 0,8 5,1 2,12 3,5 -4,3 -6,3l-4 0 -2 -1 -7 0c0,-4 -1,-5 -1,-8 -2,-8 -3,-1 -5,3l-2 0c-4,-3 -3,-3 -6,0l0 4c-5,-4 -7,5 -11,3l-21 -2c-1,-1 -3,-1 -3,-4 7,1 14,2 19,-3 -2,-11 -6,5 -10,-1l-12 -1 -2 0c-7,1 -9,3 -15,-1l0 4 -5 -1c1,-3 2,-3 2,-7l-2 -1c-3,12 -13,-6 -14,11 -1,1 -1,-2 -1,-4 -7,-2 -9,6 -14,3 -6,1 -21,11 -24,-6 0,-1 -1,-1 -1,-4l-1 0 -2 -1c-2,6 -6,6 -9,7l-5 0c1,-9 -5,-2 -7,-4l-3 -1c-4,-1 -8,0 -11,3 -3,6 6,4 8,5l0 4 6 0 2 0c3,0 6,0 7,5 2,1 3,-1 3,-4 6,1 5,7 5,16 -3,5 -5,-10 -9,3 0,-6 1,-6 1,-11 -4,-4 -6,14 -9,3 0,-5 2,-3 3,-4 0,-4 -2,-3 -3,-4l-1 0 -3 0 0 4c0,11 -7,-4 -7,7 0,4 -2,3 -3,4l-1 -1c-1,-6 -3,-10 -7,-8 -2,0 -3,3 -3,8l-5 -1 0 -12c-3,-3 -4,4 -7,4l-4 -1c0,7 2,11 0,12 -4,5 0,-13 -4,-8 -2,10 -5,7 -8,3l-3 0c-3,-10 -3,8 -7,3 1,-4 2,-10 1,-19l-1 0c-1,0 -1,3 -2,3 0,15 -6,5 -9,7 -1,4 -3,5 -6,4 -3,2 -9,-8 -8,7 3,-2 10,6 12,-3 1,5 5,4 8,5 -6,14 -15,-3 -24,5 -4,-1 -5,7 -10,3 0,-3 2,-2 3,-3l1 0c-1,-17 6,0 6,-11 2,-7 -6,-3 -2,-8l5 0c4,-11 -3,-7 -6,-8 -3,-7 -5,18 -7,3 0,-4 -2,-5 -2,0 2,1 -1,5 -3,4 -6,6 -12,-9 -15,6l11 1 9 1c1,2 2,3 2,8 -6,-3 -6,-1 -12,-1 -5,7 -9,-8 -12,6 -1,9 4,3 6,5 2,8 -9,2 -12,3 2,-7 6,-4 4,-19l-3 -1c-1,-2 -6,4 -5,-4 3,-1 12,6 8,-7l-1 0c0,-7 2,-8 2,-16 -2,0 -3,5 -5,4 -1,6 1,7 1,12l-13 -2c-3,16 5,2 4,13l-11 -1c-2,-2 -2,2 -2,7 0,10 10,6 13,5l-1 8 -16 -1c1,-4 6,-20 0,-20 -3,-3 -3,5 -6,3 0,9 -4,2 -6,4 0,5 5,8 0,8l-19 -2 -10 -1 0 -8 5 1 4 0c5,0 7,8 13,5l5 1c0,-4 1,-3 2,-4 0,-4 -1,-7 1,-8l6 1c0,-7 -1,-11 -2,-12l0 -8 19 2 0 -4 -6 -1 -9 -1c-2,1 -2,-4 -4,-4l-10 -1c0,4 0,7 2,8 -1,5 -2,4 -4,4 0,5 0,8 1,12 0,3 -1,4 -2,7 -3,3 -3,-6 -6,-4 -1,-7 0,-9 3,-8 5,-13 -3,1 -3,-8l-6 0c-1,9 5,-2 3,12 -5,0 -9,-1 -12,-5l-3 -1c-1,10 -4,14 -9,11l-9 0 -9 -1 1 -20 -1 0c-3,-2 -2,8 -4,8 -4,0 -6,6 -11,3l-4 -1c-6,-10 -12,1 -18,3 -1,4 -2,3 -4,3 -3,2 -4,12 -8,7 -2,-1 -1,-7 -2,-8 0,11 -7,7 -13,7 1,-4 0,-7 0,-8 0,-3 1,-4 1,-7 1,-3 4,-23 -1,-20 1,-6 4,-3 3,-11 -6,-3 -3,3 -5,11 0,4 -1,3 -2,3 -4,-3 -5,4 -8,4 1,9 7,2 10,4 -11,19 -25,-5 -39,1 -2,0 -4,0 -4,-4 -1,-1 -1,-4 -1,-8l-1 0c-2,-1 -2,3 -1,4 -1,8 -5,1 -7,3l-3 0c-2,2 -6,-5 -6,3 0,12 9,-5 7,12 -2,2 -7,-5 -7,4 4,11 -10,9 -10,7 0,-2 7,-7 6,-8 3,-6 -7,-3 -9,-4 -8,-7 -11,6 -14,-5 -5,2 -10,4 -16,2 -6,2 -15,-7 -18,6l13 1c13,-1 13,8 0,4l-13 -1c0,-4 -7,-4 -3,-8 0,-9 -6,-2 -8,-4l-22 -2c-5,-3 -13,4 -16,-6l-8 0 -4 -1c8,6 0,15 -4,8 -2,2 -10,8 -13,-1 -4,6 -5,-3 -10,-1 0,-5 3,-3 5,-4l0 -3c0,-8 -8,-8 -6,7 -3,-5 -8,-5 -13,-5 -4,-4 2,-5 3,-4 0,-4 -2,-3 -3,-4 -7,10 -19,5 -27,9 0,-4 0,-6 -1,-7 -2,1 -3,3 -3,7 -4,2 -4,-7 -8,-4 -12,7 -21,-3 -33,1 0,-5 0,-7 1,-7 -17,10 -48,6 -67,1l-9 -1 -2 0 -13 -1 -7 0 -8 -1c-8,-3 -18,3 -23,-6 -5,6 -12,2 -19,2l-9 0 -2 -1c-2,-2 -7,4 -6,-4l-1 0c-8,-6 -16,9 -22,-2l-1 0 -6 0 -2 -1 -1 0c0,0 0,0 0,0l-4 0 -4 1c-7,2 -13,-3 -19,2 -2,-6 -5,0 -8,-1l-2 0 -8 2c-2,-6 -5,0 -6,-1l-4 1 -4 1c-3,0 -7,3 -9,-1 0,3 -2,4 -4,4l-1 0c-2,-1 -4,4 -5,-2 -4,2 -7,3 -8,-3 -2,4 -7,12 -11,5l-1 0c-19,8 -40,2 -56,3 -3,3 -6,-1 -10,0l-1 0c-2,3 -4,-4 -6,-1 -4,3 -7,-2 -10,-1 -2,-1 -4,5 -6,-1 -4,1 -8,1 -11,-2 -3,-2 -6,5 -9,-1 -3,0 -6,4 -8,-1 -45,-7 -92,-2 -135,-8l0 -44c2,2 3,0 1,-7 0,0 -1,0 -1,0l0 -87 6667 0zm-1570 29l-6 0c0,1 0,1 0,2 2,9 4,2 6,-2zm-1726 0l-16 0c0,1 0,1 1,1l6 0c2,0 6,0 9,-1zm2038 194l4 0c4,3 7,-4 11,-1 2,7 -16,3 -22,6 2,-5 4,-6 7,-5zm-2716 -93l1 3 6 1c0,-2 -1,-2 -1,-3 -1,0 -1,0 -1,0l-5 -1zm1 5c1,3 1,6 2,8 2,-1 4,-2 6,-4l0 -2 -2 -1c-2,-3 -5,11 -5,2 1,-2 0,-2 -1,-3zm-7 7c0,0 0,0 0,-1 -1,1 -2,0 -2,4 1,1 2,4 3,5 0,-2 -3,-2 0,-4 0,-2 -1,-2 -1,-2 0,-1 0,-1 0,-2zm9 12c1,1 2,2 3,2 1,-3 3,-3 3,-9 1,-3 2,-3 2,-5l-2 0c-2,0 -3,4 -5,4 -1,3 2,2 3,3 -1,4 -3,1 -4,4 0,1 0,1 0,1zm-60 9l1 0c0,1 0,1 1,1 2,2 5,3 8,3 -3,0 -6,-1 -8,-3 0,-1 0,-2 1,-3 -1,0 -2,1 -3,2zm3 -6c-1,-2 -2,-2 -4,-1 1,0 2,0 4,1zm-12 -5c1,-4 5,2 4,-5 0,0 -1,0 -1,0l0 1 0 0c-1,0 -2,0 -3,-1l0 0c0,2 -1,3 -2,5 1,0 1,0 2,0zm-2 -8c-1,-3 -2,-6 -5,-5 1,5 1,8 0,12l3 0c0,-3 2,-2 2,-4 -1,-2 -5,2 -4,-4 1,1 3,1 4,1zm-13 11c2,-1 5,-3 6,-10 -3,-1 -5,3 -9,1 0,2 1,3 0,5 1,2 5,-2 4,3 0,1 0,1 -1,1zm7 -13c0,-1 0,-2 0,-3 -1,1 -2,0 -2,-1 -2,0 -3,1 -3,4 1,1 3,0 5,0zm-6 -9c0,0 0,1 0,1l0 0c0,0 0,-1 0,-1zm-11 13c-2,-1 -5,-1 -6,1l0 1 3 1c1,-1 2,-2 3,-3zm-5 5c0,1 1,1 1,2l0 -2c0,0 -1,0 -1,0zm-3 -3c0,0 0,0 -1,0l1 0zm-6 -3c0,-1 0,-1 -1,-1 0,-3 -2,-2 -3,-1 0,0 0,0 0,0 1,1 -1,7 2,6l1 0c0,-2 1,-3 1,-4zm-7 -4c0,0 -1,0 -1,-1l0 -2 -3 -1c0,4 -1,5 -2,6 0,1 1,1 3,2l1 0c1,-2 1,-2 2,-4zm-1 -6c0,-4 0,-4 0,-6 -1,2 -6,4 -7,2 -1,3 1,3 2,3 3,-1 4,1 5,1zm-1 -7l0 -1 0 1 0 0zm-11 5c0,5 3,3 5,3l0 0 -1 0c-2,-1 -4,0 -4,-3l0 0zm-10 23c0,-1 0,-2 0,-3l-6 -1c-2,1 -3,2 -5,0 1,1 1,2 1,2 4,1 7,1 10,2zm-1 -6c-1,-2 -2,-1 -4,0 2,1 3,0 4,0zm-7 12c-1,6 -9,5 -12,10 2,5 5,4 7,6l0 0 1 0c2,0 3,-3 5,-4 -1,-5 1,-5 1,-10 3,-3 4,3 6,8 1,0 2,5 4,4 0,-1 0,-2 0,-2l-1 0 0 -1c0,-3 -1,-4 -1,-9 -4,-1 -6,-3 -9,-2l-1 0zm-365 -35c0,0 0,0 -1,0l0 0 0 0 1 0zm-79 -11c-1,0 -1,0 -2,0l-1 1c0,0 -1,0 -1,1 2,0 3,0 4,-2zm358 93l-4 0 -2 0c0,-4 1,-3 2,-4 2,-6 6,-3 10,-4 2,1 1,17 3,19 -5,3 -4,-14 -9,-11zm67 -13c1,4 2,10 4,15l-5 0c-1,-8 0,-10 1,-15zm-135 30c-1,-1 -2,0 -2,-4l11 0 2 0c19,13 44,1 65,10l4 0c1,-2 2,-4 3,-4 1,1 2,3 2,8 0,3 1,4 2,4l0 -12 7 0 3 0c1,5 3,7 4,15l-1 0c2,3 0,24 -2,12 4,-8 -6,1 -6,-8l-2 1c-4,3 0,8 -2,15 -2,1 -9,-4 -6,-8 6,11 5,-11 -1,-11 -1,4 -3,4 -5,0 -7,1 -10,13 -16,4l-1 -4c2,0 3,-1 3,-8l-13 1c0,9 -4,5 -5,11l-6 1c-1,-7 -3,-15 -9,-12 -7,2 -10,-13 -18,-7 1,21 12,7 18,11 3,-1 6,-1 6,8 -6,-2 -11,-7 -16,0 1,6 4,2 4,8 -8,-6 -15,-16 -25,-16l0 -3c3,-3 10,4 11,-5 -2,-5 -5,-6 -9,-7zm136 1c0,-6 3,-4 4,-4 5,-12 12,5 19,0 -3,-11 5,-11 5,-4 -4,0 -1,19 -5,19 -1,0 -3,1 -3,-4 -1,-2 -1,-4 -2,-3 -1,10 -10,17 -14,8 1,-1 1,-4 1,-8l-3 0 0 4c0,7 -12,17 -12,4 -9,4 -14,10 -24,4 1,-5 1,-9 0,-15 15,0 20,-9 34,-1zm-338 -45c-1,14 4,2 4,11 -4,0 -14,-2 -12,-7 4,3 4,-6 8,-4zm367 -18c0,0 1,1 1,1 0,-1 -1,-1 -1,-1zm11 2c-3,2 -7,0 -8,6l4 1 0 0c4,-2 8,-2 13,-2 0,-1 0,-2 0,-3 -2,0 -2,-2 -3,-3 -1,2 -4,2 -6,1zm10 15c0,0 0,-1 0,-1 -1,0 -1,0 -1,0 0,1 1,1 1,1zm-227 10c-8,-8 -18,6 -27,-7l-7 0c-5,4 -11,-6 -6,-12 2,4 4,6 7,4 3,3 8,-5 10,4l9 0 5 0c2,9 9,1 14,3 2,6 6,4 9,4 1,0 2,1 2,4l10 0c0,0 1,0 1,4l-1 0c0,21 -5,4 -10,8 0,-6 -1,-9 -1,-12 -3,4 -6,5 -9,8 1,-13 -4,-6 -6,-8zm-210 -16c1,0 2,3 3,3 3,-4 6,12 7,0 -1,-16 -5,3 -6,-7 1,-1 1,-4 1,-8 3,3 3,3 7,0 -1,18 4,-7 5,8 -1,4 -4,1 -3,11l11 0c4,-2 5,-5 7,8 -1,-1 -3,16 -5,4 5,-7 -4,0 -3,-8 -11,-2 -23,4 -26,-4 -4,-4 -1,13 -5,8 0,-9 -5,-5 -6,-11l12 -1c0,-2 0,-4 1,-3zm24 -8c2,-7 6,-2 8,3 -2,0 -1,7 -3,8 0,-8 -5,-1 -5,-11zm103 2c-4,-1 -10,5 -10,-8 3,2 9,-4 10,8zm-329 -8c3,1 8,-3 9,8 -3,-2 -11,-3 -9,-8zm534 -23c-2,1 -2,-1 -2,-3l-2 -1 0 -2c-2,0 -3,0 -4,1 0,2 0,3 0,6 1,-1 2,1 2,2 2,-1 4,-3 6,-1 1,-1 1,-1 1,-2l-1 0zm5 -5c-1,2 -2,4 -2,5 1,0 2,1 3,1 1,0 1,-1 2,-3 0,-2 1,-3 2,-4l-5 0c0,0 0,0 0,1zm-851 -16c1,17 -6,10 -7,4 1,-5 4,-4 7,-4zm751 109c-1,1 -2,3 -1,8 -3,5 -6,6 -8,12 -1,-6 -1,-9 -2,-12l7 0c-2,-6 -4,-14 -9,-12l0 -4c3,-7 11,-2 13,8zm-437 -56l4 1c4,-3 9,-5 14,-3 1,2 2,4 4,4l1 0c-6,13 -14,-2 -21,6 -1,0 -2,-1 -2,-8zm54 1l22 2c1,1 3,0 2,4l-21 -2c-6,6 -22,-9 -3,-4zm44 27c-5,-1 -10,-1 -13,3l-3 0c3,-7 13,-12 16,-3zm-165 -2c-2,0 -3,0 -3,-4 4,-8 9,-7 13,1 5,2 10,-1 14,-3 7,4 15,-3 19,2l11 1 21 1c-5,12 -15,6 -22,3 -1,8 -6,1 -9,3l-7 -1 -16 -1c-3,-3 -4,6 -8,3 -3,-4 -7,-5 -12,-5l-1 0zm97 0c7,6 -7,4 -9,3 -7,-5 7,-3 9,-3zm-342 -13c-2,-3 -7,4 -7,-5 6,7 7,-14 11,-3l2 0c4,3 11,-4 13,5l-2 0c-7,-4 -11,5 -17,3zm-87 0c0,-4 1,-5 2,-8 0,-3 -1,-4 -3,-4 1,-8 5,-1 7,-3 -1,8 2,5 1,12 -3,-4 -3,6 -7,3zm217 15c-2,-3 -6,4 -6,-5l14 2c0,2 0,4 -1,3l-7 0zm-83 -7c5,4 -9,4 -1,7 -1,6 -11,8 -9,-4 3,-3 6,-5 10,-3zm23 1c-3,8 -10,11 -12,3 3,-5 6,1 12,-3zm33 3c0,4 1,4 2,4 -2,4 -1,15 -4,12 2,-15 -3,-8 -2,-20l3 0c0,3 0,5 1,4zm28 11l4 0c6,3 8,-6 14,-3 2,10 -19,5 -26,10 2,-7 4,-9 8,-7zm93 4c3,4 -5,6 -7,7 -1,-14 5,-5 7,-7zm-374 -21l-21 -2 0 -4c7,3 17,-3 21,6zm87 12c-1,-6 0,-10 2,-12 3,0 2,5 0,4 1,12 5,-3 8,1 0,12 -6,6 -10,7zm167 14c5,0 10,0 13,5 0,5 -3,3 -5,4 -4,1 -4,-9 -7,-1 -2,-2 -2,7 -4,7 1,-5 1,-11 0,-11l-13 -2c-8,-3 -19,4 -24,-5l24 2 16 1zm145 16c-6,-3 -14,4 -17,-5 5,3 14,-4 17,5zm-263 -15l-3 0 0 -4c-3,-2 -10,4 -11,-5l13 2c1,1 1,3 1,7zm13 -6c-1,16 -9,4 -11,3 2,-9 8,-1 11,-3zm194 13c1,0 3,1 2,8 -3,-4 -11,7 -10,-9l8 1zm-436 -26l0 -4 13 1c-3,8 -8,13 -14,10l0 -4c5,4 8,-5 1,-3zm45 4c3,-1 6,-1 7,4 1,-1 2,-4 3,-4 2,-8 24,-1 14,2 -4,8 -10,7 -16,6 0,6 -10,8 -8,-5l0 -3zm47 0l36 3 11 1c8,3 25,-3 27,6 -2,15 -9,10 -15,10 3,-10 10,-2 14,-10l-19 -2 -7 0c-3,-1 -6,-1 -8,3 -2,11 -5,-9 -8,3 -2,-6 -13,6 -7,-8l-18 -2 -7 0 -6 -1c-14,-1 -1,-7 7,-3zm93 8c0,3 0,7 -2,7 -2,-9 -9,-2 -14,-5 -1,-8 12,-1 16,-2zm27 -2l0 8 -5 0c-1,-3 -6,4 -6,-5 5,2 8,0 11,-3zm-55 23c-2,11 -5,-2 -7,-1 -1,0 -2,-1 -1,-4 3,0 7,-1 8,5zm-227 -12l-13 -1c1,-7 11,-6 13,1zm-516 -45c1,1 1,4 3,4l24 2 9 1c-2,6 -6,8 -10,7 -8,-9 -16,0 -23,-6l-5 -1 -11 0 0 -4c3,-9 9,-1 13,-3zm292 29l5 1 1 0 9 0c2,0 3,1 3,5l-7 -1 -3 0 -2 -1c-2,6 -5,4 -9,4 0,-4 -7,-9 -8,-1l-3 0c-2,7 -10,5 -10,-5l0 -4 24 2zm141 8l2 1c0,10 -4,7 -7,7l-4 0c-3,-9 8,0 9,-8zm-524 -29c-4,11 -9,-3 -13,-1 3,-9 10,-2 13,1zm-14 -2c-2,7 -11,6 -12,-1 -5,-2 -18,3 -16,-5l20 2c3,0 6,-1 8,4zm1419 -33c-1,-5 -1,-8 2,-8l4 1 4 0c1,0 1,7 0,8 -2,-10 -7,-2 -10,-1zm-2 19l8 1c0,12 -3,7 -5,7 0,1 1,1 1,2 4,-1 7,-2 8,4 -3,4 -6,11 -10,11 -1,-5 -2,-5 -2,-11l0 -4c0,0 0,0 0,0 0,-2 0,-5 0,-10zm-126 29c-1,10 -5,7 -8,7 1,-10 4,-8 8,-7zm-318 -12c0,-9 -6,-2 -8,-5l0 -3c6,3 8,-4 13,-3 0,4 -2,3 -4,3 0,11 8,-2 7,9 -2,9 -8,1 -12,3 1,-5 3,-3 4,-4zm-142 -16c4,-5 9,-4 13,-3 0,4 -1,3 -2,4l-2 0c-1,10 1,8 -1,15 -3,-10 -3,-4 -8,-4 -7,-2 -11,5 -18,2 -1,0 -1,-1 -1,-4 6,-1 12,-5 19,-2 2,0 3,1 4,-4 -2,-1 -4,0 -4,-4zm-42 20c0,-5 -2,-5 -3,-5 3,-10 6,-5 10,-3 0,7 2,9 5,9 -3,9 -10,1 -12,-1zm347 22c12,0 6,3 3,8 2,2 6,-4 6,4 -13,2 -8,-7 -17,-13l8 1zm-273 -16c2,2 7,-4 6,4l-13 -1c-4,0 -7,6 -11,7 1,-3 2,-4 2,-7l-20 -2c-3,4 -26,-5 -18,-10 2,1 8,11 10,1l9 1c7,11 15,-4 21,6l7 0 7 1zm30 3c10,-4 14,-5 24,-6 -6,10 -19,11 -24,10 -5,-3 -6,6 -11,2 0,-15 8,-3 11,-6zm33 3c3,-7 7,-13 12,-11 -2,7 -9,18 -12,11zm196 9c0,9 -6,-3 -4,11 -4,4 -1,-13 -5,-8l0 -4 9 1zm79 6c4,9 -5,29 -7,15l1 -3c4,3 5,-4 6,-12zm-238 -5c2,4 9,-6 8,9 -4,0 -7,1 -9,-5 -1,0 -2,1 -2,4 -20,0 -7,-7 3,-8zm180 20c0,6 -8,6 -8,-1 4,2 6,-8 8,1zm-59 -17c-1,4 -2,3 -3,4 0,4 1,3 2,4l11 1 1 0c3,-2 4,-9 7,-7l0 4 -2 -1c0,9 6,3 8,5 0,7 -2,9 -5,7l0 -3c-4,2 -3,-7 -7,-5 1,8 -2,7 -4,7l-1 0 -4 0c-3,4 -9,-4 -15,-1l1 -8c5,6 6,-7 11,-7zm-369 -5c-1,-8 2,-7 4,-7 1,6 19,4 10,9 -3,-1 -6,-1 -7,3l-7 -1 -5 0c-17,0 -6,-8 5,-4zm-244 -17c3,-3 7,-5 11,-3l29 3c4,-4 5,-4 9,0l2 1 4 0 4 0 4 1c5,-1 9,-6 15,-3 0,3 -1,4 -1,8 3,3 3,-5 6,-4 4,-2 9,-4 14,-2l12 1 1 0c3,3 10,-4 11,5l-5 -1c0,24 -10,1 -13,7 1,3 1,7 2,12 -1,3 -2,7 -3,7 -5,-1 -14,3 -13,-9 0,-5 -4,-1 -4,-8 2,-1 7,6 6,-7 -4,-2 -4,7 -8,3l-2 0c0,3 1,4 1,4 -1,8 -6,1 -5,15 -1,3 -3,4 -5,4 1,-8 3,-11 4,-16 0,-6 -1,1 -4,-4l0 -4c-4,-5 -3,6 -5,8 -5,-2 2,-14 -3,-12 -1,10 -4,7 -7,7 -2,5 -5,4 -6,11 -2,1 -2,-4 -3,-4 0,-6 4,-1 4,-8 -7,0 -15,-2 -20,2 -1,0 -2,-3 -1,-7 -8,-4 -19,10 -30,5 -1,-10 10,1 6,-7l-1 -1 -6 0 -7 -1c-2,1 -4,-1 -5,4 -1,-1 -2,-1 -2,-4 -3,-17 11,-5 14,-3zm10 24c-5,-2 -8,2 -12,3l0 -8c4,3 11,-4 12,5zm-291 -25c1,3 3,5 6,4 0,-5 -5,-7 0,-7 2,0 4,3 5,8 -4,0 -11,9 -13,-1 -7,-4 -11,5 -18,2 6,-8 14,-9 20,-6zm303 26c-2,2 -6,-5 -6,4 -3,1 -4,-1 -4,-8 2,-6 24,5 10,4zm-1179 -125l-3 1c-2,-6 -5,0 -7,-1 0,3 1,3 2,5 -1,1 -1,3 0,6 1,0 2,-1 3,2 6,-3 11,2 16,-2 1,0 2,2 3,2 2,-7 11,0 17,-5 -1,-8 -4,-2 -6,-6 -5,-9 -11,-4 -16,-7l-3 0c0,6 -5,-2 -6,5zm97 13c3,-3 5,4 5,-1 -1,-4 -3,-5 -4,-5 -2,0 -1,3 -1,6zm16 -1c3,4 13,8 12,-3 -4,-10 -5,4 -12,0l0 3zm545 57c4,4 6,1 12,4l12 1 14 2 9 1c6,3 15,-4 19,5l2 0c1,-3 2,-6 2,-11l-7 -1c-7,3 -14,4 -22,2 7,-6 15,-3 22,-6 2,-2 0,-4 -1,-4 -3,-2 -9,4 -9,-5 -5,4 -6,1 -11,0 -2,-2 -2,3 -4,3 1,9 -10,-1 -6,7 0,6 -3,5 -3,0l-4 0 -12 -1c-8,3 -22,-11 -27,5 4,-2 9,-4 14,-2zm75 14c3,-1 5,-6 9,-3l6 0c-1,-14 -4,0 -8,-4l-10 -1c0,5 4,1 3,8zm23 -2c1,5 7,4 7,-7l-2 -1c-4,0 -7,0 -9,8l4 0zm80 7c3,9 11,2 16,5 -1,-9 -6,-2 -9,-5l-7 0zm71 6c1,-10 -4,-4 -3,-16l-2 0c-1,3 -2,8 -2,15l7 1zm8 -19l5 0 1 1 13 1c4,-2 6,2 9,4 1,-1 2,-3 3,-7 -3,-3 -9,5 -7,-9 -3,2 -7,2 -8,7l-16 -1 -1 0 -7 -1 -1 0 0 4c1,0 1,2 1,4 2,-1 4,-6 8,-3zm6 16c0,-2 -1,-4 -3,-4 -1,-1 -2,1 -2,4l-1 4c2,5 6,6 6,-4zm122 7c1,-3 2,-4 2,-8l-4 0c-2,-1 -4,0 -5,7l7 1zm18 -18c4,2 10,-3 12,5 2,-9 8,-1 11,-3 3,0 8,-2 5,8 6,3 11,-15 14,1 0,-3 0,-3 1,-3 1,-3 2,-7 2,-12l-7 -1c1,-4 3,-20 -2,-15 0,4 -2,3 -4,3 1,4 3,4 2,12 -5,-3 -7,3 -11,3 -10,-7 -19,-3 -28,-2 -2,-6 -8,-2 -11,3l16 1zm51 -11c1,4 4,4 7,4 1,-8 6,-1 8,-3l11 1c0,-9 -6,-2 -8,-5 -6,3 -15,-5 -18,-1 -4,-7 -5,1 -11,-1 0,16 9,5 11,5zm57 5l1 0c3,1 2,-5 0,-4 -4,2 -10,-6 -12,3l11 1zm138 8l8 1c1,-11 -6,2 -5,-9 4,-6 10,14 11,-3 -8,-2 -10,-1 -14,-5l-1 4 3 0c0,7 -2,7 -2,12zm38 -5c2,1 3,-4 5,-3 3,1 2,-5 0,-4 -5,-1 -6,6 -9,-1 -1,14 -5,-9 -6,4l0 4 10 0zm8 5l6 1c-1,-14 4,-2 4,-12 -6,-5 -6,11 -12,7 0,4 1,3 2,4zm19 9l9 1c0,-5 -2,-3 -4,-4l-6 0 -10 -1c1,9 8,2 11,4zm13 -6l1 -8 5 1c2,-2 0,-4 1,-8 -7,-3 -8,-3 -14,-1 -4,0 -8,-5 -9,7 2,8 3,-2 7,0l1 0c4,-3 6,19 8,9zm9 -54c-1,-5 0,-8 2,-8 -1,-7 -2,0 -4,0 -1,2 -2,4 -3,4 -8,-3 -13,5 -21,2l0 4 7 0 14 1c3,2 4,-2 5,-3zm13 1l1 -4 -8 0c-3,6 -1,6 -3,15 7,7 5,-15 10,-11zm13 1c2,-4 2,-8 -1,-8l-4 0c-2,13 3,6 5,8zm17 2l9 1 2 0c-1,16 2,3 3,0 2,0 4,-2 5,-7l-6 -1c0,3 -1,4 -2,4l-4 -1c-1,1 -2,-1 -2,-4 -3,-11 -5,9 -10,3 -2,1 -4,-2 -5,4l10 1zm14 32l6 1c6,-5 11,11 14,1 -3,-8 -11,-3 -16,-5l-3 -1 -4 0c0,5 1,4 3,4zm20 -29l6 0c0,-3 0,-7 -1,-8 -1,2 -2,4 -3,4 1,-10 -3,-24 -3,-8 0,6 1,7 1,12zm12 -11c1,-5 -3,-5 -3,0l-1 11c4,3 3,-7 4,-11zm15 13l9 1c0,-6 -3,-4 -5,-5l-7 0 -5 -1 0 4 8 1zm58 13c2,-7 2,-21 8,-15 1,-21 -6,-1 -10,-1 -2,7 0,12 2,16zm69 -10c0,6 -2,7 -3,12 6,-3 11,2 17,-7l4 1c-3,-10 -12,-3 -18,-6zm28 0c-1,0 -2,0 -3,-1 -2,2 -3,5 -6,3 1,8 8,5 9,-2zm21 8c-1,-6 1,-8 1,-11 -2,3 -3,9 -6,6 0,1 0,1 0,1l0 4c1,5 3,5 5,0zm9 -7c-1,-4 1,-13 -3,-9 0,1 0,3 0,4 0,0 -1,-1 -1,-1l-1 14c1,10 5,-3 5,-8zm5 12c1,-5 2,-7 5,-7 2,0 3,-6 7,-3 0,-1 1,-2 1,-2 0,-1 -1,-2 -3,-1l-9 0c-4,5 -6,14 -1,13zm33 -1l5 1c-1,3 -2,4 -2,8 2,-1 4,-4 6,-6 0,0 0,0 0,0 -1,-2 -2,-5 -4,-8 -3,0 -7,0 -11,0 0,0 0,0 1,0 -3,4 -8,6 -11,0 0,0 0,0 0,0 -1,0 -2,0 -3,0 0,3 -1,4 -1,8 5,-5 13,-3 20,-3zm13 1c0,-1 -1,-3 -1,-5 0,0 0,0 0,0 0,2 -1,4 -1,6 1,-1 1,-1 2,-1zm6 1c3,0 3,7 7,5 0,-11 6,3 6,-8 -1,0 -1,0 -1,-4 -2,-2 -4,-1 -6,0 0,1 -1,3 -1,4 -1,-1 -1,-2 -1,-2 -2,0 -3,1 -4,1 -1,1 -2,2 -3,3 1,1 1,1 2,1l1 0zm16 2c2,4 4,4 7,4l4 0 7 1c3,6 4,1 8,1 3,2 3,-3 5,-4l11 1c0,4 -1,5 -2,8 4,-2 4,7 6,0 5,-4 7,-1 12,1l2 1c1,-5 2,-6 2,-11 0,0 0,0 0,0 0,0 0,0 0,0 0,0 0,-1 0,-1l-9 -1 -4 0c-2,-1 -4,1 -5,-5l-1 0 -6 0c-1,-4 -4,1 -7,3 0,0 0,0 0,1l0 0c-2,0 -3,0 -4,0l-2 0c1,13 -18,1 -26,-5 0,0 0,1 0,1 1,1 2,1 2,5zm70 17l1 0c0,-2 0,-3 0,-4 0,0 -1,1 -1,1 0,-7 -2,-7 -4,-7 0,0 -1,1 -1,2 3,0 1,11 5,8zm8 -3l7 1c-3,-4 -6,-6 -8,-9 -1,-1 -2,-1 -2,-1 -1,0 -1,0 -1,0 -1,1 -2,3 -2,5 2,-3 6,0 6,4zm26 -37l1 -8c-4,5 -4,1 -9,0 -7,2 -15,4 -23,2 0,4 2,3 3,4l28 2zm26 34l-2 -1c0,1 1,2 1,3 -3,-2 -4,3 -5,7 0,1 0,1 0,2l4 0c2,-9 8,-1 12,-3 0,0 0,0 1,0 -1,-1 -1,-2 -1,-6 1,-9 8,-1 12,-4 1,7 -2,10 0,12 2,-5 4,-10 9,-8 1,2 0,4 -2,4 0,0 0,0 0,0 1,0 3,-1 4,0 2,1 3,1 4,1 0,-4 1,-7 3,-6 0,-1 1,-3 1,-6l-2 0c-2,0 -5,2 -5,-4 2,-2 0,-4 0,-8 3,2 4,0 4,-7l-8 -1c-5,4 -26,1 -19,6 -1,-1 12,1 20,2 1,-1 1,1 1,4 -5,-1 -3,2 -2,7 -2,2 -6,-5 -7,4l-3 -1 0 -11c-1,-1 -1,0 -1,0 0,0 0,0 0,1 -1,0 -1,1 -2,1 -1,1 -1,2 -2,2 -2,2 -3,3 -5,4 0,-13 -4,-4 -6,-4 0,3 0,6 0,10l-4 0zm-6 -5c1,1 2,2 3,3 0,-3 1,-4 1,-6 -2,-1 -3,0 -4,3zm-1 9c0,-1 0,-1 0,-2 -2,0 -3,1 -4,-3 0,1 0,2 0,4 1,-1 3,-1 4,1zm19 3c0,0 0,-1 -1,-1 0,1 0,1 0,2 0,0 1,-1 1,-1zm28 -27c5,3 14,-4 17,5l-5 0c-2,13 3,6 6,8 2,-7 4,4 8,1 2,-11 -5,-8 -1,-12 0,-4 -1,-3 -2,-4 1,-4 3,-6 1,-8 -3,-1 -3,12 -8,7 -3,-3 -10,4 -11,-5l4 1c0,-5 -1,-9 -3,-8 -2,3 -9,7 -10,-1 2,-1 4,1 5,-4l-11 -1 0 4c-3,-2 -4,7 -8,3 -1,1 -2,1 -2,4l10 1 14 1c0,6 -3,1 -4,8zm41 -12l0 -4 -3 -1c-3,-5 -4,18 -5,4 0,-5 -3,-4 -5,-4 -3,2 -10,-6 -12,2 5,3 -5,6 0,8l4 1c0,-4 -1,-4 -2,-4 1,-9 5,-2 7,-4l3 0c-1,4 -1,7 -1,12 4,-4 10,-3 14,-10zm-4 23c0,2 0,3 1,5 -1,-2 -1,-3 0,-6 1,0 3,0 4,0 1,-2 1,-5 1,-11 0,-3 1,-4 2,-7l-3 0c-2,1 -3,8 -6,7 0,6 3,4 5,4 -1,7 -4,2 -4,8zm91 -32l5 1c-3,-2 -6,-4 -10,-2l0 1c2,0 4,-1 5,0zm100 -15c0,0 0,0 0,0l0 0 1 1 -1 -1zm77 55c3,0 6,0 6,-8 -5,5 -15,-16 -17,4 4,-7 7,2 11,4zm18 -28c3,-1 6,0 8,2 0,0 1,0 1,0 2,-6 19,1 11,2l0 0c4,2 8,6 14,4 1,0 4,0 6,0l-2 -1 -5 -1c-12,-2 -1,-4 5,-1l5 1c0,-1 0,-1 -2,-2 -1,-1 -2,-5 -4,-4 0,-1 1,-2 1,-3l-6 -1 1 4c-7,-1 -14,3 -18,-7l-3 0c-3,3 -6,2 -9,1 -2,0 -5,0 -7,-1 -1,0 -1,0 -2,0 -1,0 -2,0 -2,0 -1,0 -2,0 -3,1 4,2 7,6 11,6zm103 26l5 0 5 0c2,-4 0,-3 -2,-4 -1,1 -1,2 -1,2 -1,-2 -1,-3 -2,-3 -2,0 -3,0 -5,0 -1,0 -2,0 -3,-1 0,0 -1,0 -1,-1 0,0 0,0 0,-1l-1 0c-1,0 -1,0 -2,0 0,0 0,1 0,1 -1,3 -2,4 -3,5 3,1 7,1 10,2zm-9 -8c-2,1 -3,2 -4,0l-10 -2 -5 -1c3,4 6,6 10,7 3,-3 7,1 10,-3l-1 -1zm-5 -3l0 0 0 0 0 0zm-5 -1c-1,-2 -3,-4 -5,-3l-6 0 1 1 1 0c3,1 6,2 9,2zm46 16c0,3 1,4 2,3l1 0 5 0c1,-10 -3,-9 -6,-7l0 0 0 0c-2,0 -3,1 -4,-1 -1,0 -3,0 -4,-1 0,2 -1,3 -3,2 0,-3 -1,-5 -3,-4 -1,2 -2,3 -2,8l14 0zm-3 -7l0 -1c-1,-1 -1,0 -2,0 1,0 2,1 2,1zm48 17c8,7 22,-7 31,4 0,-3 0,-5 1,-4l11 0 6 -1 0 0c-6,-2 -13,0 -16,-6l15 3c-3,-12 -7,0 -11,-12 -2,2 -5,3 -7,1 -7,1 -16,2 -24,4 3,0 7,-3 5,5 -2,0 -4,0 -5,-1 -7,1 -14,0 -21,-4 -2,3 -4,-8 -4,-3 0,0 0,0 0,0 0,1 0,2 -1,3 3,18 13,10 20,11zm2 -19c0,-2 0,-4 0,-6l-4 0c0,-3 0,-4 -1,-4l0 6c1,5 2,8 4,8 -1,-4 0,-4 1,-4zm53 7c-2,7 -7,2 -4,9l0 0 11 2 6 0c1,0 2,1 2,2 2,1 3,2 4,3 -1,3 -2,2 -3,2l0 1c4,3 3,-7 7,-4 2,0 3,2 4,4 1,-1 1,-5 2,-7 -2,0 -3,0 -4,0 1,-4 4,-5 6,-4l4 1c2,2 4,0 6,-1 2,-2 4,-3 6,-2l5 0c0,-3 -1,-4 -1,-6 0,0 0,0 -1,0 -5,5 -11,-2 -17,-1 -3,1 -4,-3 -6,-4l-1 0 -5 0c-1,1 -1,1 -2,1l-1 0 1 -1c-1,-1 -2,-3 -3,-4 0,1 -1,1 -1,2 -2,3 -7,2 -7,-2l-9 -1c0,1 -1,1 -2,1l0 1c2,0 3,-1 4,4 -1,-1 -2,0 -2,1 0,0 0,1 0,1 0,1 0,2 1,2zm31 12c3,6 5,3 8,0 -3,0 -6,0 -8,0zm20 -17c0,-1 -1,-1 -2,0l1 0 1 0zm-2 0c0,-4 1,-5 1,-8l7 0c-1,-1 -1,-2 -1,-4 -3,3 -7,-2 -8,6l-3 0 1 -8 -2 0c-1,4 -2,2 -4,2l0 2c-6,0 -7,4 -13,0 -2,3 -3,2 -5,0 0,1 0,2 0,2l8 0c0,2 0,3 0,4l5 1 3 0 9 2 2 1zm13 -8l1 0 0 0c0,-1 0,-2 0,-2 0,0 -1,1 -1,2zm4 -9c0,-1 0,-2 0,-3 -2,1 -4,1 -6,-1l0 0c0,-1 0,-2 1,-3 0,-1 -1,-1 -1,-2l-2 0 0 0c0,3 -1,4 -2,4l0 1c-1,2 -3,4 -5,1 -1,0 -3,1 -4,2l2 0 6 1c2,4 2,1 6,1 2,2 3,-1 4,-1l1 0zm-2 -8c0,1 0,2 0,3 0,0 1,-1 1,-3l-1 0zm-28 2c1,-1 2,-1 3,-2l0 0c0,0 -1,0 -1,-1 -3,1 -6,1 -8,1l-3 0c0,0 0,0 0,0l1 0c2,1 2,5 5,4 1,-4 2,-3 3,-2zm4 -2c1,0 2,0 3,0 0,0 0,0 -1,-1 0,0 -1,0 -2,0 0,1 0,1 0,1l0 0zm-24 1l0 2c0,-1 1,-1 2,-1 0,0 0,-1 0,-1 -1,0 -1,0 -2,0zm15 7c-1,6 -3,6 -4,2 -1,0 -1,0 -2,0 0,1 0,2 -1,2l1 0c3,-1 7,5 9,-1 -1,-2 -2,-2 -3,-3zm-18 9c1,0 2,0 2,-1 -1,0 -1,0 -2,1l0 0zm3 -7l0 0c0,0 -1,0 -1,0l1 0 0 0zm-4 0c-1,-1 -2,-4 -3,-6 -1,0 -2,0 -3,2l-4 -1c-1,0 -1,-1 -2,-2 0,0 -1,0 -2,0 0,1 -1,1 -1,1l0 0c-1,0 -1,0 -1,0 0,0 0,0 0,0 -1,6 -4,12 -4,14 1,0 3,0 3,1 2,1 3,-4 5,-4l3 0c1,3 3,4 5,4 1,1 2,-2 3,-2 1,-2 0,-3 0,-5l-10 -2c-1,-1 -3,0 -3,-3l4 1 10 2 0 0zm-106 -4c0,1 1,1 1,2l3 0c1,0 2,1 2,1 1,-1 1,-1 2,-2 -3,0 -5,0 -8,-1zm10 0c1,1 1,2 1,4 3,0 5,-1 8,0 0,-1 -1,-1 0,-3 2,3 3,1 5,-1 -4,0 -8,0 -13,0 0,0 -1,0 -1,0zm11 5c0,0 1,0 1,0l3 0c0,0 -1,0 -1,0 -1,-1 -2,-1 -3,0zm6 0l8 0c0,0 0,0 0,-1 -3,0 -5,1 -8,1zm6 -3l0 -1c-1,0 -2,0 -3,-1l-3 0c0,0 0,0 0,1l2 0c1,1 2,1 4,1zm6 -2c0,1 0,2 0,3l0 1c0,0 0,1 0,1l0 0c1,5 4,-1 6,-2 0,-1 0,-1 0,-2 0,0 0,-1 0,-1 -2,0 -4,0 -6,0zm23 0c1,2 2,4 2,9 3,2 4,-5 5,-10l-4 0c-1,0 -2,1 -3,1zm14 9c0,4 -2,3 -4,3 2,8 5,1 8,-1 0,0 0,0 -1,0 -1,-1 -2,-2 -3,-2zm6 2c0,0 1,0 1,1l1 0 0 -5c-1,0 -2,3 -2,4zm112 -10c0,-1 0,-2 0,-2l-2 -1c-2,-2 -3,1 -3,4 2,0 4,-1 5,0l0 -1zm0 -5c0,-1 1,-2 1,-2l-1 -1 -4 0c-1,1 -2,0 -3,-1 0,1 0,2 0,3l3 0 2 1c1,0 1,0 2,0zm8 -1c0,1 1,2 1,3l0 0 4 1c0,-1 0,-2 0,-3l-5 -1 0 0zm3 6c1,0 1,0 1,0 0,0 0,0 -1,0zm-915 -14l-3 0c0,0 0,0 0,0 1,3 2,2 3,1 0,0 0,-1 0,-1zm28 7c0,0 0,0 0,-1 -1,0 -2,0 -2,0 0,2 1,2 2,1zm39 -1l-6 1c0,1 0,1 0,2 2,2 5,2 7,-3l-1 0zm59 1c0,-5 -1,-9 -2,-12 -4,-1 -9,2 -11,-5 -3,-1 -4,1 -2,8 3,3 10,-4 12,5 -3,6 -8,2 -12,3l-11 -1c0,0 0,0 0,0 1,1 1,2 2,4 1,1 3,1 4,0 0,-1 1,-2 1,-3 3,2 11,2 14,4l1 1c3,-4 4,12 5,0 -1,1 -1,-2 -1,-4zm160 -18c-2,0 -2,-5 -4,-4 1,12 -3,7 -5,8 -1,-2 -1,-7 -3,-9 -2,0 -2,1 -3,4 -2,-2 -3,3 -5,4l-10 -1c0,3 0,3 1,4l9 1 2 0 9 0 2 1 10 0c0,-5 -4,-1 -3,-8zm33 -26c0,1 0,2 0,3 1,0 3,0 4,0 0,-1 0,-2 0,-3l-4 0zm16 6l1 0c1,-2 1,-3 1,-5l0 0c-1,0 -1,0 -2,0 0,1 -1,3 -1,4 0,0 1,1 1,1zm2 4c0,0 0,1 0,1l0 0c0,0 0,-1 0,-1zm24 -3c0,-1 0,-3 0,-4 -1,0 -1,0 -2,0 0,2 0,4 -1,5 1,0 2,0 3,-1zm110 13l0 1c1,0 2,0 4,0 -2,0 -3,-1 -4,-1zm213 28c-1,0 -2,0 -3,0l0 0c0,0 0,0 0,1l8 -1 -4 0 -1 0zm-615 -13l-5 0c0,1 1,1 1,1 2,1 3,0 4,-1zm331 -31c0,0 0,1 0,1 0,6 -3,3 -5,3 0,1 0,1 0,1l4 0 3 0 0 -5c-1,0 -1,0 -2,0zm60 14l1 0c0,-2 0,-3 0,-5 0,0 0,-1 0,-1 -2,0 -3,1 -4,4 1,1 2,1 2,2 1,0 1,0 1,0zm-50 -7c0,-1 -1,-2 -2,-2 0,0 -1,0 -2,-1l-1 -1c0,2 0,3 0,6 1,-2 3,-2 5,-2zm-2 -6l0 0 0 0 0 0zm19 4c0,1 0,2 0,3 4,1 8,1 11,-1 0,-7 -5,3 -8,-1l-3 -1zm1 5c0,2 1,4 1,1l-1 -1zm17 3l10 -1c0,0 0,-1 -1,-2 -1,-1 -1,-1 -2,-1 -1,0 -1,1 -2,1l0 2c-2,-1 -4,0 -5,1zm-131 -13c0,-2 0,-4 1,-5 -1,-1 -2,-1 -3,-1 0,1 -1,4 -1,7 1,0 2,-1 3,-1zm361 59l1 0c-1,-2 -1,-3 -2,-7l0 7 1 0zm-308 -59c0,2 -1,4 -1,5 0,0 0,0 0,1 2,0 3,0 3,-2 0,-1 0,-3 1,-4l-3 0zm-223 45l5 1 3 0c1,0 1,0 2,0 1,0 2,0 3,1 2,1 4,1 4,-4 0,-12 -2,4 -4,0l-4 -1 -5 0c-4,5 -9,-16 -10,3 5,2 -5,10 -8,7 0,5 2,4 4,4 5,-4 6,4 9,-3 -1,0 -1,-7 1,-8zm11 6c-1,1 -1,4 -1,7 1,-1 1,-3 1,-7zm5 11c1,0 3,1 4,0 -2,-1 -3,-1 -4,0zm4 -12c1,1 2,1 3,1 -1,-1 -1,-2 -1,-4l15 2c0,-6 -2,-4 -4,-5l-13 -1 -1 0 -1 8c0,5 3,4 2,9 1,-1 1,-3 0,-6 0,0 -1,-3 0,-4zm-13 8c1,-5 0,-7 -1,-8 -1,2 -1,7 -1,11 1,0 2,-1 2,-3zm-41 -8l-1 0c0,1 1,2 1,3 0,0 0,-1 0,-3zm-5 5c1,-2 1,-2 2,-1 0,-2 0,-3 0,-4l-3 0c0,1 1,3 1,5l0 0zm-110 -15c0,-1 0,-1 0,-2 -1,1 -1,3 -1,5 1,0 1,0 1,-3zm-614 33c3,3 3,-8 4,-12 -3,-3 -3,6 -6,4 -5,5 4,1 2,8zm-395 -11c8,3 13,-6 21,-2 -1,-2 -3,-3 -6,-5l-3 1c-3,1 -7,1 -10,1 -1,1 -2,3 -2,5zm304 26c-1,10 0,14 4,12 0,-4 1,-3 2,-4l5 1c-2,-8 -8,-2 -11,-9zm1093 -8c5,1 11,-4 14,3l2 0c0,-18 -16,-16 -16,-3zm139 -14c0,2 -1,3 -2,3 2,0 3,0 4,1l1 0 0 0c-1,-2 -2,-4 -3,-4zm113 65c5,-1 9,0 12,4 5,-9 10,8 12,-8 -5,-2 -12,4 -16,-4l-8 0 0 8zm330 -54l-1 0 1 0zm12 -35c0,0 0,0 0,0l0 -1 0 1zm927 54c-3,0 -5,-1 -6,-4 3,0 5,1 6,4zm-23 -3c1,-6 5,-1 7,0 3,-2 9,-3 11,-4 -2,5 -7,3 -11,5 3,1 4,5 7,1 -2,4 4,4 0,7 -2,-1 -5,0 -8,-2l0 -6c-2,-1 -3,-3 -6,-1zm36 31c0,2 -2,1 -3,1 0,2 2,2 1,5l-1 0c0,-6 -3,-1 -6,-2l0 -1 0 -5c3,4 5,1 9,2zm-26 -20c-1,0 -3,0 -3,3 -1,-1 -5,1 -5,-2 1,0 1,-2 0,-3 4,3 6,-1 8,2zm22 0c1,-1 1,-2 2,-3 -3,-1 -2,5 -5,2 0,6 1,4 3,4 -1,5 -2,0 -5,0 1,-1 1,-2 2,-4 -3,1 -3,-2 -6,-2 1,-2 2,-3 3,-4 3,2 -1,6 4,5 -1,-2 -2,-2 -2,-4l1 0 2 0 6 0c-1,2 -2,2 -3,3 0,3 5,3 4,-1 1,0 1,2 3,2 -1,1 -2,1 -2,4l-2 0c0,-4 -3,-1 -5,-2zm-21 6l-1 0c4,-3 7,3 10,-2 1,1 1,2 1,3 0,2 -4,-1 -6,1 0,-3 -3,-1 -4,-2zm5 -12c3,-3 8,-2 6,5l-2 -1c-3,1 -2,-4 -4,-4zm-61 24c0,0 0,0 0,0 1,-4 0,-10 -4,-6 2,-1 3,0 3,3 -3,-1 -4,-4 -5,-8 4,-1 5,2 7,4 -1,-4 0,-2 5,-1 4,-3 2,4 2,7 -4,0 -5,-2 -8,1 0,0 0,0 0,0l10 1c-1,-5 6,-13 8,-5 2,-1 3,-3 5,-3l4 1c2,0 3,0 4,-1 -1,3 -3,2 -5,2 -1,5 3,3 3,6l-1 0c-5,-1 -11,-4 -15,-1 0,1 1,1 1,2l-1 0c-1,0 -1,3 -2,3 0,-7 -6,1 -7,-3l-1 -1 -2 0 -1 0c0,0 0,-1 0,-1l0 0zm57 -3c3,2 5,1 10,2 0,2 2,2 4,2 0,3 -3,1 -3,3 0,1 0,3 0,5l-1 0c-1,-3 0,-4 -1,-7 -2,0 -3,0 -4,-2 -2,3 0,3 2,3 0,3 -3,1 -4,1 0,1 0,2 0,3 -1,0 -2,-1 -2,-3 -2,1 -1,-3 -3,-3 1,-2 1,-4 2,-4zm-24 3c0,1 1,2 1,3 -2,-1 -5,1 -4,-2 0,-2 3,-4 3,-1zm36 -9l-1 0c1,-2 1,-5 -1,-5 0,-1 1,0 1,-2l1 0 2 0c-4,2 1,3 -2,7zm-30 4c1,2 6,3 7,1 -1,6 6,1 5,6 2,0 1,-4 -1,-3 0,-2 2,0 3,-3 0,1 1,2 2,2 -1,4 -2,4 -1,7l-2 0c-5,0 -6,-3 -15,-4 -1,-1 -1,-2 -1,-2 -1,-1 -1,-3 -2,-4 4,-1 3,5 5,0zm75 12l0 0c2,1 1,6 2,7 0,1 -1,2 -1,3l-1 0c1,-4 0,-5 -1,-7 1,0 1,-2 1,-3zm31 -37c2,0 2,1 3,2 0,-2 1,-1 2,-1 2,-1 3,-4 5,-4 2,0 -1,4 -2,3 2,1 3,3 7,2l0 2c-1,3 -1,0 -2,0 -5,0 -7,0 -10,1l-4 -1c1,-2 2,0 1,-4zm-26 15c-2,-1 0,-2 1,-2l1 0c0,4 -2,3 -3,4l-4 0c2,-8 4,0 5,-2zm38 -29c-1,-6 -2,-4 -5,-2 0,-5 -2,-5 2,-4 2,0 5,1 6,-1 0,4 -3,2 -3,7l0 0zm-7 33c0,-1 1,-1 2,-1l2 0c1,0 1,1 1,2 -1,1 -2,3 -3,2 -1,0 0,-1 0,-1 0,-2 -1,-1 -2,-2zm21 -35c6,-2 10,4 16,2 0,2 -1,3 -3,2 -5,0 -8,-3 -14,-2 0,-2 1,-2 1,-2zm-3 23c0,-2 0,-6 1,-6 0,3 0,6 2,7l-8 0 0 -2c2,-1 2,-1 5,1zm-82 -6c-1,0 -2,1 -3,3 -1,-1 0,-3 0,-5l3 1c3,-3 7,0 9,2 -4,4 -5,-4 -9,-1zm3 13l-1 0c1,-3 -1,-3 -1,-6 0,-2 3,2 6,1 -1,3 -5,-1 -4,5zm21 -3l2 0c-2,5 -6,1 -9,0 3,-6 4,4 7,0zm-391 -11c-1,0 -2,1 -2,2 0,1 1,2 2,2 0,2 -2,1 -3,1l-4 0c-1,0 -1,-3 -2,-3 0,-4 8,1 5,-3 -1,0 -4,2 -4,-1 1,0 2,-2 3,-2 1,-3 2,-4 2,-8 1,1 3,1 3,3 0,2 1,3 2,3 1,1 1,2 0,2 -2,0 -4,-3 -5,-2 0,4 2,4 3,6zm378 34c2,-1 2,3 4,2 1,0 2,1 3,3 -5,-1 -7,-3 -10,-1 1,-3 2,-5 3,-4zm4 -23c0,-1 5,2 6,5l-4 0c1,-4 -4,1 -2,-5zm-15 22c0,3 1,1 2,1 -1,6 -5,2 -4,-2l2 1zm13 -12c3,-3 1,3 3,3 -2,6 -1,-1 -4,0 -1,4 2,1 2,4l-4 0 0 0c0,-4 1,-4 2,-7l1 0zm-345 -25c0,-1 1,-1 2,-1 1,3 0,8 -1,10 -4,-3 0,-3 -1,-6 0,0 1,0 2,-2 -1,0 -1,-1 -2,-1zm7 6c5,1 -3,6 -3,1 2,0 0,-1 0,-2 2,-1 1,2 3,1zm-36 16c2,-1 1,2 1,4 0,-1 -3,-4 -3,1 -2,-1 0,-7 2,-5zm50 -17l3 0c0,-3 -2,-6 1,-7 1,0 1,1 1,1 -3,4 0,4 1,6 -2,1 -3,2 -6,1l0 -1zm-3 8l-2 0c-1,0 -1,-1 -1,-2l1 0c2,-2 6,-4 3,2l-1 0zm-20 -3l-1 4c2,1 3,0 4,-1 0,2 -3,5 -1,6 1,4 -2,-2 -3,-2 -1,-2 -1,-4 0,-7l1 0zm17 7c4,1 3,5 7,1 -1,-2 -2,-1 -2,-3l2 0 1 0c0,1 0,2 0,4l-2 0c0,2 0,3 -1,3 -1,0 -5,-1 -3,-2 0,-5 -5,3 -3,-3l1 0zm-25 -29c4,0 5,5 9,2 -3,8 -7,1 -9,-2zm-21 19c1,-2 8,2 5,5 0,-4 -4,-2 -5,-5zm18 -4c0,1 1,1 1,3 -2,-1 -4,0 -5,1l1 -4 3 0zm434 9c1,-1 2,-2 2,-3 2,-4 3,3 1,4 -3,1 -4,-2 -6,-2 0,-3 3,0 3,1zm-427 -3l2 1c-1,5 -1,5 0,10 -2,-1 -2,-2 -2,-4 1,-4 -1,-4 0,-7zm234 13l7 1c0,4 -5,0 -1,4 2,0 3,-6 4,-3 1,1 1,4 3,5 -1,2 -6,2 -5,-1l-1 0c-2,6 -7,-2 -10,-4 2,5 -3,3 -5,3 3,-1 4,-4 8,-4l0 -1zm-188 -11l-1 4c-1,0 -1,-2 -3,-2 0,3 2,3 1,5 0,1 0,1 0,1l-3 0c0,-1 1,-1 1,-1 0,-3 -1,0 -2,-1 -1,-3 4,-5 7,-6zm-49 -12c0,0 1,0 1,-1l1 0c1,0 2,0 2,1 -2,-2 -1,5 -2,5 0,-4 -3,-2 -2,-5zm0 13c1,1 2,3 0,3 -1,-1 0,5 2,4 -2,1 -2,6 -4,6l0 -6c1,-3 1,-5 2,-7zm175 5c0,2 -2,1 -2,1l0 -1c-3,-2 -3,-1 -6,-3l0 0c-1,0 -1,-1 -1,-2 3,0 6,2 8,4 0,1 1,1 1,1zm16 0c1,0 1,-1 0,-1l0 -3c3,0 3,2 2,6l4 0c1,-5 -1,0 -3,-3 1,-1 2,-1 3,-1l1 0c1,0 1,-1 2,-1 -1,4 -3,5 -3,10l0 1c-1,2 -1,1 -1,0l-1 0 -1 0c-1,-2 -2,-3 1,-3 3,-2 -4,-1 -4,-3l-1 0c-1,2 -4,2 -4,-2l2 0c1,-1 2,-1 3,0zm-33 -24l1 -3c3,3 8,-3 8,5 -3,2 -5,-4 -6,-1l-2 0c0,-1 0,-1 -1,-1zm41 19l0 -2 -3 -1c1,-1 1,-3 -1,-3 1,-3 3,0 5,-1 -4,3 -1,3 1,5 0,2 0,2 -1,2l-1 0zm27 7c0,5 2,-1 3,1l4 0c-1,7 -3,2 -6,2 0,2 0,3 1,5 -2,-1 -4,-3 -7,-2l0 0c1,-2 2,-3 3,-6l2 0zm-21 -5c0,2 0,2 1,2 1,0 1,3 2,0 1,1 -1,2 -1,4 2,1 2,-2 3,-2 2,-3 3,2 6,0 2,-2 2,2 5,1 2,5 -5,1 -1,5l-2 0 -1 0c0,3 1,3 2,3 0,1 -1,2 -1,2 -2,-1 -1,-4 -3,-4 0,2 0,4 0,5l-1 0c-2,-2 1,-7 0,-8 -2,1 -2,2 -2,5 -3,-2 -5,6 -7,2l0 -2c2,-1 3,-1 5,-4 -1,-3 -4,1 -5,3 -1,0 2,-4 1,-7 -2,0 -2,-3 -5,-2 1,-1 1,-1 2,-3l2 0zm-47 -20c0,2 2,1 3,2 -1,1 -2,1 -2,2 -1,-1 -3,-2 -4,0 1,-2 1,-4 3,-4zm-99 13c0,-3 3,0 4,-1 1,0 1,2 1,5 0,2 1,3 0,6 -1,0 -1,-2 -3,-2 1,-1 1,-2 1,-4 -2,0 -2,-3 -3,-4zm2 24l-1 -1c0,-6 -3,0 -5,-3 2,-3 7,0 6,4zm-5 -24l0 2c-4,5 -3,-8 0,-2zm-11 -2c1,-2 8,-6 7,2 -2,-6 -4,1 -7,-2zm80 -18l-1 0 0 -2c1,0 0,-2 0,-4 3,1 6,0 6,5 -1,3 -4,0 -5,1zm15 21c-4,0 0,-5 -2,-6 -1,2 -3,2 -3,0 2,0 4,-2 6,-2 -1,4 1,6 -1,8zm-68 -2c-1,3 -2,5 -4,5 0,-2 -1,-2 -1,-4l1 0c2,5 0,-3 4,-1zm77 0c1,6 -2,3 -3,6l-1 -1c-1,0 1,-2 0,-2 0,-3 3,0 4,-3zm196 31l1 0 1 0c1,2 1,3 2,3 -1,3 -4,1 -5,1 0,-1 0,-2 1,-3l0 -1zm358 -77c1,0 1,0 1,0 0,-1 0,-2 0,-3 0,1 0,2 -1,3zm-266 49c2,0 1,3 2,5 -1,3 -2,-2 -4,-1 1,-1 2,-1 2,-4zm50 -19l0 2 -8 -1c-1,1 -1,4 -3,4 -1,0 -1,-1 -2,-2l1 -1c0,-3 -5,0 -4,-5 3,0 2,3 4,1 3,-1 1,-2 2,-6 1,2 4,3 6,4l4 0c-2,4 -7,0 -9,-1 0,2 -1,4 -2,4 3,-1 11,4 12,-3l2 0c0,4 -2,4 -3,4zm-23 -18l-6 0c2,-5 6,-1 9,-1 0,2 -2,1 -3,1zm14 3c-3,1 -3,-2 -6,-2l0 -1c-1,-1 -2,2 -4,1 0,-2 1,-7 -2,-8 2,-4 3,4 5,2 0,1 -1,3 -2,3 1,4 3,-2 4,-1l0 -2c1,1 1,0 1,-1 1,0 1,2 1,2 0,1 -2,1 -2,4 2,0 6,2 5,3zm-28 40l0 1c-2,0 -2,3 -4,1 0,-1 1,-1 1,-2 0,-4 3,0 3,0zm20 -26c-1,4 -1,-2 -3,-1l-5 0 -1 0c0,-2 9,-4 9,1zm-28 -9c-3,5 -3,0 -3,-3 -3,2 2,6 -1,8l-2 0c0,-2 0,-4 1,-4 0,-2 -4,-5 0,-5 0,-2 -3,0 -2,-3l2 1c0,1 3,4 4,1 4,1 2,8 4,8 2,-5 -1,-3 -1,-6 1,-4 1,2 4,1 -2,3 0,1 0,4 1,0 1,-1 1,-3 4,-4 8,4 11,0 3,6 9,0 12,5 0,1 0,2 -1,2 -2,-3 -12,-6 -12,-2 -2,1 -2,-1 -1,-3 -3,-1 -3,2 -5,1 1,3 4,3 6,4 -1,1 -2,3 -2,1l-1 0 -4 0c0,-2 -2,-2 -1,-5 -2,1 -3,2 -4,4 -1,-1 -3,-4 -3,1l-2 0c2,-3 0,-5 0,-7zm38 41c2,-2 4,-1 7,-1 0,-1 -1,-1 -1,-3 1,1 2,0 2,2 -1,1 -2,2 -2,4l-2 0 -4 0 0 -2zm-6 -1c1,1 2,0 2,2 -3,0 -6,-1 -8,-4 2,1 5,0 6,2zm10 40c0,2 1,2 1,3l-2 0 -2 0c-1,-2 -3,-2 -5,-2l-2 0c1,2 0,1 -1,5 -1,0 -2,0 -2,-1 3,-3 -3,-3 -2,-6 4,2 11,-1 15,1zm-18 -39c-3,1 -2,-2 -4,-2 0,-1 0,-1 0,-3 2,-2 4,1 4,5zm22 -43c-2,0 -3,-3 -6,-2 -1,0 -1,-2 -2,-2 2,-3 3,2 5,-1 1,0 1,1 1,1l2 1c1,0 0,1 0,3zm53 85l-1 0 -4 0c2,-3 7,-4 5,0zm-25 -97l-1 0c-1,-3 1,-3 2,-4 0,2 1,1 2,2l4 0c0,3 -2,1 -3,4l0 0c1,-4 -4,-4 -4,-2zm10 20c1,0 2,-1 3,-3 1,0 1,1 1,2 -3,1 1,3 0,4 -3,-1 -3,-2 -5,1 -1,-1 -2,-1 -2,-3 1,0 3,1 3,-1zm-28 3c-1,2 -4,0 -4,3l-1 0c0,-1 -1,-2 0,-4l1 0c1,5 3,-1 0,-1 1,-2 1,-1 2,-1 2,0 -2,3 2,3zm0 71c1,1 4,-1 4,2 -1,3 -6,-2 -6,4 -2,-3 -2,-3 -6,-2l1 -5c2,3 3,0 7,1zm10 -82c2,-3 3,4 5,-1l3 1c2,-5 4,3 6,-1l1 0c0,3 -2,3 -3,3 -5,-2 -8,2 -12,-2zm-18 43l1 0c1,0 1,1 2,1 3,1 5,-1 7,3l-8 -1 -2 0 -2 -1c-3,-2 2,0 2,-2zm18 40c1,6 2,-3 5,-1l5 1c0,-3 2,-3 3,-3 1,0 2,1 2,2 0,2 -2,1 -3,1 -1,1 1,2 2,2 0,1 -1,2 -1,3l-6 -1c0,-1 1,-1 2,-1 0,-4 -3,-1 -4,-1 -2,0 -4,1 -5,3l-1 0c1,-6 -1,0 -3,-2 1,-3 -1,-3 -1,-5 3,0 2,3 5,2zm-2 -76l2 0c0,6 2,1 5,2 -3,3 -4,2 -7,1 0,1 1,2 1,3 -2,-1 -2,2 -5,1 1,-1 2,-2 3,-3 0,-2 0,-2 1,-4zm14 0c0,2 0,2 0,6 -2,1 -3,-3 -4,0l-2 -1c3,-3 4,1 6,-5zm-8 41l0 0 -1 0c-2,0 -3,-1 -2,-5l1 0c0,5 3,0 2,5zm75 -130c-3,0 -6,-2 -8,-4l-1 1c2,3 6,6 9,3zm-103 -15l0 0 0 0 0 0zm-4 -2c0,-1 0,-2 -1,-3 0,-2 -1,-3 -1,-5l-6 1 -3 0c-1,0 -1,2 -1,5l-1 0c0,0 0,1 0,1 5,-1 9,2 13,1zm-27 -4l-2 0 0 0 1 0 1 0 0 0zm-497 123c3,3 5,-1 7,2 3,1 2,-5 5,-3 0,6 -4,2 -5,6 4,-1 -2,7 2,7l0 2c-2,-2 -4,-3 -3,-8 0,0 0,0 0,-1 -3,1 -1,3 -3,7 -2,-2 -3,-1 -3,-2 0,-1 2,-1 2,-3 -1,-1 0,-1 0,-3 -2,0 -1,-3 -2,-4zm397 -10l0 0c0,-2 -1,-2 -1,-5 5,2 5,4 8,5l0 2c-4,1 -4,-2 -7,-2zm-15 -2c1,0 3,1 2,3 0,1 -4,3 -4,0 1,0 2,0 2,-1 0,0 -1,-1 0,-2zm19 -89c-2,-11 7,0 7,-7 -1,-2 -3,-3 -5,-3l-10 0c-1,-5 -7,0 -10,-2l-1 0 -2 0c0,3 -2,4 -1,8 6,-1 8,7 16,4 1,1 2,0 2,3l11 -1c2,-1 7,3 6,-2 -6,1 -10,-3 -13,0zm59 -1c-2,-1 -3,-4 -7,-3 -4,0 -7,-4 -12,-2l-12 0 -5 1c-1,6 5,-2 5,4 -1,6 -8,0 -9,5 4,-1 5,3 8,3 6,-3 8,-3 14,-1l4 0c1,5 6,2 9,2 0,0 1,0 1,0l5 0c1,0 2,0 3,0 -1,-2 -3,-5 -3,-9l-1 0zm8 19c-1,0 -3,-1 -4,0 2,2 4,8 6,5 -1,-3 -1,-3 -2,-5zm-4 0c0,0 0,0 0,0 0,0 0,0 0,0zm-1 0l0 -3c0,0 0,0 -1,0 1,1 1,2 1,3zm3 -32l1 0 0 -1 -1 0 0 1zm1 2c0,1 0,2 0,3 1,4 4,2 4,4 1,0 2,0 4,0 0,-2 -1,-1 -3,-5 -2,0 -3,2 -5,-2zm-111 25l-1 0c-1,1 -1,3 -1,5 -3,2 -2,-4 -4,-4 -4,-1 -6,6 -7,-3 4,-3 12,-4 13,2zm-30 1c-1,-3 -5,0 -5,-5l18 0c0,7 -5,5 -9,5 1,2 2,3 3,6l-4 0c2,-4 -1,-5 0,-6 -2,0 -3,0 -3,0zm79 76c3,1 5,1 6,5 -2,-2 -6,0 -6,-5zm18 5c2,-1 6,-2 7,2l-5 -1c-1,0 -1,-1 -2,-1zm-823 -38c-1,0 0,-1 2,-1 0,-1 -1,-2 0,-2 0,0 0,1 0,2 1,0 2,0 3,0 0,0 0,0 0,0 0,-1 0,-1 0,-1 0,0 0,0 0,-1 -1,-2 -5,0 -6,-1l-1 -1 -1 5c1,0 2,0 3,0zm18 5c0,0 1,0 1,-1l-1 0c0,1 0,1 0,1zm55 0c0,0 0,-1 0,-1 -1,0 -2,1 -2,2 0,0 1,0 2,-1zm-8 6l4 1c2,-6 5,0 8,-1 1,-4 -5,-4 -6,-4 0,0 0,0 0,0 -1,0 -1,-1 -2,-1 -1,2 -2,3 -3,3l-7 -2 -1 0 -2 0c1,5 7,2 9,4zm11 7c0,-5 -5,-2 -8,-4l0 0c0,6 6,2 8,4zm17 -4c2,1 3,-1 3,-4 -5,4 -6,-4 -11,0l-1 2 9 2zm6 4l0 -3 8 2 12 2c3,-5 9,1 13,0 4,0 9,4 13,0l4 1 3 0c4,3 7,-2 11,0l1 -5c-2,-1 -3,4 -6,2l0 -1c-5,0 -8,3 -13,1l-12 -3 -4 0c-4,5 -10,-2 -14,-1 -2,-2 -7,3 -5,-6 -1,0 -1,0 -2,2 1,0 1,1 1,1l-1 0c0,1 0,1 -1,2l-5 -1c-3,1 -10,12 -3,7zm36 14l4 1 6 1 0 -5c-1,0 0,-3 -2,-3l-5 -1c0,4 -5,4 -3,7zm69 13l3 1c0,-4 1,-4 2,-7 -5,0 -5,0 -10,-2 1,4 3,6 5,8zm9 -24c0,-1 0,-1 0,-1 0,0 0,0 0,0 0,0 0,0 0,1zm4 2c0,-1 0,-2 1,-3 0,0 0,0 0,0 -1,0 -2,1 -3,0 0,2 1,2 0,3 1,0 2,0 2,0zm3 -1c0,0 1,-1 1,-1 0,-2 0,-12 3,-9 2,1 4,1 6,1 -1,-1 -2,-2 -2,-3 -1,0 -3,0 -4,-1 -1,1 -2,0 -2,-1 0,0 -1,1 -1,1l-1 0c0,-1 0,-2 0,-3 0,0 0,0 0,0l-1 5 2 0c0,4 -1,6 -2,8 1,0 1,0 1,0 1,1 0,2 0,3zm9 6c0,0 0,0 0,0 1,-9 -2,-1 -5,-4l0 1c2,1 4,1 5,3zm0 0c-1,0 -1,1 -1,1 0,0 0,-1 1,-1zm2 -15c1,0 2,0 3,0 0,-1 1,-1 2,0 1,0 2,0 2,0 0,-1 0,-1 0,-1 1,0 2,-1 3,-1 1,-1 2,0 3,0 4,-1 1,-3 -1,-3 -1,0 -1,0 -2,0 0,0 0,0 0,0 0,0 0,0 0,0l-1 0 0 1c-2,2 -5,0 -7,0 -1,0 -1,0 -2,0 0,0 0,1 0,1 2,0 0,1 0,3zm6 14l9 2 1 -5 -1 0c-2,3 -5,1 -7,1l-2 -1c-1,2 0,3 0,3zm24 0c5,-1 6,4 10,4 1,-1 2,-2 3,-2 1,-5 -3,-2 -5,-3 -4,0 -9,-5 -12,0 -1,7 3,-3 4,1zm68 -44c0,-1 0,-1 0,-1l-1 1c1,0 1,0 1,0zm7 4c-1,-2 -3,-2 -5,-2 2,1 3,1 5,2zm4 27c0,-1 0,-1 -1,-1 0,-1 0,-1 0,-1 -1,1 0,1 1,2zm3 -4c-1,-1 -2,-1 -2,-1 -1,0 -1,1 -1,1 1,1 2,1 3,0zm2 -3l0 0c0,0 0,0 0,0 0,0 0,0 0,0zm3 -15c0,0 0,-1 0,-2 2,0 4,2 4,4 0,-1 -1,-1 -2,-1 1,1 1,1 1,1 0,1 1,2 1,2 0,0 0,0 0,-1 2,0 2,1 3,2 1,0 3,0 4,1 0,-2 2,-3 0,-4 -1,0 -2,2 -3,1l0 -2c0,-1 0,-1 1,-1 -1,0 -1,0 -2,0 -1,0 -1,0 -2,-1 -1,0 -2,-1 -4,-2 -4,1 -8,-3 -10,-1 3,1 6,3 9,4zm-1 8l2 1 0 -3c-1,-1 -3,1 -2,2zm14 1c1,1 5,-2 5,2 0,0 1,0 1,-1 3,0 5,2 6,4 2,0 2,-3 4,-1 0,-2 -1,-2 -1,-3 2,-1 4,3 2,3l0 1c2,-1 4,-2 5,-4 1,-1 0,-1 0,-3 -2,-3 -4,-2 -6,-2 -1,0 -3,0 -4,0 -2,3 -9,1 -6,-2 -1,3 -6,-1 -7,5 0,0 1,0 1,1zm1 10l0 0 -1 0c0,0 1,0 1,0zm12 2c1,-3 0,-3 -1,-2 0,0 -1,1 -1,2l2 0zm9 4c4,1 2,-7 -1,-5 0,2 1,3 1,5zm13 -6c2,0 3,2 6,0 1,0 1,-4 3,-2 0,2 1,2 1,4l1 0c0,-1 1,-2 1,-1 1,-3 4,0 4,-3l1 -4c-3,1 -7,-2 -5,2l-1 0 -5 0c1,-5 -1,-3 -2,-6l-1 0c-1,3 -4,1 -4,7 2,-2 3,-4 4,0 -3,1 -9,0 -9,-2 2,0 4,0 4,-4 -3,1 -1,-5 -3,-5 0,3 -3,0 -4,3 -1,0 -1,2 0,3 0,-3 5,-5 5,0 -2,0 -3,2 -5,1 -2,-1 -4,0 -4,3 5,-2 6,5 13,4zm-6 18c0,-1 4,-3 4,0l1 0c1,0 2,-1 2,-3 -2,-1 -6,2 -6,-2 0,-1 -1,-2 0,-4 -2,1 -2,8 -1,9zm10 -10c-1,-1 0,-2 -1,-2 -2,-2 -1,4 -3,2 -2,-2 1,-3 -1,-4 -1,0 -2,1 -2,4 1,2 5,2 7,0zm4 15l5 1c-2,-2 -3,-6 -5,-7 2,-4 4,0 7,-2 1,0 2,1 2,-1l1 -6c0,-2 -2,-1 -2,2 -2,1 -3,-5 -4,-1 2,0 2,2 2,3 -2,2 -6,3 -7,1 -2,2 1,5 -2,4 2,1 0,6 3,6zm14 -21c-3,0 -2,-5 -5,-4 0,3 -1,3 -2,4 2,-1 10,3 7,0zm0 10c0,0 0,1 0,1 2,0 3,1 4,-1 -2,0 -2,-1 -1,-3 -1,1 -3,-4 -4,0 2,0 2,1 1,3zm5 -7c0,-2 1,-2 1,-4 1,0 1,0 1,1l2 0 1 1c1,-1 4,2 4,-1 -1,-5 -7,3 -7,-5 1,-1 3,0 3,-2 -2,-1 -2,2 -4,1 0,2 0,2 0,3 -1,1 -8,-2 -6,1l5 1c0,1 -1,4 0,4zm6 9c4,-1 7,4 9,0 0,-5 -2,0 -4,-1l0 -1 -1 0c-2,0 -4,0 -5,2l1 0zm12 -9c0,-4 1,-4 1,-8l-1 0c-3,-1 -2,6 -4,5 0,2 2,3 4,3zm2 15c7,-7 6,1 13,-6 -2,0 -3,2 -5,1l-2 0c-4,1 -8,-4 -9,-1 -1,4 2,3 3,6zm10 1c2,0 3,2 5,2 -1,-3 -5,-6 -7,-3l2 1zm10 -4c0,-1 -1,-1 -2,-1l-4 -1c-1,2 -2,1 -2,3 3,-1 5,0 8,-1zm1 -8c-2,-2 -5,-3 -6,-7 3,1 0,-1 1,-4l-3 0c-1,2 -2,1 -2,4 1,0 1,-2 3,-1 0,2 0,3 0,4 -1,1 -1,2 -2,3 1,0 2,1 0,1 -1,-3 -3,-6 -4,-9 0,0 3,-4 1,-4 -1,0 -1,4 -3,3 -1,0 -2,-1 -2,1 2,-1 1,4 3,3 0,2 0,5 1,6 0,-2 1,-1 2,-3 -2,5 6,4 8,5l1 0c1,0 2,-1 2,-2zm6 3l1 0 1 0c0,-3 3,-2 3,-6 -1,-1 -1,1 -2,1 -3,2 -6,-3 -9,-1 1,5 5,2 6,6zm2 10c0,2 -1,3 -1,3 0,1 0,2 0,2l2 0c1,-5 -2,-4 -2,-8 -1,1 -1,2 -2,5 2,0 2,-2 3,-2zm5 -8c1,0 2,1 2,-1l1 -4c3,1 6,5 4,-1 2,-4 5,2 6,-1 0,-2 0,-4 -1,-4l0 1c-3,0 -7,5 -8,2 3,1 0,-2 2,-4 -1,2 -3,1 -5,1 2,2 2,8 -2,7 1,1 1,2 1,4zm-2 -13l0 2c-3,-2 -6,3 -7,-1 1,-2 -3,-3 -3,0 0,4 4,2 7,3 1,-4 5,3 5,-1l0 -1c0,-2 -1,-2 -2,-2zm-8 -84c0,2 2,2 3,2l1 -2c-1,-1 -2,0 -4,0zm-2 -2c-3,0 -5,0 -6,-1 -1,4 4,-1 3,3 -1,3 -2,-2 -2,4l2 0 2 1 0 -6 1 0c0,0 0,-1 0,-1zm-5 88c0,2 2,1 3,1 0,-1 1,-2 1,-2 0,-2 -1,-1 -1,-3 -2,-1 0,6 -3,4zm-2 -89c0,-1 -1,-1 -2,-2l-2 0c0,1 -1,1 -1,1l0 0c0,7 4,-2 3,6l2 1 0 0c0,-2 0,-4 0,-6zm-15 88c0,3 0,3 -1,5 1,0 2,0 3,-1 0,2 2,4 3,1 0,-1 1,-4 0,-4l-2 0 -3 -1zm-8 -13c2,0 1,2 2,3 1,0 1,2 2,0 0,-2 1,-2 1,-4l-4 0 -1 -1 0 2zm-18 -7l3 0c1,0 2,0 2,-1 -1,-2 -4,-3 -5,1zm-14 0l-3 -1 0 6c1,0 2,-1 3,-1 0,-3 -2,-1 0,-4zm-32 -4c0,1 0,1 0,1 1,1 1,1 1,1 0,0 0,0 0,0 1,-1 0,-1 -1,-2zm-9 4c0,1 0,1 1,2l1 0c0,-1 0,-2 0,-2 0,0 0,-1 -1,-1 1,1 0,1 -1,1zm-29 -13c-1,0 -3,0 -4,0l0 0c2,1 5,2 6,4 1,-2 0,-2 0,-3 0,0 0,0 0,0l-2 0c0,-1 0,-1 0,-1zm166 55c0,5 -5,-1 -5,6 2,-2 5,-1 5,-2 2,-5 1,-3 1,-9l-1 0 0 2c-1,0 -2,2 -3,1l-3 0c0,3 4,0 6,2zm6 7c0,0 0,2 1,2 1,-2 3,-1 2,-4 -3,-1 -7,-1 -9,2 3,2 5,-1 6,0zm7 -15c0,6 4,0 4,5l1 0c0,-2 2,-1 2,-3 -2,0 -4,-3 -6,-5 -2,3 -4,3 -6,1l0 2c0,2 5,2 5,0zm3 8l0 -2c-1,0 -1,2 -2,1l-1 0 0 2c-1,0 -1,0 -1,1 1,0 4,2 4,-2zm-6 -17c1,4 3,4 5,5l1 -3c-3,1 -3,-3 -6,-2zm0 -17c0,3 3,2 2,6 1,1 2,2 3,2 0,-4 -1,-8 -5,-8zm-2 17c-2,0 -1,4 -4,3 0,3 4,1 5,2 0,-2 -1,-3 -1,-5zm-5 -7l-3 -1c-4,3 4,4 5,4 -1,0 -2,-1 -2,-3zm-7 12c1,0 3,0 3,1l2 1c1,0 2,1 1,4 1,-1 2,-1 3,-1 1,-1 1,-3 1,-3 0,-3 -3,-1 -5,-2 -1,-2 -4,-5 -5,0zm46 21c0,-1 -1,-1 0,-3 -1,-1 -5,-4 -6,-2 1,3 3,5 6,5zm-20 -26c3,-1 4,1 6,2 2,1 2,-2 4,-1 0,-4 -7,-3 -9,-4 -1,0 -1,1 -1,3zm7 -82c-1,3 -1,5 0,7 0,-1 0,-2 0,-3l1 -3c0,-1 -1,-1 -1,-1zm13 87c0,-2 1,-2 1,-3 -2,0 -1,-3 -4,-2 -2,1 1,6 3,5zm11 -105c0,1 -2,-1 -2,-2 3,-3 5,1 8,4 0,0 0,-1 1,-1 0,0 0,0 0,0 2,-2 -4,-1 -2,-5 0,0 0,0 1,-1 0,0 1,0 1,1 -1,1 -1,2 0,2 0,-1 0,-1 1,-2l1 1c-1,2 0,2 1,3 0,0 0,0 0,1 0,0 1,0 2,0 0,0 0,0 0,0 1,0 1,0 2,0l0 2 0 0c0,-2 0,-4 1,-6 1,3 4,3 4,3 0,1 0,2 0,3l3 0c0,0 -1,-1 -1,-1 3,-1 5,-1 8,-5l2 0c1,0 1,0 1,1l1 0c4,2 4,-4 8,-3 0,4 3,2 4,3l8 -1c2,0 2,2 2,5l-2 0c-6,2 -9,-3 -15,-2 1,2 1,3 2,4 1,0 2,0 3,0 0,1 0,1 0,1 1,1 2,1 2,1 0,-1 0,-1 0,-2 0,1 2,3 2,1l1 0c1,-1 1,0 1,1 4,-1 7,-3 9,-4 -1,-7 8,3 6,-7 -5,0 -7,-5 -11,0 -3,-7 -7,3 -11,0 -1,-5 -6,-1 -9,-2 -1,-2 1,-7 -5,-5 -2,-1 -2,4 -3,5l-3 0 -7 0 -14 1 -6 0c0,0 1,0 1,0 0,5 -4,1 -2,5 -3,2 -2,-3 -4,-4 0,-1 0,-1 1,-1l-3 0c0,2 2,3 -1,5 5,4 9,1 13,1zm-5 104c0,1 -1,1 -1,1 -3,2 2,2 3,2 1,-6 -4,-6 -5,-5 -1,3 2,1 3,2zm6 -71l1 0c-1,5 1,3 2,2l0 0c-2,-2 -4,-5 -7,-5 -1,0 -2,0 -2,1 0,1 0,2 0,1l6 1zm6 68c2,2 6,-2 3,-3 -2,4 -6,-4 -8,1 1,1 5,-1 5,2zm11 2l1 0c1,0 2,-1 2,-2 -2,-1 -3,0 -3,-2l-3 0c0,3 4,0 3,4zm3 -87l1 0c1,-2 1,-3 0,-3l-2 0c0,0 0,0 0,0 0,1 1,2 1,3zm6 -1c0,0 0,0 0,0l-1 0c0,0 0,1 1,0zm3 -15c0,0 -1,0 -1,0 0,0 0,0 0,0 0,0 1,0 1,0zm-2 106c2,-2 3,-1 6,0 1,-5 -3,-2 -5,-3l0 -1 -1 -1c1,3 -1,4 0,5zm7 0c2,1 5,-1 4,4 1,-3 2,-4 5,-3l1 0c-3,-2 -8,-4 -11,-1l1 0zm11 -1c1,0 4,-4 3,-4 -2,1 -4,2 -6,3l3 1zm3 -83l1 0 3 0c1,0 2,-2 1,-2l0 0c-1,0 -4,1 -5,0l-2 0c1,1 1,2 2,2zm6 -4c0,-1 1,-1 2,-3 1,2 -1,6 -1,6 0,0 0,1 0,1 2,0 3,-1 4,0 0,0 0,0 0,0 -1,-1 -2,-3 -1,-6 0,0 0,0 1,0 -1,0 -1,-1 -1,-2l-5 1c0,1 1,2 1,3zm10 33c-2,0 -4,-1 -5,-2l-1 0c1,2 4,4 6,2zm5 63l2 0c3,0 6,1 8,2l1 0c1,0 2,1 3,-1 -3,1 -2,-5 -5,-3 -4,-1 -6,2 -10,1 0,-5 1,-4 1,-7l0 -1c-2,2 -4,-3 -4,0 -1,4 3,2 2,5 -1,3 -3,-2 -4,1 1,3 3,3 6,3zm22 -4l-4 0c-1,-1 -2,-1 -5,-2 0,-2 5,-2 5,1 1,-1 2,-2 1,-5l1 1c0,-1 1,0 2,-2l-2 0c-1,0 0,-2 -1,-3 -2,5 -6,-1 -12,0l-1 0c0,3 3,1 4,2 5,0 2,2 0,3 0,2 1,1 2,2 0,2 -2,1 -3,1 -2,-1 -4,-1 -4,2l4 1 4 0c2,1 6,4 9,-1zm0 -14c0,0 -1,0 -1,-1 0,0 1,-1 0,-2l-2 0c0,1 1,2 1,3 -2,1 -2,-5 -3,0 1,0 1,2 3,1 1,0 2,1 2,-1zm0 -64c0,-1 0,-1 0,-1l-1 0c0,-3 -2,-3 -4,-2l0 3c1,0 1,0 1,1 0,-3 3,-1 4,-1zm1 -8c-1,-1 -2,-2 -2,-3l-5 0c0,2 0,4 0,4 1,0 1,0 2,-1 0,1 0,2 -1,2 2,1 4,0 6,0 0,-1 0,-2 0,-2zm-23 3l0 0 1 0c0,1 1,1 2,2 0,-2 -1,-3 -3,-2zm-3 -13c0,1 0,2 0,2 1,1 2,-1 3,-1 -1,0 -2,-1 -3,-1zm-2 38l1 0c1,0 1,-1 1,-1 -1,0 -1,0 -2,0l0 1zm1 -38c-1,0 -2,0 -3,0 0,2 0,3 0,4 1,0 3,1 5,1 3,-2 -4,0 -2,-5zm-74 -20c0,0 1,2 1,0l-1 0zm-7 0c0,0 1,0 1,0l-1 0c0,0 0,1 0,2 1,3 2,-2 0,-2zm116 66l3 0c0,-1 -1,-1 -1,-3l-1 0 -1 0 -3 0c0,2 1,3 3,3zm9 45c0,-3 0,-4 0,-6 3,-2 2,6 4,2 1,-4 -1,-5 -2,-3 -4,-2 -7,0 -12,-2 -1,1 10,3 10,9zm6 -41c2,0 5,-5 5,2l1 0 1 0 0 -1c2,-1 2,3 5,2 2,1 2,-2 4,-1 1,0 2,0 2,-1 -2,0 -2,-2 -4,-2l-7 -1c-1,0 -2,0 -2,-2l-4 0 -2 0 -7 -1c0,0 -1,-1 -1,-1 -1,1 -3,2 -3,5l2 0c2,-4 6,-2 9,-2 1,1 0,1 0,3l1 0zm14 57c0,-1 1,-4 0,-4 -2,3 -3,0 -5,0 -2,-1 -5,0 -6,3 3,-1 9,-1 11,1zm22 14c-3,-5 -12,4 -14,-4 2,-2 3,4 5,0 -1,0 -2,0 -2,-1l-3 -1c0,4 -9,4 -5,0l-3 0c0,1 -1,1 -2,2 8,4 17,8 24,4zm-21 -9l4 0 0 0c4,-3 -4,-5 -4,0zm0 -19l1 0 1 0c1,1 1,0 1,-1 0,-2 -3,-1 -3,-5l-1 0c-3,5 2,1 1,6zm27 23l1 0 1 0 4 0 1 1c-1,-4 -5,-4 -9,-4 3,-5 11,-2 11,4 1,0 2,0 2,-1l-2 -1c1,-9 7,3 7,-6 -1,1 -6,2 -7,-1 3,-1 -2,0 -1,-3 0,-1 -1,-1 -2,-1 -2,-1 -1,4 0,4 1,0 3,1 1,1 -1,0 -4,2 -3,-1 2,-2 -3,-1 -1,-5 -1,2 -2,4 -1,6l-6 -1c-5,1 -9,-1 -13,-2 -4,1 -4,-3 -7,-4 2,2 3,5 5,6 0,3 -3,5 0,5l2 0c1,-3 0,-3 -1,-3 4,-2 12,-1 15,3 -3,0 -8,-3 -10,0 0,1 1,0 1,2l1 0 11 1zm5 3l-2 0 0 1c-2,3 -4,-3 -8,1 4,4 9,4 10,-2zm10 4c-2,0 -7,1 -4,-3l-4 -1c0,2 1,2 2,2 0,4 -5,-2 -4,4 4,-3 8,6 10,-2zm1 7c-1,-9 7,1 8,-7 -1,1 -3,1 -4,-1 -6,0 -2,3 -7,8l3 0zm10 -13l-4 0c-1,2 0,3 0,4 1,-2 4,1 4,-4zm1 -23c-3,-2 -3,2 -4,3 -1,-5 -3,-1 -7,-4 -1,0 -2,0 -2,3 3,1 4,3 9,2 2,2 3,-2 4,-4zm3 -35c2,-1 1,3 4,2 1,-1 4,1 3,-3l-14 -1c0,3 5,1 7,2zm3 40c-1,0 -1,-2 -2,-3 -1,1 -2,2 -2,4 1,0 4,2 4,-1zm2 -1c4,5 8,-1 9,7 1,-1 1,-5 3,-3 2,0 1,-5 2,-7 4,-1 5,2 7,5 0,-3 -1,-5 -2,-7 3,0 6,0 8,-2l-3 -1c-3,2 -1,-1 -4,-1 1,4 -2,2 -3,2 -2,-1 -4,-2 -6,-1 1,4 4,0 4,2 -3,2 -2,3 -4,7 -6,0 -8,-6 -13,-6 2,1 4,2 2,5zm10 12c-3,2 -5,-2 -6,3 2,0 8,1 6,-3zm6 -49l0 0c-1,0 -3,-1 -3,1l2 0 2 0 4 1 0 3c1,0 1,-2 1,-4l-6 -1zm-5 18l-2 0c0,1 -1,2 0,3 2,1 6,-2 6,2l3 0c-1,-2 -2,-3 -3,-3l-4 -1 0 -1zm-18 -36c1,2 -5,5 -2,5 1,-1 2,-1 3,-1 1,0 2,-1 3,-2 -2,0 -3,-1 -4,-2zm-12 2l2 0c2,-1 2,1 3,1l1 1c1,0 2,0 2,-3 -1,2 -6,-4 -8,1zm8 47c1,-6 -5,0 -5,-4 -2,3 3,4 5,4zm-12 -35c1,3 4,0 6,1l2 0 1 0 0 -2 0 0c-3,1 -8,-2 -9,1zm1 -20c0,0 1,0 1,-1 0,0 0,0 0,0 -1,0 -1,1 -1,1zm-3 0c0,1 1,2 1,2 1,-1 1,-1 2,-2 -1,1 -1,1 -3,0zm-2 2c0,0 0,1 0,1 1,1 2,2 3,3 0,-1 0,-1 0,-2 -1,0 -2,-1 -3,-2zm11 66c-1,-1 -4,4 -4,0l-1 -1c-4,5 4,6 5,1zm-6 -14c1,-1 -5,0 -3,3 -4,1 -4,-3 -6,-3 0,1 0,1 0,2 -1,-1 -3,-3 -4,-6l-1 0c2,3 0,3 -1,6 2,0 2,3 3,4 2,1 2,-2 4,-1 3,2 4,-1 6,0 3,3 0,-2 2,-5zm-7 -38c-1,0 -6,3 -6,-1 -5,2 -10,-3 -17,-2 -1,5 4,1 4,6l2 0c2,-5 5,-1 7,1l1 0c2,-3 6,-1 8,1l1 0c2,-3 5,0 2,-4l-2 -1zm-1 -18c0,0 1,1 1,1 0,0 0,0 1,0 -1,-1 -1,-1 -2,-1zm-7 2c-3,0 -8,0 -11,-1 0,2 2,1 2,3 -3,1 -3,-2 -4,-3 -1,-1 -1,1 -2,1 3,4 6,4 11,4 2,-1 0,-2 -1,-2 2,-4 5,4 6,-2l-1 0zm-14 66c1,2 3,2 5,2 1,-3 -2,-1 -2,-3l0 0c-2,-1 -7,0 -3,1zm-5 -11l0 2 1 0c2,-2 5,-3 6,0 2,1 1,-4 3,-6 -2,1 -4,-2 -3,2 -2,-1 -4,-2 -7,-2l-1 3c2,0 3,-2 5,-1 0,3 -3,0 -4,2zm-3 -56c-1,1 -4,-2 -5,1l4 1 3 0c1,1 -1,2 -1,4l2 0c1,0 2,1 2,-1 -2,-1 1,-6 -5,-5zm-7 -15c-1,1 -1,2 -2,3 1,0 2,0 2,1l0 1c-1,-3 1,-4 0,-5zm-6 8c-3,-2 -7,3 -8,-1 2,0 0,-1 0,-2 -4,1 2,6 3,7l1 0c2,-4 8,2 10,-2 -1,0 -1,0 -1,-1l-1 0 -4 -1zm-3 -5c0,0 0,1 1,1 0,-1 0,-1 1,-1l-2 0zm117 60l-5 -1 -2 0c-5,7 6,5 7,1zm16 -10l3 0c1,0 1,0 1,-1 -1,-1 -5,1 -4,-2 0,0 1,-1 1,-3l-4 0c0,1 1,1 2,1 0,8 -3,1 -4,4 1,1 3,3 5,1zm7 0l0 1c1,-3 4,0 2,-5 -1,0 -3,0 -4,3 1,0 2,0 2,1zm16 5l1 0 0 -1c2,2 5,-3 4,-4 -3,0 -3,4 -6,3 0,0 0,-1 0,-1 -2,0 -1,4 1,3zm11 0c3,0 5,3 8,5 1,-2 1,-4 0,-6l3 0c0,1 1,2 1,3 1,0 2,-2 4,-2 2,1 -2,2 -2,5l2 1c2,-4 6,4 8,-1 -1,0 -6,0 -3,-2 2,2 2,-2 3,-4 -1,-2 -5,-1 -7,-2 -4,1 -5,-3 -7,-1 0,0 -1,0 -1,-1l-1 0 0 1c-2,1 -3,0 -6,1 -1,0 -3,1 -3,3l1 0zm-77 -34c0,-1 -1,-1 -1,-2 0,-1 0,-1 1,-1 0,-2 -2,-1 -3,-2 -1,5 1,5 3,5zm-107 -50c3,-2 8,3 8,-3l-5 0c-2,1 -3,-2 -5,-2 0,2 -1,3 -1,5l3 0zm63 -21c1,-1 2,0 2,-3 -1,0 -2,-1 -3,-2l-4 0c-3,2 -10,-3 -11,3 6,0 10,3 16,2zm-156 123c1,-5 8,-1 7,2l-2 0c0,-3 -3,-1 -5,-2zm252 8c1,0 1,-1 1,-3 3,0 6,0 5,5 -2,-5 -4,0 -6,-2zm-42 -57c1,-3 1,-5 0,-6l2 0 0 3c2,-1 2,2 2,0 0,-3 -2,-4 -3,-6l4 0c1,4 -1,6 3,6 0,-2 -1,-3 0,-5l0 0c1,3 4,3 2,10 -1,-3 -4,2 -6,-2 1,0 2,0 3,-1 -2,0 -3,0 -4,1l-3 0zm-124 60c0,-5 5,-1 7,-2l3 0c0,2 -1,3 -3,3 0,3 3,1 2,4 -1,-1 -1,-2 -3,-3 0,1 0,3 -1,3 0,-1 -2,-2 0,-3 0,-3 -3,-1 -5,-2zm1 -10c3,0 1,5 4,2l1 0c13,4 5,5 0,3 -2,-1 -6,1 -7,-2 1,0 2,-1 2,-3zm230 -32c-1,3 -6,-5 -2,-5 -1,4 2,2 2,5zm-65 -19c-1,10 -5,1 -8,3 0,-7 2,-2 3,-4l0 0c1,0 1,1 0,1 0,5 3,1 5,0zm-22 1c-1,0 -1,-2 -3,-2 -4,3 -9,-5 -5,-6l2 0c0,3 6,9 6,4 3,-1 1,4 4,3 -1,2 -3,1 -4,1zm3 -10c1,0 2,-3 2,-5l-3 0c0,-5 6,-1 8,-2l13 -1c1,0 2,1 2,3 -4,3 -9,3 -12,0l0 3c-5,-3 -7,11 -10,2zm42 20c-4,-6 -7,8 -9,2 4,-2 9,-13 9,-2zm-35 -15c1,3 1,4 -1,5 -1,3 1,3 1,5 -1,1 -2,-2 -2,0 1,-5 -4,-6 -5,-10 3,1 5,5 7,0zm-98 -35l-1 0 -16 1c-3,1 -4,-1 -4,-7 1,-6 6,-2 9,-3 1,-1 1,1 1,2l0 3c3,10 11,-15 11,4zm163 51c2,1 -2,2 -3,4l-1 0 -3 -1c-1,0 0,-2 -2,-1l-1 0c1,-2 1,-2 2,-3l4 0c0,2 -1,1 -2,2 1,4 5,0 6,-1zm-607 47l-8 -1 -4 -1c1,-7 13,5 17,-2 4,2 -3,8 -5,4zm77 -12c2,0 5,3 6,-1 0,0 0,-1 1,-1 1,1 2,2 2,3 -2,1 -3,2 -3,4 -1,0 0,-4 -3,-3l-2 0c-1,-1 -1,1 -2,1 0,-1 0,-3 1,-3zm-81 17c4,-3 7,6 9,1 1,1 2,-2 4,-1l6 1 5 1 5 1c0,-2 1,-3 1,-3l4 1 7 2c1,1 1,2 3,2l0 1c3,5 -4,-3 -4,6 0,-3 -3,-3 -6,-3 -1,0 0,-1 0,-3 -2,-1 -2,2 -3,5 -2,0 -1,-5 -4,-4 -2,0 -3,-1 -3,-3 -1,3 -2,6 -3,5 -4,-2 -6,5 -10,3 -2,-12 -7,2 -12,-3 -1,6 3,2 5,4 -1,3 -9,4 -6,-4l1 -5c-2,3 -5,2 -7,1l0 -2c4,3 5,-4 8,-3zm-12 12c2,4 -4,1 -5,7 0,8 8,-5 7,4 0,-1 -1,0 -1,2l-1 0 -7 -2c1,-1 0,-2 -1,-2 0,-2 0,-3 -1,-3 0,-2 1,-3 2,-5 2,-1 4,-2 7,-1zm86 -18l1 0c0,4 2,-2 3,1 -1,1 -1,5 0,7l-1 0c-1,-2 -3,-2 -6,-2 2,-3 3,0 3,-6zm-7 -9c0,1 -1,1 -2,1 0,3 1,4 3,3 -1,4 -3,4 -2,9 0,1 -5,0 -4,-3 5,-2 -3,-2 -3,-4 4,-1 3,-5 8,-6zm-54 12c2,-4 5,-2 8,-3 -2,7 -6,3 -8,3zm-120 17c-1,3 -1,7 -3,7 0,-1 0,-2 0,-5 -1,-2 -5,6 -4,-1 1,-5 5,0 7,-1zm0 -10l8 1c1,0 2,1 2,3l-3 0c-5,0 -18,2 -18,-4 4,1 8,2 11,0zm-24 10c-7,7 -20,1 -29,0 9,-3 19,-2 29,0zm93 3l-4 -1c0,7 6,3 8,2 -3,11 -10,-4 -12,10 -3,-3 2,-9 2,-12 1,1 6,-6 6,1zm-38 0l1 1c4,2 7,-3 11,-1 -3,4 -7,4 -11,3 -1,0 -2,0 -2,-3l1 0zm56 -16l5 1c1,0 3,-1 3,3 -4,-3 -2,3 -4,4 -3,1 -3,-4 -6,-4 -1,0 -3,1 -3,-3 2,-1 4,4 5,-1zm-19 9c-2,-1 -4,-3 -5,-6 1,-1 2,0 3,-2 1,6 4,-1 7,1 -1,3 -4,3 -5,7zm136 -41l0 -4c2,0 5,0 4,3 -2,0 -3,0 -4,1zm54 47c-3,-1 -5,1 -7,2 -1,-7 9,-4 7,-2zm3 11c0,-2 -2,-1 -2,-3 0,0 1,0 0,-1l1 0c0,4 3,2 3,6 -1,0 -1,0 -1,1l-5 0c0,-2 0,-2 0,-3 2,-2 3,4 4,0zm-27 -15c0,3 1,-1 2,-1 2,3 2,-5 0,-6 0,-2 0,-1 0,0l1 0c1,2 1,5 3,5l0 -2c0,-1 2,-1 2,-2 1,-5 2,2 4,0 0,-4 3,-1 3,-4 -2,-1 -2,2 -4,1 1,-5 7,-5 6,2 -5,1 -3,11 -2,14 -2,0 -1,-3 -3,-2 0,-4 0,-7 -1,-8l0 -2c-3,-1 -3,2 -4,4 1,1 2,2 3,2 0,2 -3,5 -1,6l0 1c-1,-1 -2,1 -3,1 -2,1 -1,-3 -1,-6 -1,1 -3,-4 -4,0 -2,0 -2,-1 -2,-3l1 0zm18 13c0,-3 -3,-1 -5,-2 1,-3 4,0 6,-1l1 0c2,4 -1,1 -1,6l-5 0c0,-2 -1,-2 -1,-3 3,-1 3,3 5,0zm11 -8c0,-2 1,-2 1,-4l2 0c-1,5 2,3 2,6 0,2 -1,2 -1,2 -2,0 -4,0 -5,-2 0,-1 1,-1 1,-2zm6 11l4 0c0,6 -4,2 -6,3 0,-2 1,-1 2,-3zm-2 -3c-6,3 -3,-7 0,0l0 0zm-357 -16l1 0 1 0c0,3 -1,2 -2,2l-5 -1 0 3 -9 -2c4,-3 9,-3 14,-2zm297 -11c2,-1 2,-2 2,-4l1 0c1,0 1,1 1,2 -2,0 -1,5 -2,8 -2,0 -1,-3 -3,0 1,-3 3,-3 1,-6zm-2 -23c0,-2 -1,-3 -3,-3 -2,0 -4,0 -5,-2 0,-2 5,-2 5,0l5 1 -1 7c-2,0 -3,2 -4,0 1,-1 0,-2 -1,-2 -2,-1 -4,-1 -5,-3 4,-2 7,6 9,2zm4 33c-1,-1 -1,-2 0,-3 0,4 3,2 4,5 -2,0 -2,1 -3,3 1,-1 3,-4 3,0l-1 0c0,1 -1,1 -3,1 0,-1 -1,-2 0,-3 1,0 1,-3 0,-3zm27 -13l0 3c0,1 0,2 -1,1 1,-2 -4,-3 -4,0 1,0 1,1 0,1 0,-1 0,-1 -1,-1l1 -3c2,1 4,-1 5,-1zm-16 3c-1,0 -3,-1 -1,-2 3,0 3,2 3,3 3,0 3,-3 3,-6l2 0c-1,4 3,1 3,4 -3,0 0,1 0,3 -2,0 -2,2 -4,1 1,-6 -2,3 -5,0 0,-2 0,-3 -1,-3zm-6 -7l-4 0c1,-2 -2,-5 1,-6 0,3 1,6 3,5l3 0c2,-4 4,1 2,-1 -2,0 -2,4 -1,6 -1,0 -3,0 -4,2 1,3 4,2 6,2 -1,5 0,6 1,7 -4,-1 -2,5 -2,9l-2 0c-1,0 -2,-2 -2,-3 1,0 2,0 2,-2 -1,1 -1,-1 -2,-1 1,-2 3,0 3,-3 -5,2 0,-4 -2,-6 -1,1 -1,3 -3,3 0,-3 -2,-3 -2,-5 1,-2 2,-3 3,-7zm25 11l-1 0c0,-1 -1,-1 0,-3 1,1 1,-1 2,-1l2 0c-1,1 -1,3 -1,5l-2 -1zm-628 13c-1,4 -7,3 -6,-1 3,1 5,-5 6,1zm295 -27c-3,-2 -2,-8 -6,-4 0,-8 4,-2 6,-3l4 0c-1,2 -2,3 -2,5 -1,-1 -1,1 -1,2l-1 0zm-281 18c1,2 -5,3 -7,3 1,-9 5,-2 7,-3zm-94 -19c-1,2 -2,9 -4,7 3,-9 -2,-5 1,-13l1 1c0,1 0,3 1,2 -1,3 1,2 1,3zm26 3l-6 -1c-1,-2 -5,1 -4,-4l11 2c0,2 -1,3 -1,3zm215 -6c-3,0 -14,1 -13,-2 1,0 3,0 4,-2l9 2 5 1 6 1c7,-3 7,-4 2,-9l9 1 4 1c1,1 1,2 0,5 -8,9 8,2 8,9 -4,-3 -13,2 -13,-7 -4,-3 0,4 -3,4 -1,0 -2,-2 -2,-3 -5,5 -11,-1 -16,-1zm-2 15l8 2c20,3 10,4 -1,4l-7 -1c0,-2 -1,-3 0,-5zm35 7l12 2 0 3 -2 -1 -4 0 -10 -2c1,-4 2,-2 4,-2zm-18 -11l-11 -2 -8 -2c0,0 -1,0 -1,-3l8 2c2,-1 10,1 12,5zm52 -7l4 0 3 1c1,0 0,4 -1,5 0,-7 -6,-2 -8,-2 0,-3 1,-5 2,-4zm1 17c-1,8 -3,4 -5,4 7,6 -5,11 -1,-5l6 1zm-30 -6c2,-6 3,-8 1,-12 2,0 3,1 4,-2l3 1c0,0 0,1 0,2 -15,7 16,12 2,11 -2,0 -2,-1 -7,-1 -1,-1 -2,2 -3,1zm-37 18c-4,-1 -8,-2 -11,0l-2 0c3,-4 11,-6 13,0zm2551 32c-1,13 -8,3 -10,2 2,-7 7,-1 10,-2zm-67 -27c-3,-3 -3,5 -6,2 0,-3 1,-3 2,-6 0,-3 -1,-4 -2,-3 0,-7 3,-1 5,-3 -1,7 2,5 1,10zm-19 -12c3,-4 7,-3 11,-2 0,3 -1,2 -2,3l-2 0c-1,8 1,6 -1,12 -2,-8 -2,-3 -7,-4 -6,-1 -9,5 -15,2 -1,-1 -1,-1 -1,-4 5,0 10,-4 16,-1 2,1 3,1 4,-3 -2,0 -3,1 -3,-3zm12 24l-17 -3c-3,3 -22,-4 -15,-8 2,1 7,9 9,1l8 1c5,9 12,-2 18,6l6 0 6 1c1,2 5,-3 5,4l-12 -1c-3,-1 -6,4 -9,5 0,-3 1,-3 1,-6zm68 5c3,-6 6,-10 11,-9 -2,6 -9,15 -11,9zm-6 15l-2 0 0 -4c-3,-2 -9,3 -10,-4l12 1c0,1 1,3 0,7zm-14 -8l0 6 -4 0c-1,-2 -6,3 -5,-4 4,1 7,0 9,-2zm-25 -16c3,0 2,4 0,3 1,10 4,-2 7,1 -1,10 -6,5 -9,5 0,-4 0,-8 2,-9zm2 16c-1,2 -1,6 -2,6 -1,-7 -8,-2 -11,-4 -1,-7 9,-1 13,-2zm-431 -24l20 2 4 1 1 0 8 1c2,0 2,1 2,3l-6 0 -2 -1 -2 0c-1,4 -4,3 -7,2 -1,-3 -6,-7 -7,0l-3 -1c-2,6 -9,5 -8,-4l0 -3zm84 -6c3,-2 6,-3 10,-2l25 3c3,-2 4,-2 7,1l2 1 3 0 4 0 3 1c5,0 8,-4 13,-2 0,3 -1,3 -1,6 3,3 3,-4 5,-2 4,-2 8,-4 13,-2l10 1 1 1c2,2 8,-3 8,4l-4 -1c0,19 -8,0 -11,5 1,3 1,6 1,10 -1,3 -1,5 -2,6 -5,-1 -13,2 -11,-8 0,-4 -4,-1 -4,-6 2,-2 6,5 6,-6 -3,-2 -4,5 -7,2l-1 0c-1,3 0,3 0,3 -1,7 -5,1 -5,12 -1,3 -2,3 -4,3 1,-6 3,-8 4,-12 0,-5 -1,1 -4,-4l1 -3c-3,-4 -3,5 -5,6 -4,-2 2,-11 -2,-10 -1,8 -4,6 -7,6 -1,4 -4,3 -5,9 -1,0 -1,-4 -2,-4 0,-4 3,-1 3,-6 -6,-1 -12,-2 -17,1 -1,-1 -1,-3 -1,-6 -6,-3 -16,8 -26,3 0,-8 9,1 6,-6l-1 0 -5 0 -6 -1c-2,0 -4,-2 -4,2 -1,0 -2,0 -2,-3 -2,-13 10,-3 12,-2zm-241 -10c1,3 3,5 5,4 0,-4 -4,-6 1,-6 1,0 3,2 3,6 -3,0 -9,8 -11,-1 -6,-3 -9,4 -15,1 5,-6 12,-7 17,-4zm-72 -15c1,1 1,3 2,3l21 3 7 1c-2,5 -5,6 -8,5 -7,-7 -14,0 -20,-5l-4 -1 -10 -1 1 -3c2,-7 8,0 11,-2zm321 45c-4,-2 -7,2 -11,2l1 -6c3,2 9,-3 10,4zm10 2c-2,1 -5,-5 -5,2 -2,1 -3,-1 -3,-7 1,-4 20,6 8,5zm251 -11l-18 -2 0 -3c5,2 14,-3 18,5zm4 -3c0,-3 -1,-3 -3,-3 3,-8 6,-4 10,-2 -1,5 1,7 3,7 -2,7 -8,0 -10,-2zm-6 12l31 4 9 1c7,3 22,-1 23,6 -2,12 -8,8 -12,8 2,-8 8,-1 11,-8l-16 -2 -6 -1c-2,0 -5,-1 -6,3 -2,9 -5,-7 -7,2 -2,-5 -12,4 -6,-7l-15 -2 -6 -1 -5 0c-13,-1 -2,-6 5,-3zm-40 -1c3,0 5,0 6,4 1,-1 1,-3 2,-3 2,-7 21,0 13,1 -4,7 -9,6 -14,5 -1,4 -9,6 -7,-4l0 -3zm95 27c-1,9 -4,-1 -6,-1 0,0 -1,0 -1,-3 3,0 6,0 7,4zm-265 -26l2 0c-1,8 -4,6 -7,6l-3 -1c-2,-6 7,1 8,-5zm152 3c0,-7 2,-6 3,-6 1,5 17,4 9,7 -3,-1 -5,-1 -7,3l-6 -1 -4 -1c-14,0 -4,-6 5,-2zm-81 6l-12 -2c2,-5 11,-4 12,2zm61 -15l0 -3 11 1c-3,7 -7,11 -13,8l1 -3c4,3 7,-4 1,-3zm173 5c9,-2 12,-3 21,-4 -6,8 -17,9 -21,7 -4,-2 -6,5 -10,2 1,-12 7,-2 10,-5zm436 -65c-1,0 -2,0 -2,-3l8 1 10 1c-1,12 -5,10 -9,9l-1 0c-2,-1 -3,5 -6,2 0,-3 1,-2 2,-3 0,-4 -1,-6 -2,-7zm-1167 17c0,0 0,0 0,0l0 0 -1 0 1 0zm6 1c2,0 3,-2 5,-3l0 0 -5 1c0,1 0,1 0,2zm8 -2l5 1c0,-1 0,-2 0,-3l-4 1 -3 0c0,0 1,0 2,1zm12 1c1,5 5,4 6,-5l-7 1 -1 0c0,1 -1,2 -1,4l3 0zm68 9c2,7 9,2 13,4 0,-7 -5,-1 -7,-4l-6 0zm61 7c1,-8 -4,-3 -2,-13l-2 0c-1,3 -2,7 -2,12l6 1zm7 -15l4 1 1 0 11 1c4,-1 6,2 8,4 1,-1 2,-2 3,-6 -2,-2 -7,3 -6,-5 -2,1 -4,2 -6,2 -1,1 -1,1 -1,2l-13 -2 -1 0 -7 -1 -1 0 0 3c1,0 1,1 1,3 2,0 4,-4 7,-2zm5 13c0,-1 -1,-3 -2,-3 -2,-1 -2,0 -3,3l0 3c1,4 5,5 5,-3zm-16 -75c0,7 4,0 7,2l-1 -10c-5,-3 -1,11 -6,8zm54 74c-1,8 0,11 3,9 0,-3 1,-2 2,-3l4 1c-1,-7 -7,-2 -9,-7zm67 11c0,-3 1,-3 1,-6l-3 -1c-2,-1 -4,1 -4,6l6 1zm15 -14c4,1 9,-2 11,4 2,-7 6,0 9,-2 3,1 7,-1 4,7 5,2 10,-12 12,2 0,-3 1,-3 1,-3 1,-3 2,-5 2,-10l-6 0c-2,0 -4,0 -7,-1 -2,0 -3,2 -6,2 0,0 -1,-1 -2,-1 -2,0 -5,-1 -6,0l0 -2c-1,0 -2,0 -3,0l-1 0 -4 0 -1 1c-5,1 -9,0 -14,-1 -1,0 -1,1 -2,2l13 2zm67 -5c0,0 0,0 0,-1l-1 0c0,1 -1,1 -1,1l2 0zm26 4l1 0c2,0 2,-4 0,-3 0,0 -1,0 -2,0l-1 0 -7 1c0,0 0,0 0,0 0,0 0,0 0,0l9 2zm21 5c-1,0 -3,0 -4,0 2,0 3,0 4,0zm97 6l8 1c1,-9 -6,2 -5,-7 4,-5 8,11 9,-2 -6,-2 -7,-2 -12,-5l0 3 2 1c0,5 -1,5 -2,9zm33 -2c2,0 3,-4 5,-3 2,1 2,-4 0,-3 -4,-2 -5,4 -8,-1 -2,11 -4,-8 -6,2l0 3 9 2zm7 4l5 0c-1,-11 4,-1 4,-9 -5,-5 -6,9 -11,5 0,3 1,3 2,4zm16 8l8 1c0,-5 -2,-3 -4,-4l-5 0 -8 -1c0,7 6,1 9,4zm11 -5l1 -6 5 0c2,-1 0,-3 0,-6 -5,-2 -6,-3 -12,-2 -3,1 -6,-3 -7,6 1,7 3,-1 6,1l1 0c3,-3 4,15 6,7zm10 -43c-1,-4 -1,-7 1,-7 0,-5 -1,0 -3,0 -1,2 -2,3 -3,3 -6,-2 -11,4 -17,1l-1 3 6 1 13 1c2,2 2,-2 4,-2zm11 1l0 -3 -6 -1c-3,5 -1,5 -3,12 5,6 5,-11 9,-8zm11 1c2,-3 1,-6 0,-6l-4 -1c-2,11 2,6 4,7zm14 2l8 1 1 0c-1,13 2,3 3,1 2,-1 4,-2 5,-6l-5 -1c-1,3 -1,4 -2,3l-3 0c-2,0 -2,-1 -2,-4 -3,-9 -4,7 -9,2 -1,1 -3,-2 -4,3l8 1zm11 27l6 0c5,-3 8,10 12,2 -3,-7 -10,-3 -14,-5l-2 0 -4 -1c0,4 1,4 2,4zm19 -23l5 0c0,-2 0,-6 -1,-6 -1,1 -2,3 -3,3 2,-8 -1,-20 -2,-7 0,5 1,6 1,10zm10 -9c1,-4 -2,-4 -3,0l0 10c2,2 2,-7 3,-10zm13 11l7 1c0,-4 -2,-3 -4,-3l-6 -1 -4 -1 0 4 7 0zm49 13c2,-6 3,-17 7,-12 1,-17 -5,-1 -8,-1 -2,5 -1,10 1,13zm39 -5c2,6 1,1 3,-2 -1,0 -1,-1 -1,-1 0,-2 1,-4 1,-6l-4 -1c-1,0 -1,4 -2,7 -1,-5 -3,-5 -5,-1 -1,15 5,-1 8,4zm20 -1c0,5 -2,5 -2,10 4,-3 9,2 14,-5l3 0c-2,-7 -10,-2 -15,-5zm25 0l-1 0c-3,-2 -4,5 -7,2 1,8 7,4 8,-2zm17 9c0,-8 2,-7 2,-16l-3 0c-1,5 -3,2 -3,9 1,1 0,3 0,3l0 3c1,4 2,4 4,1zm8 -6c0,-4 1,-12 -3,-7l-1 13c0,9 4,-2 4,-6zm4 10c1,-4 2,-5 4,-6 3,1 4,-5 6,-2 1,-2 6,-4 3,-6 -3,-1 -5,-1 -6,2 -5,-6 -14,12 -7,12zm28 0l4 1c0,2 -1,3 -1,6 4,-1 7,-9 12,-5l1 0c3,1 3,6 6,4 0,-8 6,3 6,-5 -1,-1 -1,-1 -1,-4 -3,-3 -6,2 -11,2 -11,-5 -20,-2 -32,-4 0,3 -1,3 -1,7 5,-4 11,-2 17,-2zm31 4c0,4 3,4 5,4l3 0 6 1c3,5 4,1 8,1 2,2 2,-2 4,-3l9 1c0,4 -1,4 -2,7 4,-2 3,6 6,0 4,-3 5,0 10,1l2 1c0,-4 1,-5 1,-10l-8 -1 -3 0c-1,-1 -4,1 -4,-4l-1 0 -5 0c-1,-5 -6,7 -11,1 0,-8 5,3 5,-5l-8 -1c0,4 0,5 -1,6 -3,2 -4,-4 -6,-4 -2,4 -5,3 -7,2 -2,2 -4,-9 -5,0 0,1 2,0 2,3zm53 -3c-1,0 -1,-6 0,-6l5 0 2 1c3,-2 7,4 9,-3 0,-9 -3,3 -4,0l-3 0 -4 -1c-4,4 -8,-13 -10,2 5,2 -4,8 -6,6 0,3 1,3 3,3 4,-3 5,4 8,-2zm6 20l1 0c-1,-10 6,-7 6,-3l6 1c4,-3 3,-11 7,-18 -2,-2 -7,3 -6,-4l13 2c0,-5 -3,-3 -4,-4l-11 -1 -1 0 -1 6c0,5 3,3 2,10 -5,-5 -10,7 -12,-2 2,-3 4,0 4,-9l-3 0c-3,-3 -2,10 -2,12 -1,1 -3,-1 -3,3 2,0 1,9 4,7zm30 -31l1 -7c-4,4 -4,1 -7,0 -7,1 -13,2 -21,0 0,4 2,3 3,4l24 3zm48 5l12 2c0,4 -3,1 -3,6 4,2 11,-3 14,5l-5 -1c-1,11 3,5 5,7 2,-5 3,3 7,1 3,-8 -4,-7 0,-10 0,-3 -1,-2 -2,-3 1,-3 3,-5 2,-6 -4,-1 -4,9 -8,5 -3,-2 -8,3 -9,-4l3 0c0,-4 -1,-6 -2,-6 -2,3 -8,5 -8,-1 1,-1 3,1 4,-3l-9 -1 -1 3c-3,-2 -4,5 -7,2 0,0 -1,1 -1,3l8 1zm39 -14c-1,0 -1,-4 -3,-3 0,9 -3,5 -4,5 -2,-1 -2,-5 -3,-6 -1,-1 -2,0 -2,3 -2,-2 -3,1 -5,2l-9 -1c0,3 0,3 1,3l8 1 1 1 8 0 2 1 8 1c0,-5 -3,-2 -2,-7zm5 13l0 -3 -3 0c-2,-5 -3,14 -4,2 0,-4 -2,-2 -4,-3 -3,1 -8,-5 -10,2 4,2 -5,4 -1,6l3 0c1,-2 0,-3 -1,-3 1,-7 4,-1 6,-2l3 0c-1,2 -2,5 -2,9 4,-3 10,-2 13,-8zm21 -35c-2,-2 -3,0 -4,6 0,3 -1,3 -1,6 4,4 3,-8 5,-12zm3 13l4 0 1 -6c-1,0 -1,-4 -1,-6 0,-7 4,-1 5,-3 0,-7 -5,-2 -7,-4 -2,2 0,10 -3,12 0,4 1,3 1,7zm12 -2l12 1 0 -3 -9 -1c0,-2 1,-3 1,-6 -2,-3 -2,6 -4,6 -1,-1 -1,1 -2,3l2 0zm32 4c-1,-3 -1,-9 1,-10 0,-2 -1,-3 -1,-3 -4,-1 -2,16 -7,9 -1,-1 0,-6 -2,-7 -1,2 -1,7 -3,6 1,8 8,2 12,5zm-211 16c0,-4 0,-7 -1,-10 -3,-1 -8,1 -9,-4 -3,-1 -3,0 -2,6 3,2 9,-3 10,4 -3,6 -7,2 -11,2l-9 -1c1,7 7,2 10,5l6 0 3 1c2,-3 3,9 4,0 -1,1 -1,-1 -1,-3zm-49 -3c0,-4 2,-2 3,-3 0,-3 -1,-2 -2,-3l-5 -1c-1,4 -2,3 -2,0 -9,2 3,17 6,7zm394 -13l4 0c1,-7 5,0 8,-2 1,-6 -11,-2 -5,-7 -2,-12 -4,8 -7,6l-10 -1c1,7 7,2 10,4zm12 8c0,-8 -6,-2 -9,-5l-1 0c1,8 7,2 10,5zm18 -8c2,2 2,-2 3,-6 -5,6 -8,-3 -13,2l0 3 10 1zm6 4l0 -3 9 1 12 2c4,-7 10,0 15,-2 4,-1 10,4 13,-2l5 1 3 0c5,3 7,-4 12,-1l0 -7c-2,-1 -3,6 -5,3l-1 0c-5,0 -8,4 -14,1l-13 -1 -4 -1c-3,7 -10,0 -15,2 -2,-2 -8,4 -6,-7 -1,-2 -2,2 -2,6l-6 -1c-3,2 -9,17 -3,9zm41 14l4 1 6 1 0 -7c-1,0 -1,-4 -2,-3l-6 -1c0,5 -5,6 -2,9zm75 9l3 1c0,-6 1,-6 1,-10 -5,1 -5,1 -11,-1 2,5 4,8 7,10zm15 -33c0,-2 -1,-16 2,-12 7,1 12,1 18,-1 0,-5 2,-3 4,-3 5,-1 -2,-5 -4,-4l-4 0 0 3c-5,-3 -8,5 -14,2 -3,2 -2,-5 -4,-4l-1 6 2 0c0,15 -4,13 -8,12 1,8 7,2 9,1zm18 5l9 1 1 -6 -1 0c-2,4 -5,3 -7,2l-2 0c-1,3 0,3 0,3zm26 -3c5,-2 6,6 11,4 1,-1 2,-3 3,-2 1,-7 -4,-2 -6,-4 -4,1 -10,-6 -13,1 0,10 3,-3 5,1zm89 -54c1,0 2,0 3,1 5,0 11,-3 15,-2 -3,-2 -7,-3 -10,0 -2,0 -3,-2 -3,-3l-4 0c-2,-1 -5,-1 -7,1 2,1 4,2 6,3zm31 -5l-1 0 -4 1c2,2 3,1 5,-1zm-1 6c2,0 3,0 6,0 -1,-2 0,-2 0,-4 0,0 -1,0 -1,-2l-4 0c3,2 -4,5 -1,6zm298 -32c0,0 0,0 0,0l0 0c0,0 0,0 0,0zm86 17c3,-2 2,-2 6,-1 -1,-3 -3,-2 -4,-4 5,-1 9,-5 15,1l1 0 1 0c0,-2 0,-5 -1,-5 0,-6 6,-2 6,-5 -4,-2 -7,-7 -12,-6 -3,-4 -2,0 -5,0l0 3c-3,0 -6,0 -5,7 -3,2 -4,-2 -7,-1 -1,0 -1,2 -2,2 1,5 7,-1 7,9zm47 7c4,1 4,-4 6,-5 3,-1 0,6 -2,5 0,2 2,1 4,1 -1,8 -3,3 -5,1l-2 0 -6 1c1,3 2,4 4,4 5,9 11,8 16,10 2,-2 -4,-5 -5,-11 -4,-2 4,-1 1,-7 -1,0 -2,-4 -1,-5 0,-2 -2,-2 -3,-2 -1,-4 1,-6 -1,-7 -4,-2 -3,-5 -6,1 -1,-5 1,-5 2,-7 -4,2 -5,-2 -8,-2 0,2 -1,2 0,5 1,0 1,3 -1,2 0,4 2,12 0,12 0,6 7,-3 7,4zm-836 62l5 1 9 1c-4,5 -10,6 -14,2l0 -4zm-121 53l7 0c-2,9 -17,-1 -7,0zm627 -99c-4,-6 -1,-8 3,-7l5 -1c0,2 2,2 3,2 3,-2 2,8 4,9 1,5 -5,2 -8,3 -4,1 -7,0 -9,-3 0,-1 2,-1 2,-3zm-213 62c2,-5 6,-4 9,-6 -1,10 -6,5 -9,6zm-13 5c4,-4 8,7 10,1 1,0 2,-4 4,-3l7 1 5 0 5 1c0,-3 1,-3 1,-3l4 0 8 1c1,2 2,4 3,4l1 0c4,7 -5,-3 -4,9 -1,-5 -4,-4 -6,-4 -1,0 -1,-1 -1,-3 -2,-2 -2,2 -3,6 -2,1 -1,-6 -4,-4 -2,0 -4,-1 -4,-4 -1,4 -1,8 -3,6 -4,-1 -6,8 -10,6 -4,-15 -7,3 -13,-2 -1,7 4,2 5,4 0,4 -8,6 -6,-4l0 -6c-2,4 -5,2 -7,2l0 -3c4,3 5,-6 8,-5zm4 -6l-9 -1 -4 -1c0,-9 14,4 17,-4 5,1 -2,9 -4,6zm-45 23c-2,-1 -4,-2 -5,-7 1,-1 2,0 2,-3 2,8 5,-2 8,1 -1,4 -4,4 -5,9zm30 0c2,4 -5,2 -5,9 1,11 7,-8 8,4 -1,0 -1,1 -1,3l-1 0 -7 -1c0,-2 -1,-3 -2,-3 0,-2 -1,-4 -2,-3 0,-4 1,-4 2,-7 2,-1 5,-4 8,-2zm-10 -14l5 1c1,1 4,-1 4,4 -5,-4 -2,4 -4,6 -4,2 -3,-6 -7,-4 -1,-1 -4,0 -4,-4 2,-2 5,4 6,-3zm-18 24l-4 -1c1,8 7,2 9,1 -2,15 -12,-3 -12,15 -4,-4 1,-13 1,-16 1,1 5,-8 6,1zm-39 5c5,2 7,-5 12,-2 -3,6 -7,6 -12,5 -1,0 -3,0 -2,-4l1 0 1 1zm-210 -15l4 0 3 0c1,1 1,6 0,7 -1,-9 -6,-2 -8,-1 -1,-4 -1,-7 1,-6zm3 22c0,10 -3,5 -5,6 9,6 -4,14 -1,-7l6 1zm69 -30l-1 0c-3,-2 -2,-10 -7,-4 0,-11 5,-4 7,-5l4 0c0,3 -1,3 -1,6 -1,0 -1,1 -2,3zm-363 55c0,3 -2,2 -2,3 -1,3 1,2 1,3l10 1 1 0c2,-1 3,-7 6,-5l0 3 -2 0c0,7 5,2 7,4 -1,5 -3,7 -5,6l0 -4c-3,2 -2,-5 -5,-3 0,6 -2,5 -4,6l-1 -1 -4 0c-2,3 -7,-3 -12,-2l0 -6c5,5 6,-6 10,-5zm465 -46l9 1c1,0 2,1 2,3l-3 0c-5,1 -19,6 -20,-2 5,1 9,1 12,-2zm-593 18c-1,-2 -6,3 -5,-4 4,6 6,-11 9,-2l2 0c3,3 10,-3 11,5l-2 -1c-6,-3 -9,4 -15,2zm165 39c1,0 2,1 1,6 -2,-3 -10,6 -8,-7l7 1zm-4 -13c0,7 -5,-3 -4,9 -4,3 0,-11 -4,-7l1 -3 7 1zm12 1c11,1 5,3 2,7 2,2 6,-3 5,3 -11,1 -6,-5 -14,-11l7 1zm6 17c-1,5 -8,4 -7,-1 3,1 5,-7 7,1zm319 -45l1 0 1 0c-1,4 -2,3 -3,3l-5 0 0 3 -9 -1c4,-5 9,-6 15,-5zm70 -1c-7,9 -21,3 -31,3 10,-4 20,-4 31,-3zm-216 28c-4,0 -9,-1 -12,2l-2 0c3,-5 11,-9 14,-2zm-6 -23l9 2c22,1 12,4 0,6l-8 -1c0,-3 -1,-4 -1,-7zm18 -7l-12 -1 -8 -1c-1,-1 -2,-1 -2,-4l9 1c2,-1 11,0 13,5zm0 -13c-4,7 -12,0 -17,2 -3,0 -15,2 -15,-2 2,0 4,0 5,-3l10 1 5 1 7 1c7,-5 7,-7 1,-13l10 2 4 0c1,1 1,3 1,6 -7,13 8,2 9,11 -5,-3 -14,5 -15,-8 -4,-3 1,6 -2,6 -2,0 -2,-2 -3,-4zm-140 15l3 1c2,-7 7,-1 10,-2 3,0 4,-5 7,-3l3 1c-4,17 -7,-1 -11,8 -3,-3 -3,4 -5,3 -4,-1 -9,-1 -11,-5l-7 -1c0,-3 1,-3 1,-6 -1,-1 -2,0 -2,-3l4 0c1,-4 2,-3 3,-6 -1,-2 -6,3 -5,-4 2,2 7,-3 7,4 0,3 -1,4 -2,6 3,0 5,0 5,7zm161 10l13 2 0 3 -2 0 -4 -1 -12 -1c1,-5 3,-3 5,-3zm-79 13c-1,8 -4,6 -6,5 0,-8 3,-5 6,-5zm-13 -17c2,-2 4,-5 10,-2 -3,11 -17,6 -10,2zm22 -1l19 2c1,1 2,1 2,4l-19 -3c-5,5 -18,-8 -2,-3zm-105 16c-1,0 -3,0 -3,-4 4,-5 9,-5 12,2 4,2 8,0 12,-2 6,3 13,-2 16,2l9 1 18 2c-4,10 -13,5 -18,1 -1,7 -6,1 -8,2l-6 0 -14 -2c-3,-2 -4,5 -7,2 -2,-3 -6,-4 -10,-4l-1 0zm19 15c3,7 -5,23 -6,12l0 -3c3,2 4,-3 6,-9zm40 -33l3 0c4,-2 8,-4 12,-2 1,2 2,4 3,4l1 0c-6,10 -12,-2 -18,4 -1,0 -2,-1 -1,-6zm-77 28c2,4 -5,5 -6,6 -1,-12 4,-4 6,-6zm20 19c-4,-3 -12,2 -14,-5 4,2 12,-3 14,5zm177 -49c2,-9 2,-11 1,-16 1,0 2,1 3,-2l3 0c1,-1 1,1 1,3 -16,11 18,13 3,13 -2,0 -2,0 -7,-1 -2,0 -2,4 -4,3zm-355 2c0,-7 -5,-2 -7,-4l0 -3c5,2 8,-3 12,-2 -1,3 -2,2 -4,3 0,8 7,-2 6,7 -2,7 -7,0 -10,2 0,-4 2,-3 3,-3zm26 9c-2,6 -9,9 -11,2 4,-4 6,0 11,-2zm28 4c0,3 1,2 2,3 -1,3 -1,12 -4,9 3,-12 -2,-6 -1,-16l2 0c0,2 0,4 1,4zm506 -19c-1,3 -1,9 -2,9 -1,-1 -1,-3 0,-6 -2,-2 -5,8 -5,-1 1,-7 5,-1 7,-2zm-505 35c4,0 8,0 11,4 -1,4 -3,2 -4,3 -4,1 -4,-8 -7,-1 -2,-2 -1,6 -3,6 0,-5 1,-9 0,-10l-11 -1c-7,-3 -16,2 -20,-6l20 3 14 2zm-65 -8c2,2 9,-5 7,7 -3,0 -6,0 -7,-4 -1,-1 -2,0 -2,3 -17,-1 -6,-6 2,-6zm17 -14c3,4 -8,3 -2,6 -1,5 -9,6 -7,-4 3,-2 5,-4 9,-2zm253 15c5,4 -6,2 -9,2 -5,-5 6,-3 9,-2zm-183 -7c-1,-1 -5,4 -4,-3l12 1c0,2 -1,4 -2,3l-6 -1z"/>
 </g>
</svg>
