<?xml version="1.0" encoding="UTF-8"?>
<!DOCTYPE svg PUBLIC "-//W3C//DTD SVG 1.1//EN" "http://www.w3.org/Graphics/SVG/1.1/DTD/svg11.dtd">
<!-- Creator: CorelDRAW X8 -->
<svg xmlns="http://www.w3.org/2000/svg" xml:space="preserve" width="6.66666in" height="0.354646in" version="1.1" style="shape-rendering:geometricPrecision; text-rendering:geometricPrecision; image-rendering:optimizeQuality; fill-rule:evenodd; clip-rule:evenodd"
viewBox="0 0 6667 355"
 xmlns:xlink="http://www.w3.org/1999/xlink">
 <defs>
  <style type="text/css">
   <![CDATA[
    .fil0 {fill:#00AFEF;fill-rule:nonzero}
   ]]>
  </style>
 </defs>
 <g id="Capa_x0020_1">
  <metadata id="CorelCorpID_0Corel-Layer"/>
  <path class="fil0" d="M1021 327l118 0c-1,-1 -2,-1 -4,0 -4,-7 -12,-2 -18,-3l-6 1 -16 1c-3,0 -7,1 -9,-4 -3,10 -8,0 -12,1l-11 1 -42 3zm5646 -68l0 96 -6667 0 0 -265 15 -2 3 0c8,2 19,-8 24,-3 1,5 3,2 6,3 1,0 1,4 1,7 5,3 1,-13 4,-16 17,2 28,-3 46,2 -1,5 5,20 8,7 6,0 -1,-9 -3,-7 4,-7 9,-10 16,-10l20 -3c10,11 23,-15 27,5 -3,3 -10,-4 -11,5 4,13 9,-9 13,3l1 -1c3,-24 16,-11 29,-19 2,3 4,5 7,3 11,9 22,-5 26,1 5,5 8,-13 12,-1l0 8c-4,2 -5,-7 -10,-3 1,5 -2,4 -2,8 6,0 11,5 18,2 3,-3 10,3 10,-6 -4,1 -7,0 -10,-6 17,-16 27,24 48,14 1,3 2,4 3,3 0,-5 0,-8 1,-12 4,-2 6,2 10,3 5,4 7,-17 10,-5 5,-3 8,2 11,7 -1,5 0,6 1,11l9 -1 0 -4c-1,-3 -2,-6 -2,-11 3,-2 5,0 6,7 3,0 4,-7 8,-5l0 12 4 -1c4,3 4,-6 7,-4l9 -2c0,11 3,8 5,12l5 -1 4 0 3 -1c1,14 4,10 7,7 6,-6 8,-11 13,3 0,5 -2,4 -3,8 -8,6 -16,-4 -26,3l-6 1c-4,-9 -12,2 -16,-6l-6 0c-6,4 -8,-2 -13,-2 -2,13 6,20 10,26 2,-10 5,-7 10,-5l4 0 0 -12c5,3 13,25 16,10l6 -1c4,4 3,0 8,-1 1,0 2,3 3,4 0,3 -2,4 -1,8 -3,2 -8,-4 -8,5 3,6 16,4 19,-3l-4 1c-8,-7 -2,-9 2,-16 3,2 4,15 6,23 3,7 3,0 7,-1 0,3 1,4 2,4 2,-1 4,0 4,-5 5,2 3,3 7,-1 8,-3 12,6 20,2 0,-7 -1,-9 -4,-7l0 -8 1 0 4 -1c-2,-8 -2,-8 1,-4 4,-4 8,-8 10,3 0,10 -12,7 -8,16 2,0 3,1 3,4l6 -1 4 0c-4,-8 0,-18 3,-20l1 0 1 19 1 0c2,-1 3,4 4,4 1,-9 7,-3 10,-5 1,-1 2,0 2,3 2,-2 8,4 7,-4l4 -1c4,-3 4,5 7,3 9,-11 19,-1 27,-3l2 0c3,-9 3,-11 0,-20 3,0 7,1 9,-5 1,6 3,3 5,4l2 0c-1,11 -16,5 -9,20 17,-2 20,-3 36,-8 3,6 -1,9 4,4l2 -1 1 0 1 0c2,-9 10,-2 14,-5 0,-4 1,-3 2,-4 1,-9 -4,-12 1,-12 6,4 10,-13 13,-2 -6,-5 -3,12 -9,9 1,3 2,4 2,8 15,-8 37,0 44,-13 -1,-18 -7,8 -7,-11 10,-7 23,-6 35,-8 2,8 -1,8 1,16 5,9 13,-15 14,10 2,0 2,-17 4,-4l3 -1c2,-6 7,-4 10,-5 11,-9 21,-11 33,-7l2 -1c2,3 2,9 5,8 -1,-7 0,-8 2,-8l3 -1c8,5 23,-13 32,1 1,-18 11,-1 13,-9 1,2 3,3 6,3 9,0 13,-5 20,-2 -5,22 0,-3 6,-1l3 0 3 -1 6 0 3 -1c3,2 7,1 12,3l3 0c3,2 9,-6 10,2l4 0c-1,-4 -2,-3 -3,-4 1,-6 11,-7 12,-1l8 -1c2,0 4,1 4,-4l1 0c2,12 7,-11 8,7 13,-7 17,1 31,-4 5,3 5,-6 9,-5l1 4c3,-2 3,7 6,4 6,5 21,-7 30,0l4 0c2,11 7,-2 8,-5l3 0c0,4 0,7 1,7 4,-9 9,3 12,-5 2,13 13,-2 21,2 4,-4 6,4 10,3 1,-6 4,-4 6,-5 6,-8 10,0 17,2l2 0c0,9 7,0 8,7l3 0 5 -1 1 0c4,1 3,-7 7,-5l1 0 1 0 3 0c0,5 1,11 -1,12l0 4c5,-7 8,5 4,-12 6,1 11,4 17,-2l7 -1 1 0c7,3 14,7 19,2l2 0c6,0 7,-8 11,2 1,9 8,3 9,-1 2,2 7,-5 7,4l1 -1c0,-8 6,-2 8,-4 1,-4 3,-5 5,-5 0,10 0,19 -2,24 0,3 1,3 2,4l3 -1c0,-9 2,-14 4,-20l2 0c0,-5 3,-5 4,0 6,-8 5,5 12,2 2,2 2,12 4,15 2,-1 2,-4 3,-8 -1,0 -3,0 -3,-3l4 -1 1 0c6,-5 6,-3 11,-1 4,5 10,-12 9,3l2 0 0 4c1,6 6,-1 7,7l5 -1c0,-3 -1,-4 -1,-7l16 -2 5 -1 1 0c3,-2 4,2 6,3l4 0c6,-2 8,6 11,-5l0 4c3,2 8,-6 9,3 1,-3 1,-9 4,-8l1 -1c4,0 3,5 0,4 1,5 3,3 5,4l2 -1c2,0 4,-1 4,4l2 0c1,-3 3,-5 5,-5l1 0c6,2 4,2 10,-1 2,1 2,-4 4,-4 1,7 10,3 12,-1 4,-2 6,8 9,-1 0,5 3,3 5,3l2 0 9 -1c5,-9 9,0 15,-2 0,3 1,5 3,4l1 0c0,-4 2,-4 3,-5l2 0c4,4 16,7 18,2 3,-2 3,2 5,4l3 -1c1,-2 1,-9 4,-8 1,3 3,4 5,3 0,15 -1,18 4,23 0,-5 1,-10 2,-15 1,-1 1,1 1,3 4,1 3,-13 8,-8 2,-2 0,-4 0,-8 4,4 8,6 14,6 1,1 2,7 4,8 1,-1 1,-4 2,-5 4,0 9,-3 11,3l2 0c4,5 11,20 16,10 4,-7 -4,-12 -1,-16 8,11 18,1 19,-17 4,4 -2,15 2,19l4 0 4 -1c2,10 -8,7 -4,12l4 0 1 0c-1,-8 8,-15 7,-1 3,0 3,-5 5,-4l0 -4 4 -1c2,6 7,3 11,3 1,9 7,12 8,7l2 0c-1,-4 -4,-6 -2,-8l8 -1 14 -1c0,6 -1,7 -3,8 1,6 4,9 7,9 0,-1 1,-1 2,-1 0,0 1,-1 1,-1 -2,-7 -6,-6 -3,-16 1,0 2,1 2,4l7 -1 1 0 15 -1c1,6 3,0 4,-1l4 0 2 0 1 -1c1,-3 3,-5 6,-4 -1,6 0,15 -5,12l1 3c2,0 4,2 5,2l6 0c0,0 1,-1 1,-2 -1,0 -3,0 -2,-3 -11,0 -6,-4 1,-3 0,0 -1,-1 -1,-2 3,-1 4,0 4,3l0 0 2 0 3 0c0,-3 -1,-5 -1,-8 1,1 1,2 2,3 0,-1 0,-2 1,-2l3 0c3,0 6,-1 9,-1 0,-1 1,-1 1,-1 3,0 6,-1 10,-1 -3,-6 -10,-2 -14,-4 3,-7 4,-1 8,-1l1 -5c-3,-4 4,-2 5,-2l1 0 5 0c6,0 2,4 -2,2l0 3 12 1 10 0 2 0c3,3 4,-3 7,-2l3 1 6 0 0 -7c3,-2 0,-7 4,0l4 0c4,-5 14,3 6,8 0,9 2,1 5,3l0 -2c2,-8 -2,-11 0,-13 1,3 3,3 6,3 3,5 -6,-2 -4,10 5,0 9,-1 13,-4 4,2 5,-4 9,-2l2 0c2,0 2,-1 3,-2l5 0 2 0c-2,4 -2,10 1,8 0,-10 3,-10 7,-10 1,1 0,7 2,5l2 1c-1,-10 11,-7 4,-10 -5,-2 -8,4 -13,2 0,2 -2,2 -3,2l-10 -1 0 3 -8 -1c-1,-8 -5,2 -8,-1 1,-2 2,-2 2,-4l0 -3c1,-3 1,-5 2,-7 3,1 5,-4 8,-2 0,-3 -1,-2 -3,-3 4,-8 6,-2 12,-1 2,1 6,-3 6,3l-1 0c-2,0 -6,-3 -7,4 3,2 3,10 7,8l2 0 1 0 2 0c3,-2 5,-3 9,-2 0,-3 2,-2 4,-2l1 0c3,2 4,-2 7,-2 2,11 -4,7 -7,5 1,2 1,4 1,7l-5 0c0,3 2,2 3,3 -1,3 -3,0 -3,4l2 0c2,-2 5,-2 7,-4 3,-7 11,3 14,-4 0,-5 -4,-1 -5,-3 -1,-4 -5,0 -5,-5 5,-4 11,-5 14,-6 0,0 1,0 1,2l3 0 1 1c1,-4 3,-2 4,-3 1,-5 4,0 6,-2l3 1c1,0 1,2 0,2 -1,5 3,1 4,3 7,-4 6,0 15,-2 4,1 8,-3 13,-1 10,-4 12,3 23,-1l9 1c0,-4 6,-4 5,0l1 0 1 0c-1,4 -4,5 -6,5 -1,3 -2,2 -2,0l0 -3c-3,0 -5,4 -9,2l-12 -1c-12,3 -25,2 -38,2 -1,-1 -2,2 -1,3 0,2 -1,1 -2,2 0,-6 -5,-1 -6,-3 -4,6 3,5 5,5l1 0 7 1c4,-3 10,-3 13,1l1 0 6 0c-1,-7 7,-5 8,1l1 0 1 0c4,-6 5,-2 8,1 1,-1 2,0 2,-3 -1,0 -2,0 -2,-2l9 0 5 1c1,-2 2,-3 4,-2 -1,4 -2,4 -2,7 5,2 8,-2 12,-2 -4,-4 -10,-5 -1,-5 2,3 7,0 6,8 -1,0 -3,-1 -4,2 1,0 1,1 1,3l2 0c3,-3 11,-4 14,1 1,-1 2,-1 3,-1 0,-3 0,-6 0,-9 1,-5 4,0 6,-2 1,-2 2,-2 3,-2 0,4 0,8 0,10l7 0c0,-5 -6,1 -3,-10l2 1c1,-3 7,-5 7,0 3,-2 8,-2 10,1 -3,4 -7,1 -11,1l-2 0c-1,0 -1,5 -2,5l0 3 2 0 5 0c1,0 3,0 4,0l5 1c1,0 1,0 2,0l8 -1 4 -1c1,-8 5,-7 8,-6l1 0c3,0 3,-4 6,-2 0,2 -1,1 -2,2 0,1 0,3 1,3l2 0c-3,-4 0,-4 3,-8l-10 0c-5,-1 -10,-1 -14,1l1 -2c-4,1 -6,-3 -9,-3 -1,5 -6,0 -9,1l-5 0c-3,0 -5,-1 -7,2 -2,-1 -3,-5 -5,0l-1 -1c-2,1 -2,-2 -3,-2 -3,5 -9,0 -12,1 -1,-2 -1,-2 -1,-5 1,-1 2,-2 2,-4 3,-2 1,6 5,5 3,2 4,-3 7,-2l2 0 1 0 0 3c5,-2 6,-1 11,1l0 -3 7 1 4 0 4 0 4 0c3,-1 3,5 7,3 5,3 8,-4 11,1 8,0 15,-2 24,0l8 0 4 0c0,-5 -4,-1 -6,-2l-10 -1c2,-6 7,-1 10,-2l1 0c5,1 9,1 13,-1 -1,9 -5,2 -2,9 -2,0 -5,-1 -6,4 2,0 3,0 4,0 4,-1 7,-4 10,-5 0,-2 1,-2 2,-1 1,-1 2,-1 2,0 0,1 1,1 2,1l4 0c5,-2 12,-3 17,-1 0,0 0,0 0,0 1,0 1,0 1,0 2,-3 4,-4 6,-4l-2 0c0,-7 5,2 5,-5 -3,0 -5,0 -5,-5l7 0c0,-3 2,-2 3,-2 0,4 -1,8 1,7 3,2 1,-11 4,-7l0 -2 -18 -1c0,5 -4,0 -6,2 0,-9 4,-4 6,-5l10 1 7 0c1,-2 3,-3 1,-4 -4,2 -5,-1 -8,1 -2,1 -2,-2 -2,-5l7 1 4 0 2 0c0,6 -2,6 -1,13 -1,2 -1,2 -2,4l2 0c2,0 3,-5 5,-4 0,-4 -2,-2 -3,-3 0,-4 2,-1 3,-4 0,-2 -1,-3 -1,-5l8 0 5 0 3 1 6 0c3,-3 0,8 3,5 2,0 9,2 6,-2 -8,8 -1,-23 1,-14l2 0c4,-6 6,-3 10,-2 0,2 -1,2 -1,5 -3,1 -4,4 -7,2 -3,-2 -5,2 -6,7l1 0c2,0 4,-1 4,3 -1,1 0,2 0,5 -2,-1 -3,0 -3,3 3,-1 7,-1 11,-2l3 -1c-3,0 -6,0 -9,0 0,0 0,-1 0,-3 4,1 2,-1 1,-5 2,-1 5,4 6,-2l3 1 -1 7c2,1 3,-4 5,-2 2,2 6,4 8,1 -1,-1 0,-4 0,-8l3 0 3 1c0,2 -1,2 -2,4 2,1 3,0 4,-2l1 0 0 2c1,0 2,0 2,0 0,-1 0,-1 0,-2 0,-2 1,-2 2,-4 -3,0 -5,0 -5,-6l-3 0c-1,6 -6,1 -9,2 -2,0 -3,4 -6,2l-3 0c3,-14 6,0 10,-7 3,2 3,-3 5,-2 4,0 8,0 10,3l7 1c0,2 -1,3 -2,5 1,0 2,0 2,2l-4 0c0,3 -1,2 -2,5 0,0 1,0 1,0 4,-1 8,-2 12,-2 1,0 2,0 3,0 0,-2 0,-2 0,-5 -2,-1 -5,3 -5,-2 2,-3 8,-8 9,-2 0,3 -1,4 -1,5 -1,2 1,2 1,2 1,0 1,-4 2,-7l4 0 0 3c5,1 9,-3 13,-4 2,0 2,-3 4,-2 0,5 -3,7 0,7 1,0 1,-3 2,-5 1,0 0,7 3,5 5,-2 8,0 14,-1 1,-1 2,-1 3,0l1 0c3,-2 3,-2 4,2 0,-1 0,-3 1,-3 0,0 0,1 0,1 1,-1 1,-2 1,-4 -2,-2 -7,2 -7,-3l12 1c0,2 -1,3 -2,2 0,1 0,2 0,3 1,-2 2,-3 4,1 2,0 4,0 6,0 0,-1 0,-2 0,-3l3 0 0 2c5,-2 9,-5 17,-3 2,0 4,-1 5,1 0,0 0,0 0,0l8 -1 1 0c0,0 0,0 1,-1l-3 -1 -19 -1 -4 0 -9 -1 -3 0c-8,-3 -19,1 -25,-5l-4 0c-1,5 -6,1 -8,2 -10,-3 -23,-3 -32,-8 2,-5 7,0 10,-1 6,2 10,0 18,1 2,-1 2,2 4,3 3,-6 9,0 14,-1 5,-2 10,3 13,1l7 0c0,1 1,3 2,3 5,-6 12,0 17,-1 4,-2 5,3 8,3 3,1 5,-1 8,-2 -2,8 2,4 3,2 2,-3 7,-3 8,1l8 1c1,-4 4,0 4,-5 1,-5 -3,-1 -4,-3 -1,-4 7,-5 11,-4 -2,10 -2,8 -1,17 2,-1 1,-7 4,-4 4,2 3,0 8,0l0 3c-1,0 -1,0 -1,0 0,0 1,1 2,2l2 0 7 -1c1,-1 2,0 3,1 1,-1 2,-1 3,-1 0,-7 -6,2 -6,-5 2,-6 7,-1 10,-2 0,3 -2,2 -3,2 0,6 4,2 6,3l0 2c4,-1 7,-1 9,1l6 -1c6,-1 8,7 13,5 0,-2 -1,-2 -2,-4 6,-1 10,0 15,0 6,-4 15,-7 21,-5 2,0 3,4 6,2 -2,2 -3,3 -3,4l1 0c3,-2 6,-1 9,0 0,-1 1,-2 3,0 0,0 0,0 0,0 1,0 2,0 3,0l7 -2c2,10 -2,0 -5,4 1,3 3,1 4,6l1 0c4,-4 6,-1 9,1l3 0c0,-1 0,-2 1,-3 -2,0 -3,0 -5,0 0,-2 1,-2 2,-2 -2,0 -3,-1 -4,-1 -1,2 -3,-1 -4,0 1,-5 -2,-4 -2,-7 3,2 4,-4 6,-2 0,2 -1,2 -1,4 0,1 0,2 0,2 1,0 1,0 2,0 2,1 4,1 5,1 0,-3 -1,-3 1,-7 2,6 2,3 6,3 6,1 9,-4 15,-1 0,0 1,0 0,2 -5,0 -9,3 -15,1 -1,0 -2,0 -3,2 1,0 3,-1 4,-1 3,-1 5,4 10,1 5,4 3,-1 6,-4 0,6 6,5 11,4 2,0 4,-2 5,1 1,0 2,0 3,0 1,0 1,0 2,0 1,0 2,0 2,0 0,-1 0,-6 1,-7 2,1 3,4 7,3 -1,3 -2,3 -1,4 10,0 18,1 29,3 3,-2 5,-4 8,-1 1,-4 -4,-7 -5,-3 -3,-2 -3,4 -5,2 -1,-4 -5,-3 -8,-3l-4 -1c0,-7 6,3 7,-4l2 0c0,-1 1,-2 3,-2 2,4 6,2 9,-2l2 0 7 1c2,3 -3,2 -4,2 0,2 2,3 1,7 -2,0 -4,1 -4,5 0,0 0,0 0,0 0,0 0,0 0,0 0,1 0,2 0,2 0,3 1,3 2,3 1,0 1,0 1,1 1,0 1,0 2,1 2,-1 3,-2 5,-1l1 0c1,1 2,-2 3,-2 0,-1 0,-1 -1,-1 -4,1 -9,-1 -7,-6 0,1 0,1 1,1 1,-2 2,-1 3,-5l4 1 1 0c1,-8 -3,-4 -5,-5 0,-4 7,-5 10,-2l11 1 6 0c2,-5 8,0 11,-1l1 0 5 0 9 1 0 5 3 0c8,1 13,-7 22,-3 -1,-4 -2,-6 -5,-6 -3,2 -8,3 -11,-3 -3,-6 -4,14 -5,7 1,-10 -5,-3 -7,-5l-6 -1 -14 -1c-1,0 -3,0 -2,-3l1 0 12 1 0 -2 -9 -1c2,-9 5,0 7,-4l1 0c4,6 3,-5 7,-2 1,0 2,1 2,3 -2,-1 -3,1 -4,7 3,1 3,-5 5,-2l1 -8c2,-3 5,-1 8,-2 3,3 4,-3 6,-1l0 4 -5 0 -2 0c-2,1 -6,-5 -6,4 4,2 6,0 8,-1l5 0c0,10 6,0 8,5 0,-2 0,-7 1,-7 2,0 1,3 3,3 2,6 3,-2 7,0 -1,3 -2,5 0,5 1,-2 1,-5 2,-5 0,-1 1,-2 2,-2l0 -2c-3,-3 2,-1 1,-8l3 1 4 0c0,4 -5,7 -1,7l4 1c0,-3 -1,-2 -2,-3 1,-5 6,-3 4,5 -2,1 -6,-3 -6,2 1,1 3,0 4,3 -2,1 -6,-4 -6,4l-2 0c-1,1 -1,5 -3,5 -3,1 -3,-5 -6,-3l-3 0c1,2 2,3 1,7l-2 0c-1,1 -2,0 -2,2l-1 3c3,0 3,-4 6,-2 0,3 -1,4 -1,6 1,0 2,0 3,1 0,-1 1,-1 2,-2 -1,-5 -5,-1 -2,-7 -2,-4 4,-3 5,-3l3 1 2 0 6 0c-1,3 0,3 0,5 2,5 3,1 4,-2l2 0c3,2 2,2 5,1l0 -3c4,2 5,-3 8,-2l17 2c1,0 2,0 2,2 -5,0 -11,-1 -15,2 1,7 5,-3 8,0l10 1 2 0c5,0 6,-2 11,1l0 -3 4 1c0,2 -1,2 -1,5l1 0c3,-7 10,4 11,-7 1,0 1,1 1,3 6,1 7,-4 12,-2 4,-1 16,-7 18,4 1,0 1,0 1,3l1 0 2 0c1,-4 4,-4 7,-5l4 1c-1,5 3,1 5,3l3 0c3,1 6,0 8,-2 3,-4 -4,-2 -6,-3l0 -2 -4 -1 -2 0c-3,0 -5,0 -6,-3 -1,0 -2,1 -2,3 -4,-1 -4,-5 -4,-11 3,-3 4,7 8,-1 0,3 -1,4 -2,7 4,2 6,-9 8,-2 0,3 -2,2 -3,2 0,3 2,2 3,3l1 0 2 0 0 -2c0,-7 5,2 6,-5 0,-2 1,-2 2,-2l1 0c0,4 2,6 5,5 2,0 3,-1 3,-4l4 0 -1 7c3,2 4,-2 6,-2l3 0c1,-4 -1,-6 1,-7 3,-3 0,8 3,5 2,-6 4,-4 6,-2l3 0c2,7 2,-5 6,-2 -1,3 -2,7 -2,13l1 0c1,0 1,-2 2,-3 0,-9 4,-2 7,-4 1,-2 2,-3 5,-2 2,-2 7,5 6,-4 -2,1 -7,-4 -9,1 -1,-3 -4,-3 -6,-3 5,-9 11,2 19,-3 3,1 4,-4 7,-2 0,2 -1,2 -2,2l-1 0c1,11 -4,0 -5,7 -1,5 5,2 2,5l-4 0c-3,7 2,5 4,5 3,4 5,-11 6,-2 0,3 1,3 2,0 -2,-1 0,-3 2,-2 5,-4 9,5 13,-4l-10 -1 -6 0c-1,-1 -2,-2 -2,-5 5,2 4,1 10,1 4,-5 6,5 9,-5 1,-5 -3,-1 -4,-2 -2,-5 7,-1 9,-2 -2,4 -5,2 -3,12l1 0c2,1 6,-2 5,3 -3,1 -9,-4 -7,4l1 0c0,4 -1,5 -1,8 0,0 1,0 1,1 1,-1 1,-2 2,-1 1,-4 0,-4 0,-8l10 1c2,-9 -4,-1 -3,-7l8 0c2,1 2,-2 3,-5 -1,-6 -8,-3 -10,-3l0 -5 13 1c-1,3 -5,13 -1,13 3,2 3,-4 5,-3 0,-5 3,0 5,-2 0,-3 -4,-4 0,-4l15 1 9 0 -1 5 -3 0 -4 0c-4,0 -6,-5 -10,-4l-4 0c0,2 -1,2 -2,2 0,3 1,5 0,5l-5 0c0,4 0,6 1,7l0 5 -15 -1 0 3 2 0c7,-1 14,-1 20,0 0,-1 0,-1 -1,-1 1,-3 2,-3 3,-2 1,-4 0,-6 0,-8 0,-2 1,-3 1,-5 3,-1 3,4 5,3 1,5 0,6 -2,5 -4,8 2,0 2,5l5 0c1,-5 -5,1 -3,-7 4,0 7,0 10,3l3 0c1,-6 3,-8 7,-7l7 1 7 0 -1 12c1,0 2,0 2,-1 1,-1 1,-3 2,-3 3,0 5,-4 9,-2l3 1c5,6 10,-1 15,-2 0,-3 2,-2 3,-2 2,-1 3,-8 7,-4 1,0 0,5 1,5 0,-7 6,-5 10,-5 0,3 0,5 1,5 -1,2 -1,3 -2,5 2,0 3,0 5,1 4,0 8,-1 12,-2l-4 0 -7 -1c2,-4 5,-5 8,-4 6,5 13,0 19,4l3 0 9 1 0 2c-1,1 -1,1 -1,1l2 0c0,-1 0,-2 1,-3 1,-1 5,3 6,-2 -4,-7 7,-6 7,-4 1,1 -5,3 -5,4 -3,4 6,2 8,3 0,1 1,1 2,1 1,0 2,0 3,0 2,0 3,-2 5,1 2,0 4,0 5,0 1,-1 2,-1 3,0 2,-1 4,0 5,0 2,0 3,0 5,0l4 0c1,-1 3,-1 4,0 0,-1 1,-2 2,-4l-11 -1c-10,1 -10,-5 0,-2l11 1c0,2 5,2 2,5 0,1 1,2 1,2 1,0 2,0 3,-1 0,-1 1,-2 1,-2 0,-1 0,-1 -1,-1 3,-7 7,2 11,0 -1,2 -3,3 -4,3 0,1 1,1 1,1l7 -1c-1,0 -3,0 -3,-3 1,-4 8,-3 9,1 3,2 14,-1 13,4l-1 0c3,0 4,1 4,2 -1,1 -4,0 -5,1 0,0 0,1 1,1l6 1 3 0c-6,-3 1,-9 3,-5 2,-1 7,-3 9,-1 3,-1 6,-1 8,2 6,0 9,-3 13,-5l0 3c4,0 9,-3 11,0 3,0 6,-1 7,4 5,1 12,-5 16,0l12 -2c5,-1 9,0 12,1 11,2 1,1 -9,4 -1,-2 -2,-3 -3,-2l-1 0c-2,-1 -3,0 -3,2 5,0 10,2 16,1 0,3 -1,4 -2,4 1,0 3,0 4,-1 0,-1 2,-2 2,-1 10,-2 24,-2 35,0 2,-2 5,-2 8,-2l1 -1c1,0 1,-2 0,-2 -3,0 -8,3 -10,-1 -8,1 -17,6 -23,-1 8,-3 14,2 23,-1 3,-4 7,-4 10,1 6,-3 10,2 16,0 7,0 9,-8 14,0 5,0 11,-6 13,3 -5,1 -9,1 -12,-1 1,9 7,0 9,6 -2,-1 -3,1 -3,4 1,0 2,0 4,0 0,-2 1,-3 3,-2 0,1 1,1 1,2 2,0 4,0 5,1 1,0 1,0 2,1l-1 -8 1 0c2,1 7,-4 8,1 -2,0 -3,3 -2,6 3,0 6,1 9,1 4,-4 7,0 11,-5l1 0c2,6 5,4 8,4 8,1 11,-8 16,0 4,1 10,-5 13,0l4 0 4 -1 1 0c0,-6 6,4 7,-4 8,9 23,-3 32,3l6 -1c0,-3 0,-3 0,-5 -2,-6 -12,2 -10,-9 6,-5 14,-2 19,-3 -2,6 -12,5 -16,3 4,10 15,-1 20,4l0 2c-1,2 -6,-1 -5,4 5,5 9,-6 11,3l12 -2c0,-4 3,-2 3,-5 -3,0 -6,1 -7,-4 5,0 11,-4 14,2 -2,1 -4,0 -4,4 5,8 10,-2 16,2 2,-6 10,-2 14,-5 3,1 7,-4 9,1 13,1 27,6 39,-1 -5,13 -21,4 -30,7 1,3 2,3 2,5l4 -1c7,1 16,-6 22,-1l16 -2c2,-2 7,1 6,-4 -17,3 0,-4 8,-4 3,1 7,-4 9,1 8,-4 19,3 25,-4l-1 -2c5,-5 10,7 11,1 1,-9 -8,-1 -4,-7 1,-2 7,2 6,-4l-3 1c-8,1 -14,-2 -22,1 -5,1 -10,1 -14,-3 5,-1 10,-2 13,1 11,-3 19,-1 27,-5 2,-1 3,4 6,2 9,0 18,-4 25,3 -5,1 -8,-3 -13,0 0,2 0,5 2,5 4,0 15,-5 14,0 -12,4 -22,0 -35,3l1 2c7,7 15,-5 26,4 2,-6 8,-3 11,0l7 -1c2,0 4,-2 5,2 5,-1 8,-2 11,-2 5,0 22,-1 17,2 1,0 -21,5 -24,2l-8 1 0 2 1 3c3,8 4,-12 9,-2 3,1 8,-4 9,1l9 -1c5,-2 7,3 12,0 -1,-4 -3,-4 -4,-6 7,-2 12,-8 15,0 2,-7 -1,-14 -5,-15l0 -2c4,-4 4,7 9,4 -1,-3 -2,-3 -2,-5 13,-7 22,6 37,-1 1,2 3,5 4,7 -3,-7 5,-8 6,-4 3,0 7,-2 9,1 8,1 13,-5 17,2 -8,-3 -9,14 -15,3 2,-1 4,0 4,-3l-5 0c-5,2 -7,-3 -12,0 -2,0 -3,2 -1,3 -4,4 -3,6 1,9l3 0c2,1 5,0 6,4l-7 1 1 2c9,3 4,5 -3,8l-1 0c-1,-2 -2,-5 -3,-6 0,2 1,6 0,7 -4,2 -3,-8 -7,-4 -2,7 -7,1 -10,-1 -2,7 -12,5 -14,-2l8 -2c3,-2 9,2 8,-4 -7,2 -13,-2 -22,1 -3,-2 -13,-2 -15,3 2,1 6,-4 8,1 -7,-2 -3,9 -9,7 -3,-1 -8,5 -8,-4 -2,0 -4,2 -5,-2l-5 1c-4,4 -12,9 -16,3 -2,0 -5,1 -7,-2l-5 1c-5,1 -12,1 -15,5 -5,-5 -15,4 -20,-2 -5,2 -20,2 -15,-5 -1,-2 0,-3 0,-5 -5,-3 -13,0 -19,1 -2,1 -5,0 -5,3l1 0c3,0 3,1 2,5 2,0 5,-2 6,1 -1,3 -3,4 -6,4l-1 -5 -10 2c-5,1 -5,-2 -10,-1l-6 1c-5,4 -10,6 -1,10 2,8 6,-6 7,1l2 0 10 -2c5,-4 11,1 19,0 -3,-12 3,-23 7,-9 -4,0 -6,3 -6,8 2,1 4,-1 5,2l13 -2 6 -1c2,-2 9,-7 12,-2 15,-5 24,6 39,1 3,1 8,-4 9,1 5,-5 9,0 17,-3 3,5 3,0 6,-1 2,2 7,-5 7,4 3,0 4,-1 5,-3 7,9 12,-1 23,1 5,-3 7,3 11,1l1 2c1,6 6,0 9,1 2,0 2,-3 4,-3 6,-3 11,1 17,0 1,4 -3,2 -3,5 5,-1 8,3 13,1l4 -1c2,-1 3,1 2,4l3 0c-1,-7 8,1 7,-6 -2,0 -4,1 -5,-2l7 -1c1,3 0,5 0,8l3 -1c-2,-9 10,-7 12,-4 -1,0 -2,0 -2,2l3 0c0,2 1,3 2,5 2,-1 3,2 5,1l3 0c4,4 11,-1 16,0l3 -1c-2,-8 -9,-2 -13,-3 0,-2 1,-2 2,-3 6,0 12,0 17,3 -1,0 -4,-1 -4,3l1 0c5,-3 8,-4 9,-9 3,-1 3,8 8,3 0,3 -1,4 -2,6l0 2 10 -2 -1 -2c-4,-3 6,-3 8,-4 12,0 23,3 35,2 2,1 6,-4 6,1 3,0 6,-1 8,2 1,0 1,0 1,2l6 -1 1 2c3,-2 6,1 9,1 4,0 6,3 11,1 11,-3 19,6 30,5 2,5 7,0 10,1l8 -2c-1,-5 5,-8 7,-3 5,-3 8,0 12,0 3,6 8,8 13,5l4 0c-1,-7 -6,3 -7,-4 6,-1 10,-1 14,3l3 -1c6,-1 13,-3 17,2l5 -1c3,1 9,-4 11,1 1,0 2,0 3,2l7 -1c3,-1 6,-1 7,1l5 -1c4,4 10,-1 14,3l3 -1c3,1 6,3 9,1 2,0 5,-1 6,2 3,-2 6,1 8,1 11,0 21,-2 30,2 4,-2 6,1 9,1 6,1 12,-1 18,2 6,-1 10,3 17,0 5,-1 10,-1 14,2 8,-1 14,10 23,6 5,0 10,0 14,3 1,6 7,-2 9,3 1,1 3,-1 4,2 4,-2 6,1 9,1l2 0c3,4 8,-1 10,3l4 -1c2,0 2,3 4,2 2,1 7,-4 8,1 12,1 24,6 36,6 2,0 4,0 3,-3 -2,1 -5,2 -6,-3 4,-3 6,3 10,0 5,3 12,3 18,5 -2,9 -12,-5 -13,4 2,0 3,3 5,2 10,1 19,4 30,2 -1,-3 -4,0 -4,-4 5,-3 9,3 14,0 4,-3 11,6 12,-2 -1,-1 -5,4 -6,-2 7,0 10,0 13,6l6 -1c1,-1 3,-1 2,-3 -1,0 -8,2 -5,-2 5,-3 7,3 11,1 2,6 -6,-1 -4,5 5,5 12,0 17,0 4,1 4,-11 7,-4l0 3c-1,0 -3,0 -3,3l11 -2c1,0 1,0 2,2 2,-1 3,-5 7,-4l4 -1c0,-3 3,-2 4,-3 6,-1 10,-5 15,-7 5,-2 9,2 12,7 -3,1 -1,8 -3,11 0,1 0,1 0,2l3 0c2,0 3,-4 5,-4l0 16c-4,2 -2,-9 -6,-6 -2,15 -6,6 -12,7 0,0 -1,0 -2,0 1,2 2,3 2,4 -10,0 -15,7 -24,9 -4,-6 -9,9 -12,-5 1,12 -7,3 -8,11 1,1 3,0 3,2l-1 0c3,1 5,2 7,3 1,2 1,4 0,5 2,0 4,1 6,1l2 0c1,2 1,7 3,6 0,-5 1,-6 3,-6l2 0c5,2 13,-4 20,-3 -2,-1 -4,-3 -6,-9 -1,1 0,4 0,7 -3,-4 -6,-3 -8,-8 2,1 3,0 5,-1 -1,-1 -1,-2 -2,-3 4,-2 8,-5 14,-4 0,2 0,2 0,3 3,0 5,7 6,-3 4,3 0,13 3,13 0,0 0,0 0,0 -3,2 -7,5 -10,5 2,0 4,1 6,4 0,-7 3,-7 5,-6 0,-1 -1,-2 -1,-3l0 0c0,0 0,0 0,0 0,-2 -1,-4 -1,-7 2,-2 6,4 5,-3 -1,-3 -3,-5 -3,-13 3,4 6,2 8,-4 -1,-1 -1,-1 -1,-3 0,0 1,-1 2,-2 0,-4 0,-8 0,-13l0 -3c-1,0 -2,-1 -2,-4 1,-1 0,-2 0,-6l-1 0c-8,2 -1,-10 -4,-15l0 -4c1,-6 1,-13 3,-15l0 -4c3,-3 4,14 5,3 2,1 2,-4 3,-6 2,0 3,-1 4,-4 2,1 3,-2 3,-9l-1 0c-1,-5 -2,-8 -3,-13l8 0c0,-5 0,-10 1,-13 0,-2 0,-6 -1,-6 1,-10 5,7 5,-6 1,-9 2,12 4,12l2 0c1,-1 2,0 2,-3 0,-4 1,-4 1,-7l3 0c0,-2 1,-4 2,-3 1,9 2,-3 4,0l1 0c1,13 5,2 7,3l3 -1c0,6 -3,2 -3,7 -2,2 -6,-4 -6,3 13,8 21,20 34,18 -2,0 -2,-4 -2,-9l6 -1c2,13 -4,2 -4,10 5,6 8,1 13,9l3 0c11,-1 20,4 31,5l0 -3c0,-5 2,-3 2,-10 4,0 7,0 9,6 -3,2 -9,-3 -9,7 0,2 1,4 2,3l7 0 0 3c4,2 5,-2 4,-13l4 0c0,-2 0,-6 1,-6 0,2 1,3 2,3l0 3 3 0c0,2 0,4 -1,3 -1,10 3,6 5,6 1,5 4,5 5,10l3 0 1 0c1,-2 5,3 5,-4 0,-5 -2,-7 -4,-6l-3 0 -2 0c0,-8 -5,3 -5,-6 4,-2 11,2 15,-7l0 10c5,1 10,1 14,6l6 0c4,-2 5,2 8,3 1,0 2,-1 3,3l4 0 7 -1c0,3 1,4 2,4l2 -1 0 4 7 -1 3 0c-2,-12 3,-13 -2,-18l-3 0c-1,-8 -7,-1 -9,-3l-2 0c0,-3 -1,-4 -2,-7 7,2 11,-5 14,3l2 0c7,6 17,0 23,12 -5,1 -8,-5 -14,-2l-4 0c1,3 7,11 2,12l0 7c8,1 15,6 23,5l3 0c11,9 18,6 31,9 3,0 6,3 9,4 1,-1 3,-1 5,-1 0,0 0,0 0,0 1,0 2,1 3,1 2,0 3,0 4,-1 -1,-7 4,-2 5,-4l12 -2c0,-1 0,-2 0,-3l16 -1c2,0 3,4 4,4 -1,9 -4,-5 -5,2 0,5 1,5 0,11 1,1 2,3 4,2 1,-13 7,7 11,-3 1,8 3,11 7,9l1 0c2,-1 7,6 6,-6 3,0 2,11 6,6l3 0c4,-3 9,-4 14,-3 0,4 2,4 3,3l1 0c2,0 3,-1 3,-3 1,0 2,3 2,3l3 0c4,0 8,2 10,-3l1 0c2,-2 1,2 2,5 1,-2 1,-3 3,-3 0,0 0,-1 0,-2 2,0 3,5 6,3l0 3c6,0 11,0 16,3l1 0c2,-8 8,0 11,0l1 0c4,1 8,2 10,7 3,-2 5,-5 8,-3 2,1 3,3 5,3 1,0 1,0 2,1 0,0 1,0 2,1 0,-5 4,-1 6,-3 1,-3 2,-4 4,-4 1,3 1,5 1,8 1,0 2,0 4,0l1 0c0,-1 0,-2 1,-3l1 0c0,-4 3,-5 3,-1 5,-6 5,4 11,1 2,2 2,10 4,12 1,-1 2,-3 2,-6 -1,-1 -2,0 -3,-3l4 -1 1 0c4,-4 5,-3 9,-2 4,4 8,-10 8,2l1 0 1 3c1,5 5,-1 6,5l5 -1c-1,-2 -2,-3 -2,-6l14 -2 2 -1c-1,-1 -1,-2 -2,-3 4,0 9,-1 11,3l2 0c0,1 0,1 0,1l1 0c5,-2 7,5 8,-5l1 4c2,1 7,-6 8,1 1,-2 0,-7 3,-7l1 0c3,-1 2,3 0,3 1,4 3,2 4,3l2 -1c2,0 3,-1 4,3l1 0c1,-3 2,-4 4,-4l1 -1c5,1 4,1 8,-1 -2,1 -5,0 -8,-2l-3 0c-1,-7 -6,-1 -8,-3l-4 0c-4,1 -7,-1 -9,-3l0 -4c-1,-12 4,-3 7,-6l0 3c2,2 7,-5 6,7 1,0 2,-3 3,-7 3,4 7,4 11,4 0,3 -1,3 -1,6l10 0c0,-4 2,-3 3,-3l2 0 8 0c0,2 0,3 1,3 0,0 0,0 0,1 0,0 0,0 0,0 0,0 1,0 1,0 0,0 1,-1 2,-1 0,0 0,-1 1,-2 0,1 1,2 1,2 1,-2 2,-3 4,-3 3,0 4,1 6,2l3 -1c3,-7 7,0 12,-2 1,2 2,3 3,3l1 -1c0,-3 1,-2 2,-3l2 -1c2,2 6,3 9,3 0,-1 0,-4 0,-6 2,-1 2,4 3,6 2,0 3,-1 3,-2 3,-2 4,1 5,2l3 0c0,-3 0,-8 2,-7 2,2 3,3 5,2 0,3 0,5 0,6 1,1 2,0 3,0 0,2 1,2 2,3 0,-1 0,-2 0,-4 1,0 2,1 2,3 3,0 1,-11 6,-7 2,-2 0,-3 -1,-7 4,3 8,5 12,5 2,0 3,5 4,5 1,-1 1,-3 2,-3 4,-1 8,-4 10,1l1 0c2,2 5,5 7,8l1 0 2 0c0,0 0,1 0,1 1,1 3,1 4,-2 3,-7 -4,-10 -1,-13 1,1 2,1 2,2l0 -7 4 0c0,4 0,6 -1,8 6,0 10,-7 10,-18 4,3 0,12 3,15l3 -1 4 0c2,8 -7,6 -3,10l3 -1 2 0c-1,-3 0,-5 1,-6 0,-2 0,-3 -1,-4l5 0c4,0 8,0 11,4 2,0 4,-1 6,-2 1,7 6,10 7,5l2 0c-1,-3 -4,-4 -2,-6l7 -1 11 -2c1,5 0,6 -2,6 1,3 2,5 3,6 0,-1 0,-2 1,-3 1,0 3,1 4,3l0 0c0,0 1,0 1,-1 -2,-5 -6,-4 -3,-12 1,-1 2,0 2,3l6 -1 1 0 12 -3c2,6 3,0 4,0l3 -1 1 0 2 -1c1,-2 2,-4 5,-4 -1,5 0,13 -4,10l1 4c2,5 7,-1 9,4 1,-5 1,-8 -1,-12 5,-3 2,3 4,8l2 0 3 0c0,-7 -2,-9 -2,-13 2,3 3,8 7,5 0,4 1,6 2,6l2 0 0 -6c2,-3 1,-10 4,-4l3 -1c3,-1 7,-3 8,2 1,5 1,9 0,12l-2 1 0 3c2,5 6,-4 5,-11 2,-1 3,3 4,3 0,-17 -3,1 -3,-12l5 -1c4,-7 5,3 10,1 4,-3 5,3 9,1 1,1 2,-1 2,-3l2 -1 1 0c3,0 6,-9 8,-1 0,3 0,6 1,6 2,-6 2,2 6,-1 1,-4 4,-4 7,-1l1 -1c0,-9 4,3 7,-1l4 -1c2,9 4,-2 6,-1l1 0c1,4 1,-1 2,0l1 -1c3,-1 3,6 6,2l3 0c0,-1 1,1 1,3 2,0 3,0 3,-4 2,-6 2,0 5,-1l1 0 1 0c2,2 3,3 6,2l1 0c3,-2 4,-1 6,2 -1,5 -8,1 -5,10 2,0 1,-6 2,-7 3,4 6,7 9,8l-1 -9c0,-4 3,-3 4,-4l2 -1c6,1 8,-5 12,-2l2 0 6 -1c-1,-8 4,-2 4,-1l5 -1c0,2 0,4 1,3 1,-1 4,-9 5,-1 2,-3 0,-15 3,-17 3,12 -1,6 1,20l1 -1 0 3 0 4c3,-3 8,2 8,-5l2 -1c1,0 1,-3 2,-3 2,0 4,-2 5,2 2,0 2,-14 4,-1l1 0c-1,-3 1,-3 3,-4 1,1 1,3 2,3 1,4 3,2 5,2l1 0 3 0 13 -3c2,-1 2,0 3,3l2 -1c3,-3 4,5 7,2l1 0c0,-10 6,7 6,-4l2 -1 1 7c4,-1 9,-10 13,-3l4 -1c0,3 0,3 1,3 1,-1 1,1 2,3 1,1 1,-3 3,-4 2,1 -1,6 1,6 0,-4 3,-3 5,-4 0,5 -5,7 0,7 1,-2 2,-4 3,-4 0,-4 0,-6 1,-7 6,-3 9,4 15,1l2 -1 1 0 1 3c4,-1 7,4 13,1l2 -1c3,-7 9,4 15,1 3,1 2,-7 4,-8 2,4 3,12 8,9 2,5 1,-3 5,-2 1,6 1,10 0,13 1,0 2,4 2,6 4,-6 6,-1 12,1 -1,-3 -1,-5 0,-6 0,-3 -1,-3 -2,-3 1,-13 4,9 5,-1l0 -6c2,4 6,3 7,-2l3 0c1,0 1,6 3,5 1,1 1,3 0,4 3,9 5,0 8,4 3,-2 4,3 7,2l8 -1c3,-6 -5,-2 -7,-2 0,-7 6,-3 8,-5l3 0c2,9 3,-4 1,-10 2,0 2,5 4,5 0,10 0,6 2,16 1,0 1,-3 3,-4 2,-1 2,4 5,2 0,3 -1,3 -1,4 1,4 4,4 6,5 0,-3 -2,-2 -3,-3 0,-2 1,-3 1,-3 0,-4 2,-3 3,-4 0,-4 -2,-4 -3,-9 5,-5 11,2 17,6 1,6 2,0 3,0 3,-1 6,-2 8,1l0 4c4,2 3,-2 6,2 0,-4 0,-4 0,-7 3,5 2,0 5,-1 0,4 2,4 2,9 1,-5 3,-7 5,-10 1,3 2,4 4,5l1 0c2,4 5,2 6,12 0,-3 5,-9 5,2 0,-1 0,-3 2,-4l1 0c-1,-5 -2,-6 -3,-12 4,2 4,14 8,15 5,-1 7,6 10,1 -2,0 -2,-11 -3,-12 3,-3 11,1 10,7l0 3c3,0 4,5 7,2 2,1 2,-3 3,-4 0,-5 -3,-7 -1,-9l1 0c3,2 1,5 1,9 2,1 2,10 5,5 2,-6 0,-4 -1,-12 5,-4 7,3 11,1l1 0c2,-1 3,4 3,-1 4,5 8,-11 13,1 1,-1 0,-7 2,-7 2,1 -1,6 2,6 1,7 8,-3 5,8l0 4c4,-4 5,3 9,1 3,-1 -5,-11 -2,-12 4,1 11,-7 13,0l-6 1c1,6 5,1 6,6l2 -1c1,1 1,3 0,3 1,5 3,2 5,3 1,-1 1,-6 0,-10l3 -1c5,2 8,14 11,1 4,0 2,-12 6,-10 4,7 -1,2 0,12l3 0c6,-1 5,2 11,1 1,-1 1,-4 1,-7 2,1 3,6 6,5 2,4 3,12 2,16 -4,3 -7,-21 -9,-8 1,4 2,5 3,9 1,-1 1,1 1,3 3,-1 7,0 8,-5 -2,-6 0,-4 -1,-12 3,-1 7,-3 9,1 0,9 -4,-1 -5,1 0,4 2,5 3,9 2,0 3,2 4,6 0,-3 3,-3 3,-7l4 8c2,-11 9,-6 14,-6 2,-5 2,0 5,-1 -3,-13 -8,5 -12,-10l2 0c4,0 4,3 8,-2 7,-3 6,4 13,4l0 3c2,-1 4,2 4,9 2,0 2,-4 3,-4l4 -1c-1,-2 -2,-3 -2,-6 1,2 2,3 4,3 -2,-7 -2,-7 1,-4 1,-7 5,2 9,-2 1,3 1,5 2,9 2,-2 6,-7 9,-1 0,3 -2,3 -3,3 1,5 3,2 5,3 2,3 4,3 5,-2l5 -1c-1,-4 -4,0 -4,-5 -1,-7 4,-2 5,-4l5 -1c-1,3 -1,6 0,6 1,5 2,5 3,9l5 -1c-3,-8 2,-11 6,-11 2,9 -2,6 -4,7 1,3 2,2 3,3 1,5 4,7 7,5 0,-3 -1,-3 -2,-6 3,1 5,8 7,2 1,-10 -6,-13 2,-10l0 3c-1,2 1,3 1,6 2,8 6,5 8,11l2 0c1,-10 0,-9 -2,-16l10 -2 1 0c1,10 6,6 8,11 2,1 2,8 3,12 3,7 4,-2 7,-1 0,-7 5,-3 7,-5 0,-6 -3,-15 1,-13 2,0 0,17 5,15 0,-5 1,0 2,0 2,-4 11,2 16,3 3,-4 5,3 8,1 0,-7 -2,-5 -4,-5 0,-6 3,-3 0,-10l3 -1c0,3 0,6 1,7 2,13 4,6 5,2 -1,3 1,11 -2,10 -4,2 -8,1 -11,-1 -2,1 -6,-2 -4,7 2,0 4,-2 5,2 -3,1 -7,4 -9,-1l-8 2c-2,-4 -2,-1 -4,0 -1,1 -1,-1 -1,-2 -3,4 -4,-5 -5,-6 -3,10 -14,6 -21,4 -2,-8 6,2 4,-7l0 -3c-6,0 -5,17 -11,9 -2,-2 -6,5 -6,-2 6,-2 0,-9 -3,-3 -1,1 -2,2 -1,7 -4,1 -6,-5 -10,-1 -4,-2 -9,-3 -14,-1 -1,-5 1,-8 -1,-9 -1,1 -4,0 -4,4 1,0 3,-1 4,2 -3,5 -3,1 -7,2l-7 1c-1,-4 -3,-2 -5,-2 0,0 -1,1 -1,3l-1 1c0,-2 0,-4 -1,-3l-7 1c-1,-5 -8,-3 -8,2 2,2 5,4 8,5l2 -1c-1,6 -11,10 -11,-4 -1,-7 -4,-6 -6,-5l-6 1 -1 0c-2,-6 -4,4 -7,-1 -3,-6 -2,2 -6,1l0 -3 -3 0c-1,0 -1,-3 0,-6 -4,5 -7,-13 -9,-2 1,8 4,3 5,9 -7,3 -11,-6 -16,-10 -3,15 -19,8 -22,8l-1 0c-3,4 -5,-4 -8,-1 -4,-1 -4,6 -6,11 4,-6 3,-6 9,-5 3,-3 4,2 7,1l5 -1 0 7c-3,1 -11,3 -13,-4 -2,2 -8,9 -10,2 1,-1 1,-4 1,-7l0 -3c-2,0 -4,2 -5,-2 -1,-1 -2,0 -2,-3 -4,-2 -3,5 -6,4l0 -3 -2 1 -7 1 0 -3 -8 2c-2,-4 -4,-3 -5,1 -2,-4 -5,-3 -8,-2 -4,3 -6,-1 -8,-2 -4,2 -7,2 -9,-4 0,2 -1,4 -2,3 -3,1 -8,5 -9,-4 2,-1 5,0 5,-4l-8 1c0,3 0,6 -1,7 -1,-5 -1,1 -3,0l-1 -3c-2,-1 -6,5 -7,-1 -3,-8 -7,-4 -10,-2 -12,1 -17,2 -28,3l0 -3c-6,-1 -13,1 -18,-3 -1,0 -1,3 -2,3 -1,-1 -3,-2 -4,-5 -1,0 -3,-1 -4,-3 -8,7 -11,1 -21,5l-1 0 -3 0c-3,3 -4,-2 -7,-2 -4,3 0,-8 -4,-8 -3,16 -11,7 -17,3l-4 1c4,8 -1,3 -1,10l-1 0c-1,1 -2,0 -3,-3 2,-1 4,0 3,-4 -3,4 -3,-3 -6,-2l-5 1 -1 -3c-3,-2 -2,5 -5,5l-2 0c-2,-6 -6,-1 -7,-8l-2 0c-1,-4 -1,-7 -3,-6 0,4 2,4 2,10 -5,5 -4,-11 -8,-9 1,5 2,11 -1,10 -2,-2 -3,-3 -6,-2 -4,-6 -5,5 -6,-5 -2,4 -3,4 -5,1l-3 1 -3 0 -2 1c-2,1 -4,0 -6,-2 0,2 0,3 -2,3 -6,-7 -8,-2 -15,-3 -3,1 -5,0 -6,-2 -4,1 -7,8 -10,-2l-1 1c0,9 -4,-3 -7,1l-1 0c-1,-13 -4,3 -7,1l0 -3c-1,0 -5,-7 -4,1 2,1 4,5 5,12 1,-1 1,-4 2,-4 3,9 6,-6 7,2 8,1 10,0 17,0l0 3c-4,10 -10,2 -16,0 -6,1 -6,4 -10,2l-3 1c1,4 -1,3 -1,6l1 0c3,2 9,9 11,1 3,-1 5,0 6,2 3,-9 2,5 5,2 0,-2 -1,-3 -2,-6 3,-1 4,4 6,9 2,-1 0,-8 3,-7 6,-3 5,0 6,8l4 0c0,-3 1,-4 0,-7 5,7 8,-1 12,4l1 0 2 0 4 -1c1,3 2,3 4,2 1,-1 1,-3 0,-6 4,4 8,7 13,7 4,-3 8,-1 14,0 3,-3 4,2 6,6 4,-1 7,-3 8,-9l2 0c1,3 2,9 3,11 1,0 2,0 3,0 0,0 0,-1 0,-2 1,-10 7,3 10,1 3,9 5,-5 9,-2 2,1 6,-6 6,5 4,-1 5,-6 10,-5 1,2 4,1 8,2 4,-3 6,1 8,1 4,-7 12,9 16,-3 -1,10 6,8 8,5l1 0c3,1 7,-6 8,1l1 0c5,4 7,0 12,4 5,2 5,-4 7,-8 1,-1 -1,-3 -1,-9l1 0c2,-2 16,-2 16,6 -4,8 -6,-5 -11,2 -1,1 -2,0 -2,-2 -1,-1 -1,1 -1,3 0,3 -1,3 -1,7 2,-8 5,-1 8,1 4,6 2,4 6,-1 1,4 2,3 4,2 1,3 1,4 3,3 -1,-3 -2,-4 -1,-6 2,2 3,3 6,2 3,-5 3,4 5,5 3,1 2,-6 6,-4l2 -1c1,5 3,3 5,3 4,4 10,2 14,0 0,2 1,3 2,3 0,-5 7,-8 6,2l5 -1c1,-7 4,2 6,-5 2,1 1,3 1,7l2 -1c0,-4 3,-3 5,-4 1,2 3,4 6,2l3 -1c3,7 7,-1 10,-2 1,5 3,3 5,3 1,3 2,3 4,2 8,-9 7,4 15,-3 -1,7 5,11 4,6 -1,-11 4,-3 6,-2l3 0c0,-10 -1,-9 -1,-16 3,-1 4,4 7,2 0,3 -2,3 -1,9 0,3 -1,4 0,7 6,-3 10,-7 14,-6 9,6 27,9 34,2l0 4c2,0 2,-5 5,-4 0,-9 -3,-6 -4,-13 2,3 4,4 6,2 -1,4 1,12 -2,11 3,6 10,-2 13,6 11,-5 23,-4 39,2 -2,2 -7,-2 -6,4l8 -1c-4,-12 4,-1 4,-8 2,1 3,4 5,3 10,-1 22,0 35,2 -2,-10 6,-9 7,-5 -2,0 -4,1 -3,4 3,2 6,9 9,1 0,5 -3,4 -1,10 4,-2 6,-6 10,-2 0,-3 -1,-3 -2,-6 3,1 9,-6 11,1 2,0 2,-4 4,-4 7,1 11,3 15,0 2,3 0,9 5,5 2,-8 10,-1 11,-2 -1,4 -8,8 -2,10 0,-7 7,-4 7,5 1,-1 1,-6 2,-7 0,-4 -1,-4 -2,-9l3 0 1 -1c4,-3 5,5 9,2 1,1 6,6 6,-2 1,2 2,7 4,6 4,-4 7,1 10,-9 0,3 -1,4 -1,7l3 -1c2,2 3,3 4,3 5,3 -4,12 -1,13l4 -1 -1 -3c0,-6 3,-5 1,-13 5,12 7,-4 10,1l1 0c4,6 9,-1 12,-3l1 3 0 3 5 -1 4 -1c5,0 12,10 12,-2 1,3 4,0 4,9 12,-6 11,-1 19,-1 1,5 -1,6 -2,7 6,11 3,-5 6,-8 0,-9 -5,3 -5,-5 -2,0 -4,-2 -5,-6 -2,2 -3,-2 -3,-5 -7,2 -8,3 -14,-1 0,-10 9,6 4,-7 4,5 5,-4 8,5 1,-3 1,-8 3,-7 1,3 4,0 4,8 4,-13 14,-6 19,3 -1,-8 0,-12 3,-11 0,4 -1,3 -2,4 5,0 14,8 16,3 0,-4 -2,-2 -3,-3 -1,-3 1,-2 2,-3 -4,-7 -10,2 -14,-4 1,-4 2,-6 4,-7l1 0c3,10 9,-2 14,7l2 -1c1,6 0,7 0,13 1,-1 2,1 2,3 3,-3 4,2 7,1 0,-5 -2,-12 0,-12 3,-8 10,3 17,5 3,2 1,-6 3,-7 2,13 5,-3 8,5 3,-2 10,1 8,5 -1,1 11,-2 5,5 7,-4 18,3 32,6 10,-5 12,1 16,9l-1 -9c-3,-3 1,-9 -2,-13 -2,0 -2,5 -5,5l-1 0c-11,-7 -24,-2 -37,-8 0,0 -2,-8 -3,-9 -3,-2 -13,6 -7,-5l-2 1c-3,3 -6,-6 -8,1 -7,-5 -25,-3 -22,-11 -4,3 -7,-2 -10,-1 -3,-6 -7,-11 -9,-21 2,0 3,4 5,3l3 -1c1,8 -6,-1 -4,7 2,1 7,6 6,-4l5 -1c3,11 -4,2 -3,10 3,1 5,7 8,5 -1,-10 -4,-15 0,-10 2,0 2,-4 4,-4 2,8 -4,4 -3,10 3,-3 8,9 8,2 5,-8 7,-7 12,3 4,5 8,5 12,4 3,-1 5,0 6,2 3,-4 11,0 15,7 7,-1 7,-2 13,3 2,0 4,-2 5,2 3,-3 5,2 7,2 3,4 8,-2 10,4l5 -1c6,3 12,7 19,9 3,6 0,3 0,9l1 6 1 0c0,5 2,5 2,9 1,11 -6,-4 -4,4 -4,-9 -2,0 -6,2 0,-11 -4,-4 -2,-13l-4 1 1 3c0,8 3,3 4,9l-3 1c-3,-2 -7,5 -9,-2l-2 1c-2,0 -4,-1 -4,4 3,-3 4,2 7,2 0,3 -2,3 -3,3 1,3 3,3 3,9 3,3 3,-10 5,-1l3 0c1,3 2,2 3,5 1,0 2,2 3,4l3 0c2,4 4,4 6,8 4,3 6,-7 9,0 3,-3 3,5 6,2 3,-1 5,7 7,-1 4,-3 5,8 9,6 0,-7 4,-2 5,-4 4,7 13,-3 16,8 -2,2 -7,-3 -7,4 1,0 3,1 3,6 0,5 2,3 4,3l2 -1c1,1 2,5 4,3 0,-9 -2,-9 -2,-19 2,0 3,4 5,4zm-5456 68l3 0c0,-1 -1,-2 -2,-1 -1,0 -1,1 -1,1zm447 -224c0,1 1,2 1,3 2,-1 3,6 4,-2l-5 -1zm40 -4c2,-3 3,-2 5,0 3,0 8,3 10,-1 0,-8 -3,3 -5,-1 -5,2 -6,-4 -10,-3 -1,1 -2,2 -3,2 0,4 1,3 3,3zm32 -3c1,-1 2,-1 3,-1 0,-1 -1,-1 -1,-1l-8 -1 -1 5 1 0c1,-3 4,-2 6,-2zm10 11c0,0 1,0 2,0 -1,0 -2,0 -2,0zm9 -2l1 0c0,-9 4,-7 7,-7 -1,-6 -6,-1 -8,0 0,1 0,4 0,7zm-1260 28c-3,2 -5,0 -7,-3 0,-5 0,-7 2,-8l6 -1 3 0c4,3 6,11 11,2l0 8 -8 1c-2,-5 -5,-4 -7,1zm742 75c0,4 2,3 3,4 4,-6 7,10 8,-1l4 0c0,12 -10,10 -12,5l-3 0 -10 1c-3,-8 -10,0 -14,-2 5,-13 14,-2 24,-7zm429 -140c0,-12 9,-18 8,0 0,7 -5,-4 -8,0zm-544 8c0,2 0,5 -1,4l-8 1c-3,1 -3,-4 -2,-4 3,-10 7,0 11,-1zm212 -27c3,2 10,16 4,23l-4 -23zm-605 38l8 -1c3,12 -9,13 -8,1zm49 -5c4,-3 9,-7 16,-6 0,9 -7,-1 -4,12 -6,-3 -7,2 -12,-6zm-161 15c-7,3 -17,11 -21,-7 -1,0 -1,5 -1,8 -2,-5 -6,-4 -8,-11 6,5 11,-12 16,-1 5,-10 9,11 12,-6 3,4 -1,17 2,17zm32 -21c5,2 14,-6 17,2 -5,3 -13,10 -17,-2zm374 -21c-4,5 -1,-12 -6,-7 -4,-4 -5,19 -9,5 1,0 2,-3 0,-4 -1,5 -5,5 -8,5 -4,1 -7,-4 -10,-7 0,6 1,13 -2,12 -1,-1 -2,-3 -1,-8 -2,-3 -4,-5 -7,-3 0,12 -7,7 -11,9 -7,-8 -14,-6 -20,-6l-2 1c-1,12 -9,-8 -7,8 -6,1 -11,0 -13,-10 -1,0 -3,1 -2,8 -3,-2 -6,-5 -11,-3 -2,-6 -2,-9 2,-8 6,5 3,-11 7,-8 2,0 1,9 4,7 1,-19 17,-9 24,-7 11,-4 12,-1 20,6 3,-7 9,3 15,-2 0,-8 5,-2 7,-4l13 -2c1,3 1,8 2,8 3,-2 5,-7 9,-5 4,3 3,-6 7,-4 -1,12 0,10 -1,19zm-613 29c-5,-1 1,-7 8,-5 6,2 -7,6 -8,5zm1610 -4c0,1 0,2 0,3l1 0 4 0 7 1c0,0 0,0 0,0 0,-3 -1,-2 -2,-3l-10 -1zm-8 6c-1,-1 -2,-2 -3,0l3 0c0,0 0,0 0,0zm-542 -16c0,-5 -1,-8 -2,-12 1,-2 6,-9 7,0 -6,9 8,6 3,11l-8 1zm57 -10c5,-7 10,2 14,-9 -2,12 -1,10 2,19 -8,-2 -10,0 -16,-10zm-138 -5c6,-1 11,-1 15,6 -7,17 -7,5 -15,-6zm61 17c0,-13 -8,-1 -9,-15 6,10 9,-13 15,-1l0 4c-5,-4 -4,8 -6,12zm-26 -9l-1 0c-2,0 -2,-4 -3,-7 2,1 6,-12 8,-1 0,6 0,11 -1,12 -1,-5 -3,-10 -3,-4zm-221 -4c-4,2 -6,-6 -8,-10 14,6 25,-6 39,11 -11,-4 -16,3 -31,-1zm111 4l0 4c-2,4 -11,6 -12,-6l1 -1c4,1 8,0 9,-8 4,1 17,6 11,10l-9 1zm-749 62c0,-5 2,-4 4,-4l0 -4c4,0 10,-4 12,2l0 4c-7,-2 -9,-2 -16,2zm-36 -4l2 0c0,16 -12,9 -12,-3l1 0c4,-1 5,14 9,3zm662 -64c-9,0 -16,7 -25,-1 -12,2 -16,8 -26,2l-8 1c-1,-3 -2,-7 0,-8 3,1 2,-5 4,-8 0,6 3,4 4,7 13,5 15,-8 25,2 4,-16 14,7 19,-10 1,6 4,8 7,7 0,7 4,2 4,11 -1,1 -3,-1 -4,-3zm-749 66c1,11 7,3 9,11 -2,8 -3,-2 -7,1 -4,-5 -11,-7 -15,-2l-5 0c-3,1 -3,-4 0,-4 2,-8 14,-14 18,-6zm639 -62c-3,-12 -14,7 -15,-10 3,1 3,-8 1,-8 3,-12 2,13 3,11 4,4 2,-9 2,-16 7,8 8,5 15,2 0,6 1,9 2,12l0 4c-1,6 -7,-13 -8,5zm-50 -14c2,-8 6,-3 9,-1 0,3 1,4 2,7 -5,1 -10,2 -11,-6zm-502 55c1,8 7,0 10,2 -2,-13 -7,-5 -10,-2zm25 5c-3,2 -3,-8 -5,-8 -4,8 -20,28 -23,-1 4,1 5,-1 3,-8 11,3 21,-5 32,4 1,8 -1,8 -2,12 -2,4 -5,-11 -5,1zm18 -14c2,5 1,6 0,12l-1 0c-2,-5 -4,-11 -7,-11 -2,-15 7,-6 10,-9 1,6 0,7 -2,8zm50 -2l2 0c7,2 4,-5 5,-8 6,-6 11,-7 13,10 -12,-2 -14,17 -20,-2zm-133 11c1,3 1,6 2,12 -4,2 -4,-7 -7,-3 -7,-24 -17,14 -19,-6l-1 -4c-1,0 -1,-4 -1,-7 5,-2 10,-2 13,2 4,-4 15,-12 18,2 0,5 -3,3 -5,4zm191 -25c-3,0 -1,3 -1,8 -5,3 -8,-3 -10,-15 8,-2 14,8 19,-2 2,14 -5,6 -8,9zm20 6c-5,2 -6,-7 -9,-11 1,-8 11,-11 14,2 -4,-1 -6,-6 -5,9zm-274 27l-1 -4 0 -4c0,-6 0,-11 1,-12 3,-3 4,7 2,8 9,-5 22,-6 31,-4 1,0 2,7 0,8 -13,4 -18,8 -33,8zm306 -35l-2 0c-3,10 -11,-6 -16,6 0,-7 -1,-10 -3,-12 1,9 0,13 -3,13l-1 -16 19 -2c0,-9 7,-2 10,-5 0,8 -6,2 -4,16zm13 -1c-2,-1 -4,1 -4,-4 1,-3 2,-8 2,-16 3,-3 3,8 6,7l0 8 -4 1 0 4zm75 -13c-3,1 -7,2 -7,-7 1,-3 7,-9 8,0 -1,1 -1,3 -1,7zm41 -8c-5,1 -16,-10 -18,6 -3,-3 -10,8 -10,-7 7,3 11,-28 16,-5 4,-2 14,-14 16,2 3,2 8,-6 8,3 -3,4 -8,7 -12,1zm-59 3c-1,18 -7,7 -13,9 -2,0 -5,1 -4,-8 -3,2 -7,-3 -5,9 -3,1 -3,-4 -6,-3 -3,10 -8,-4 -12,-7 5,-5 16,7 16,-9 5,15 12,-8 19,1l6 0c3,0 3,-5 5,-5l1 20c-4,3 -3,-11 -7,-7zm312 -3c-1,1 -3,2 -2,8 -5,-2 -9,-4 -12,-10 -1,-3 0,-4 1,-4 5,-2 7,6 13,2 2,9 9,-4 9,11 -4,0 -8,3 -9,-7zm-207 -1c-7,9 -23,7 -32,-4 8,1 11,-16 14,-2 4,-14 15,-10 19,2 -1,0 -1,1 -1,4zm-625 16c3,3 12,-7 15,6 -5,-2 -13,8 -15,-6zm1353 75c-1,1 -2,2 -2,3 3,2 6,4 10,3 0,0 1,1 1,1 2,0 4,0 6,2 1,0 2,0 2,0l1 -5c-6,-1 -12,-2 -18,-4zm-2 3l0 -3c-2,-1 -4,-1 -6,0 0,1 1,2 1,2 2,0 3,1 5,1zm-18 -4c-1,0 -1,-1 -1,-1 -1,0 -2,0 -2,0 1,0 2,1 3,1zm-6 -2c0,-1 -1,-2 -1,-3 0,1 -1,2 -2,2 1,0 2,0 3,1zm-5 1c-2,1 -5,2 -8,2l0 -8c-1,0 -2,-1 -1,-4 0,-5 1,-8 -2,-8l-3 1c0,10 3,7 3,15 -6,8 -15,1 -22,-1 0,4 2,5 0,7 -5,-15 -19,-2 -29,-4 -2,-12 -5,3 -9,1 -3,1 -3,-7 -7,-4l-5 1 -3 0c-4,2 -7,-1 -11,-3 0,4 1,8 -1,8 -4,-17 -8,11 -12,-6 9,-1 -3,-5 1,-8 -1,-9 -6,-2 -7,1l1 7 -11 2c3,-9 -1,-9 -4,-8 0,5 2,5 1,12 -3,-1 -8,-22 -12,-7 -6,3 -8,-6 -12,2 0,-14 -4,-12 -8,-11 -3,-5 -4,-4 -6,0l0 8c0,3 0,5 -1,4 -5,-6 -15,4 -23,-5l-2 0 -9 1c1,4 -1,6 1,8 -1,5 -2,8 -4,8 -4,-2 2,-6 1,-12l-4 1c-2,-1 -2,4 -4,4 2,3 0,19 5,15l0 4c7,1 14,4 23,1 0,9 5,2 7,4 1,-1 1,-4 2,-5 5,-5 3,13 8,7 11,-5 13,-5 27,-6 1,-21 11,3 13,-10 1,2 3,4 3,8 2,4 3,11 7,7 2,-15 -7,-14 -3,-19 11,-9 18,11 20,-2l0 11 3 0c6,-1 6,6 11,-1 -1,-5 -3,-3 -3,-8l4 0c4,5 9,-10 10,-1 -1,0 -3,2 -4,4 1,4 3,2 3,8 2,2 3,3 5,3 2,-6 8,3 10,-5 1,1 2,3 2,8 3,-2 9,-9 6,-17 4,1 5,12 11,7 4,-1 4,8 8,7l0 -4 1 0c-4,-8 7,-15 7,-13 2,10 11,-3 13,7 0,3 1,3 2,4l1 -1c1,-5 2,-12 5,-12 0,0 1,0 1,1 1,0 2,1 3,2 1,-1 2,-1 3,0 0,1 0,1 0,2l0 0 0 1c0,2 -1,3 -1,5 1,0 2,0 3,0 -1,-1 0,-2 0,-3 2,-1 3,3 4,0 0,0 0,-1 -1,-1 1,-1 1,-1 2,-1l0 -1 -3 0c-1,0 -1,-3 -1,-5 -2,-2 -3,-3 -6,0 -3,-2 4,-4 1,-5zm-3 10c0,2 0,5 0,7 1,-1 1,-3 1,-5 0,-1 -1,-1 -1,-2zm9 8c0,0 0,1 0,2 2,-1 2,1 2,3l3 0c0,0 1,0 1,-1 -1,-1 -1,-1 -1,-2 -2,1 -2,-3 -4,-2 0,0 -1,0 -1,0zm-217 -53c1,10 5,7 9,7 -1,-10 -5,-8 -9,-7zm-6 43l0 -7c-2,0 -2,-5 -5,-4l-6 1c-3,9 -4,-2 -8,1l-4 0c-8,5 -11,1 -20,2 -9,-1 -20,7 -26,-1l-5 1c-3,-3 -6,8 -3,8 4,5 14,12 18,2 5,1 12,-5 16,2l9 -1c-3,16 -11,1 -21,6 0,7 -1,10 -2,12 -2,1 -1,5 0,8 1,5 4,5 4,-1 0,-3 -1,-3 -2,-7 13,-1 19,-1 31,-3 0,-12 11,2 11,-9 -5,4 -4,-14 -10,-7 1,-11 7,-1 9,-1 5,0 8,5 14,2l0 -4zm-90 14c-2,2 -2,6 -1,12 6,-7 7,-1 12,-5 0,-4 1,-5 1,-8 -4,-5 -9,-11 -12,1zm10 -21l-6 1c-1,16 8,15 6,-1zm-22 65c3,7 4,17 9,15l0 4c3,-2 3,7 7,3l8 -1 1 0c0,-5 -1,-9 -1,-12 1,-3 3,-5 6,-4 11,0 -1,0 1,15l5 0 4 -1c-1,-6 1,-6 1,-11 1,-3 6,-10 7,-1 0,5 -2,7 -3,12l6 -1 1 0c2,0 2,-5 4,-4l1 0c3,19 7,4 11,-1 2,-1 5,0 5,-5 -2,1 -3,-4 -5,-3l-6 0c-3,0 -4,-7 -6,1 -1,-5 -1,-9 -3,-8 -4,-4 -6,3 -12,2 -3,-11 -6,6 -11,1 0,-9 -6,-1 -8,-3l-8 1 0 -4 -3 0c-3,3 -6,6 -11,5zm-8 40c3,6 8,2 13,3 2,-4 15,10 16,-6 -1,-13 -5,10 -6,-3l-7 1 -4 0c-3,3 -10,-4 -12,5zm0 -90c-4,-8 -13,7 -17,-10 3,2 12,8 14,-1 -1,-1 -2,-3 -2,-8 -3,10 -7,-3 -13,2 -2,-5 -12,-7 -14,1 -8,-7 -27,-8 -34,4 -3,10 -8,14 -15,13l0 -4c0,-2 0,-5 -1,-4l-1 -7c4,-3 11,3 12,-6 -6,3 -9,-6 -16,-2l-3 0c-4,2 -8,1 -12,-2l-13 1 -2 0c-7,6 -15,-9 -18,-2 -1,9 9,1 4,8 -5,6 -5,-8 -9,-7 1,7 -1,9 -3,8 -2,0 -2,3 -3,4 1,9 -4,3 -6,5 -1,6 1,7 1,11l8 0 3 -1c4,1 2,-13 8,-8 0,6 2,9 8,7l3 -1c9,13 22,1 35,4l1 0c7,-1 13,7 22,6 7,-8 14,2 24,-3 12,12 24,-1 39,4 1,-4 1,-7 3,-8 -1,-6 -3,3 -3,-4zm-154 -26l-2 0 -2 0 -11 1 -1 0 -2 0c-5,-1 -9,-4 -15,-2 -10,1 -19,-4 -31,0l-4 0 -4 0c-1,-8 -8,0 -12,-2l-3 0 -14 2c0,3 1,3 1,7 1,3 2,4 2,8 -2,-1 -7,5 -6,-7l0 -12c-6,-3 -9,9 -12,1 -12,0 -20,0 -30,0 0,10 6,-4 6,7 -2,1 -1,4 0,8 -1,0 -1,4 -2,4 0,6 4,-4 5,7 8,0 17,2 28,1l1 4c1,3 3,4 5,3 1,-2 6,-10 7,-1l3 0c4,2 4,-7 9,-5 4,14 8,-8 17,-2 0,-3 2,-3 3,-4 1,4 1,10 4,15l3 0 3 0c0,3 0,3 1,3l3 0c-1,-3 0,-3 1,-4 3,7 15,-16 14,3 0,3 1,3 2,3 0,-3 1,-3 2,-4 0,-9 8,0 9,-9 4,-6 -4,0 -3,-7 -5,-5 -12,1 -15,-6l8 -1c2,-1 7,10 8,-1l0 -4 4 0c0,3 1,3 2,3 0,19 10,13 10,-1 4,-1 2,19 8,11 0,-3 -1,-4 -1,-8 -5,-1 6,-8 1,-11zm-147 -4l-2 0 -9 1c-3,11 -2,11 -4,24 0,4 1,3 2,4 0,-9 5,-3 7,-5 -3,-5 2,-13 -3,-12 0,-4 1,-8 4,-8 2,3 2,8 3,16 1,-7 5,-13 2,-20zm-14 72c3,0 4,-2 6,-5 4,-2 5,7 9,3 -1,-8 -4,-7 -2,-15l-3 0 1 4c-2,1 -3,6 -6,4 -3,1 -3,-14 -6,-3 0,5 1,5 1,12zm-5 -74l-5 0c0,5 1,6 1,12 -4,4 -5,-5 -9,-3 0,2 -1,5 -2,0l-4 1c1,5 2,6 1,11 -3,2 -5,0 -7,-3l0 8c3,-1 5,0 6,7l1 0c0,-4 2,-3 3,-4 1,-12 9,-1 13,-13 1,-3 1,-9 4,-8 -1,-4 -2,-4 -2,-8zm-38 59c-1,2 -2,4 -4,4l-8 1 -12 1c-16,-4 -26,2 -46,1l0 8 28 -3c3,2 9,-6 10,3l5 -1c1,4 -1,5 -1,8 4,-1 6,2 7,7 2,0 4,1 4,-4 -5,1 0,-3 -2,-11l14 -2c2,1 7,0 11,7 0,-15 9,0 11,-13 -5,-5 -12,-2 -17,-6zm-7 -39l0 4c-2,1 -5,-1 -5,5 2,2 7,-6 7,3l2 0c2,-1 1,-5 1,-8 -1,-1 -2,-6 -5,-4zm-9 -18l-1 0c-4,-2 -12,6 -14,-3l-14 2 -2 0 -1 0 0 12c2,6 6,4 6,15l3 0 1 0 0 -4c0,-6 -1,-11 1,-12 4,2 4,-7 8,-5 1,24 -9,6 -2,24l8 -1 3 0 0 -8c0,-8 3,-8 0,-16 3,-2 8,4 8,-5l-4 1zm-48 1l-6 1c1,5 1,11 -1,12 1,3 2,2 3,3 2,-1 2,-7 4,-8 2,0 4,-1 4,3 4,1 3,-9 5,-12l-9 1zm-17 100c7,-3 23,2 23,-7 -6,3 -23,-2 -23,7zm2 -90c-5,-3 -6,5 -10,5 1,5 4,4 6,11 2,-2 0,-13 5,-9 1,0 1,-7 -1,-7zm-26 53l-1 0c2,17 14,2 20,6 2,-1 5,1 5,-4 -10,-1 -14,-2 -24,-2zm-6 -54c-2,0 -4,1 -4,-3 -4,-3 -3,6 -7,4l-8 1c0,-4 -2,-6 -3,-7l-1 0 -1 0c-5,-4 -4,5 -11,9 -2,2 -7,-4 -6,5 -8,5 -9,-10 -15,-7 -3,0 -5,2 -6,5l0 4c0,6 2,7 3,7l18 -2c5,-1 4,-4 8,-1 5,0 4,-4 8,0 5,0 13,-7 15,6l3 0 2 -1c6,4 6,-9 9,-13 1,-13 -2,-13 -4,-7zm-76 9c1,0 3,-2 4,3 -2,0 -5,2 -6,-3 -1,1 -2,0 -2,4l-4 0c-1,-4 -3,-4 -5,-3 -6,-3 -5,13 -10,5 0,5 -2,4 -4,4l-3 1c-2,-7 -2,2 -6,0l-2 0c-3,-2 -7,-4 -12,-2 -1,9 -9,2 -13,5 -2,1 -4,1 -4,-3l-3 0c-2,8 -5,2 -8,1 -7,-1 -11,8 -19,6 -3,-13 -6,6 -9,5 -3,-1 -5,-6 -9,-3l-2 0c1,11 -7,-2 -5,13 3,-8 5,-2 8,-1 5,-5 9,11 11,-1l3 -1 0 8c0,5 1,9 3,8 2,-2 2,-7 4,-9 0,-2 -1,-4 -2,-3 0,-5 2,-5 4,-5 4,10 9,-5 10,-13 1,5 1,11 2,12l7 -1 5 -1c0,5 1,7 2,8 2,1 2,-3 2,-8 4,3 8,6 10,-5 3,13 8,0 15,6 -1,-4 0,-7 1,-8l9 -1c4,-1 7,0 8,7l4 0c2,-6 1,-6 0,-12 0,-5 1,-8 4,-8 2,1 0,3 0,8 1,0 2,3 2,7l1 0c4,-17 20,-3 21,-18 0,-14 -12,-8 -12,-2zm-48 -46c-10,3 -8,3 -19,6 0,4 3,6 1,8 -1,14 6,2 6,15 2,-1 5,1 5,-5 0,-5 -3,-3 -3,-7 4,4 7,-9 8,-1l5 -1c3,-7 -1,-12 -3,-15zm-74 141c5,-2 9,-7 15,-5 2,1 2,-4 1,-4l-16 1 0 8zm-5 -73l-6 0c-4,-2 -5,5 -8,5 2,9 18,14 16,-6l-2 1zm-21 2l-14 1 -2 1c-6,-4 -5,7 -9,8l0 -3c-1,-9 -8,-3 -9,1 0,4 -1,4 -1,8l8 -1 1 0c4,-1 4,14 9,10l-1 -4c0,-10 5,-8 8,-8 0,11 5,-11 6,3l2 0c1,-21 6,7 10,-5 0,-13 -7,-3 -8,-11zm-37 4c-3,2 -6,9 -7,-3 -4,10 -5,-7 -7,1 -1,0 -4,-1 -4,4l-2 0 -6 1c-3,14 -6,0 -11,-3 -2,2 -3,-5 -4,1l-1 0c-5,3 -10,8 -15,2 0,8 -3,8 -4,12 0,3 1,4 1,7 -7,6 -8,-10 -13,-14 -1,0 -1,-3 -2,-3l-4 0c-2,-9 -2,5 -5,-3l-2 0c-2,1 -3,7 -4,1l-8 0c-2,1 -1,7 -3,9 -2,-12 -4,4 -8,0l-16 2 0 -4c-6,3 -9,-6 -15,-2l0 -4 -3 1c-4,-3 -3,6 -6,4 -6,3 -10,0 -15,-2 -5,4 -6,-5 -10,-3l-12 2 -7 1c-2,2 -9,10 -10,-3 -4,-11 -7,0 -14,-2l-5 0c-7,3 -11,-5 -18,-2l-3 1c-1,1 -2,-1 -2,-4l-4 1c-7,-1 -12,-5 -19,-2 0,8 -4,5 -2,16 6,-6 7,10 13,6 3,1 7,-5 6,7l3 0c3,-8 5,10 8,-5 4,-6 10,9 12,-1l1 -1c6,3 14,0 19,6l1 0 8 -1 10 -1c23,3 38,8 58,5l4 -1 8 -1c3,1 2,-5 0,-4 3,-15 6,11 10,11 8,-8 20,-5 29,-3l8 -1c1,10 1,4 3,3 6,-6 13,9 16,-1l0 -4c-1,-5 -2,-8 -4,-8 0,-7 2,-1 4,0 4,-5 3,6 5,7 2,-1 2,-7 4,-8l1 11 2 0c1,-2 2,-4 4,-4 2,-1 3,0 3,3l8 -1 16 -1c-1,-7 1,-7 1,-12 3,1 6,1 6,11 2,-1 4,-3 5,-9 -8,2 -1,-4 -2,-15zm-165 -44l1 12 4 0c-1,-3 0,-5 1,-5 -1,-6 -3,-8 -6,-7zm-6 9l-1 -4c0,-3 -1,-4 -2,-4l-2 1c-2,0 -5,-1 -5,4l0 4c1,3 2,4 3,4l7 -1 0 -4zm-27 -17l-3 13c1,-1 2,3 3,3 4,3 4,3 8,-1 1,-1 2,0 2,-4 -5,4 -8,-1 -10,-11zm-22 7c2,1 1,12 5,7 1,0 2,-1 2,-4 -2,-1 -6,-15 -7,-3zm21 -14c-1,-6 -6,0 -6,-7 1,-1 2,-1 1,-4 -7,-2 -13,-4 -22,-2 -4,-7 -13,0 -17,-6 -5,4 0,14 2,20 -1,-9 7,-13 8,-5l0 4c0,6 -4,4 -2,16 4,-2 4,-15 9,-13 -1,11 -1,17 5,15 -3,-14 -1,-8 2,-16l4 0c0,-5 2,-4 3,-5 3,0 -1,14 1,24l6 -1c-1,-4 1,-6 -1,-8 -2,-16 7,-1 7,-12zm-57 10c-2,-2 -6,-9 -8,-3 0,4 -1,7 -1,12 3,7 9,2 14,3 -1,-6 -3,-10 -5,-12zm-1 -27c-1,-7 -10,-21 -9,-3l-10 1 0 4 4 0c1,4 3,6 1,8 -1,0 -1,4 -1,8 3,1 3,-4 5,-5 -1,-8 5,-2 7,-5 3,1 5,-1 5,-8l-2 0zm-22 22c-5,4 -6,-4 -11,-2 -5,5 -4,0 -9,-3 -3,8 1,7 2,15 5,-7 9,5 12,-9 3,14 11,13 16,2 -1,-3 -1,-4 -3,-4 -2,-2 -5,12 -7,1zm-9 -18l0 -8 -1 0 -14 2c1,10 5,7 9,7l0 11c2,0 3,-1 3,-8 6,-3 8,5 13,6 -1,-10 -5,-13 -10,-10zm-17 64l-9 2c-5,-10 -9,2 -14,1l-23 3c-1,1 -1,-1 -1,-4l0 -4 -3 1c0,3 0,3 -1,4 -4,-5 -4,2 -6,-3 -2,0 -5,-1 -5,4l-4 1 -1 0 -16 2 -2 0c-3,-2 -7,-7 -9,1l-1 0 -3 0 -9 2 -2 0c0,5 -2,4 -2,8 2,-1 4,0 5,3l4 0 1 4 1 -1 13 -1c0,-6 0,-14 3,-12 4,-2 10,-2 7,11l4 -1 2 0c5,-8 4,0 9,3 2,1 2,-4 4,-5l2 0 11 -1c15,-1 23,-1 34,7 -2,-14 6,-5 9,-9 3,0 4,7 8,3 2,7 12,-9 15,2 2,-1 2,-5 5,-4 1,6 1,13 4,11 6,-13 -2,-27 -7,-26l-4 0c-3,-2 -6,-5 -11,-2 -1,1 -3,0 -2,4 -3,1 -4,-4 -6,-4zm-10 -49l-6 0c-1,1 -1,6 -3,5 -2,1 -4,0 -4,4 4,6 4,-5 7,7l1 0 3 0c0,-4 -2,-5 -2,-8 2,-1 5,0 4,-8zm-8 -31c-2,2 -2,7 -4,9 1,3 2,6 2,11 1,-2 2,-4 4,-4l2 0c0,-4 1,-5 1,-8 -4,5 -3,-6 -5,-8zm-8 33c-4,3 -4,-5 -7,-3 -2,0 -2,3 -3,4 -2,-16 3,-13 2,-24l-6 1c2,12 -1,15 -1,24l0 3c4,-2 6,8 8,-1 2,2 0,4 0,8l3 0 3 0c0,-5 1,-6 1,-12zm-24 -21c0,9 3,8 7,7 -1,-4 0,-7 1,-8 -2,-12 -5,5 -8,1zm-4 16l1 4c1,4 8,13 9,3 -1,1 -8,0 -4,-4l4 0c3,-12 -4,-7 -7,-7 0,3 -1,5 -3,4zm-16 -29c-6,12 -11,20 -19,14 -2,19 10,0 14,10 5,-7 11,8 11,-13 -7,5 -3,-6 -6,-11zm-18 -10c-2,3 -9,-5 -7,9 2,-3 9,5 7,-9zm-18 50c1,22 8,0 15,5 0,-3 0,-3 -1,-3 -3,-7 -9,-2 -14,-2zm0 -32c0,11 -5,11 -6,20l7 0c0,-3 0,-8 1,-8 0,-5 0,-11 -2,-12zm-19 85c-5,-8 -13,-1 -17,2 -3,-8 -9,6 -15,2l0 4c5,2 -2,5 -4,4 2,25 10,1 14,-2l12 -1c4,5 4,0 9,-1 0,4 1,4 2,7 2,2 3,6 6,8 0,-3 0,-5 1,-5 1,0 1,-4 2,-4 -3,-15 3,-8 4,-16l-14 2zm-13 -53l0 11c2,-1 5,1 6,-4 -3,-2 -2,-12 -6,-7zm-19 -6c0,2 12,3 11,-9 -5,-1 -9,3 -11,9zm-5 24l4 0 2 -1 0 -3c2,-3 9,3 9,-5 -7,-6 -11,-1 -15,9zm-12 88c-1,1 -1,4 -2,4 0,5 3,3 4,3 2,0 3,-3 4,-8l-6 1zm-25 3c-2,2 -7,-4 -7,5l1 8 11 -2c-1,-9 3,-5 3,-12l-8 1zm-10 -42l-1 0c-1,11 7,-4 7,7 3,1 5,-1 5,-8l-11 1zm1609 32l0 0 1 0c0,-1 0,-2 0,-3 -1,1 -3,0 -3,-5l-2 0c-1,1 -1,-3 -2,-3 0,2 0,3 -1,3 2,0 4,2 4,5 1,0 2,1 3,3zm7 -1c1,-1 2,-2 2,-2 0,0 -1,-2 -1,-4 0,1 -1,1 -1,1 0,1 0,3 -1,3 1,1 1,2 1,2zm-5 -11c0,0 -1,0 -2,0l1 1 0 1c0,0 0,-2 1,-1l0 0 0 -1 0 0zm-11 3c0,0 0,1 0,2 0,0 1,0 1,0 1,-1 1,-1 1,-2 -1,0 -1,0 -2,0zm-24 5c0,0 0,1 1,1 0,0 0,0 1,1 0,0 1,0 1,0 1,-2 2,0 3,-1l0 0 0 1c3,-1 7,-1 10,0 -1,-1 -1,0 -1,-4 1,3 2,3 3,5 0,1 1,1 2,2l0 0 0 -4c1,-1 0,-4 -1,-8 0,0 0,-1 0,-1 0,-1 -1,-1 -1,-1 -1,-1 -3,2 -2,-1 0,0 -1,0 -1,0 0,1 0,3 0,4 -1,-1 -4,-4 -4,0 1,1 2,1 2,3 -1,0 -2,-4 -2,3l-1 0 -1 0c0,-3 2,-1 2,-6 -1,0 -1,-1 -1,-2 -3,4 -3,-1 -8,3l-3 1 1 4zm-26 14c1,0 1,0 2,-1l0 0c-1,1 -1,1 -2,1zm5 -2c0,0 0,0 0,0 0,0 0,0 0,0l0 0zm0 -1c1,0 1,-1 1,-1 0,0 0,1 -1,1zm-1 -17c-1,1 -2,2 -3,3 0,2 -2,0 -1,4 0,0 0,2 0,3 1,-1 2,-2 3,-3 0,-1 -1,-2 -1,-4 1,0 1,0 2,1 0,-1 0,-3 0,-4zm-6 4c-2,1 -4,1 -5,-1 -1,0 -1,-1 -1,0 0,3 1,6 3,7 1,0 1,0 1,-1l1 0c0,0 0,1 0,1l1 0c0,-1 0,-7 0,-3 0,-1 0,-2 0,-3zm-7 5c-1,-1 -1,-2 -2,-3 1,1 1,2 2,3zm-34 0l1 0 -1 0 0 0zm3 -4c1,-3 3,-4 5,-4 -2,-1 -4,0 -6,2 0,1 1,1 1,2zm7 -5l0 0c1,-1 3,-2 3,-5 -3,0 -5,1 -7,2 0,1 2,4 2,0l0 0c1,0 1,2 2,3zm7 -1l0 0c0,0 1,0 1,0 0,0 1,0 1,0 1,0 1,0 1,-1 0,1 0,1 0,1 1,0 1,0 2,0l0 -1c-2,-2 -5,-3 -8,-3 -1,7 0,-2 1,2 -1,0 -1,2 0,1 1,0 1,1 2,1zm-12 -2l0 0c0,0 0,0 0,0l0 0zm-2 0l-1 1c0,0 1,0 1,-1l0 0zm-3 1c-2,0 -3,0 -4,0 1,1 3,1 4,0zm-3 4c2,0 3,-2 3,3 1,0 1,-1 1,-2 -1,-2 -3,-3 -4,-1zm-47 -15c0,-2 0,-3 -1,-5 0,0 0,0 0,0 -1,0 -2,-1 -2,-3 1,0 1,0 2,1 -1,-3 -3,-3 -3,-8 -1,2 -2,8 -2,16l6 -1zm-121 40c-1,-4 -2,-4 -2,-7 -3,3 -8,4 -7,16 5,2 7,-3 9,-9zm5 8l7 -1c3,1 3,-3 5,-5 0,-4 3,-3 3,-8l-3 1 -7 0c-2,1 -3,-1 -4,-3 -2,2 -7,-4 -7,4 2,1 3,0 3,4 -2,7 1,15 3,8zm-39 4c4,-1 4,-7 8,-5 -1,-7 -12,-6 -12,5l4 0zm-78 -12c-4,-7 -13,0 -19,-1 -2,-9 -9,-1 -13,-3 0,11 9,-4 9,7l2 0c8,-3 14,-1 21,1 3,2 10,-6 11,3l1 0c4,0 7,0 4,-8l-16 1zm-284 28c0,-1 -1,-1 -1,-1 0,0 0,1 0,1 0,0 1,0 1,0zm-179 -68c2,2 0,4 1,8l2 0c-1,-16 9,-2 6,-20 -2,-1 -4,-1 -4,4 0,5 -3,3 -5,4l-12 2c-1,1 -3,0 -2,4l14 -2zm-213 44c2,-2 8,4 6,-9 2,0 4,3 4,7l2 0 8 -1 2 0c-3,-6 -7,-7 -12,-6l0 -4c-4,3 -4,-7 -8,-3l-4 0c5,7 5,3 2,16zm-76 0c2,0 2,5 4,4 0,-9 6,-3 8,-5l2 0c-1,-7 3,-3 3,-8l-16 1c-1,1 -1,4 -1,8zm-123 3l2 0c1,8 6,1 8,2 2,-5 1,-6 0,-11 6,0 7,17 15,10l0 -4c2,-2 2,-7 4,-8l0 -4c-3,-7 -9,-4 -10,5 -3,10 0,-5 -4,-8l-3 1 -5 0 -3 1c-1,0 -1,-3 -3,-4l-1 0c-2,7 2,11 0,20zm-13 -14l0 4c5,-6 5,8 8,6 0,-5 1,-8 1,-11 -9,-8 -15,-14 -22,-6 1,20 10,10 13,7zm-28 7c-2,-12 12,-14 11,-1 -3,2 -10,-4 -11,5 2,0 5,-3 6,3l1 0c-1,-9 5,-2 6,-5 -3,-7 1,-7 1,-16 -4,4 -5,-2 -7,-7 1,7 -1,10 -4,9 -1,2 -7,-4 -6,4 0,5 2,6 3,8zm-145 -18c4,2 4,3 8,7 0,-4 1,-5 1,-8 2,2 7,-6 7,3 0,3 -1,4 -1,8l2 0c3,-4 3,5 7,3 -1,-8 0,-11 0,-16l0 -4c-1,-9 -8,0 -11,-2l-9 1 -4 0 0 8zm-30 0c0,4 -3,4 -2,12l4 -1c1,-6 4,-6 7,-8 0,3 1,2 2,3 3,-7 4,-1 7,-1 0,-5 -2,-6 -3,-11l-1 0c-3,-9 -10,0 -14,-2 -1,-1 -6,-9 -5,1 1,10 -8,-3 -7,8 4,11 7,-6 12,-1zm-38 12l0 4 4 0c0,-4 2,-4 3,-5 4,3 4,-4 7,-4l10 -2c-1,-3 -2,-3 -2,-7l-8 1c-1,1 -2,-1 -3,-4l-2 1 -10 1c1,10 3,7 1,15zm-19 -9c2,1 -1,5 0,12l10 -2c-1,-5 -1,-11 0,-11 -2,-5 -9,-9 -11,-3l1 4zm-23 10l3 0c2,6 6,-4 12,-1l1 -1c2,3 2,9 5,8l-1 -4 0 -8c-3,-2 -10,8 -10,-7l-8 1c1,12 -14,11 -2,12zm1078 0c1,8 8,0 11,2 7,-1 12,0 17,3l4 -1c7,-1 8,4 14,-1 1,8 7,0 11,2 0,-3 -1,-4 -2,-7l-8 1 -1 0 0 -4 -2 0 -13 1 -3 1c-5,1 -9,0 -12,-3l-5 1c-2,6 -6,-3 -11,1l0 4zm-8 42c0,-1 -1,-3 -2,-1 1,0 2,1 2,1zm-26 -3c-1,1 -1,2 -2,4 1,0 2,1 3,2 1,0 2,-1 3,-1 -1,-1 -2,-2 -4,-5zm-70 -52c0,7 -4,3 -4,9 2,-1 2,3 3,3 6,-6 9,-3 14,-1 13,2 29,-2 41,3l4 0 12 -2 7 0 0 -4c-2,0 -2,-5 -4,-4l-2 0 -13 2 -3 0 -2 0c-14,-1 -28,2 -41,-3 -5,3 -8,-3 -12,-3zm2 -12c0,-12 -7,-5 -11,-6 -3,14 7,5 11,6zm-70 16l0 4c8,-4 20,3 25,-7 -3,-2 -9,6 -11,-3l-4 1c-6,3 -15,-4 -18,6l8 -1zm132 50c-1,-1 -1,-1 -2,-1 1,0 1,1 2,1zm-27 2c2,0 4,0 5,-1l0 0 -5 0c0,0 0,1 0,1zm-14 -3c0,0 -1,-1 -1,-4l-1 0c-7,5 -17,8 -22,-2 -1,0 -2,2 -2,5 0,1 -1,3 -1,4 3,7 11,0 15,2l2 0 1 0c0,0 0,0 0,0 0,0 0,0 0,0l3 0 5 -1 0 0c0,-1 1,-3 1,-4zm-846 -50l6 -1c0,-3 -1,-4 -1,-8 -2,-8 -8,0 -11,-2l-6 1c1,5 -2,3 -2,8l9 -2c3,14 -4,3 -3,13l15 -2c5,-9 -13,2 -7,-7zm75 3c0,-6 -2,-4 -3,-8l-9 1c-6,6 -12,-8 -14,2 0,3 1,8 -1,8l-5 0c0,-5 -1,-8 -2,-11 -6,0 -11,-5 -17,-2 -1,0 -2,0 -2,-4l-11 2c-2,11 6,11 10,10 1,11 -7,-2 -6,9 9,-3 12,12 19,1 2,9 9,1 13,3l6 -1c2,2 7,-6 8,3 5,-1 10,-1 13,2 2,-7 8,-1 8,-12 -2,-8 -5,12 -12,5 0,-7 2,-9 5,-8zm15 -2l-1 0 -6 1c4,10 -2,3 -1,15l11 -1c1,6 4,3 6,3l-1 -11c-1,-1 -2,0 -3,-4 -1,0 -1,7 -2,8 -2,-2 -8,6 -8,-3 3,1 5,-1 5,-8zm156 9c-8,-7 -16,16 -24,-5l-1 0c0,4 1,3 2,4 -4,5 -12,7 -13,-6 -3,1 -5,6 -9,5 -2,-9 -8,-1 -11,-3l-2 0c-2,0 -4,0 -4,4l-2 1c0,4 1,4 1,7 -2,3 -8,-3 -7,5l9 -1c2,-1 3,5 5,3l2 0 0 -4c3,0 4,7 8,3 5,2 13,-6 16,2 4,5 5,-12 7,0 7,-4 9,-4 17,-2l12 -2 3 0c6,-1 0,-7 -3,-4 -4,1 -7,-6 -12,-2 -1,-9 5,-3 6,-5zm77 -1l-11 1c3,8 1,9 -3,9 0,0 0,1 1,1 -1,0 -1,0 -1,0 0,2 1,3 2,2l11 -1c4,-4 -2,-5 -4,-3 -1,-11 6,2 5,-9zm80 -9l-2 0c0,9 -5,3 -7,5 -2,2 1,6 3,4 3,7 5,20 8,-1 -1,-11 7,2 5,-9l-7 1zm0 -15c1,12 4,4 7,3 -1,-5 -2,-8 -5,-8l-1 0c0,4 0,4 -1,5zm10 22l3 0c5,2 4,-7 2,-12 2,-1 4,0 4,-5l-7 1c2,12 -4,3 -2,16zm330 -40c0,5 4,1 4,7 1,-1 5,-10 5,0l8 -1 12 -1c5,2 13,-7 15,2 3,0 4,-3 4,-8 -4,2 -5,-7 -10,-3 -5,2 -9,1 -12,-7 -2,7 -11,15 -14,6 -6,4 -7,-6 -9,-11l-1 0c0,9 0,15 -2,16zm64 1c-1,-7 -11,-5 -12,1 2,1 1,7 -1,8 0,5 3,3 4,3 2,-1 0,-3 0,-7l5 -1c7,6 16,1 25,1 -3,17 2,7 4,16l1 -1 0 -3c6,0 1,-4 1,-12 7,-2 11,6 18,2l1 0c6,6 14,1 22,1l10 -1c8,3 5,5 -2,12 6,1 6,0 10,3l5 -1 5 0 3 0c0,-11 3,5 5,-1 -1,-17 -12,-2 -17,-6 3,-19 17,3 21,-6 0,-5 2,-6 0,-8 -15,2 -19,-8 -34,0 -1,0 -2,-3 -3,-4 -1,1 -1,4 -2,4 -6,4 -7,-5 -12,-2 -7,4 -15,-11 -20,2 -3,0 -5,-2 -6,-7l-1 0c-3,11 -6,-1 -6,-4 -4,-4 -6,22 -8,1 0,-5 -4,-4 -4,1l0 7c-2,1 -6,-3 -12,2zm126 18c-7,-10 -11,-1 -20,-2l0 8c6,-6 14,6 16,-2 2,2 7,-5 7,3l3 0c-1,-18 8,-11 14,-13l5 -1c-1,4 -2,6 -4,8 -4,3 -10,-11 -11,5l6 0c1,8 6,1 8,3l3 -1c0,-3 1,-4 1,-7 0,-5 3,-4 4,-5 5,-4 9,6 11,-1 0,18 -14,-5 -6,12 2,2 7,-5 8,3l9 0c5,1 9,4 15,2l7 -1c3,2 10,-6 12,3 3,-2 2,-11 3,-16 2,3 4,4 7,3 1,-3 1,-7 1,-12 -4,-2 -10,6 -12,-3 -2,-6 -5,-10 -6,1l-2 0 -8 1 -6 1c-1,0 -3,1 -4,-4 -7,4 -11,-3 -16,-6 -4,9 -6,9 -12,5 -6,3 -8,-6 -12,2 -5,-2 -9,-6 -13,1 -1,-3 -1,-8 -2,-8l-3 1c-3,-1 -5,1 -6,4 -5,1 -11,-10 -12,5 2,10 7,-6 12,-1 3,-2 3,3 5,4 1,6 0,7 -2,8zm273 -22c-6,-7 -11,-4 -16,-2 0,0 1,1 1,3 -2,-2 -5,0 -7,0 2,2 4,2 5,5 5,-3 9,9 12,-1 2,-1 5,1 5,-5zm-18 -1c-1,0 -2,0 -3,0 0,1 1,1 2,0l1 0 0 0zm17 33c0,-4 0,-4 1,-4 1,-5 5,-5 8,-5l0 -4 -15 2 -3 0c3,-10 -3,-10 -7,-11 -2,1 0,9 1,12l-3 0c0,-6 -3,-3 -5,-3 -3,-16 -7,-3 -10,1 -8,2 -20,-4 -29,-1 -4,3 -4,-5 -7,-3 -3,0 -4,1 -5,4l0 12 4 -1 4 0 7 -1 1 0c7,-3 10,6 16,2l11 -1c0,4 1,4 1,4l7 -1c2,0 4,-1 4,4l2 0 0 0 0 0 0 1c0,1 0,1 0,2l0 4c3,0 8,2 8,-8 1,-1 2,0 2,3 0,1 1,1 1,2l-1 0 1 2c-1,1 -2,4 -3,4l-4 1c-2,7 -6,9 -10,9l-7 0 0 -3 -11 1 0 -8 -2 0c1,5 -1,6 0,12 11,6 20,7 31,5 0,0 0,0 0,0 0,0 0,0 0,0 5,-1 9,-1 14,-2 2,6 5,4 7,2 -1,0 -2,0 -3,1 1,-2 1,-3 2,-3 1,0 2,0 3,1 2,-3 4,-4 6,1 -1,-14 -7,-12 -10,-22 0,1 0,2 0,3 -1,1 -1,-3 -1,-4l0 -1c0,0 -1,-1 0,-2l-2 0c1,-8 -2,-7 -4,-7zm36 -4l-4 0c0,3 2,4 2,8l1 0 7 -1c0,0 1,-2 1,-3l0 0c0,-1 0,-2 1,-2 0,-1 0,-2 0,-3l-3 0c0,6 -2,0 -2,2 1,1 0,2 0,2l-1 0c0,-2 0,-3 0,-3l-2 0zm2 -28c-2,2 -2,5 -4,1 0,3 -1,4 -1,4 2,4 3,11 7,11 -2,-6 -1,-7 -1,-11 0,-1 0,-1 0,-1 -1,-1 -1,-2 -1,-4zm22 57c-2,0 -5,-1 -7,1 1,1 1,1 1,3 -1,0 -2,-1 -2,-1 -1,1 -1,3 -1,5l0 0c0,0 1,-1 1,-1l1 0c0,1 0,1 1,1l1 0c0,-2 -1,-4 1,-4 0,2 1,3 2,4l8 -1c0,-1 0,-1 -1,-2 0,0 0,0 -1,-2 1,0 1,0 1,0 -1,-1 -1,-2 -1,-4l-1 0 -2 1 0 0c0,0 -1,0 -1,0l0 0zm-9 -27c0,9 6,1 8,3l0 -4c0,0 0,0 0,0 0,0 -1,1 0,2 -1,1 -1,-1 -2,-1 0,-1 1,-1 1,-4 -3,-2 -7,-1 -7,4zm6 -20c0,-1 0,-2 0,-3 0,0 0,-1 0,-1 1,-1 1,-1 2,-1 -1,-1 -1,-1 -1,-3 -6,-3 -6,9 -1,8zm3 -3c1,1 2,2 2,2l0 -7c-1,-1 -3,0 -3,-4l-1 0 0 4 0 0c1,5 2,-1 4,1l0 0 0 6c-1,-2 -1,-2 -2,-2zm28 11l-2 1c1,0 1,0 2,0 0,0 0,0 0,-1zm-3 1l-2 0c1,1 1,3 1,4l1 0c0,-2 1,-1 1,-4 -1,0 -1,0 -1,0zm-4 0l-2 0c0,2 1,3 2,2l0 0 0 -2zm-3 0l-5 1c1,0 1,1 1,1l0 0c1,1 3,-2 3,1 0,0 0,1 0,1 0,1 0,1 1,1 0,-2 0,-3 0,-5zm2 5c0,0 1,0 1,0 -1,-1 -2,-2 -1,0zm2 35c-1,0 -1,0 -2,0 1,0 2,0 2,0 0,0 0,0 0,0zm-8 0c0,0 0,0 0,0l0 0 0 1c0,0 0,1 0,1 0,-1 0,-1 0,-2zm0 4c0,0 1,1 1,1 0,0 0,0 1,0 -1,-2 -1,-2 -2,-1zm21 -7c0,-1 0,-2 0,-2 -1,0 -1,1 -2,0 -1,-3 1,2 0,5 0,1 3,0 1,-3 1,-1 1,-1 1,0zm-5 -3l-4 1c0,1 0,2 -1,4 2,1 1,-3 2,-3 1,4 2,0 4,2 0,0 1,0 1,-2 -1,-1 -1,-1 -2,-2zm181 -38l0 3c0,0 1,0 1,-1 0,0 0,0 0,0 1,0 1,0 1,0 0,0 0,1 0,1 0,-1 0,-1 1,-1 -1,-2 -2,-2 -3,-2zm-51 14c0,2 1,3 2,3l0 0 0 0c0,-1 0,-2 -1,-4 0,0 -1,-1 -1,1zm4 2c1,0 1,0 2,-1 0,0 0,0 -1,-1 0,0 0,0 0,0l-1 0 0 0c0,1 0,2 0,2zm6 0c1,1 1,3 2,3 1,-1 1,-1 1,-2 -1,-1 -2,-1 -3,-1zm4 2c1,0 1,-1 2,-1 -1,0 -1,0 -1,0 0,0 0,0 0,1 0,-1 0,-1 0,-1 -1,0 -1,0 -1,0l0 1zm2 -1l0 0 0 0 0 0zm1 1c0,1 1,2 1,2l0 0 2 0c0,-1 0,-2 0,-3 0,0 -1,0 -1,0 0,0 0,0 0,0 0,0 0,0 0,0 -1,0 -1,0 -2,0l0 1zm5 7l0 -7c0,0 0,0 1,0 -1,-1 -1,-1 -2,-1 1,5 0,5 0,9l1 0c0,0 0,0 0,-1zm5 -7c0,1 0,2 0,3 2,-1 3,-3 3,3 0,0 0,-1 1,-1 -1,-1 -1,-1 -1,-2 0,0 1,0 1,0 0,0 0,-1 0,-1l0 0c0,-1 0,-2 0,-3 0,0 0,0 -1,0 0,1 0,2 0,3 0,0 0,-1 0,-2l-2 0 0 0c0,1 -1,0 -1,0zm2 7c0,0 1,0 1,-1 -1,0 -1,0 -1,1zm17 -7c0,0 0,1 0,1l3 0c0,0 0,-1 -1,-1l-2 0zm32 -2l0 0 0 1 0 -1zm-1 0c0,0 -1,-1 -1,-1 -1,0 -1,0 -1,0 0,0 1,0 1,1l1 0 0 0 0 0zm-12 1l0 1c2,1 4,1 6,0 1,5 5,2 5,-1 -1,0 -4,2 -5,-1 -2,1 -4,1 -6,1l0 0zm5 5c0,1 -1,2 -1,3 0,1 0,1 1,3 -1,0 -1,0 -2,-1 0,1 0,1 0,2l3 -1c0,0 1,-1 1,0l1 0c1,1 1,2 1,3 0,0 0,-1 1,-1 -1,0 -1,-1 -1,-1 -1,-1 0,-2 -1,-6 0,0 -1,1 -1,-1l-2 0zm5 7c0,0 0,0 0,-1 0,0 0,1 0,2l0 -1zm0 -3c0,0 0,-1 0,-1 0,0 0,0 0,1zm277 -186c-1,8 -1,9 0,13 -1,0 -2,-1 -3,2l-2 0c-1,0 -1,-1 -1,-3 14,-8 -17,-9 -3,-10 1,0 2,0 6,1 2,0 2,-3 3,-3zm2353 64c4,6 9,7 3,12 4,-2 5,3 9,1 -1,-3 -2,-9 -1,-10 -3,-3 -7,-4 -11,-3zm-58 -22c-5,3 -7,-5 -12,-3l-3 1c2,4 6,5 8,11 1,0 3,-1 4,2l2 -1c-1,-4 0,-5 2,-5 1,-1 -1,-2 -1,-5zm-24 -1c2,-1 1,-3 -1,-5 -1,1 -2,0 -4,-2l-1 1c-7,1 1,4 3,7 -2,0 -1,3 0,5 4,-3 6,2 9,1 1,-10 -5,0 -6,-7zm-16 -7c-1,0 -3,-1 -1,-2 -1,-3 -3,-3 -4,-2 0,5 -8,4 -10,1 -3,0 -6,-2 -10,0l1 2c3,4 10,-1 12,8 2,3 9,3 4,-3 4,-3 5,3 7,4 4,1 1,-7 5,-6 0,-3 -2,-2 -4,-2zm-45 -7c-5,2 -8,-2 -12,-1l-2 1c0,0 -1,0 0,2 0,4 2,4 3,7l11 -2 1 0c-1,-3 -2,-4 -1,-7zm-49 8c-5,0 -10,-2 -16,0l1 3c3,3 10,-2 13,2l3 0c1,-1 3,0 3,-3 -1,0 -3,1 -4,-2zm-21 -1c-4,0 -8,2 -10,-1l-7 1 0 2c7,-1 12,5 20,2 -1,-3 -2,-4 -3,-4zm-12 -13c-2,1 -7,-2 -6,3 1,3 3,4 1,5 1,2 2,2 3,2 -2,-8 3,-4 2,-10zm-17 0l-1 0c0,7 2,11 5,9 -1,-5 -2,-9 -4,-9zm280 47c-1,-5 -11,0 -4,0 0,2 0,3 -1,3 -2,-1 -6,4 -7,-1l-3 0 -1 -4c2,-5 -7,-2 -8,-6 -9,0 -2,4 2,4 0,4 -3,3 -2,8 1,3 3,4 4,7 3,-3 5,1 8,1 7,2 -7,4 -9,1 -2,0 -4,2 -5,-1 -9,1 -17,-4 -25,-6l-3 1c-5,1 -7,-6 -13,-3 0,-4 -3,-2 -5,-2 -6,0 -12,-2 -18,-4 -1,-1 -2,0 -3,-2 -4,2 -5,-3 -10,-1 -1,0 -2,0 -2,-2 -11,0 -20,-4 -31,-5 -1,0 -3,1 -4,-2 -5,0 -11,-2 -17,-2 -6,0 -13,2 -18,-2l-4 1c-2,-2 -5,-2 -8,-1 -6,-1 -12,-4 -19,-2l0 -2c-23,6 -45,-4 -67,-6 -8,-1 -16,-2 -25,-1l-7 1c-5,-1 -10,-4 -15,-2 -12,2 -26,-8 -36,-2 -5,3 -11,-8 -11,-8 3,1 8,-4 10,1 14,-1 26,2 40,3 2,1 14,3 11,-2 -1,-10 5,-9 6,4l1 0 1 3 14 -3 0 -2c-4,1 -7,0 -10,-1 -2,1 -3,0 -3,-2l3 -1c0,-3 1,-3 0,-7 0,-2 0,-3 -1,-2 -1,-3 0,-3 0,-5l-3 0c-2,1 -2,4 -5,3 -4,2 -7,1 -10,0l-10 1c-9,-6 5,-2 5,-8 -4,2 -8,0 -12,0 0,2 3,3 1,4 -2,1 -6,-1 -4,6 3,-1 3,4 6,1 2,0 3,3 4,2 4,0 6,4 9,4 4,-4 5,-4 7,3 -13,-3 -27,-3 -40,-5 -3,-1 -13,0 -11,-3 6,-4 6,-6 14,-3l1 0c0,-8 8,5 6,-6 -1,0 -9,3 -6,-1 5,-1 5,-1 2,-8 14,3 22,3 36,6l6 -1c4,-3 6,1 11,3l3 0c11,3 20,-2 29,2 1,4 0,5 2,8 -2,1 -8,-2 -7,3 3,1 6,5 10,6 2,0 2,-3 4,-3l2 0c3,5 7,-7 9,3l2 0c3,-6 8,0 14,-3 4,0 8,-2 8,6 1,2 1,3 2,3l3 -1c1,-2 1,-4 0,-7 2,-2 8,6 6,-4l-5 1c-2,1 -3,-3 -4,-4l-12 2 -1 0c-3,-1 -7,4 -8,-1 0,-2 -1,-5 -2,-5 -5,-2 -3,6 -6,6 -5,3 -8,-3 -12,0 -1,-6 4,-2 6,-4 4,-5 -4,1 -4,-4 -1,-5 4,2 7,-1 1,0 2,-1 3,2l1 -1c1,-4 10,-6 11,1 4,1 9,-5 11,1 1,3 4,1 5,1 4,2 11,-4 15,0 2,1 2,3 3,5 4,1 3,-5 7,-4 5,3 6,-4 10,1 3,1 8,5 10,1 4,7 7,0 13,5 0,-2 0,-3 1,-3 1,0 3,-1 4,2 6,-3 10,3 16,2 3,1 7,-4 7,4l8 -1 2 -1c3,0 5,1 8,4 5,-4 7,4 12,3 3,4 9,-2 12,3 4,3 9,-6 13,5 2,6 8,-2 10,3l5 -1c0,-2 -1,-2 -2,-4 3,-1 6,-1 8,3 -2,1 -4,0 -4,4 3,-3 3,2 6,1 1,3 1,6 -1,5 -4,-4 -8,-4 -13,-3 -1,8 -9,-4 -10,5 5,3 13,4 16,4 0,4 0,4 -2,8 1,0 2,0 3,2 4,-3 7,3 11,1 -1,-4 -2,-4 -1,-8 2,1 3,-1 2,-5 4,-2 5,4 9,1 -3,-4 -7,-3 -10,-8 9,-2 10,4 19,4 5,0 8,5 13,3 1,4 -1,5 -1,7 3,0 6,0 3,-5 4,-1 7,0 10,3 4,0 8,0 11,3 -5,3 -7,-2 -12,0zm7 11c5,-1 10,-1 13,3l0 2c-4,-1 -8,-3 -12,-3l-1 -2zm75 63l-2 1c1,0 2,0 2,-1zm-2 1l-1 0c0,2 0,4 0,6 1,0 1,0 2,0 -1,-2 -1,-4 -1,-6zm-2194 -130c1,-1 1,-2 1,-4 -1,1 -2,2 -4,3 1,0 2,1 3,1zm2 -10l1 0c1,0 1,0 1,-1l0 0 -3 0 1 1zm2 -4c0,0 0,1 0,1l0 0c0,0 0,-1 0,-1zm3 -2c4,-2 9,3 11,-1 1,-1 3,-1 4,0 1,-4 1,-6 -2,-5 -3,-2 -3,4 -5,5l-3 -1c-1,-3 -3,-3 -6,-3 -1,0 -1,3 -3,3 0,1 1,2 1,3l3 -1zm12 8c1,0 1,0 2,0 0,0 0,-1 0,-2 -1,0 -2,0 -2,0l0 2zm1 9c0,-1 0,-1 0,-1 0,0 0,0 -1,0 1,1 1,1 1,1zm2 -7c1,-1 4,0 5,0 1,-2 1,-3 1,-6l0 1 0 -1c-1,-2 -3,0 -5,1 0,3 -1,3 -2,4 0,0 1,1 1,1zm12 -11c-1,1 -2,1 -4,1 2,2 3,1 4,-1zm1 11c-1,0 -1,0 -1,0 0,1 0,2 1,2l0 0 2 1 2 0 2 0 0 2c1,-1 3,-2 3,-3 -4,3 -5,-9 -8,-9 -2,-1 -3,0 -3,2l2 0 0 5zm24 -11c-2,0 -3,0 -5,1 2,0 3,-1 5,-1zm-2 15c0,-1 0,-1 0,-2 0,0 -1,0 -1,1 0,1 0,2 1,1zm15 1c2,1 2,-3 4,-2l2 0c0,6 5,2 6,3 2,0 3,-1 3,-2 3,0 5,1 6,-2 0,2 1,2 2,3 0,0 0,0 -1,1 5,-1 9,-3 13,-1 1,0 1,1 2,1l5 -1 0 0c0,0 1,-1 1,-1 0,-1 0,-1 0,-1 -5,1 -7,-4 -12,-1l-2 0c-4,-4 -12,3 -15,-2l-3 0 -8 2c-1,-1 -2,-1 -3,-1 0,1 0,2 0,2l0 2zm74 -3c-1,-3 -3,-7 -6,-6 -1,0 -1,2 0,3 1,-1 2,-2 2,4l4 1c0,-1 0,-1 0,-2zm-13 15c-1,3 -2,5 -4,2 0,2 0,3 0,3 1,1 4,-1 6,-1 0,0 1,-1 1,-1 1,-1 1,-3 1,-4l-4 1zm3 -22c-1,0 -2,-1 -3,1 0,1 0,1 0,1l4 -1c0,0 0,-1 -1,-1zm-6 -2c1,3 2,2 3,0 -1,0 -2,0 -3,0zm-1 4l-1 0c-1,0 -1,0 -1,0 1,3 3,5 4,3 -1,-1 -2,-2 -2,-3zm-3 6c-1,0 -1,0 -1,0 -1,0 -1,1 -1,1l2 1c2,0 3,-3 4,-3 -1,0 -3,2 -4,1zm122 22c0,-3 -3,-1 -5,-2 0,1 0,2 -1,3 2,0 4,0 6,-1zm-23 -28c0,0 -1,0 -1,0l1 0 0 0zm-8 5c0,0 0,0 0,1 1,-1 1,-1 1,-1l-1 0zm-2 -6c0,0 0,1 0,1l2 0c-1,0 -2,-1 -2,-1zm-12 24l0 0c-2,1 -4,0 -4,3 0,0 0,0 1,0 0,0 1,0 2,0 0,0 0,0 0,0 0,0 0,0 1,-1 0,0 0,-1 0,-2zm51 7c2,-1 3,-1 5,0 2,-3 2,-4 2,-6 -1,0 -1,0 -1,0 -1,-1 -2,0 -3,0 -1,2 -2,4 -3,3l-1 3 1 0zm10 0c2,1 3,1 4,1 0,0 0,0 0,0 6,1 10,-3 15,-2 0,0 0,-1 0,-2l-4 0 -11 -1c-2,-1 -3,1 -4,2 0,1 0,2 0,2zm21 -28c0,0 -1,0 -1,0 -3,-1 -6,1 -9,3 1,0 2,0 3,0 2,-1 5,1 7,-3zm-6 -2l-1 0c0,0 0,0 0,0 2,1 3,1 6,0 0,0 0,0 1,-1 -2,-4 -3,2 -6,1zm55 4c-1,0 -2,0 -3,1 0,0 0,0 0,0 1,0 2,1 4,1l0 -2 -1 0zm-6 -8c-1,7 5,-1 4,5 1,0 1,0 1,0 1,-1 1,-2 2,-4l-7 -1zm-4 5c2,1 3,1 4,0 -2,-2 -3,-4 -4,0zm-20 -2c-1,0 -1,1 -2,1 2,1 4,1 7,1l1 0c1,-1 2,-1 2,-1l1 0 -9 -1zm-6 -3l-5 0c0,1 0,2 0,3 1,0 2,0 3,0 1,-1 2,-1 3,0 0,-3 -1,-2 -1,-3zm-15 -6l-8 0c0,3 3,2 4,2l5 1 7 0c0,-5 -6,-1 -8,-3zm-11 4l0 4c0,1 0,1 1,1 1,0 3,0 4,0 -2,-2 -3,-10 -5,-5zm-4 9c0,0 -1,0 -1,0 0,0 0,0 0,1 1,0 1,0 2,0 0,0 0,-1 -1,-1zm178 0c1,1 2,0 3,0l-4 0 -1 0c-1,-1 -2,0 -2,1 2,0 3,0 4,-1zm30 5c5,-2 12,3 14,1 2,4 4,0 7,0 0,-1 0,-1 -2,-4l-7 2 -2 0c-1,-1 -2,-1 -2,-2 -1,1 -3,1 -4,0 -3,1 -5,2 -8,2 0,0 -1,0 -2,0 1,2 4,-1 6,1zm25 -6l0 0 2 0 1 1c0,0 0,0 0,-1 3,2 5,-1 7,-1 2,-1 4,-1 5,1 2,1 3,1 5,1 2,-2 6,-1 10,0 1,-1 2,-1 3,-1 1,0 2,0 2,-1 0,1 0,2 0,2 2,2 5,0 7,-2 0,0 0,0 0,-1l-12 0c-3,-2 -8,1 -10,-4 -1,6 -6,1 -9,2 -2,0 -6,1 -3,-5 -5,-2 -9,10 -11,-1 0,2 -1,2 -1,2 -1,2 -2,4 -2,8l6 0zm1 9c1,-1 2,-1 3,-1 0,-2 -1,-2 -1,-3l-3 0c0,2 1,3 1,4zm33 -6c-1,0 -1,0 -1,-1 0,0 0,0 0,0 -1,1 -2,4 -2,6 0,1 0,2 0,2 1,0 1,0 1,0 0,-1 0,-2 1,-3 1,0 2,0 2,1 3,-3 -3,-1 -1,-5zm84 -2c-1,0 -1,1 -2,1l2 0c0,0 0,-1 0,-1zm-9 -1c0,0 0,0 -1,0 1,1 1,1 1,1l1 0c0,0 -1,0 -1,-1zm-65 -14c0,2 -1,3 -1,5l3 0c2,1 3,0 4,-4l-6 -1zm-58 15c0,1 0,1 1,1l1 0c-1,0 -2,-1 -2,-1zm141 4c2,0 4,-1 6,-1 0,0 1,0 1,-1l12 1 1 0 6 1 1 0 0 -3c-1,1 -1,-1 -1,-2 0,0 0,0 0,0 -2,1 -4,3 -7,2l-3 -1 -1 0 -7 0c-3,0 -6,1 -8,-1 -1,-1 -2,-2 -3,-3 -1,1 -2,2 -2,5 1,2 5,-2 5,3zm28 -8c1,0 2,0 3,0 0,-2 0,-4 1,-7l-6 0c-1,5 2,3 2,7zm2 3c0,0 0,0 0,0 0,0 -1,0 -1,0l1 0zm-16 -9c1,2 2,3 3,3 1,1 2,0 2,-2l0 -3c-1,-3 -4,-4 -5,2zm68 3c0,0 0,0 0,0 -2,-6 -8,-1 -12,-3 0,5 5,1 7,3l5 0zm3 20c-1,0 -2,0 -3,0 0,0 0,0 0,0 1,0 2,0 3,0zm1 -7c0,-3 1,-2 2,-3 3,2 4,-2 6,-2 0,0 0,0 0,-1 -1,0 -2,-1 -2,-2 -2,0 -4,1 -5,0 0,0 1,-1 1,-1l-3 0c0,1 -1,1 -2,1 -1,4 -1,9 1,8 0,3 -1,2 -2,4 1,0 2,0 3,0 0,-1 1,-3 1,-4zm26 -13c1,2 3,2 5,1 0,0 0,-1 -1,-1l-5 0c0,0 1,0 1,0zm19 9c2,-1 5,3 5,-2 0,-1 0,-1 0,-1 -1,0 -1,0 -1,0l-5 1c0,1 1,1 1,2zm11 1c3,0 6,0 7,-4 -3,0 -5,-1 -8,-1 0,1 -1,3 -1,4l2 1zm17 -2l2 1c0,-1 -1,-2 -1,-3 -1,0 -2,0 -2,0l-4 0c-1,0 -1,0 -1,0 0,8 3,0 6,2zm6 -1l1 2c0,0 0,0 0,0l1 0c0,-2 -1,-2 -2,-2zm91 18c-1,0 -1,0 -1,1l5 0 2 0c4,-2 2,0 5,3 1,-2 3,-1 4,-4 -5,0 -10,-1 -15,0zm7 -14c0,1 0,2 0,2 1,0 2,0 3,-1 -1,0 -2,0 -3,-1zm-3 -2c1,0 3,0 5,0 -1,-1 -3,-1 -5,0zm-9 1l0 0c0,1 0,2 0,2l3 0c0,0 1,1 1,1 0,-1 1,-2 1,-4 -2,1 -3,1 -5,1zm-19 3c1,0 2,1 2,1 1,-1 1,-1 2,-2 -1,0 -3,1 -4,1zm-2 3c0,0 0,0 0,0 1,0 2,0 3,-1 -1,0 -2,0 -3,1zm-12 2c-3,0 -5,1 -9,2 1,0 1,1 1,1l8 -1 1 0 -1 -2zm-1 -15l-3 0 0 1c0,0 0,1 -1,1 2,1 4,0 6,0 -1,0 -1,-1 -2,-2zm-7 7c1,3 -1,4 -3,5l7 0c1,0 2,0 4,0l0 -2c-1,-1 -1,-1 -1,-2 0,0 -1,0 -2,-1l-5 0zm-5 9c0,0 0,1 0,1 1,0 1,0 1,0 0,-1 -1,-1 -1,-1zm1 -9l-2 -1c1,1 1,1 2,1l0 0zm-10 -1c0,0 0,0 0,0l-2 0c-2,0 -3,0 -3,-1l-4 0c-1,0 -1,0 -1,0 -1,1 -2,1 -2,2 0,0 0,0 0,0 0,0 1,0 1,0 2,0 4,1 6,1 -1,1 -2,1 -3,1 0,1 1,1 1,0 1,3 -1,3 -2,3 2,3 4,4 6,4 0,0 0,-1 1,-1 -1,-5 8,1 5,-4 0,-2 0,-2 1,-2 0,-1 0,-1 0,-1 1,-1 1,-2 1,-2l-5 0zm-16 5c-1,0 -2,0 -3,0 -1,0 -2,0 -3,0 -2,2 0,3 1,3 2,2 6,-2 7,2 2,0 4,-2 4,-6 -1,0 -2,0 -3,0l-3 1zm-5 -7l-5 1 0 -2 0 0c-1,1 -1,3 -2,6l6 0c1,0 2,-1 4,-1 0,-1 1,-2 1,-3 -2,0 -3,0 -4,-1zm113 6c1,-1 2,-2 3,-4l-3 0c0,2 0,4 0,4zm9 -1c1,-1 1,-1 1,-1 0,-1 0,-2 -1,-3l-6 1c3,0 3,4 6,3zm72 2l0 -1 0 1c0,0 0,0 0,0zm7 1l7 0 2 1 10 0 5 1c0,-2 0,-4 -1,-6 -3,-3 -2,10 -4,3l-7 1c-2,0 -3,-2 -4,-6 -2,1 -8,-2 -8,3 1,1 3,0 3,2l-3 1c0,0 0,0 0,0zm96 10l1 0 5 0 1 0 1 0c0,0 0,-1 0,-2l-8 1c0,0 0,0 0,1zm20 1l4 -1 2 0c-2,-8 -4,2 -7,-4l-2 1c1,5 -5,1 -6,3l9 1zm9 -1c3,1 9,-5 12,0 2,0 4,0 5,2l12 -2c2,-1 4,-2 4,-6l-1 1c-11,2 -20,-2 -32,2 0,0 -1,1 0,3zm52 13c1,0 1,0 1,0 0,-2 0,-2 1,-2l2 -1c4,0 10,-3 13,1l1 0c0,-4 10,-6 12,-2l9 -2c3,9 9,2 14,3l3 0c10,-2 -1,-10 -4,-10l-3 1 -3 0c-7,4 -11,4 -20,1 -6,3 -6,2 -13,2l-5 1c-3,2 -6,-1 -8,-1 -1,-2 0,-3 0,-5l1 0c0,-3 -1,-6 -3,-5l-4 1c-1,0 -4,-1 -4,3 3,-5 6,5 4,7 -1,5 -8,2 -11,4 -2,-3 -3,-7 -6,-4 -2,1 -3,1 -3,1 9,3 18,5 26,7zm66 -5c-1,1 -3,0 -3,3l1 0 18 -3 4 -1c6,2 17,-9 21,2l1 0c-2,-10 4,-3 6,-4 -1,-4 -3,-5 -3,-9 -1,-3 -3,-3 -3,0 -2,8 -6,3 -11,5l-9 1 -7 1c-2,-1 -6,4 -6,-4l-1 -2c0,-8 -3,-4 -2,0 1,12 -5,0 -8,4 1,4 -3,2 -3,5 2,0 9,-1 5,2zm-17 -17l-1 0c-6,-1 -13,5 -17,0l-14 2c-4,3 -13,-1 -15,5l8 -1 3 0c8,5 20,-5 27,0 5,-7 8,5 12,-2 -1,-2 -3,-1 -3,-4zm289 18c0,-9 -10,-5 -10,-1 4,-3 6,3 10,1zm-209 -19c4,-2 12,2 13,-4l-3 0 -4 1 -6 1c-1,0 -3,0 -3,3l3 -1zm46 0c-3,7 3,6 4,2 -1,-2 1,-2 2,-3 -1,-2 -2,-2 -2,-4l-5 1c0,2 2,3 1,4zm14 -2l6 -1c1,-2 7,2 5,-3l-15 2c-1,1 -2,1 -2,3l6 -1zm98 -6l4 -1c-1,-6 9,1 7,-8l-1 0c-5,2 -9,0 -13,0 -10,4 1,6 3,9zm21 -1l6 -1c-1,-11 -13,-7 -15,-5 3,4 5,6 9,6zm-24 -11c5,-2 8,1 12,1 -1,-9 -15,-3 -12,-1zm-89 -3l-12 2c-2,4 12,3 12,-2zm-769 8c1,-7 1,-9 -2,-8 0,2 -1,2 -2,2l-4 0c1,5 7,1 8,6zm-686 1l-1 0c0,2 -1,3 -1,4 1,0 2,0 4,-1 -1,-2 -1,-4 -2,-3zm-7 2l-6 -1c-1,1 -2,2 -3,4 3,-2 5,-3 8,-3 0,0 1,0 1,0 0,0 0,0 0,0zm-87 10l3 0c2,-8 -2,-4 -4,-5 -2,4 -3,-2 -6,0 -3,6 3,5 0,7 0,3 1,2 2,3 -1,1 -2,2 -2,3 1,0 2,0 3,0 1,-2 2,-5 4,-3 2,1 6,-1 8,1 1,0 3,-1 4,-1 1,0 1,-1 1,-1 -4,-2 -11,2 -13,-4zm-14 7c2,0 4,0 5,2 0,0 0,0 0,0 0,-1 1,-3 1,-4 -2,1 -4,1 -6,2zm-193 24l-4 0c-1,6 -5,1 -8,2 0,4 5,3 6,4 1,0 2,0 3,0 1,-2 2,-4 3,-3l9 1c-1,-6 -7,-2 -9,-4zm-12 -5c0,5 6,1 8,3l1 0c-1,-6 -6,-2 -9,-3zm-17 6c-1,-1 -1,0 -2,2 4,0 8,1 11,1 0,0 0,0 1,0l0 -3 -10 0zm-5 -3l0 2 -9 0 -11 -1c-1,1 -2,2 -3,2 8,0 15,1 23,2 2,-4 4,-10 0,-5zm-34 2c-4,1 -9,-3 -12,2l-5 0 -2 -1c-5,-2 -7,4 -11,2l0 5c2,1 2,-4 5,-2l0 0c5,0 8,-3 13,-2l1 0c3,-1 6,-2 9,-2 3,-1 6,-1 9,-1 -2,0 -5,-1 -7,-1zm-4 -12l-4 -1 -6 0 0 5c1,0 1,3 3,3l4 0c0,-3 5,-5 3,-7zm-70 -5l-3 -1c0,4 -1,5 -1,8 5,-1 5,-1 10,0 -2,-3 -4,-5 -6,-7zm-127 144c0,2 -1,1 -1,3 1,0 2,2 4,4 0,-3 1,-4 3,-2l-1 -1c0,-3 -2,-2 -2,0 -1,-6 -2,1 -3,-4l0 0zm93 29c0,0 0,0 0,-1 0,0 0,0 0,0 0,0 0,1 0,1zm-203 8c1,-3 -2,-4 -3,-4 0,6 3,0 3,4zm448 -163l-5 -1 -8 0c4,-4 9,-5 13,-2l0 3zm1569 -44c0,0 0,0 0,0 1,0 2,0 3,0 0,0 0,0 1,0 0,0 1,0 1,0 0,0 0,0 0,-1 1,0 2,0 3,0 0,0 -1,0 -2,0 0,0 -1,0 -1,0 0,1 0,1 0,1 0,0 -1,0 -1,0 -1,0 -1,0 -1,0 -1,0 -2,0 -3,0 0,0 0,0 0,0 -1,0 0,0 0,0zm-2053 150c-1,-6 2,-2 2,1l-1 0c-1,-3 -1,-1 -1,-1zm-54 36l0 -2c1,1 1,-2 2,-1 0,1 0,2 -1,3 1,3 -1,0 -1,0zm-13 -3c-1,0 -1,0 -1,-1 1,0 3,0 4,3 -1,-1 -3,0 -3,-2zm66 -7c0,-4 3,0 2,-6l0 0c0,3 1,3 2,6 0,2 -2,-2 -4,0zm1075 -193l0 2 -11 0c3,-6 7,-9 12,-7l0 3c-4,-3 -7,3 -1,2zm57 -13l10 1c-1,4 -9,3 -10,-1zm-75 7c0,5 -2,4 -4,4 -1,-4 -15,-2 -8,-5 3,0 5,1 6,-2l6 0 3 1c14,0 5,4 -3,2zm141 -2l-2 0c0,-6 3,-4 6,-4l3 0c2,5 -7,-1 -7,4zm-197 12l17 1 0 3c-6,-2 -14,2 -17,-4zm38 -7c-2,0 -4,0 -5,-3 -1,1 -1,3 -2,3 -2,5 -19,0 -12,-1 3,-5 8,-5 13,-4 0,-4 8,-5 6,3l0 2zm204 -6c4,2 7,-1 10,-2l0 5c-3,-2 -9,3 -10,-3zm692 31l-2 0 -1 -2c1,-2 2,-3 3,-3 8,1 11,-3 18,2l-14 2 -4 1zm-460 -13c-1,-2 -3,-4 -5,-3 0,3 4,5 0,5 -2,-1 -3,-2 -4,-5 3,0 9,-6 11,0 5,3 9,-3 14,-1 -5,5 -11,6 -16,4zm452 11c-8,4 -14,-1 -23,2 -3,-2 -9,6 -10,-4 4,-2 6,2 10,1 10,-3 18,-1 27,-2 0,3 -2,3 -4,3zm-930 -14c0,3 1,3 2,3 -2,6 -5,3 -8,2 0,-5 -1,-6 -4,-6 3,-5 8,0 10,1zm237 -16c1,-1 5,3 5,-2 2,-1 3,1 2,5 -1,4 -19,-4 -7,-3zm76 9l-4 -1 -1 0 -7 0c-1,0 -2,-1 -2,-3l6 0 2 1 1 0c2,-4 5,-2 7,-2 1,2 6,5 7,0l3 1c1,-5 8,-4 7,3l0 2 -19 -1zm-59 7c-3,2 -6,3 -9,2l-24 -2c-2,3 -4,2 -6,0l-2 0 -3 -1 -4 0 -2 0c-5,0 -8,3 -13,1 0,-2 1,-2 1,-4 -2,-3 -2,3 -4,2 -4,1 -8,2 -12,1l-9 -1 -1 0c-3,-1 -8,3 -9,-3l4 1c0,-15 8,-1 11,-5 -1,-1 -1,-4 -1,-7 0,-2 1,-4 2,-5 4,1 11,-1 10,6 0,3 3,1 3,5 -2,1 -5,-4 -5,5 3,1 4,-5 7,-2l1 0c0,-2 0,-3 -1,-3 1,-5 5,0 5,-9 1,-2 2,-3 4,-2 -1,5 -3,6 -4,9 1,4 1,0 4,3l-1 2c3,3 3,-3 5,-4 3,1 -2,8 2,7 0,-6 3,-4 6,-4 1,-3 3,-3 4,-7 2,-1 2,2 3,2 -1,4 -3,1 -3,5 5,1 11,2 16,-1 0,1 1,2 0,5 6,2 15,-7 24,-3 0,6 -8,-1 -5,4l1 0 5 1 5 0c2,0 4,1 4,-2 1,1 2,0 2,3 2,10 -9,2 -11,1zm658 22c-7,-1 -16,5 -20,-6 2,10 -10,12 -11,1l-3 1 -2 0c-6,3 -9,-2 -15,0 -3,0 -6,2 -8,-1 -18,3 2,-6 8,-1l6 -1c5,-1 10,-2 13,0 3,-6 10,2 16,-3 -1,17 14,0 16,10zm-1028 -21c2,2 6,-2 6,3 -5,-4 -7,9 -9,2l-2 0c-3,-2 -9,2 -10,-4l2 1c5,2 8,-3 13,-2zm2 -17c0,-10 6,-2 8,-2 -1,6 -6,1 -8,2zm5 8c-3,4 -6,8 -10,6 2,-4 8,-11 10,-6zm-29 -7c-2,-2 -8,3 -6,-6 2,0 5,0 6,3 1,1 2,0 2,-2 16,0 5,4 -2,5zm-60 7c1,-2 -1,-2 -1,-2 1,-2 1,-9 3,-7 -2,9 2,5 1,12l-2 0c0,-2 0,-3 -1,-3zm45 4c-4,-3 7,-3 1,-5 1,-4 8,-5 6,3 -2,1 -4,3 -7,2zm-18 -2c2,-4 7,-6 9,-1 -2,3 -5,0 -9,1zm125 -22c1,-7 4,1 5,1 1,0 1,0 1,2 -2,0 -5,1 -6,-3zm30 29c-2,0 -6,-6 -8,0l-7 -1c-6,-6 -12,3 -17,-3l-6 -1 -5 0c-2,-2 -6,2 -5,-3l10 1c4,0 6,-4 9,-5 0,2 -1,3 -1,5l16 1c3,-2 20,3 14,6zm21 -10l-29 -2 -8 -1c-7,-2 -21,1 -22,-4 2,-10 8,-6 12,-7 -2,7 -8,2 -11,7l15 1 6 0c2,1 4,1 6,-2 2,-7 4,6 6,-1 2,3 11,-4 6,5l14 1 5 0 5 1c12,0 1,4 -5,2zm-74 -6c0,-2 0,-5 1,-5 2,6 8,2 11,4 1,5 -9,0 -12,1zm3 5c1,4 1,6 -1,8 -3,0 -2,-4 0,-3 -1,-7 -4,2 -7,0 1,-8 5,-4 8,-5zm-25 -4l0 -5 4 0c1,2 5,-2 5,3 -4,-1 -6,0 -9,2zm8 8c-8,2 -11,3 -19,3 5,-6 15,-7 19,-6 4,2 5,-4 9,-1 -1,10 -6,2 -9,4zm-21 -14l2 0 0 3c3,1 8,-3 9,3l-10 -1c-1,-1 -1,-2 -1,-5zm1584 47c-17,1 -32,-5 -50,-2 -9,5 6,-1 8,4 2,0 4,-2 5,1 4,1 10,-5 13,1 6,-3 9,2 15,0l5 -1 5 -1 -1 -2zm46 -8c-4,-1 -10,5 -13,0 -1,0 -2,-3 -4,-2 -2,6 0,2 3,7 3,-3 3,3 6,1 3,5 9,-3 11,6 -3,2 -9,-1 -9,4 2,0 4,-1 4,4 -6,-5 -16,5 -22,-1 -4,3 -6,-3 -10,-1l-5 1c-7,1 -14,1 -20,-2 -7,1 -8,-1 -14,3 -4,0 -8,0 -11,-6l-3 1 0 2c-5,2 -9,0 -12,-5 -3,1 -4,4 -8,3 -1,-9 -7,-1 -10,-3 -5,-1 -8,9 -12,2l-1 0 -10 2c-6,-7 -12,3 -19,-4 -3,2 -5,-2 -7,-2l0 3c-2,0 -1,3 -3,3 -8,1 -17,1 -24,-1 -2,-5 -8,4 -10,-9 6,4 14,-2 19,2l6 -1c1,0 2,2 3,2l6 -1c5,-2 9,0 13,0 8,0 16,2 24,-1 2,0 4,-1 4,2 4,1 9,-5 10,1 5,-3 14,1 17,-6 -18,-2 -38,4 -54,-3 7,-1 13,2 20,-1 3,0 6,0 7,-3 1,1 2,5 4,4 9,-1 17,2 26,0l2 0c5,-2 7,3 11,1 5,1 12,-5 15,0 6,6 17,0 24,3 4,1 10,-5 11,3 -2,2 -9,-1 -9,4 4,-1 6,2 9,4 5,0 11,-4 15,0 5,-2 8,0 12,0l0 -5c-7,0 -25,1 -23,-3 -1,-11 6,2 6,-6 -2,0 -3,-2 -4,-4 0,-2 0,-3 1,-3 -6,-5 -14,-3 -21,-4 -1,1 -4,0 -4,3 2,-2 9,-1 6,4 -2,-5 -6,0 -9,-1 0,-10 -4,-4 -5,-9 4,-1 9,-2 12,0 10,0 20,-1 29,3 5,-3 7,2 12,1 2,0 4,9 2,-1 6,1 6,0 11,1 2,7 -9,-2 -5,8zm-93 -9c8,-3 0,-2 -2,-5 9,0 18,-1 25,3l-2 1c-11,-4 -16,4 -21,1zm-67 6c1,6 -6,10 -8,6 -5,1 -11,2 -15,-2 4,1 4,-4 7,-4 6,-3 11,0 16,0zm34 -8c-4,-1 -1,4 2,2 -1,6 -8,2 -10,1 -5,-3 5,0 3,-5l-8 1c-2,1 -3,2 -2,6 -2,-1 -5,-1 -7,-4 2,0 5,-1 2,-3 -4,0 -9,3 -12,0l-10 1c5,5 12,-2 16,5 -8,-2 -19,3 -25,-3 2,-2 7,1 7,-4 -2,0 -5,2 -6,-2 7,-2 11,3 17,0 7,0 7,0 13,1 2,1 5,-4 6,1 11,-3 20,-4 30,3 -5,-2 -10,-2 -16,0zm30 5l-11 1c3,-8 0,-15 10,-6 -6,1 -1,1 1,5zm117 20c-3,-2 -14,1 -13,-3 4,-1 14,0 13,3zm-4 6c-4,-1 -9,4 -11,-3 4,-1 8,-1 11,3zm-214 -17c-20,3 -18,-8 1,-3 5,2 6,-4 8,-6 2,3 3,6 4,9 -5,3 -8,-2 -13,0zm229 -6c0,3 2,4 1,5 -5,1 -9,1 -12,-3 6,1 5,-5 0,-2 -1,0 -3,0 -3,3 1,0 1,0 1,2 -3,1 -6,0 -8,-4 2,0 4,0 4,-3l-4 1 0 -3c3,1 9,-4 11,1 6,3 9,-3 13,0 1,3 -1,3 -3,3zm-495 -15c6,5 16,-3 21,6 -6,-6 -18,8 -21,-6zm-68 10c-4,0 -9,1 -12,-3 4,1 10,-5 12,3zm18 -2c-5,-2 -13,7 -15,-3 4,-1 8,3 13,0 3,-3 7,-1 10,4 -2,-1 -7,4 -8,-1zm23 -2c-4,1 -14,2 -9,-1 2,-1 10,-1 18,-3 -1,11 -6,4 -9,4zm6 7c-6,-1 -13,5 -17,0 1,-3 17,-3 17,0zm34 -3c10,-2 26,-4 30,0 -10,1 -20,2 -30,0zm147 -9c-1,0 -2,-2 -3,-2l-1 0c-6,1 2,4 2,7 -1,0 -4,2 -5,-2 3,-1 -2,-6 -4,-4 -6,0 -15,6 -19,-2 5,-6 11,3 18,0l9 -2c6,0 15,4 3,5zm-106 2c-7,1 -8,2 -13,2 -24,1 7,-10 13,-2zm-1316 -24c-3,0 -7,0 -10,-3 1,-3 3,-2 4,-2 3,-1 4,5 6,0 2,2 2,-4 3,-5 0,4 -1,7 0,8l11 1c6,2 15,-2 19,3l-19 -1 -14 -1zm-236 34c1,0 2,0 2,2l-9 0c-1,1 -10,0 -12,-4l11 1 8 1zm-301 9l3 1c-1,-6 -6,-2 -8,-1 1,-11 11,3 11,-11 3,2 -1,9 -1,12 -1,-1 -5,6 -5,-1zm-26 8c-3,-3 4,-1 4,-7 -1,-8 -7,6 -8,-3 1,1 1,-1 2,-2l1 0 6 0c0,2 1,3 2,3 0,2 0,3 2,3 -1,2 -1,2 -2,4 -2,2 -4,4 -7,2zm-14 19l8 1 4 0c0,7 -13,-3 -16,4 -5,-1 1,-8 4,-5zm23 -8l-5 0c-1,-1 -3,0 -3,-3 4,2 1,-4 3,-5 3,-2 3,4 7,3 1,1 3,-1 3,3 -1,1 -5,-3 -5,2zm-12 -1c-4,-2 -5,4 -8,4 -4,3 -7,-5 -8,0 -2,-1 -3,3 -4,2l-7 -1 -5 0 -4 0c0,2 -1,2 -1,2l-4 0 -8 -1c0,-1 -1,-2 -2,-2l-1 0c-4,-5 4,2 3,-7 1,3 4,2 6,2 1,0 1,1 1,3 2,1 2,-2 2,-5 3,-1 2,5 5,3 2,0 3,1 4,3 0,-3 0,-6 2,-5 4,1 5,-6 10,-4 3,11 6,-3 12,1 0,-6 -4,-2 -6,-3 1,-4 8,-5 7,3l-1 5c2,-4 5,-3 7,-2l0 2zm-20 8c-1,4 -5,3 -7,5 0,-8 5,-4 7,-5zm420 -42l-3 -1c-4,2 -7,3 -12,2 0,-1 -1,-3 -2,-3l-1 0c5,-8 11,2 16,-3 1,0 2,1 2,5zm37 -27c-3,-5 4,-18 5,-9l0 2c-3,-2 -4,2 -5,7zm109 11c1,1 5,-3 4,3l-11 -1c0,-2 0,-3 1,-3l6 1zm-92 0c1,0 3,0 2,3 -3,4 -7,4 -10,-1 -4,-1 -8,0 -11,2 -6,-3 -13,2 -15,-2l-9 0 -17 -2c5,-7 12,-3 17,-1 1,-5 6,0 8,-2l6 1 12 1c3,1 3,-4 7,-2 2,3 5,3 9,3l1 0zm17 -8c-2,-3 4,-4 6,-5 0,9 -4,3 -6,5zm-106 9c0,-7 3,-5 6,-5 -1,7 -4,5 -6,5zm12 13c-2,1 -4,3 -10,2 3,-9 16,-6 10,-2zm-1 -15c-5,-4 6,-2 8,-2 5,4 -6,2 -8,2zm120 -15c-1,-1 -2,-1 -2,-5 3,2 10,-5 8,5l-6 0zm34 7c1,-2 2,-2 2,-2 1,-3 -1,-2 -1,-3l-9 0 -1 0c-2,1 -3,5 -6,4l0 -2 2 0c0,-6 -4,-2 -6,-3 0,-4 2,-6 4,-5l0 3c3,-2 2,4 5,3 0,-6 2,-5 4,-5l0 0 4 0c2,-2 7,2 12,1l-1 5c-4,-4 -5,5 -9,4zm-495 54c0,1 -2,0 -2,3 -2,-7 -4,1 -7,-1 1,-3 3,-3 4,-7 2,0 4,2 5,5zm510 -50l-4 -1c-4,-1 -6,4 -10,2 -2,-6 15,-3 20,-6 -1,5 -3,5 -6,5zm-45 -1c0,-6 4,1 3,-7 3,-3 0,8 4,5l-1 2 -6 0zm-12 -1c-10,0 -4,-2 -2,-5 -1,-2 -5,2 -5,-3 11,-1 7,4 14,8l-7 0zm-5 -13c0,-4 7,-3 6,1 -2,-1 -5,5 -6,-1zm-118 40l-7 0c2,-7 17,1 7,0zm87 -42c4,2 11,-3 13,3 -4,-2 -11,3 -13,-3zm-192 57l-4 -1 -3 0c-1,0 -1,-4 1,-5 0,7 5,1 7,1 1,3 1,5 -1,5zm-66 7c3,2 3,7 6,3 1,9 -4,3 -6,4l-4 0c1,-2 2,-2 2,-5 1,1 1,-1 1,-2l1 0zm-73 -18c6,-7 20,-3 29,-2 -9,3 -19,3 -29,2zm66 -2l-1 0 -1 0c0,-3 1,-2 2,-3l5 1 0 -3 8 1c-3,4 -8,4 -13,4zm-89 15l-8 0c-1,0 -2,-1 -2,-3l3 0c5,0 17,-4 18,2 -4,-1 -8,-1 -11,1zm-33 -9c-5,-2 -7,3 -11,1 2,-4 6,-4 10,-4 2,0 3,0 3,3l-1 0 -1 0zm32 0c1,-3 1,-7 2,-8 0,1 1,2 0,5 2,2 5,-7 5,1 -1,5 -5,0 -7,2zm160 -11c0,-7 3,-4 4,-4 -7,-5 4,-11 2,5l-6 -1zm71 -2l-9 -1c-20,0 -11,-3 0,-4l8 0c0,3 1,3 1,5zm-6 -17c4,0 8,1 11,-2l2 0c-3,4 -10,7 -13,2zm19 33c-2,0 -3,0 -4,2l-10 -1 -4 0 -7 -1c-6,5 -7,6 -1,10l-9 0 -4 -1c-1,0 -1,-2 -1,-5 7,-9 -8,-1 -8,-8 4,3 12,-4 13,6 4,2 0,-5 3,-5 1,0 2,2 2,3 4,-5 11,0 16,-1 3,-1 14,-2 14,1zm-49 -19l-12 0 0 -3 2 0 3 1 11 0c-1,4 -3,2 -4,2zm65 3l-18 -1c-1,-1 -2,-1 -2,-3l17 1c5,-4 18,6 3,3zm4047 128c0,-8 5,4 8,-1 1,0 1,3 1,6 -4,1 -6,8 -9,-5zm-198 -14c3,-5 7,8 8,-2 1,-1 2,-5 4,-4l1 10 -1 0c-2,4 -10,5 -12,-4zm92 10l-3 1 -6 1c-2,0 -4,1 -4,-2l-9 1 -1 1c-2,-4 -5,-3 -8,-2 -3,-5 -6,4 -9,-8 6,2 11,6 18,3 5,-3 7,4 12,1 3,-2 5,4 9,1l7 -1c2,13 -5,3 -6,4zm8 2c1,-1 1,-4 2,-7 3,2 10,8 12,1l1 -1c1,5 3,3 3,6 -5,5 -12,9 -18,1zm154 17c-3,-12 3,-7 3,-14 3,-3 3,4 6,2 -1,4 0,5 1,9 -3,-5 -8,0 -10,3zm-2 -13c2,10 -3,9 -5,11 -1,-6 3,-3 2,-10l3 -1zm-33 -3l2 0c2,8 3,-7 5,5 0,7 -7,4 -7,-5zm-257 -19c5,-3 9,3 11,-2 0,4 2,5 3,9 -5,5 -6,-4 -9,-4 1,3 1,5 0,6 -1,-4 -3,-2 -5,-2 -4,-4 -10,-1 -15,0 -1,0 -2,-6 -1,-7 3,-5 9,8 7,-4 3,-1 5,8 9,4zm19 0c4,0 7,10 8,-2 1,2 2,7 4,6 0,21 -9,0 -12,-4zm284 23c6,5 9,-3 14,0 3,8 -1,4 -3,10 4,-18 -11,10 -11,-10zm-352 -22c-1,3 -4,4 -7,4 0,-4 -2,-2 -3,-6 -5,1 -9,3 -13,0l-4 0c0,-13 11,5 14,-6 2,7 7,-2 9,5 1,1 1,-1 1,-3 1,0 2,3 3,6zm-1358 43c2,0 3,0 4,0 1,-1 2,-1 3,-2 -2,-8 -6,-2 -8,0 1,1 1,2 1,2zm13 27l2 0c0,-2 0,-2 0,-3 -2,0 -4,2 -5,4 1,-1 2,-1 3,-1zm15 -3c0,0 0,0 -1,0 -1,0 -1,0 -2,0 1,0 2,0 3,0zm33 -45c0,0 0,0 1,0 0,0 0,-1 1,-1 -1,0 -1,0 -2,1zm30 13c0,-1 0,-2 0,-3l-1 0c-1,1 0,2 0,3 0,0 1,0 1,0zm70 -2c1,1 3,1 3,-3l1 0c2,7 4,0 6,0 4,-3 9,-4 13,-5 -3,-3 -7,-3 -10,-4 -1,0 -2,-1 -3,-2 0,0 0,0 0,0l-3 0c-3,6 -6,-4 -10,4l-3 0c-1,-7 -6,-1 -9,-3 0,3 1,4 1,6 0,1 0,2 0,5 2,-1 6,-1 7,3l7 -1zm-19 45c0,0 0,2 1,4 0,-1 0,-2 1,-2l2 -1c-1,0 -3,-1 -4,-1zm-1 -64l-1 0c0,11 6,18 5,3 -1,0 -4,1 -4,-3zm-8 61c1,1 2,3 1,7l3 0 1 0 0 -3c0,-1 0,-2 0,-2 -2,-1 -3,-1 -5,-2zm0 -46c-1,0 -1,-1 -1,-1 -1,0 -2,1 -3,1 0,0 0,1 0,1l1 0 2 0c0,0 1,-1 1,-1zm1 -21c-1,1 -1,1 -1,1l0 2c-2,4 -4,1 -7,-1 0,1 1,3 1,6 -2,2 -4,1 -6,-2 0,1 0,2 0,4l0 6c2,0 5,-1 6,2 2,-1 4,-1 6,-2 0,0 0,0 0,0 1,-9 4,0 6,-1 3,-8 -6,-3 -5,-15zm3 -5c-1,-1 -2,-2 -4,-2 -2,2 -4,3 -5,2 0,1 1,2 1,3 2,0 3,-1 5,-4 1,3 1,4 0,5 1,0 3,1 4,1 0,-1 -1,-2 -1,-3 0,-1 0,-1 0,-2zm-11 -9c1,1 1,2 1,4 1,0 2,0 3,-1 -1,-2 -2,-2 -4,-3zm-7 11c0,0 0,0 0,0 1,-2 1,-4 1,-5 -1,0 -1,0 -1,-1 0,3 -1,5 0,6zm4 -16l-1 0 -5 1c-1,0 -1,2 -1,4 2,-1 5,-3 7,-3 0,-1 0,-1 0,-2zm148 129l0 1c0,0 1,0 1,0 1,0 1,0 2,0 0,0 0,-1 1,-1 -1,0 -3,-1 -4,0zm-5 -184c-1,-8 -7,-4 -4,10l3 0c2,0 3,-5 1,-10zm126 29c0,0 0,0 0,0l1 0c-1,0 -1,0 -1,0 0,0 0,0 0,0zm15 -3c1,-1 2,-3 3,-4l0 -2c-3,-3 -2,4 -5,3 1,1 1,3 2,3zm0 3c0,0 0,0 0,0 0,0 0,0 0,0l0 0zm5 0c0,0 0,0 0,0 0,0 0,0 0,0l0 0zm48 142c1,0 1,1 2,1 1,0 1,0 2,0 0,-2 0,-4 1,-4 -2,-1 -3,-2 -4,-2 -1,1 -1,1 -1,2l0 3zm167 -88c1,0 1,1 1,3l5 0 2 0c1,-1 1,-2 1,-3 -2,4 -5,-1 -9,0zm39 0l1 0c0,-1 0,-1 0,-1l-1 0c0,0 0,0 0,1zm8 0c1,4 3,3 4,3 4,3 10,-4 12,1 4,-1 7,-1 9,2l8 -2c0,1 0,1 -1,2 0,7 0,8 0,10 2,-1 3,0 5,0 3,-3 3,-3 3,0 1,0 1,0 2,0 0,-10 9,1 8,-8 -4,3 -3,-11 -8,-5 0,-4 1,-5 3,-4l0 -6c0,0 0,0 0,0l-4 0c-7,5 -9,2 -17,4 -7,-1 -16,7 -22,0l-5 1c0,0 -1,0 -2,2l5 0zm22 12c1,-1 3,-1 4,-1 -2,-1 -5,-2 -8,-1 2,0 3,1 4,2zm40 -10l-1 -3 0 -2c0,0 0,0 0,0 -5,-2 -6,6 -11,3 -1,-8 5,2 4,-6l-2 0 -1 0c0,0 0,0 0,0 -1,1 -2,1 -2,0 -1,2 -1,4 -2,6 1,1 2,1 3,1 4,0 7,4 12,1zm8 5l0 3c7,0 13,3 20,0 1,6 4,0 6,2 0,0 0,-1 1,-1 -2,-1 -3,-1 -5,-1 4,-7 2,-3 -1,-9 1,-4 13,0 11,3 -1,2 -5,-4 -5,3 1,0 1,0 2,1 1,-1 2,0 2,1 3,2 5,3 6,-2l0 -3 5 0c3,2 2,2 5,0 3,-2 5,1 6,3 2,-1 3,-1 5,-1 0,-11 4,-7 7,-6 1,0 2,-1 3,-2 0,1 0,2 0,2 0,0 1,-1 1,-3 1,2 2,3 3,6 1,3 3,9 6,5 1,-12 -6,-11 -4,-15 1,0 1,0 2,-1 0,0 0,0 0,0l0 -3c-2,-12 -8,12 -9,-1 -1,0 -2,-2 -4,-4 1,2 1,4 1,8 -4,-4 -10,-1 -14,-7 -1,0 -2,0 -4,0 0,0 0,0 0,1 0,-1 0,-1 0,-1 -4,0 -8,1 -12,0l0 0c0,2 0,3 -1,3 -5,-5 -13,4 -20,-3l-2 1 -4 1c1,1 3,1 4,1 2,1 0,4 0,9l9 0 0 4 -5 0c0,4 3,2 4,3 -5,5 -16,4 -22,-2 1,4 1,7 3,5zm34 19c2,-1 3,2 4,3l3 0c0,0 0,0 0,-1 -4,-4 -7,-3 -11,-2 2,0 3,0 4,0zm35 0c0,0 0,0 0,0 0,0 0,0 0,0l0 0zm249 36l9 -2c-1,-2 -2,-4 -4,-2l-1 0c0,0 0,0 -1,0 -1,0 -3,0 -3,4zm-11 -5c-1,1 -2,1 -3,1l0 0c0,0 -1,1 -1,4 3,-2 10,7 12,-3 0,0 1,-2 2,-4 -2,0 -4,0 -6,0 0,1 0,1 0,2 -1,1 -3,1 -4,0zm-10 7c3,1 6,1 5,-5 -5,-2 -6,-2 -11,2 1,0 1,0 1,0 0,0 0,0 0,0 2,2 5,-3 5,3zm62 -102c-1,-8 -7,2 -3,7l1 6c-5,6 -4,-13 -7,-12 -7,0 -10,6 -15,3 -6,-1 -9,-2 -13,-1l-11 3c0,2 0,3 -1,3 1,3 1,5 3,6 -1,5 -4,2 -6,-1l-15 0c-1,4 -1,7 -2,9 -1,1 -2,0 -2,3 5,3 6,-4 11,-3 5,2 9,4 15,1l2 0c0,-5 -2,-5 -2,-9 -1,-6 5,-6 4,2 0,3 1,6 3,7 3,1 5,-2 7,-3 1,4 4,3 7,3 -1,-18 6,5 12,-3 0,-2 1,-3 1,-4 -2,-2 -4,-4 -3,-8 2,1 4,2 5,5 2,-3 5,1 9,1 1,0 3,0 5,0 1,-3 0,-10 3,-7 -1,-3 0,-4 0,-7 -4,-3 -6,3 -8,-1zm-59 4l-1 1c-5,-3 -5,0 -10,2 0,0 0,0 0,1 2,0 5,-3 5,3 3,1 6,0 9,-1 0,0 0,0 0,0 1,-1 2,0 2,-3 -3,-5 -2,2 -5,-3zm-27 47c1,-2 3,-3 6,-3 0,-1 -1,-2 -1,-4 -2,-1 -1,3 -3,3l-2 1c-2,-2 -4,-1 -5,1 1,0 1,1 2,2l3 0zm-9 51l2 0 2 0c-1,-6 -4,-6 -4,0zm5 -32l2 0c0,-1 0,-2 0,-3 -2,-1 -5,-1 -8,-1l0 4 6 0zm19 -57c-2,-2 -2,-10 -5,-9 -9,1 -18,5 -28,3 0,3 1,8 0,9 -1,9 4,-3 5,-4 1,-2 2,-2 3,0 0,-1 0,-3 0,-5 3,2 9,-4 9,7 -4,-2 -6,3 -8,1 1,4 1,8 0,9 0,1 0,1 0,1 4,-2 8,-5 9,-5l7 0 0 -3c3,2 1,-11 5,-6 0,4 -1,11 1,12 1,0 1,-2 2,-3 1,-3 1,-5 1,-7l-1 0zm-36 89l3 0 7 0 -1 -4 -1 0c-2,-5 -3,3 -8,2 0,0 0,1 0,2zm1 -76c0,-1 -1,-1 -2,-2 1,1 1,2 2,2 0,1 1,1 2,1 -1,-1 -1,-1 -2,-1zm-7 -4c1,2 1,4 1,6 1,0 1,0 1,0 0,-4 1,-6 1,-7 -1,0 -2,0 -3,1zm-4 76l0 0 0 0zm-9 -72c1,0 2,0 3,-3 -2,0 -3,0 -3,3zm-12 73c1,0 2,0 3,0 -1,-1 -2,-1 -3,0zm32 -89l-4 1c-1,-4 -2,-3 -4,-3 -2,-1 -4,-2 -7,-2 0,0 1,1 1,1 -2,1 -2,4 -4,3 -1,0 -1,-1 -1,-2 -2,2 -3,4 -4,6 -3,2 -3,-8 -6,-8 -1,7 -4,9 -7,8 0,3 0,5 0,6 1,0 1,1 2,1 1,0 2,-1 3,-2l0 -3c1,-4 3,-4 6,-3 -1,2 -1,4 -1,6 3,1 5,3 9,1l0 0c2,-4 3,-4 4,1 1,-2 1,-3 1,-5 2,1 1,3 0,6 2,-2 1,-11 4,-9 0,3 0,4 0,6 1,-1 1,-1 2,-1l6 -1c0,-1 1,-3 0,-7zm-42 3c-1,3 -2,5 -2,6 0,0 0,0 0,0 1,0 3,0 4,0 1,-2 2,-3 2,-5 -1,0 -2,-1 -4,-1zm-13 66c1,0 3,0 4,1l-1 -1c-1,-1 -2,-1 -3,0zm4 -63c0,0 0,0 0,1l0 -1 -4 0 0 3 -5 0c-2,0 -4,0 -6,3 4,2 10,-5 13,1 1,0 1,0 2,-1 0,-7 5,1 5,-6l-5 0zm-10 0c1,1 3,1 4,0 0,-1 0,-1 0,-2 -1,1 -2,1 -4,2zm-6 12c0,0 0,0 0,0l1 0c0,0 0,0 -1,0zm2 3l-4 0c0,1 0,1 1,2l2 -1c0,0 1,0 1,-1zm-1 44l-3 0 0 2c1,2 3,2 6,2 -1,-1 -2,-2 -3,-4zm-2 -62c0,0 -1,0 -2,1 0,0 0,1 0,1 2,1 3,1 4,0 -1,0 -1,-1 -2,-2zm-5 -2c0,1 -1,1 -1,2 0,-1 1,-1 2,-1 -1,0 -1,0 -1,-1zm-10 -1c-1,0 -2,0 -2,-3 0,-4 1,-7 -1,-6l-3 0c0,8 2,7 3,10 1,0 2,0 3,0l0 -1zm-7 81l0 0c1,-1 3,-1 4,-2 -1,1 -3,1 -4,2zm-8 -14c0,10 12,7 10,-2 -2,3 -7,7 -10,2zm-14 -53c0,3 0,5 1,7 1,0 2,1 3,3l1 0c0,-3 -1,-4 -1,-6l4 0c1,-1 1,-2 2,-3 -3,-2 -7,1 -10,-1zm-6 -8c2,2 5,1 6,-1 -1,0 -3,0 -6,1zm-1 12c1,1 3,4 5,4 0,-6 -3,-6 -5,-4zm-2 -11c0,1 1,1 1,1l0 -1c0,0 -1,0 -1,0zm1 15c0,-1 0,-2 -1,-3 0,0 0,1 0,2 0,0 0,0 1,1zm-2 43c1,0 2,1 3,2 1,0 2,0 4,0 0,-1 0,-2 1,-1 2,0 4,0 5,-1 -3,-3 -8,-2 -13,0zm-12 -57c-1,1 -2,3 -3,2 -2,2 -3,-5 -6,-2l-4 1 -3 0c-3,2 -6,0 -9,-1 0,1 0,1 0,2 2,0 4,4 5,4l1 0c0,-7 3,-2 5,-3 3,2 9,-4 11,3l4 0c0,-4 0,-5 -1,-6zm-27 15l0 4 2 0c2,0 3,0 4,0 0,0 0,0 0,-1 -1,-3 -4,-3 -6,-3zm-3 37c0,-8 4,-2 5,-1l-1 -6c-1,-1 -2,0 -2,-3l-1 0 0 3c-5,-2 -5,8 -1,7zm-5 -47c0,1 0,4 0,7 2,1 5,2 6,1 0,-1 1,-4 1,-7l1 0c0,-1 0,-2 0,-2 -3,-7 -5,6 -8,1zm-6 49l3 -1c0,-8 -2,-6 -3,-12 -1,1 -1,3 -1,6l0 0c0,4 1,6 1,7zm-5 -8c0,0 0,0 0,-1 -1,1 -1,1 -1,1l1 0zm10 -51c-1,-7 -5,0 -6,2l1 5 3 0c1,0 1,0 2,0 0,0 0,0 0,0 7,-1 -3,-3 0,-7zm-18 4c0,3 1,4 2,8 0,-2 0,-3 0,-5l1 0 1 0c1,-5 -1,-4 -4,-3zm-4 2c0,0 0,0 0,1 0,0 0,0 1,0 0,-1 -1,-1 -1,-1zm-15 -15c0,3 1,4 3,6 0,-2 0,-4 1,-6l-4 0zm-45 25l1 0c0,0 0,0 0,0l-1 0zm376 -17c4,2 4,-4 7,-4 2,-2 2,2 4,2 0,2 1,4 1,8 4,-1 8,-5 11,0 0,1 -1,2 -1,3 1,1 2,2 3,2 0,0 0,-1 0,-1 0,-3 1,-4 2,-6 -1,0 -1,-1 -1,-3 -3,4 -3,-3 -6,-2 -6,0 3,-5 4,-7 0,-2 -1,-3 -3,-2 -1,-3 -7,-6 -8,1 -2,-3 -5,-9 -7,-2 -1,1 -2,6 -2,-2 -4,-1 -4,6 -8,4l-1 0c1,14 7,-6 5,9zm69 4l6 0 1 0c-1,-2 -2,-2 -2,-2 -2,-2 -3,-3 -5,-2 -1,4 -8,4 -9,-5 4,-2 5,5 8,2 4,-1 2,-6 5,-1 1,4 5,-2 5,8l9 0 3 0 3 0 0 3c6,0 11,0 16,1l7 -1c1,1 2,2 3,2 4,-2 5,5 9,2 0,-6 3,-3 0,-10 -3,7 0,-1 -3,-3 0,7 -6,5 -8,2l-4 1 -9 1c-2,-6 -7,3 -8,-4l8 -2 4 -1c0,4 3,2 5,3 5,-4 8,4 12,-3l1 0c5,3 -3,-4 -4,-9l-11 2 -2 1 -8 1 -1 0c-4,-1 -3,7 -5,1 -1,-4 -3,-2 -3,-5 1,-1 2,-1 2,-4l-6 1c4,10 -8,8 -8,2 -1,-1 -3,-5 -2,3 -3,4 -6,-8 -7,2 -4,-3 -9,1 -12,-8 1,13 -7,0 -11,6 -2,-8 -6,1 -8,1l-3 1c-1,-10 -5,-11 -4,-3l1 10 3 -1c1,4 0,6 0,7 0,0 0,1 0,1 0,0 1,0 1,-1 2,2 6,-3 6,4 4,0 5,-6 9,-3l11 0 5 0zm72 -12c-4,3 -7,-8 -9,-1 -2,0 -3,1 -2,6 4,-2 4,-3 8,2 2,-1 4,0 3,-7zm-110 -4c-1,-8 -3,4 -5,4 1,3 2,2 3,3 1,1 2,2 4,2 -1,-5 -2,-5 -2,-9zm411 79c0,0 0,0 0,0l2 -1 0 -6c1,4 4,3 4,-4 -3,-2 -7,-1 -13,0 0,1 1,3 1,2 2,4 5,4 6,9zm528 14l-4 1c-3,6 -7,-12 -8,-2 1,5 3,2 4,7 1,0 1,1 1,2 0,0 1,0 1,0 0,0 0,0 0,0l8 -2c-1,-3 -2,-4 -2,-6zm-116 -10c0,0 -1,0 -1,1 3,1 6,2 9,3 0,-2 1,-4 3,-3 1,-11 -9,6 -11,-1zm-11 -11c-2,2 1,4 2,6 -3,1 -5,1 -5,5 0,0 0,1 1,1 2,-2 6,-1 7,-6 -2,-2 -3,-4 -5,-6zm-21 11c0,2 1,3 1,3l3 0 1 0c1,0 1,0 1,-1 0,-1 0,-1 0,-2 -2,-7 -3,1 -6,0zm-7 86c3,0 6,0 8,0 -2,0 -5,0 -8,0zm-3 -93c-4,3 -6,-1 -9,-1 1,7 11,13 9,1zm-25 2c-2,1 -2,-3 -4,-2 -1,0 -2,1 -1,3 0,2 0,4 -1,4 2,2 11,1 6,-5zm-35 4c-5,0 -8,-1 -13,3l-2 0 0 4c3,-1 5,0 6,2 1,0 1,0 1,0l3 0c1,-2 1,-2 3,-2 1,-2 2,-3 3,0 2,0 3,-1 3,-4 -2,-1 -4,1 -4,-3zm-12 -13c-6,-6 -15,1 -4,4l3 -1 1 0 0 -3zm-42 54c1,-1 2,0 3,0l0 0c-1,0 -2,-1 -3,0zm-2 -4c2,-1 4,-1 6,1 0,0 0,0 0,0 -2,-2 -4,-2 -6,-1zm-11 -29c-1,-2 -1,-4 -3,-3 0,3 1,6 0,7 1,7 6,0 8,1 0,-8 -5,4 -5,-5zm-69 5c0,0 0,0 0,1 1,0 3,0 5,0 2,1 5,0 8,0 0,0 0,-1 1,-1l1 0c6,-5 9,9 13,0l2 0c-13,-14 -24,2 -30,0zm57 -19c-19,-1 -37,2 -56,-4 0,3 1,4 2,6 -1,1 -3,1 -2,4l3 -1c13,0 28,3 43,1 2,20 -11,0 -10,15l1 -1c5,1 12,-6 15,0 1,-1 2,-3 3,-3 0,-7 -2,-6 -4,-6 -1,-7 4,-2 6,-4l-1 -7zm-87 15c0,0 1,0 1,0l8 0c5,2 10,3 15,4 1,-1 1,-1 1,-2l-5 0c-5,-5 -13,-3 -20,-2zm22 -17l-1 0c-9,-2 -13,-5 -20,1 -1,1 -4,9 -5,1 -4,-1 -10,6 -13,-1 -2,-9 -6,10 -9,-1 -2,-7 -8,1 -12,-1 -1,0 -2,-3 -3,-2 -2,-1 -7,-2 -10,2 -3,3 -3,-5 -7,-2 -21,4 -32,-4 -47,0 1,0 1,4 2,7 1,0 1,0 2,1 0,-8 9,-11 10,-1 0,0 -1,1 -1,3l10 0c1,0 1,0 1,0 -1,-13 7,4 7,-7 1,3 0,4 0,7 3,-8 3,4 8,1 2,0 3,0 4,1l4 0c10,-3 17,-3 27,2 0,0 0,1 0,1l2 0c0,-1 -1,-1 -1,-1 5,-6 7,-1 13,-3 4,4 4,-2 7,2 8,-8 21,3 32,-4 6,-1 1,-2 0,-6zm-129 -3c-1,1 -1,1 -2,1l-1 0c-3,0 -1,3 -1,7 2,-1 4,-1 5,-1 0,-3 -1,-3 -2,-6 0,0 1,0 1,-1zm-10 -4c-3,4 -2,9 0,11l2 0c1,1 2,1 3,1 0,-5 -1,-5 -1,-10 -1,1 -3,0 -4,-2zm-12 2c0,-8 -1,-11 -4,-8 0,5 3,2 3,9l-3 0c3,9 4,3 8,2 0,4 1,7 3,6 -1,-4 -3,-6 0,-7 0,-7 -5,0 -7,-2zm-39 -5l-5 2c-4,-5 -5,3 -9,-2 0,4 0,6 1,9 2,1 5,-3 5,2 1,0 1,1 1,1 9,-1 19,2 24,0 0,0 0,0 0,0 -3,-8 -13,2 -17,-12zm-31 0c1,2 1,4 1,6l2 0c2,2 4,3 6,3 1,-2 2,-4 2,-8 -6,-5 -5,1 -11,-1zm-9 -1c-1,-4 -3,-3 -4,-2 1,3 1,5 1,6 1,-1 2,-1 3,0l0 -4zm-8 2c-1,0 -2,-1 -2,-3 -1,1 -1,2 -1,3 1,1 2,3 4,2 0,-1 -1,-2 -1,-2zm-11 -1c0,0 0,0 0,0l0 0c0,0 0,0 0,0zm-5 -3l0 2c1,1 2,1 2,1l2 0c-2,-2 -3,-12 -4,-3zm-2 -2l-2 0c-2,1 -5,0 -7,2l2 0c2,2 5,1 7,2 0,-1 0,-2 0,-4zm-11 2c0,0 0,0 0,0l0 0 0 0zm-7 -4c1,0 2,0 3,1 -1,-3 -2,-5 -3,-1zm-9 -6c0,2 1,5 1,7 1,0 2,0 4,-1 -2,-3 -2,-8 -5,-6zm-6 8l-3 0c-2,-2 -3,-2 -5,-2 1,4 2,6 4,4 4,-1 7,-2 9,-3 -2,-3 -5,-6 -5,1zm-133 -73c0,4 3,2 5,2 3,-16 -4,-2 -7,-11 0,4 1,6 2,9zm265 30l1 0c3,-6 1,-9 1,-13 -3,-12 -5,-1 -5,4 0,5 3,2 3,9zm-498 -1c0,-7 5,-3 7,-5l6 -1c-3,8 -7,6 -13,6zm718 -25c-8,-3 -13,1 -21,-5 1,0 3,0 3,-4 5,-1 10,4 16,0 -2,-3 -2,-6 0,-6 2,4 3,11 2,15zm45 7c-14,-4 -28,-9 -39,-5 -1,-4 -3,0 -4,-5 0,-5 3,-3 4,-4 -2,-10 -3,1 -6,-12 9,-3 6,18 16,13 5,0 9,5 17,3 3,-2 2,-11 8,-8 0,6 -5,2 -4,10 4,-2 7,2 10,8 0,3 -1,2 -2,0zm-86 -24c1,7 5,0 6,6 0,3 -2,3 -3,3 -4,-1 -5,5 -11,3 -6,-1 -9,-8 -14,-1 -2,2 -4,0 -4,-5 0,-3 -1,-3 -2,-3 0,-3 0,-3 1,-3 2,0 4,6 6,5 0,-7 -2,-4 -3,-9 3,-11 9,15 10,-2l1 -1c2,1 1,3 1,7 -1,4 7,4 10,4 0,-6 -7,-1 -3,-6 5,-4 7,-1 11,-5 2,11 -4,5 -6,7zm-1340 -49c-5,-1 -30,3 -23,-3l31 0c-1,7 -6,1 -8,3zm1454 74l-2 0c-6,3 -5,2 -11,2 -2,-9 -4,-1 -8,-4l-3 0c0,-2 0,-4 1,-3 4,2 3,-5 6,-5 2,2 8,11 8,-1 -3,1 -6,1 -7,-5 3,0 6,5 7,-2 1,8 1,15 4,15 -1,-6 11,2 5,3zm-148 -18c-3,3 -6,4 -10,-1 2,0 2,-1 2,-3 6,-2 -1,-5 -1,-13 2,-1 4,0 6,2 2,5 0,13 5,12 0,3 -1,3 -2,3zm103 62c0,-2 0,-4 2,-3 2,-2 -1,-15 3,-14 1,0 1,3 0,3 1,4 3,2 5,2 0,13 -7,-1 -5,11l-5 1zm-171 -70c4,-7 13,-6 19,-1 1,3 2,3 2,6 -9,-1 -14,6 -21,-5zm-305 -25c-1,-3 0,-3 0,-4 4,1 6,-2 7,-7 2,1 3,13 10,7 2,4 6,0 8,5 -6,5 -18,0 -25,-1zm61 10c-4,-14 6,-13 6,-4 -1,6 -5,-4 -6,4zm-7 -2c-1,-8 0,-14 1,-19 1,8 4,23 -1,19zm275 22c-1,-13 2,0 5,-4 8,-15 13,5 19,-8 1,3 0,8 4,9l1 6c-2,-2 -3,-2 -5,-2 -9,2 -16,-1 -24,-1zm-182 -15c-12,-1 -26,-2 -35,-2 -2,-10 3,-3 1,-13l1 -1c5,1 8,12 13,1 3,-2 -2,10 2,9 4,3 2,-5 4,-7 3,13 12,-3 16,10 0,3 -1,2 -2,3zm406 74l6 -2c0,-11 -2,-5 2,-10 1,1 3,11 0,10 0,3 1,2 2,2 2,3 2,10 6,9 3,-3 4,2 7,2 5,-5 10,7 12,0l1 13c-1,1 -1,-1 -1,-3 -2,-5 -5,-6 -8,-5l-1 0c-1,9 -4,-7 -7,2 0,-4 -2,-5 -3,-6l-2 0c-1,2 -1,6 -3,7 -1,-13 -8,-2 -10,0 -2,-12 -8,-4 -12,-8l-2 1c-4,-1 -4,6 -9,5l0 -3c3,1 3,-3 4,-4l0 -3c-5,-2 -4,0 -7,-2 -4,3 -6,-1 -9,-5 -6,2 1,8 -1,10l-4 1c0,-5 1,-6 -1,-9 3,0 2,-7 6,-5 1,1 1,-1 1,-3 1,7 5,4 7,8 1,-14 9,4 12,-6 1,1 0,3 0,6 7,7 7,-9 14,-2zm-263 -61c-13,-4 -25,-4 -34,-3l-2 1c-1,-7 -5,-1 -6,-2 -1,-6 3,-3 2,-10 3,-5 2,10 5,5 2,-15 6,5 6,-8 2,1 0,5 1,10 5,-1 10,-3 14,0l1 0c4,3 3,-5 4,-7 3,2 6,15 13,10 2,-4 5,-5 7,-8 4,24 -5,11 -11,12zm-54 -5c-7,7 -14,-7 -23,1l-2 1c-13,-6 -34,-7 -49,-6l0 -7c13,-5 22,9 33,-6 4,6 15,19 17,3 7,18 19,-2 25,11 1,-3 2,-5 5,-5 1,3 2,3 2,6 -3,8 -3,6 -8,2zm-139 -11c-2,-9 2,-6 4,-7l3 0c1,2 2,3 2,6 -2,7 -6,-7 -9,1zm481 65l1 9c-1,0 -2,1 -2,4 -1,-1 -1,-6 0,-7 -1,-6 -4,5 -7,2 -1,-7 1,-6 3,-7 1,0 0,-4 0,-7 3,-3 3,6 5,6zm60 -20c-3,1 4,8 -2,7 1,7 5,0 8,2 0,2 -1,3 -1,6 -3,4 -3,-3 -6,-2l-1 1c0,-11 -3,-5 -2,0 -2,0 -2,-8 -4,-5 0,3 1,3 1,6 -3,1 -8,-18 -6,1l-3 1c-1,-6 1,-7 0,-13 6,-8 12,8 16,-7 2,-1 2,4 0,3zm-78 -5c-1,6 11,-1 13,7 1,-9 -8,-10 -13,-7zm55 17l-6 1c-2,-4 -6,-1 -7,-5 -3,1 -6,0 -8,-4 3,-5 8,8 9,-2 -5,-3 -10,-7 -16,-7 0,5 0,9 2,13 -1,1 -1,3 -1,6 -5,4 0,-6 -3,-5 -1,-7 -5,0 -8,-2 -4,2 -7,-2 -10,-4 -6,4 -9,-3 -15,0 0,-6 1,-8 4,-7 -2,-4 -5,-6 -7,-12 14,-3 28,12 37,2 3,2 2,9 4,2 2,0 3,4 5,3 2,0 3,8 6,5 0,-4 0,-6 1,-7l-1 -3 3 -1c4,2 5,9 6,12 3,0 7,-11 6,2 -1,5 -5,5 -1,13zm-1523 -31c-4,1 -8,2 -10,-5 1,-2 1,-3 2,-3 0,-1 0,-1 0,-3 1,-1 1,-4 4,-3 0,4 1,4 3,3 2,-1 12,-1 15,3 -3,9 -9,-4 -14,1 -1,-1 -3,-1 -4,0 1,0 2,0 2,1 1,3 2,3 2,6zm-34 -13c0,6 -4,1 -5,3 -3,-2 -9,4 -10,-3 3,-8 11,-2 15,0zm-17 -3c-4,5 -14,5 -18,0 3,-3 12,1 18,0zm80 -36c-2,-2 -7,4 -7,-3l1 0c3,-6 6,2 11,0 0,7 -4,1 -5,3zm-101 39l-10 0c0,-12 10,-7 10,0zm110 -1c1,5 1,7 2,9l0 4c0,5 -6,-10 -6,4 -3,-9 -12,7 -13,-7 2,1 2,-7 0,-7 2,-9 2,11 3,9 4,3 2,-7 1,-13 6,7 7,4 13,1zm-13 -25c-1,-10 2,-6 4,-6l5 -1c-1,7 -3,9 -5,10 0,-5 -3,-3 -4,-3zm-1 -35c3,2 4,-2 7,-3 1,12 -8,15 -7,3zm-32 0l-16 1 -8 0c-12,-1 -19,-9 -2,-7l10 0c9,-1 17,1 25,3 4,0 8,0 9,6 -5,-2 -14,5 -18,-3zm4 26l5 0 3 0c1,6 -3,1 -5,3 1,16 7,-5 9,6 0,0 1,0 1,3l-11 0c0,-14 -7,5 -4,-9l-5 0c1,-7 5,-2 7,-3zm-88 -25c1,1 2,0 2,4 6,1 13,-5 17,2l20 0c-4,8 -14,1 -20,4l0 -4 -11 1 -7 0c-5,1 -12,-2 -14,-3 -7,-7 5,0 6,0 2,-1 5,-7 7,-4zm968 31l-10 2c-2,1 -4,-2 -4,-5 6,1 -4,-13 2,-10 3,-3 1,15 4,12l9 -2c1,0 1,4 -1,3zm-1005 -17l-3 0c-2,-8 -14,2 -10,-13 4,-6 7,0 12,0 0,-7 4,-1 6,-3 -1,6 -3,6 -4,9 0,4 -1,4 -1,7zm105 20l-5 0c-2,2 -5,-3 -5,3 1,1 2,1 2,4l2 0 6 0 0 -7zm52 16c1,-2 2,-4 3,-4 2,2 7,-4 7,4 -1,0 -4,-2 -4,3l-5 0 -1 0c-2,0 -4,-2 -4,3l-7 0 -6 0c0,-7 -5,-1 -6,-3l-7 0 -5 0 -4 0 -4 0c-5,0 -10,2 -14,-3l-10 0c-5,-2 -12,4 -15,-3 -2,-2 -7,4 -8,-3l-3 0c-4,-2 -12,4 -15,-3l-4 0 -4 0 0 -3 -14 0c-2,2 -3,-2 -4,-3 -1,-2 -2,-7 -2,-12 4,-3 2,13 6,9 3,2 6,5 11,3 0,-7 -3,-10 1,-9 5,-2 -2,-5 -4,-3 -1,-7 3,-2 5,-4l2 0 2 0c0,6 -1,7 -1,13l2 0 7 0c2,-1 4,1 4,-4 -3,-1 -8,6 -7,-9l2 0c3,0 7,2 8,-3 0,6 -1,7 -1,12 2,1 4,-11 5,-3l6 0c0,3 0,4 -1,6l-2 1c-1,0 -9,-2 -6,3l4 0c2,0 4,-2 4,3l12 0 3 0 0 -10 9 0 5 0c2,-1 5,3 4,-6 2,2 5,4 9,3l4 0 0 6c1,0 1,0 1,3l-1 0c0,7 -5,1 -2,10l2 0c1,-1 3,-6 3,0 4,0 5,-6 8,-4l1 0 12 0 0 7 3 0 7 -1c1,8 6,2 9,4zm-88 -53l-6 0 -1 0 -7 0 -8 0c-5,1 -8,-1 -11,-6l-4 0c1,5 -5,5 -5,0 -5,0 -10,-1 -13,-6 2,-8 5,3 9,0 3,2 9,-4 11,3l4 0 4 0 4 0 1 0c4,5 8,-1 10,3l4 0 9 -1 5 0c3,0 6,-1 6,7 -2,4 -10,6 -12,0zm58 18l-5 0 0 -3c5,-1 24,0 11,3l-6 0zm-100 33l-8 0c1,-5 3,-6 6,-6 0,3 2,2 2,6zm457 25c0,-2 1,-3 1,-6 1,-1 1,-3 1,-6l3 0c1,12 -3,9 -5,12zm-5 -15c-1,-11 -7,0 -8,-11 6,7 7,-12 13,-2l0 3c-5,-3 -3,7 -5,10zm10 22l-1 0c1,-7 3,-12 5,-16l4 0c-1,12 -7,4 -8,16zm-32 -27l-2 0c-1,0 -2,-3 -2,-6 2,1 4,-10 6,-1 1,4 1,9 0,10 -1,-4 -3,-8 -2,-3zm39 2c0,-4 -1,-7 -2,-9 1,-2 5,-9 6,-1 -5,8 7,4 3,9l-7 1zm461 -24l-1 0c-6,-6 -1,-4 2,-10 4,5 10,-11 10,8 -4,5 -9,-8 -11,2zm-412 12c3,-6 8,1 11,-9 -1,10 0,9 2,16 -6,-1 -8,0 -13,-7zm119 -4c-1,-10 6,-15 7,-1 0,6 -4,-3 -7,1zm-385 45c1,0 0,4 -1,3l-9 0c2,-9 5,-3 10,-3zm-11 -18c-4,2 -6,-5 -8,-8 2,0 3,1 5,1 -2,-1 -3,-3 -4,-10 4,7 10,0 13,4 0,2 0,4 0,5 1,0 1,0 2,0 2,-5 8,-3 9,0 1,1 1,1 2,1l3 0c0,1 0,1 0,1 1,1 3,3 4,4 -10,-3 -14,4 -26,2zm-20 -20l-3 0 -2 0 -13 0 -4 0 -6 0c-1,0 -1,0 -1,-3l-3 0 -4 0 -7 0 -8 0c-2,-3 -3,-4 -6,-3l-1 0 -1 0c-3,-7 -9,-4 -13,-9 -2,-1 -2,2 -3,6 -4,-1 -6,0 -9,3 1,-6 1,-15 5,-13 -4,15 4,0 7,0l1 0c5,-2 8,3 12,4l13 -1c0,1 1,1 1,4l3 0 4 0c0,-9 1,4 4,0 2,-1 2,4 4,3l3 0c3,4 5,-10 5,3 7,-2 12,2 17,3l4 0c3,-3 8,7 5,10 -4,2 -3,-4 -4,-7zm9 19c-5,0 -9,3 -13,3 0,0 0,0 0,0l8 0 3 0c3,3 5,6 9,7 3,2 3,-7 7,-7l0 4c0,10 -5,1 -4,12 -2,0 -4,1 -4,-3 -2,0 -4,-1 -5,-3 0,-5 -2,-3 -4,-3 -2,-3 -5,-4 -9,-4 -5,3 -6,-4 -11,-3l-6 0c-5,3 -8,4 -15,2l-6 1c-1,-2 -2,-5 -1,-6 -6,5 -12,-7 -15,0 2,5 8,-4 8,8 -3,0 -7,2 -8,-6 0,1 0,1 0,1 0,0 0,0 0,0 -1,0 -1,0 -1,0 -1,1 -1,2 -1,6 0,0 -1,0 -1,0 -1,3 -1,6 -2,1 0,-1 0,-2 0,-2 -2,-1 -3,-1 -4,-2 -1,2 -3,3 -4,-3 1,0 1,0 1,0 0,0 0,-1 -1,-1 0,-3 1,-3 1,-4 1,0 1,0 1,0 0,0 0,0 0,-1l-2 0c1,-3 0,-3 -1,-3 0,-5 1,-6 2,-6 1,2 1,3 1,6 2,0 3,-4 4,-3 2,0 3,1 3,3l1 0c2,-6 4,-1 7,0l3 0 3 0c1,-12 3,-1 7,-3 0,0 1,0 1,2 0,0 0,0 0,0 0,0 0,1 0,1l3 0c0,1 0,2 0,3 0,0 1,1 1,1 3,1 5,1 7,0 1,-1 2,-2 4,-1 3,-2 5,-3 10,0l0 0c0,0 0,0 1,0 0,0 0,0 0,0 2,-12 12,6 15,-9 2,5 4,6 6,5 1,6 4,2 5,9 -2,1 -3,-1 -4,-2zm169 -16c5,-1 10,-2 13,4 -5,13 -6,4 -13,-4zm3 17c-1,1 -1,4 -2,7l3 0c0,7 -5,1 -7,3l-11 0c-1,0 -1,-2 -1,-4 3,-4 7,-4 10,1l0 -4c4,4 6,-14 8,-3zm-103 28c3,-4 3,1 7,0 6,2 -7,7 -7,0zm36 -33l1 3c-2,3 -10,6 -11,-4l1 0c3,-1 7,-2 7,-8 3,0 15,4 10,7l-8 2zm16 -13c4,2 10,12 6,18l-6 -18zm1167 69c-3,5 -1,11 3,9l1 3c-2,3 0,10 -4,4 0,-5 -6,-13 -6,-5l-1 0c-1,-4 -4,-6 -6,-5 3,-9 9,2 13,-6zm-1695 -153c3,-1 8,-6 9,6 -3,0 -8,2 -9,-6zm-29 1c-2,-1 -6,5 -5,-6l7 0c0,3 1,2 2,3 -1,5 -2,7 -4,3zm43 -1c7,1 15,-3 19,9l-7 0c-4,2 -10,5 -12,-9zm-135 175c1,4 0,5 0,10l-1 0c-2,-3 -3,-8 -6,-8 -2,-12 6,-5 8,-8 1,5 0,6 -1,6zm180 -129c0,7 -5,1 -6,3 -1,-9 -9,3 -10,-6 5,-14 8,7 16,3zm62 4c1,3 3,4 5,3l2 0c0,3 -1,3 -1,7 -4,0 -17,-11 -6,-10zm-47 -24c-1,-7 -6,-1 -9,-3 -2,2 -5,7 -5,-6 -1,-9 -3,2 -4,3l-4 1c2,-8 -1,-7 -3,-13 7,5 16,2 22,6 1,5 8,2 5,12l-2 0zm44 -13c3,-1 7,1 4,-7 2,2 5,2 6,6 -3,3 2,5 2,10 -4,-3 -12,-5 -12,-9zm5 31l0 -6c-2,-3 -3,9 -4,0 0,-5 -3,-4 -2,3 -3,1 -2,-6 -5,-3l-1 -13c3,6 9,0 12,6 4,0 7,1 9,6l0 4 -1 0c0,7 -6,1 -8,3zm-121 -22c1,1 1,4 2,7l2 -1c3,5 8,3 12,3 1,0 1,3 2,3 1,-3 4,-3 6,-3 2,1 5,1 5,9 -2,-2 -6,4 -6,-3l-4 0c0,6 -7,6 -8,1 -6,-3 -17,3 -24,-6 1,0 2,-2 2,-3 2,-6 4,3 8,0 0,-4 2,-2 1,-7l2 0z"/>
 </g>
</svg>
